%TF.GenerationSoftware,KiCad,Pcbnew,7.0.7*%
%TF.CreationDate,2024-05-24T10:33:18-04:00*%
%TF.ProjectId,pi-pico-adapter3,70692d70-6963-46f2-9d61-646170746572,rev?*%
%TF.SameCoordinates,PX791ddc0PY791ddc0*%
%TF.FileFunction,Copper,L1,Top*%
%TF.FilePolarity,Positive*%
%FSLAX46Y46*%
G04 Gerber Fmt 4.6, Leading zero omitted, Abs format (unit mm)*
G04 Created by KiCad (PCBNEW 7.0.7) date 2024-05-24 10:33:18*
%MOMM*%
%LPD*%
G01*
G04 APERTURE LIST*
%TA.AperFunction,ComponentPad*%
%ADD10C,1.600000*%
%TD*%
%TA.AperFunction,ComponentPad*%
%ADD11C,1.400000*%
%TD*%
%TA.AperFunction,ComponentPad*%
%ADD12O,1.400000X1.400000*%
%TD*%
%TA.AperFunction,ComponentPad*%
%ADD13R,1.600000X1.600000*%
%TD*%
%TA.AperFunction,ComponentPad*%
%ADD14O,1.600000X1.600000*%
%TD*%
%TA.AperFunction,ComponentPad*%
%ADD15R,1.700000X1.700000*%
%TD*%
%TA.AperFunction,ComponentPad*%
%ADD16O,1.700000X1.700000*%
%TD*%
%TA.AperFunction,SMDPad,CuDef*%
%ADD17R,1.700000X3.500000*%
%TD*%
%TA.AperFunction,SMDPad,CuDef*%
%ADD18R,3.500000X1.700000*%
%TD*%
%TA.AperFunction,ViaPad*%
%ADD19C,0.700001*%
%TD*%
%TA.AperFunction,Conductor*%
%ADD20C,0.406400*%
%TD*%
%TA.AperFunction,Conductor*%
%ADD21C,0.609600*%
%TD*%
%TA.AperFunction,Conductor*%
%ADD22C,0.812800*%
%TD*%
G04 APERTURE END LIST*
D10*
%TO.P,C4,1*%
%TO.N,Net-(U1B-+)*%
X47930000Y33350000D03*
X47930000Y34600000D03*
%TO.P,C4,2*%
%TO.N,GND*%
X47930000Y37100000D03*
X47930000Y38350000D03*
%TD*%
%TO.P,C6,1*%
%TO.N,Net-(RDACA1-common)*%
X26340000Y79070000D03*
X27590000Y79070000D03*
%TO.P,C6,2*%
%TO.N,GND*%
X30090000Y79070000D03*
X31340000Y79070000D03*
%TD*%
D11*
%TO.P,R5,1*%
%TO.N,Net-(U1D--)*%
X28880000Y47320000D03*
D12*
%TO.P,R5,2*%
%TO.N,GND*%
X21260000Y47320000D03*
%TD*%
D11*
%TO.P,R9,1*%
%TO.N,/IAWGB*%
X-11760000Y48590000D03*
D12*
%TO.P,R9,2*%
%TO.N,Net-(U2C--)*%
X-4140000Y48590000D03*
%TD*%
D11*
%TO.P,R16,1*%
%TO.N,Net-(U1C-+)*%
X12370000Y43510000D03*
D12*
%TO.P,R16,2*%
%TO.N,Net-(J1-Pin_5)*%
X12370000Y35890000D03*
%TD*%
D13*
%TO.P,U2,1*%
%TO.N,/IAWGA*%
X-13030000Y67640000D03*
D14*
%TO.P,U2,2,-*%
%TO.N,Net-(U2A--)*%
X-13030000Y65100000D03*
%TO.P,U2,3,+*%
%TO.N,/VCM*%
X-13030000Y62560000D03*
%TO.P,U2,4,V+*%
%TO.N,/VSYS*%
X-13030000Y60020000D03*
%TO.P,U2,5,+*%
%TO.N,Net-(RDACA1-common)*%
X-13030000Y57480000D03*
%TO.P,U2,6,-*%
%TO.N,/AWGA*%
X-13030000Y54940000D03*
%TO.P,U2,7*%
X-13030000Y52400000D03*
%TO.P,U2,8*%
%TO.N,/IAWGB*%
X-5410000Y52400000D03*
%TO.P,U2,9,-*%
%TO.N,Net-(U2C--)*%
X-5410000Y54940000D03*
%TO.P,U2,10,+*%
%TO.N,/VCM*%
X-5410000Y57480000D03*
%TO.P,U2,11,V-*%
%TO.N,GND*%
X-5410000Y60020000D03*
%TO.P,U2,12,+*%
%TO.N,Net-(RDACB1-common)*%
X-5410000Y62560000D03*
%TO.P,U2,13,-*%
%TO.N,/AWGB*%
X-5410000Y65100000D03*
%TO.P,U2,14*%
X-5410000Y67640000D03*
%TD*%
D15*
%TO.P,J1,1,Pin_1*%
%TO.N,/3V3*%
X25070000Y29540000D03*
D16*
%TO.P,J1,2,Pin_2*%
%TO.N,Net-(J1-Pin_2)*%
X22530000Y29540000D03*
%TO.P,J1,3,Pin_3*%
%TO.N,Net-(J1-Pin_3)*%
X19990000Y29540000D03*
%TO.P,J1,4,Pin_4*%
%TO.N,/VCM*%
X17450000Y29540000D03*
%TO.P,J1,5,Pin_5*%
%TO.N,Net-(J1-Pin_5)*%
X14910000Y29540000D03*
%TO.P,J1,6,Pin_6*%
%TO.N,GND*%
X12370000Y29540000D03*
%TD*%
D11*
%TO.P,R19,1*%
%TO.N,/3V3*%
X40310000Y30810000D03*
D12*
%TO.P,R19,2*%
%TO.N,Net-(U1B-+)*%
X47930000Y30810000D03*
%TD*%
D15*
%TO.P,J3,1,Pin_1*%
%TO.N,/IAWGB*%
X-24460000Y79070000D03*
D16*
%TO.P,J3,2,Pin_2*%
%TO.N,GND*%
X-24460000Y76530000D03*
%TO.P,J3,3,Pin_3*%
%TO.N,/AWGB*%
X-24460000Y73990000D03*
%TO.P,J3,4,Pin_4*%
%TO.N,GND*%
X-24460000Y71450000D03*
%TO.P,J3,5,Pin_5*%
%TO.N,/IAWGA*%
X-24460000Y68910000D03*
%TO.P,J3,6,Pin_6*%
%TO.N,GND*%
X-24460000Y66370000D03*
%TO.P,J3,7,Pin_7*%
%TO.N,/AWGA*%
X-24460000Y63830000D03*
%TO.P,J3,8,Pin_8*%
%TO.N,GND*%
X-24460000Y61290000D03*
%TD*%
D11*
%TO.P,R8,1*%
%TO.N,/AWGB*%
X-2870000Y60020000D03*
D12*
%TO.P,R8,2*%
%TO.N,Net-(U2C--)*%
X-2870000Y52400000D03*
%TD*%
D11*
%TO.P,R2,1*%
%TO.N,/IAWGB*%
X-16840000Y52400000D03*
D12*
%TO.P,R2,2*%
%TO.N,GND*%
X-24460000Y52400000D03*
%TD*%
D11*
%TO.P,R4,1*%
%TO.N,/IAWGA*%
X-18110000Y67640000D03*
D12*
%TO.P,R4,2*%
%TO.N,GND*%
X-18110000Y75260000D03*
%TD*%
D10*
%TO.P,C3,1*%
%TO.N,Net-(J5-Pin_2)*%
X-5410000Y34700000D03*
X-5410000Y35950000D03*
%TO.P,C3,2*%
%TO.N,Net-(J5-Pin_3)*%
X-5410000Y38450000D03*
X-5410000Y39700000D03*
%TD*%
D11*
%TO.P,R17,1*%
%TO.N,Net-(U1C-+)*%
X16180000Y43510000D03*
D12*
%TO.P,R17,2*%
%TO.N,Net-(J1-Pin_3)*%
X16180000Y35890000D03*
%TD*%
D15*
%TO.P,J5,1,Pin_1*%
%TO.N,/3V3*%
X-10490000Y29540000D03*
D16*
%TO.P,J5,2,Pin_2*%
%TO.N,Net-(J5-Pin_2)*%
X-13030000Y29540000D03*
%TO.P,J5,3,Pin_3*%
%TO.N,Net-(J5-Pin_3)*%
X-15570000Y29540000D03*
%TO.P,J5,4,Pin_4*%
%TO.N,/VCM*%
X-18110000Y29540000D03*
%TO.P,J5,5,Pin_5*%
%TO.N,Net-(J5-Pin_5)*%
X-20650000Y29540000D03*
%TO.P,J5,6,Pin_6*%
%TO.N,GND*%
X-23190000Y29540000D03*
%TD*%
D10*
%TO.P,C2,1*%
%TO.N,Net-(J2-Pin_2)*%
X7290000Y34620000D03*
X7290000Y35870000D03*
%TO.P,C2,2*%
%TO.N,Net-(J2-Pin_3)*%
X7290000Y38370000D03*
X7290000Y39620000D03*
%TD*%
D11*
%TO.P,R11,1*%
%TO.N,/IAWGA*%
X-15570000Y67640000D03*
D12*
%TO.P,R11,2*%
%TO.N,Net-(U2A--)*%
X-15570000Y60020000D03*
%TD*%
D10*
%TO.P,C1,1*%
%TO.N,Net-(J1-Pin_2)*%
X19990000Y34700000D03*
X19990000Y35950000D03*
%TO.P,C1,2*%
%TO.N,Net-(J1-Pin_3)*%
X19990000Y38450000D03*
X19990000Y39700000D03*
%TD*%
D16*
%TO.P,U3,1,GPIO0*%
%TO.N,Net-(RDACA1-R8)*%
X49200000Y70180000D03*
D17*
X49200000Y71080000D03*
D16*
%TO.P,U3,2,GPIO1*%
%TO.N,Net-(RDACA1-R7)*%
X46660000Y70180000D03*
D17*
X46660000Y71080000D03*
D15*
%TO.P,U3,3,GND*%
%TO.N,GND*%
X44120000Y70180000D03*
D17*
X44120000Y71080000D03*
D16*
%TO.P,U3,4,GPIO2*%
%TO.N,Net-(RDACA1-R6)*%
X41580000Y70180000D03*
D17*
X41580000Y71080000D03*
D16*
%TO.P,U3,5,GPIO3*%
%TO.N,Net-(RDACA1-R5)*%
X39040000Y70180000D03*
D17*
X39040000Y71080000D03*
D16*
%TO.P,U3,6,GPIO4*%
%TO.N,Net-(RDACA1-R4)*%
X36500000Y70180000D03*
D17*
X36500000Y71080000D03*
D16*
%TO.P,U3,7,GPIO5*%
%TO.N,Net-(RDACA1-R3)*%
X33960000Y70180000D03*
D17*
X33960000Y71080000D03*
D15*
%TO.P,U3,8,GND*%
%TO.N,GND*%
X31420000Y70180000D03*
D17*
X31420000Y71080000D03*
D16*
%TO.P,U3,9,GPIO6*%
%TO.N,Net-(RDACA1-R2)*%
X28880000Y70180000D03*
D17*
X28880000Y71080000D03*
D16*
%TO.P,U3,10,GPIO7*%
%TO.N,Net-(RDACA1-R1)*%
X26340000Y70180000D03*
D17*
X26340000Y71080000D03*
D16*
%TO.P,U3,11,GPIO8*%
%TO.N,Net-(RDACB1-R8)*%
X23800000Y70180000D03*
D17*
X23800000Y71080000D03*
D16*
%TO.P,U3,12,GPIO9*%
%TO.N,Net-(RDACB1-R7)*%
X21260000Y70180000D03*
D17*
X21260000Y71080000D03*
D15*
%TO.P,U3,13,GND*%
%TO.N,GND*%
X18720000Y70180000D03*
D17*
X18720000Y71080000D03*
D16*
%TO.P,U3,14,GPIO10*%
%TO.N,Net-(RDACB1-R6)*%
X16180000Y70180000D03*
D17*
X16180000Y71080000D03*
D16*
%TO.P,U3,15,GPIO11*%
%TO.N,Net-(RDACB1-R5)*%
X13640000Y70180000D03*
D17*
X13640000Y71080000D03*
D16*
%TO.P,U3,16,GPIO12*%
%TO.N,Net-(RDACB1-R4)*%
X11100000Y70180000D03*
D17*
X11100000Y71080000D03*
D16*
%TO.P,U3,17,GPIO13*%
%TO.N,Net-(RDACB1-R3)*%
X8560000Y70180000D03*
D17*
X8560000Y71080000D03*
D15*
%TO.P,U3,18,GND*%
%TO.N,GND*%
X6020000Y70180000D03*
D17*
X6020000Y71080000D03*
D16*
%TO.P,U3,19,GPIO14*%
%TO.N,Net-(RDACB1-R2)*%
X3480000Y70180000D03*
D17*
X3480000Y71080000D03*
D16*
%TO.P,U3,20,GPIO15*%
%TO.N,Net-(RDACB1-R1)*%
X940000Y70180000D03*
D17*
X940000Y71080000D03*
D16*
%TO.P,U3,21,GPIO16*%
%TO.N,Net-(J4-Pin_1)*%
X940000Y52400000D03*
D17*
X940000Y51500000D03*
D16*
%TO.P,U3,22,GPIO17*%
%TO.N,Net-(J4-Pin_2)*%
X3480000Y52400000D03*
D17*
X3480000Y51500000D03*
D15*
%TO.P,U3,23,GND*%
%TO.N,GND*%
X6020000Y52400000D03*
D17*
X6020000Y51500000D03*
D16*
%TO.P,U3,24,GPIO18*%
%TO.N,Net-(J4-Pin_4)*%
X8560000Y52400000D03*
D17*
X8560000Y51500000D03*
D16*
%TO.P,U3,25,GPIO19*%
%TO.N,Net-(J4-Pin_5)*%
X11100000Y52400000D03*
D17*
X11100000Y51500000D03*
D16*
%TO.P,U3,26,GPIO20*%
%TO.N,Net-(J4-Pin_6)*%
X13640000Y52400000D03*
D17*
X13640000Y51500000D03*
D16*
%TO.P,U3,27,GPIO21*%
%TO.N,Net-(J4-Pin_7)*%
X16180000Y52400000D03*
D17*
X16180000Y51500000D03*
D15*
%TO.P,U3,28,GND*%
%TO.N,GND*%
X18720000Y52400000D03*
D17*
X18720000Y51500000D03*
D16*
%TO.P,U3,29,GPIO22*%
%TO.N,/PWMOUT*%
X21260000Y52400000D03*
D17*
X21260000Y51500000D03*
D16*
%TO.P,U3,30,RUN*%
%TO.N,unconnected-(U3-RUN-Pad30)*%
X23800000Y52400000D03*
D17*
X23800000Y51500000D03*
D16*
%TO.P,U3,31,GPIO26_ADC0*%
%TO.N,Net-(U1D--)*%
X26340000Y52400000D03*
D17*
X26340000Y51500000D03*
D16*
%TO.P,U3,32,GPIO27_ADC1*%
%TO.N,Net-(U1A--)*%
X28880000Y52400000D03*
D17*
X28880000Y51500000D03*
D15*
%TO.P,U3,33,AGND*%
%TO.N,GND*%
X31420000Y52400000D03*
D17*
X31420000Y51500000D03*
D16*
%TO.P,U3,34,GPIO28_ADC2*%
%TO.N,Net-(U1C--)*%
X33960000Y52400000D03*
D17*
X33960000Y51500000D03*
D16*
%TO.P,U3,35,ADC_VREF*%
%TO.N,unconnected-(U3-ADC_VREF-Pad35)*%
X36500000Y52400000D03*
D17*
X36500000Y51500000D03*
D16*
%TO.P,U3,36,3V3*%
%TO.N,/3V3*%
X39040000Y52400000D03*
D17*
X39040000Y51500000D03*
D16*
%TO.P,U3,37,3V3_EN*%
%TO.N,unconnected-(U3-3V3_EN-Pad37)*%
X41580000Y52400000D03*
D17*
X41580000Y51500000D03*
D15*
%TO.P,U3,38,GND*%
%TO.N,GND*%
X44120000Y52400000D03*
D17*
X44120000Y51500000D03*
D16*
%TO.P,U3,39,VSYS*%
%TO.N,/VSYS*%
X46660000Y52400000D03*
D17*
X46660000Y51500000D03*
D16*
%TO.P,U3,40,VBUS*%
%TO.N,unconnected-(U3-VBUS-Pad40)*%
X49200000Y52400000D03*
D17*
X49200000Y51500000D03*
D16*
%TO.P,U3,41,SWCLK*%
%TO.N,unconnected-(U3-SWCLK-Pad41)*%
X1170000Y63830000D03*
D18*
X270000Y63830000D03*
D15*
%TO.P,U3,42,GND*%
%TO.N,unconnected-(U3-GND-Pad42)*%
X1170000Y61290000D03*
D18*
X270000Y61290000D03*
D16*
%TO.P,U3,43,SWDIO*%
%TO.N,unconnected-(U3-SWDIO-Pad43)*%
X1170000Y58750000D03*
D18*
X270000Y58750000D03*
%TD*%
D11*
%TO.P,R6,1*%
%TO.N,Net-(U1A--)*%
X23800000Y34620000D03*
D12*
%TO.P,R6,2*%
%TO.N,GND*%
X31420000Y34620000D03*
%TD*%
D10*
%TO.P,C5,1*%
%TO.N,Net-(RDACB1-common)*%
X-290000Y79070000D03*
X960000Y79070000D03*
%TO.P,C5,2*%
%TO.N,GND*%
X3460000Y79070000D03*
X4710000Y79070000D03*
%TD*%
%TO.P,C7,1*%
%TO.N,GND*%
X47930000Y40970000D03*
X47930000Y42220000D03*
%TO.P,C7,2*%
%TO.N,/VSYS*%
X47930000Y44720000D03*
X47930000Y45970000D03*
%TD*%
D11*
%TO.P,R18,1*%
%TO.N,GND*%
X44120000Y40970000D03*
D12*
%TO.P,R18,2*%
%TO.N,Net-(U1B-+)*%
X44120000Y33350000D03*
%TD*%
D11*
%TO.P,R1,1*%
%TO.N,/AWGB*%
X-5410000Y71450000D03*
D12*
%TO.P,R1,2*%
%TO.N,GND*%
X-5410000Y79070000D03*
%TD*%
D11*
%TO.P,R14,1*%
%TO.N,Net-(U1A-+)*%
X-330000Y42240000D03*
D12*
%TO.P,R14,2*%
%TO.N,Net-(J2-Pin_5)*%
X-330000Y34620000D03*
%TD*%
D13*
%TO.P,U1,1*%
%TO.N,Net-(U1A--)*%
X25070000Y37160000D03*
D14*
%TO.P,U1,2,-*%
X27610000Y37160000D03*
%TO.P,U1,3,+*%
%TO.N,Net-(U1A-+)*%
X30150000Y37160000D03*
%TO.P,U1,4,V+*%
%TO.N,/VSYS*%
X32690000Y37160000D03*
%TO.P,U1,5,+*%
%TO.N,Net-(U1B-+)*%
X35230000Y37160000D03*
%TO.P,U1,6,-*%
%TO.N,/VCM*%
X37770000Y37160000D03*
%TO.P,U1,7*%
X40310000Y37160000D03*
%TO.P,U1,8*%
%TO.N,Net-(U1C--)*%
X40310000Y44780000D03*
%TO.P,U1,9,-*%
X37770000Y44780000D03*
%TO.P,U1,10,+*%
%TO.N,Net-(U1C-+)*%
X35230000Y44780000D03*
%TO.P,U1,11,V-*%
%TO.N,GND*%
X32690000Y44780000D03*
%TO.P,U1,12,+*%
%TO.N,Net-(U1D-+)*%
X30150000Y44780000D03*
%TO.P,U1,13,-*%
%TO.N,Net-(U1D--)*%
X27610000Y44780000D03*
%TO.P,U1,14*%
X25070000Y44780000D03*
%TD*%
D11*
%TO.P,R10,1*%
%TO.N,/AWGA*%
X-18110000Y57480000D03*
D12*
%TO.P,R10,2*%
%TO.N,Net-(U2A--)*%
X-18110000Y65100000D03*
%TD*%
D11*
%TO.P,R12,1*%
%TO.N,Net-(U1D-+)*%
X-13030000Y42320000D03*
D12*
%TO.P,R12,2*%
%TO.N,Net-(J5-Pin_5)*%
X-13030000Y34700000D03*
%TD*%
D13*
%TO.P,RDACA1,1,common*%
%TO.N,Net-(RDACA1-common)*%
X26340000Y75260000D03*
D14*
%TO.P,RDACA1,2,R1*%
%TO.N,Net-(RDACA1-R1)*%
X28880000Y75260000D03*
%TO.P,RDACA1,3,R2*%
%TO.N,Net-(RDACA1-R2)*%
X31420000Y75260000D03*
%TO.P,RDACA1,4,R3*%
%TO.N,Net-(RDACA1-R3)*%
X33960000Y75260000D03*
%TO.P,RDACA1,5,R4*%
%TO.N,Net-(RDACA1-R4)*%
X36500000Y75260000D03*
%TO.P,RDACA1,6,R5*%
%TO.N,Net-(RDACA1-R5)*%
X39040000Y75260000D03*
%TO.P,RDACA1,7,R6*%
%TO.N,Net-(RDACA1-R6)*%
X41580000Y75260000D03*
%TO.P,RDACA1,8,R7*%
%TO.N,Net-(RDACA1-R7)*%
X44120000Y75260000D03*
%TO.P,RDACA1,9,R8*%
%TO.N,Net-(RDACA1-R8)*%
X46660000Y75260000D03*
%TO.P,RDACA1,10,R9*%
%TO.N,GND*%
X49200000Y75260000D03*
%TD*%
D11*
%TO.P,R13,1*%
%TO.N,Net-(U1D-+)*%
X-9220000Y42320000D03*
D12*
%TO.P,R13,2*%
%TO.N,Net-(J5-Pin_3)*%
X-9220000Y34700000D03*
%TD*%
D11*
%TO.P,R15,1*%
%TO.N,Net-(U1A-+)*%
X3480000Y42240000D03*
D12*
%TO.P,R15,2*%
%TO.N,Net-(J2-Pin_3)*%
X3480000Y34620000D03*
%TD*%
D11*
%TO.P,R3,1*%
%TO.N,/AWGA*%
X-16840000Y54940000D03*
D12*
%TO.P,R3,2*%
%TO.N,GND*%
X-24460000Y54940000D03*
%TD*%
D11*
%TO.P,R7,1*%
%TO.N,Net-(U1C--)*%
X35230000Y47320000D03*
D12*
%TO.P,R7,2*%
%TO.N,GND*%
X42850000Y47320000D03*
%TD*%
D15*
%TO.P,J2,1,Pin_1*%
%TO.N,/3V3*%
X7290000Y29540000D03*
D16*
%TO.P,J2,2,Pin_2*%
%TO.N,Net-(J2-Pin_2)*%
X4750000Y29540000D03*
%TO.P,J2,3,Pin_3*%
%TO.N,Net-(J2-Pin_3)*%
X2210000Y29540000D03*
%TO.P,J2,4,Pin_4*%
%TO.N,/VCM*%
X-330000Y29540000D03*
%TO.P,J2,5,Pin_5*%
%TO.N,Net-(J2-Pin_5)*%
X-2870000Y29540000D03*
%TO.P,J2,6,Pin_6*%
%TO.N,GND*%
X-5410000Y29540000D03*
%TD*%
D15*
%TO.P,J4,1,Pin_1*%
%TO.N,Net-(J4-Pin_1)*%
X-330000Y47320000D03*
D16*
%TO.P,J4,2,Pin_2*%
%TO.N,Net-(J4-Pin_2)*%
X2210000Y47320000D03*
%TO.P,J4,3,Pin_3*%
%TO.N,GND*%
X4750000Y47320000D03*
%TO.P,J4,4,Pin_4*%
%TO.N,Net-(J4-Pin_4)*%
X7290000Y47320000D03*
%TO.P,J4,5,Pin_5*%
%TO.N,Net-(J4-Pin_5)*%
X9830000Y47320000D03*
%TO.P,J4,6,Pin_6*%
%TO.N,Net-(J4-Pin_6)*%
X12370000Y47320000D03*
%TO.P,J4,7,Pin_7*%
%TO.N,Net-(J4-Pin_7)*%
X14910000Y47320000D03*
%TO.P,J4,8,Pin_8*%
%TO.N,/PWMOUT*%
X17450000Y47320000D03*
%TD*%
D13*
%TO.P,RDACB1,1,common*%
%TO.N,Net-(RDACB1-common)*%
X-330000Y75260000D03*
D14*
%TO.P,RDACB1,2,R1*%
%TO.N,Net-(RDACB1-R1)*%
X2210000Y75260000D03*
%TO.P,RDACB1,3,R2*%
%TO.N,Net-(RDACB1-R2)*%
X4750000Y75260000D03*
%TO.P,RDACB1,4,R3*%
%TO.N,Net-(RDACB1-R3)*%
X7290000Y75260000D03*
%TO.P,RDACB1,5,R4*%
%TO.N,Net-(RDACB1-R4)*%
X9830000Y75260000D03*
%TO.P,RDACB1,6,R5*%
%TO.N,Net-(RDACB1-R5)*%
X12370000Y75260000D03*
%TO.P,RDACB1,7,R6*%
%TO.N,Net-(RDACB1-R6)*%
X14910000Y75260000D03*
%TO.P,RDACB1,8,R7*%
%TO.N,Net-(RDACB1-R7)*%
X17450000Y75260000D03*
%TO.P,RDACB1,9,R8*%
%TO.N,Net-(RDACB1-R8)*%
X19990000Y75260000D03*
%TO.P,RDACB1,10,R9*%
%TO.N,GND*%
X22530000Y75260000D03*
%TD*%
D19*
%TO.N,Net-(RDACA1-common)*%
X-2870000Y77800000D03*
%TO.N,/3V3*%
X9830000Y39700000D03*
X-2870000Y39700000D03*
X-2870000Y44780000D03*
X9830000Y44780000D03*
%TO.N,/VCM*%
X-6680000Y42240000D03*
%TO.N,/IAWGB*%
X-10490000Y70180000D03*
X-10490000Y72720000D03*
%TD*%
D20*
%TO.N,GND*%
X6020000Y52400000D02*
X6020000Y49860000D01*
X4750000Y48590000D02*
X4750000Y47320000D01*
X6020000Y49860000D02*
X4750000Y48590000D01*
%TO.N,Net-(J1-Pin_2)*%
X22530000Y32080000D02*
X22530000Y29540000D01*
X19990000Y34700000D02*
X19990000Y34620000D01*
X19990000Y34620000D02*
X22530000Y32080000D01*
%TO.N,Net-(J1-Pin_3)*%
X16180000Y34620000D02*
X19990000Y30810000D01*
X19990000Y39700000D02*
X17450000Y39700000D01*
X16180000Y38430000D02*
X16180000Y35890000D01*
X16180000Y35890000D02*
X16180000Y34620000D01*
X17450000Y39700000D02*
X16180000Y38430000D01*
X19990000Y30810000D02*
X19990000Y29540000D01*
%TO.N,Net-(U1A-+)*%
X22530000Y42240000D02*
X23800000Y40970000D01*
X-330000Y42240000D02*
X3480000Y42240000D01*
X28880000Y40970000D02*
X30150000Y39700000D01*
X23800000Y40970000D02*
X28880000Y40970000D01*
X30150000Y39700000D02*
X30150000Y37160000D01*
X3480000Y42240000D02*
X22530000Y42240000D01*
D21*
%TO.N,Net-(RDACB1-common)*%
X-330000Y79030000D02*
X-290000Y79070000D01*
X-2870000Y72720000D02*
X-2870000Y65100000D01*
X-330000Y75260000D02*
X-2870000Y72720000D01*
X-2870000Y65100000D02*
X-5410000Y62560000D01*
D20*
%TO.N,Net-(RDACA1-common)*%
X8560000Y77800000D02*
X9830000Y79070000D01*
X-2870000Y77800000D02*
X8560000Y77800000D01*
X26340000Y75260000D02*
X26340000Y79070000D01*
X9830000Y79070000D02*
X26340000Y79070000D01*
%TO.N,/3V3*%
X-5410000Y32080000D02*
X-2870000Y34620000D01*
X-6680000Y32080000D02*
X-5410000Y32080000D01*
X8560000Y29540000D02*
X9830000Y30810000D01*
X-1600000Y48590000D02*
X-1600000Y52400000D01*
X7290000Y29540000D02*
X8560000Y29540000D01*
X-2870000Y34620000D02*
X-2870000Y39700000D01*
X-10490000Y29540000D02*
X-9220000Y29540000D01*
D22*
X34595000Y33350000D02*
X30785000Y29540000D01*
D20*
X940000Y54940000D02*
X37770000Y54940000D01*
D22*
X40310000Y30810000D02*
X37770000Y33350000D01*
D20*
X39040000Y53670000D02*
X39040000Y52400000D01*
D22*
X30785000Y29540000D02*
X25070000Y29540000D01*
D20*
X-9220000Y29540000D02*
X-6680000Y32080000D01*
X9830000Y30810000D02*
X9830000Y39700000D01*
X-2870000Y44780000D02*
X9830000Y44780000D01*
X-1600000Y52400000D02*
X940000Y54940000D01*
D22*
X37770000Y33350000D02*
X34595000Y33350000D01*
D20*
X-2870000Y47320000D02*
X-1600000Y48590000D01*
X37770000Y54940000D02*
X39040000Y53670000D01*
X-2870000Y44780000D02*
X-2870000Y47320000D01*
%TO.N,/VCM*%
X14910000Y33350000D02*
X17450000Y30810000D01*
X17450000Y30810000D02*
X17450000Y29540000D01*
X22530000Y34329839D02*
X22530000Y39700000D01*
X14910000Y40970000D02*
X2210000Y40970000D01*
X40310000Y37160000D02*
X37770000Y37160000D01*
X35230000Y34620000D02*
X33960000Y34620000D01*
X37770000Y37160000D02*
X35230000Y34620000D01*
X-7950000Y57480000D02*
X-5410000Y57480000D01*
X-16840000Y33350000D02*
X-18110000Y32080000D01*
X-11760000Y34409839D02*
X-12819839Y33350000D01*
X2210000Y40970000D02*
X2210000Y34620000D01*
X14910000Y40970000D02*
X14910000Y33350000D01*
X-13030000Y62560000D02*
X-7950000Y57480000D01*
X33960000Y34620000D02*
X31420000Y32080000D01*
X2210000Y40970000D02*
X-6680000Y40970000D01*
X-18110000Y32080000D02*
X-18110000Y29540000D01*
X-330000Y32080000D02*
X2210000Y34620000D01*
X21260000Y40970000D02*
X14910000Y40970000D01*
X-6680000Y40970000D02*
X-6680000Y42240000D01*
X-11760000Y39700000D02*
X-11760000Y34409839D01*
X-10490000Y40970000D02*
X-11760000Y39700000D01*
X24779839Y32080000D02*
X22530000Y34329839D01*
X-12819839Y33350000D02*
X-16840000Y33350000D01*
X-330000Y29540000D02*
X-330000Y32080000D01*
X-6680000Y40970000D02*
X-10490000Y40970000D01*
X31420000Y32080000D02*
X24779839Y32080000D01*
X22530000Y39700000D02*
X21260000Y40970000D01*
%TO.N,Net-(J1-Pin_5)*%
X12370000Y35890000D02*
X12370000Y33350000D01*
X12370000Y33350000D02*
X14910000Y30810000D01*
X14910000Y30810000D02*
X14910000Y29540000D01*
%TO.N,/IAWGA*%
X-20650000Y67640000D02*
X-21920000Y68910000D01*
X-24460000Y68910000D02*
X-21920000Y68910000D01*
X-18110000Y67640000D02*
X-16840000Y67640000D01*
X-16840000Y67640000D02*
X-13030000Y67640000D01*
X-18110000Y67640000D02*
X-20650000Y67640000D01*
%TO.N,/AWGA*%
X-16840000Y56210000D02*
X-16840000Y54940000D01*
X-18110000Y60020000D02*
X-18110000Y57480000D01*
X-21920000Y63830000D02*
X-18110000Y60020000D01*
X-13030000Y54940000D02*
X-16840000Y54940000D01*
X-13030000Y54940000D02*
X-13030000Y52400000D01*
X-18110000Y57480000D02*
X-16840000Y56210000D01*
X-24460000Y63830000D02*
X-21920000Y63830000D01*
%TO.N,/IAWGB*%
X-13461582Y63830000D02*
X-14300000Y62991582D01*
X-14300000Y57048418D02*
X-13461582Y56210000D01*
X-24460000Y79070000D02*
X-15570000Y79070000D01*
X-11760000Y48590000D02*
X-13030000Y48590000D01*
X-10490000Y49860000D02*
X-11760000Y48590000D01*
X-12598418Y63830000D02*
X-13461582Y63830000D01*
X-13030000Y48590000D02*
X-16840000Y52400000D01*
X-10490000Y73990000D02*
X-10490000Y72720000D01*
X-14300000Y62991582D02*
X-14300000Y57048418D01*
X-10490000Y54940000D02*
X-10490000Y52400000D01*
X-10490000Y65938418D02*
X-12598418Y63830000D01*
X-15570000Y79070000D02*
X-10490000Y73990000D01*
X-10490000Y52400000D02*
X-10490000Y49860000D01*
X-5410000Y52400000D02*
X-10490000Y52400000D01*
X-13461582Y56210000D02*
X-11760000Y56210000D01*
X-11760000Y56210000D02*
X-10490000Y54940000D01*
X-10490000Y70180000D02*
X-10490000Y65938418D01*
%TO.N,/AWGB*%
X-4140000Y61290000D02*
X-2870000Y60020000D01*
X-20650000Y73990000D02*
X-18110000Y71450000D01*
X-18110000Y71450000D02*
X-5410000Y71450000D01*
X-6680000Y65100000D02*
X-7950000Y63830000D01*
X-6680000Y61290000D02*
X-4140000Y61290000D01*
X-7950000Y63830000D02*
X-7950000Y62560000D01*
X-5410000Y65100000D02*
X-6680000Y65100000D01*
X-7950000Y62560000D02*
X-6680000Y61290000D01*
X-24460000Y73990000D02*
X-20650000Y73990000D01*
X-5410000Y71450000D02*
X-5410000Y65100000D01*
%TO.N,Net-(J4-Pin_1)*%
X940000Y52400000D02*
X940000Y50839839D01*
X940000Y49860000D02*
X-330000Y48590000D01*
X-330000Y48590000D02*
X-330000Y47320000D01*
X940000Y52400000D02*
X940000Y49860000D01*
%TO.N,Net-(J4-Pin_2)*%
X3480000Y49860000D02*
X2210000Y48590000D01*
X3480000Y52400000D02*
X3480000Y49860000D01*
X2210000Y48590000D02*
X2210000Y47320000D01*
%TO.N,Net-(J4-Pin_7)*%
X16180000Y49860000D02*
X14910000Y48590000D01*
X14910000Y48590000D02*
X14910000Y47320000D01*
X16180000Y52400000D02*
X16180000Y49860000D01*
%TO.N,Net-(J4-Pin_4)*%
X8560000Y49860000D02*
X7290000Y48590000D01*
X7290000Y48590000D02*
X7290000Y47320000D01*
X8560000Y52400000D02*
X8560000Y49860000D01*
%TO.N,Net-(J4-Pin_5)*%
X11100000Y49860000D02*
X9830000Y48590000D01*
X9830000Y48590000D02*
X9830000Y47320000D01*
X11100000Y52400000D02*
X11100000Y49860000D01*
%TO.N,Net-(J4-Pin_6)*%
X12370000Y48590000D02*
X12370000Y47320000D01*
X13640000Y52400000D02*
X13640000Y49860000D01*
X13640000Y49860000D02*
X12370000Y48590000D01*
%TO.N,/PWMOUT*%
X21260000Y50633600D02*
X17946400Y47320000D01*
X17946400Y47320000D02*
X17450000Y47320000D01*
X21260000Y52400000D02*
X21260000Y50633600D01*
%TO.N,Net-(RDACA1-R1)*%
X26340000Y72720000D02*
X28880000Y75260000D01*
X26340000Y70180000D02*
X26340000Y72720000D01*
%TO.N,Net-(RDACA1-R2)*%
X28880000Y70180000D02*
X28880000Y72720000D01*
X28880000Y72720000D02*
X31420000Y75260000D01*
%TO.N,Net-(RDACA1-R3)*%
X33960000Y70180000D02*
X33960000Y75260000D01*
%TO.N,Net-(RDACA1-R4)*%
X36500000Y70180000D02*
X36500000Y75260000D01*
%TO.N,Net-(RDACA1-R5)*%
X39040000Y70180000D02*
X39040000Y75260000D01*
%TO.N,Net-(RDACA1-R6)*%
X41580000Y70180000D02*
X41580000Y75260000D01*
%TO.N,Net-(RDACA1-R7)*%
X46660000Y72720000D02*
X44120000Y75260000D01*
X46660000Y70180000D02*
X46660000Y72720000D01*
%TO.N,Net-(RDACA1-R8)*%
X49200000Y70180000D02*
X49200000Y72720000D01*
X49200000Y72720000D02*
X46660000Y75260000D01*
%TO.N,Net-(RDACB1-R1)*%
X940000Y70180000D02*
X940000Y72720000D01*
X940000Y72720000D02*
X2210000Y73990000D01*
X2210000Y73990000D02*
X2210000Y75260000D01*
%TO.N,Net-(RDACB1-R2)*%
X3480000Y72720000D02*
X4750000Y73990000D01*
X4750000Y73990000D02*
X4750000Y75260000D01*
X3480000Y70180000D02*
X3480000Y72720000D01*
%TO.N,Net-(RDACB1-R3)*%
X8560000Y70180000D02*
X8560000Y72720000D01*
X7290000Y73990000D02*
X7290000Y75260000D01*
X8560000Y72720000D02*
X7290000Y73990000D01*
%TO.N,Net-(RDACB1-R4)*%
X11100000Y72720000D02*
X9830000Y73990000D01*
X11100000Y70180000D02*
X11100000Y72720000D01*
X9830000Y73990000D02*
X9830000Y75260000D01*
%TO.N,Net-(RDACB1-R5)*%
X13640000Y72720000D02*
X12370000Y73990000D01*
X13640000Y70180000D02*
X13640000Y72720000D01*
X12370000Y73990000D02*
X12370000Y75260000D01*
%TO.N,Net-(RDACB1-R6)*%
X16180000Y72720000D02*
X14910000Y73990000D01*
X16180000Y70180000D02*
X16180000Y72720000D01*
X14910000Y73990000D02*
X14910000Y75260000D01*
%TO.N,Net-(RDACB1-R7)*%
X21260000Y71946400D02*
X17946400Y75260000D01*
X21260000Y70180000D02*
X21260000Y71946400D01*
X17946400Y75260000D02*
X17450000Y75260000D01*
%TO.N,Net-(RDACB1-R8)*%
X23800000Y71946400D02*
X20486400Y75260000D01*
X23800000Y70180000D02*
X23800000Y71946400D01*
X20486400Y75260000D02*
X19990000Y75260000D01*
D22*
%TO.N,/VSYS*%
X47930000Y45970000D02*
X45310000Y45970000D01*
D20*
X-11760000Y60020000D02*
X-13030000Y60020000D01*
D22*
X41580000Y42240000D02*
X37770000Y42240000D01*
D20*
X-4140000Y56210000D02*
X-7950000Y56210000D01*
D22*
X-4140000Y56210000D02*
X44120000Y56210000D01*
D20*
X-7950000Y56210000D02*
X-11760000Y60020000D01*
D22*
X46660000Y52400000D02*
X46660000Y48590000D01*
X37770000Y42240000D02*
X32690000Y37160000D01*
X46660000Y53670000D02*
X46660000Y52400000D01*
X46660000Y48590000D02*
X47930000Y47320000D01*
X45310000Y45970000D02*
X41580000Y42240000D01*
X47930000Y47320000D02*
X47930000Y45970000D01*
X44120000Y56210000D02*
X46660000Y53670000D01*
D20*
%TO.N,Net-(U1B-+)*%
X45390000Y30810000D02*
X44120000Y32080000D01*
X42850000Y38410000D02*
X44120000Y37140000D01*
X44120000Y37140000D02*
X44120000Y33350000D01*
X47930000Y30810000D02*
X45390000Y30810000D01*
X42850000Y38430000D02*
X42850000Y38410000D01*
X44120000Y33350000D02*
X44120000Y32080000D01*
X36500000Y38430000D02*
X42850000Y38430000D01*
X35230000Y37160000D02*
X36500000Y38430000D01*
X47930000Y33350000D02*
X47930000Y30810000D01*
%TO.N,Net-(U1A--)*%
X23800000Y35890000D02*
X25070000Y37160000D01*
X23800000Y34620000D02*
X23800000Y35890000D01*
X25070000Y37160000D02*
X27610000Y37160000D01*
%TO.N,Net-(U1C--)*%
X33960000Y48590000D02*
X33960000Y52400000D01*
X40310000Y44780000D02*
X37770000Y44780000D01*
X37770000Y44780000D02*
X33960000Y48590000D01*
%TO.N,Net-(U1C-+)*%
X22530000Y43510000D02*
X23800000Y42240000D01*
X12370000Y43510000D02*
X22530000Y43510000D01*
X23800000Y42240000D02*
X33960000Y42240000D01*
X35230000Y43510000D02*
X35230000Y44780000D01*
X33960000Y42240000D02*
X35230000Y43510000D01*
%TO.N,Net-(U1D-+)*%
X-9220000Y42320000D02*
X-8030000Y43510000D01*
X11100000Y44780000D02*
X22530000Y44780000D01*
X22530000Y44780000D02*
X23800000Y43510000D01*
X23800000Y43510000D02*
X28880000Y43510000D01*
X-13030000Y42320000D02*
X-9220000Y42320000D01*
X9830000Y43510000D02*
X11100000Y44780000D01*
X-8030000Y43510000D02*
X9830000Y43510000D01*
X28880000Y43510000D02*
X30150000Y44780000D01*
%TO.N,Net-(U1D--)*%
X28880000Y47320000D02*
X27610000Y47320000D01*
X27610000Y44780000D02*
X27610000Y47320000D01*
X26340000Y48590000D02*
X26340000Y52400000D01*
X27610000Y47320000D02*
X26340000Y48590000D01*
X27610000Y44780000D02*
X25070000Y44780000D01*
%TO.N,Net-(U2A--)*%
X-15570000Y60020000D02*
X-15570000Y65100000D01*
X-18110000Y65100000D02*
X-13030000Y65100000D01*
%TO.N,Net-(U2C--)*%
X-5410000Y54940000D02*
X-4140000Y54940000D01*
X-2870000Y53670000D02*
X-2870000Y52400000D01*
X-2870000Y49860000D02*
X-2870000Y52400000D01*
X-4140000Y48590000D02*
X-2870000Y49860000D01*
X-4140000Y54940000D02*
X-2870000Y53670000D01*
%TO.N,Net-(J2-Pin_2)*%
X4750000Y32080000D02*
X4750000Y29540000D01*
X7290000Y34620000D02*
X4750000Y32080000D01*
%TO.N,Net-(J2-Pin_3)*%
X4750000Y35890000D02*
X4750000Y38430000D01*
X5940000Y39620000D02*
X4750000Y38430000D01*
X3480000Y34620000D02*
X4750000Y35890000D01*
X2210000Y33350000D02*
X2210000Y29540000D01*
X7290000Y39620000D02*
X5940000Y39620000D01*
X3480000Y34620000D02*
X2210000Y33350000D01*
%TO.N,Net-(J5-Pin_2)*%
X-9220000Y32080000D02*
X-10490000Y32080000D01*
X-5410000Y34700000D02*
X-6600000Y34700000D01*
X-10490000Y32080000D02*
X-13030000Y29540000D01*
X-6600000Y34700000D02*
X-9220000Y32080000D01*
%TO.N,Net-(J5-Pin_3)*%
X-9220000Y34700000D02*
X-11840000Y32080000D01*
X-9220000Y34700000D02*
X-7950000Y35970000D01*
X-11840000Y32080000D02*
X-14300000Y32080000D01*
X-7950000Y35970000D02*
X-7950000Y38510000D01*
X-6760000Y39700000D02*
X-5410000Y39700000D01*
X-15570000Y30810000D02*
X-15570000Y29540000D01*
X-7950000Y38510000D02*
X-6760000Y39700000D01*
X-14300000Y32080000D02*
X-15570000Y30810000D01*
%TO.N,Net-(J2-Pin_5)*%
X-2870000Y32080000D02*
X-2870000Y29540000D01*
X-330000Y34620000D02*
X-2870000Y32080000D01*
%TO.N,Net-(J5-Pin_5)*%
X-20650000Y32080000D02*
X-20650000Y29540000D01*
X-18030000Y34700000D02*
X-20650000Y32080000D01*
X-13030000Y34700000D02*
X-18030000Y34700000D01*
%TD*%
M02*
