%TF.GenerationSoftware,KiCad,Pcbnew,7.0.7*%
%TF.CreationDate,2024-05-24T10:33:18-04:00*%
%TF.ProjectId,pi-pico-adapter3,70692d70-6963-46f2-9d61-646170746572,rev?*%
%TF.SameCoordinates,PX791ddc0PY791ddc0*%
%TF.FileFunction,Legend,Top*%
%TF.FilePolarity,Positive*%
%FSLAX46Y46*%
G04 Gerber Fmt 4.6, Leading zero omitted, Abs format (unit mm)*
G04 Created by KiCad (PCBNEW 7.0.7) date 2024-05-24 10:33:18*
%MOMM*%
%LPD*%
G01*
G04 APERTURE LIST*
%ADD10C,0.150000*%
%ADD11C,0.152400*%
%ADD12C,0.228600*%
%ADD13C,0.120000*%
G04 APERTURE END LIST*
D10*
X-7315000Y33410000D02*
X-7315000Y32140000D01*
X11100000Y33350000D02*
X11735000Y32080000D01*
X11735000Y33350000D02*
X11100000Y33350000D01*
X-7950000Y32140000D02*
X-7315000Y30870000D01*
X-25730000Y58750000D02*
X-24460000Y58115000D01*
X-25730000Y32080000D02*
X-26365000Y32080000D01*
X-25730000Y33350000D02*
X-25730000Y32080000D01*
X-24460000Y58750000D02*
X-24460000Y59385000D01*
X-23190000Y58750000D02*
X-24460000Y58750000D01*
X11735000Y32080000D02*
X12370000Y33350000D01*
X-25730000Y30810000D02*
X-25095000Y32080000D01*
X-24460000Y59385000D02*
X-25730000Y58750000D01*
X12370000Y33350000D02*
X11735000Y33350000D01*
X-24460000Y58115000D02*
X-24460000Y58750000D01*
X-7315000Y32140000D02*
X-7950000Y32140000D01*
X-7315000Y30870000D02*
X-6680000Y32140000D01*
X-6680000Y32140000D02*
X-7315000Y32140000D01*
X-26365000Y32080000D02*
X-25730000Y30810000D01*
X11735000Y34620000D02*
X11735000Y33350000D01*
X-25095000Y32080000D02*
X-25730000Y32080000D01*
D11*
X-24874995Y47813084D02*
X-24969337Y47860255D01*
X-24969337Y47860255D02*
X-25110852Y47860255D01*
X-25110852Y47860255D02*
X-25252366Y47813084D01*
X-25252366Y47813084D02*
X-25346709Y47718741D01*
X-25346709Y47718741D02*
X-25393880Y47624398D01*
X-25393880Y47624398D02*
X-25441052Y47435712D01*
X-25441052Y47435712D02*
X-25441052Y47294198D01*
X-25441052Y47294198D02*
X-25393880Y47105512D01*
X-25393880Y47105512D02*
X-25346709Y47011169D01*
X-25346709Y47011169D02*
X-25252366Y46916826D01*
X-25252366Y46916826D02*
X-25110852Y46869655D01*
X-25110852Y46869655D02*
X-25016509Y46869655D01*
X-25016509Y46869655D02*
X-24874995Y46916826D01*
X-24874995Y46916826D02*
X-24827823Y46963998D01*
X-24827823Y46963998D02*
X-24827823Y47294198D01*
X-24827823Y47294198D02*
X-25016509Y47294198D01*
X-24403280Y46869655D02*
X-24403280Y47860255D01*
X-24403280Y47860255D02*
X-23837223Y46869655D01*
X-23837223Y46869655D02*
X-23837223Y47860255D01*
X-23365509Y46869655D02*
X-23365509Y47860255D01*
X-23365509Y47860255D02*
X-23129652Y47860255D01*
X-23129652Y47860255D02*
X-22988138Y47813084D01*
X-22988138Y47813084D02*
X-22893795Y47718741D01*
X-22893795Y47718741D02*
X-22846624Y47624398D01*
X-22846624Y47624398D02*
X-22799452Y47435712D01*
X-22799452Y47435712D02*
X-22799452Y47294198D01*
X-22799452Y47294198D02*
X-22846624Y47105512D01*
X-22846624Y47105512D02*
X-22893795Y47011169D01*
X-22893795Y47011169D02*
X-22988138Y46916826D01*
X-22988138Y46916826D02*
X-23129652Y46869655D01*
X-23129652Y46869655D02*
X-23365509Y46869655D01*
X-25393880Y41789655D02*
X-25393880Y42780255D01*
X-25393880Y42780255D02*
X-25158023Y42780255D01*
X-25158023Y42780255D02*
X-25016509Y42733084D01*
X-25016509Y42733084D02*
X-24922166Y42638741D01*
X-24922166Y42638741D02*
X-24874995Y42544398D01*
X-24874995Y42544398D02*
X-24827823Y42355712D01*
X-24827823Y42355712D02*
X-24827823Y42214198D01*
X-24827823Y42214198D02*
X-24874995Y42025512D01*
X-24874995Y42025512D02*
X-24922166Y41931169D01*
X-24922166Y41931169D02*
X-25016509Y41836826D01*
X-25016509Y41836826D02*
X-25158023Y41789655D01*
X-25158023Y41789655D02*
X-25393880Y41789655D01*
X-24403280Y41789655D02*
X-24403280Y42780255D01*
X-23931566Y41789655D02*
X-23931566Y42780255D01*
X-23931566Y42780255D02*
X-23365509Y41789655D01*
X-23365509Y41789655D02*
X-23365509Y42780255D01*
X-22422081Y42780255D02*
X-22893795Y42780255D01*
X-22893795Y42780255D02*
X-22940967Y42308541D01*
X-22940967Y42308541D02*
X-22893795Y42355712D01*
X-22893795Y42355712D02*
X-22799452Y42402884D01*
X-22799452Y42402884D02*
X-22563595Y42402884D01*
X-22563595Y42402884D02*
X-22469252Y42355712D01*
X-22469252Y42355712D02*
X-22422081Y42308541D01*
X-22422081Y42308541D02*
X-22374910Y42214198D01*
X-22374910Y42214198D02*
X-22374910Y41978341D01*
X-22374910Y41978341D02*
X-22422081Y41883998D01*
X-22422081Y41883998D02*
X-22469252Y41836826D01*
X-22469252Y41836826D02*
X-22563595Y41789655D01*
X-22563595Y41789655D02*
X-22799452Y41789655D01*
X-22799452Y41789655D02*
X-22893795Y41836826D01*
X-22893795Y41836826D02*
X-22940967Y41883998D01*
X-25393880Y45599655D02*
X-25393880Y46590255D01*
X-25393880Y46590255D02*
X-25158023Y46590255D01*
X-25158023Y46590255D02*
X-25016509Y46543084D01*
X-25016509Y46543084D02*
X-24922166Y46448741D01*
X-24922166Y46448741D02*
X-24874995Y46354398D01*
X-24874995Y46354398D02*
X-24827823Y46165712D01*
X-24827823Y46165712D02*
X-24827823Y46024198D01*
X-24827823Y46024198D02*
X-24874995Y45835512D01*
X-24874995Y45835512D02*
X-24922166Y45741169D01*
X-24922166Y45741169D02*
X-25016509Y45646826D01*
X-25016509Y45646826D02*
X-25158023Y45599655D01*
X-25158023Y45599655D02*
X-25393880Y45599655D01*
X-24403280Y45599655D02*
X-24403280Y46590255D01*
X-23931566Y45599655D02*
X-23931566Y46590255D01*
X-23931566Y46590255D02*
X-23365509Y45599655D01*
X-23365509Y45599655D02*
X-23365509Y46590255D01*
X-22940967Y46495912D02*
X-22893795Y46543084D01*
X-22893795Y46543084D02*
X-22799452Y46590255D01*
X-22799452Y46590255D02*
X-22563595Y46590255D01*
X-22563595Y46590255D02*
X-22469252Y46543084D01*
X-22469252Y46543084D02*
X-22422081Y46495912D01*
X-22422081Y46495912D02*
X-22374910Y46401569D01*
X-22374910Y46401569D02*
X-22374910Y46307226D01*
X-22374910Y46307226D02*
X-22422081Y46165712D01*
X-22422081Y46165712D02*
X-22988138Y45599655D01*
X-22988138Y45599655D02*
X-22374910Y45599655D01*
X-22793880Y68429655D02*
X-22793880Y69420255D01*
X-22369338Y68712684D02*
X-21897623Y68712684D01*
X-22463681Y68429655D02*
X-22133481Y69420255D01*
X-22133481Y69420255D02*
X-21803281Y68429655D01*
X-21567423Y69420255D02*
X-21331566Y68429655D01*
X-21331566Y68429655D02*
X-21142880Y69137226D01*
X-21142880Y69137226D02*
X-20954195Y68429655D01*
X-20954195Y68429655D02*
X-20718337Y69420255D01*
X-19822081Y69373084D02*
X-19916423Y69420255D01*
X-19916423Y69420255D02*
X-20057938Y69420255D01*
X-20057938Y69420255D02*
X-20199452Y69373084D01*
X-20199452Y69373084D02*
X-20293795Y69278741D01*
X-20293795Y69278741D02*
X-20340966Y69184398D01*
X-20340966Y69184398D02*
X-20388138Y68995712D01*
X-20388138Y68995712D02*
X-20388138Y68854198D01*
X-20388138Y68854198D02*
X-20340966Y68665512D01*
X-20340966Y68665512D02*
X-20293795Y68571169D01*
X-20293795Y68571169D02*
X-20199452Y68476826D01*
X-20199452Y68476826D02*
X-20057938Y68429655D01*
X-20057938Y68429655D02*
X-19963595Y68429655D01*
X-19963595Y68429655D02*
X-19822081Y68476826D01*
X-19822081Y68476826D02*
X-19774909Y68523998D01*
X-19774909Y68523998D02*
X-19774909Y68854198D01*
X-19774909Y68854198D02*
X-19963595Y68854198D01*
X-19397538Y68712684D02*
X-18925823Y68712684D01*
X-19491881Y68429655D02*
X-19161681Y69420255D01*
X-19161681Y69420255D02*
X-18831481Y68429655D01*
X-22412404Y61795524D02*
X-22497071Y61843905D01*
X-22497071Y61843905D02*
X-22624071Y61843905D01*
X-22624071Y61843905D02*
X-22751071Y61795524D01*
X-22751071Y61795524D02*
X-22835737Y61698762D01*
X-22835737Y61698762D02*
X-22878071Y61602000D01*
X-22878071Y61602000D02*
X-22920404Y61408476D01*
X-22920404Y61408476D02*
X-22920404Y61263333D01*
X-22920404Y61263333D02*
X-22878071Y61069809D01*
X-22878071Y61069809D02*
X-22835737Y60973047D01*
X-22835737Y60973047D02*
X-22751071Y60876285D01*
X-22751071Y60876285D02*
X-22624071Y60827905D01*
X-22624071Y60827905D02*
X-22539404Y60827905D01*
X-22539404Y60827905D02*
X-22412404Y60876285D01*
X-22412404Y60876285D02*
X-22370071Y60924666D01*
X-22370071Y60924666D02*
X-22370071Y61263333D01*
X-22370071Y61263333D02*
X-22539404Y61263333D01*
X-21989071Y60827905D02*
X-21989071Y61843905D01*
X-21989071Y61843905D02*
X-21481071Y60827905D01*
X-21481071Y60827905D02*
X-21481071Y61843905D01*
X-21057738Y60827905D02*
X-21057738Y61843905D01*
X-21057738Y61843905D02*
X-20846071Y61843905D01*
X-20846071Y61843905D02*
X-20719071Y61795524D01*
X-20719071Y61795524D02*
X-20634404Y61698762D01*
X-20634404Y61698762D02*
X-20592071Y61602000D01*
X-20592071Y61602000D02*
X-20549738Y61408476D01*
X-20549738Y61408476D02*
X-20549738Y61263333D01*
X-20549738Y61263333D02*
X-20592071Y61069809D01*
X-20592071Y61069809D02*
X-20634404Y60973047D01*
X-20634404Y60973047D02*
X-20719071Y60876285D01*
X-20719071Y60876285D02*
X-20846071Y60827905D01*
X-20846071Y60827905D02*
X-21057738Y60827905D01*
X23645181Y32606606D02*
X24242686Y32606606D01*
X24242686Y32606606D02*
X23920953Y32238910D01*
X23920953Y32238910D02*
X24058838Y32238910D01*
X24058838Y32238910D02*
X24150762Y32192948D01*
X24150762Y32192948D02*
X24196724Y32146987D01*
X24196724Y32146987D02*
X24242686Y32055063D01*
X24242686Y32055063D02*
X24242686Y31825253D01*
X24242686Y31825253D02*
X24196724Y31733329D01*
X24196724Y31733329D02*
X24150762Y31687367D01*
X24150762Y31687367D02*
X24058838Y31641406D01*
X24058838Y31641406D02*
X23783067Y31641406D01*
X23783067Y31641406D02*
X23691143Y31687367D01*
X23691143Y31687367D02*
X23645181Y31733329D01*
X24656343Y31733329D02*
X24702305Y31687367D01*
X24702305Y31687367D02*
X24656343Y31641406D01*
X24656343Y31641406D02*
X24610381Y31687367D01*
X24610381Y31687367D02*
X24656343Y31733329D01*
X24656343Y31733329D02*
X24656343Y31641406D01*
X25024038Y32606606D02*
X25621543Y32606606D01*
X25621543Y32606606D02*
X25299810Y32238910D01*
X25299810Y32238910D02*
X25437695Y32238910D01*
X25437695Y32238910D02*
X25529619Y32192948D01*
X25529619Y32192948D02*
X25575581Y32146987D01*
X25575581Y32146987D02*
X25621543Y32055063D01*
X25621543Y32055063D02*
X25621543Y31825253D01*
X25621543Y31825253D02*
X25575581Y31733329D01*
X25575581Y31733329D02*
X25529619Y31687367D01*
X25529619Y31687367D02*
X25437695Y31641406D01*
X25437695Y31641406D02*
X25161924Y31641406D01*
X25161924Y31641406D02*
X25070000Y31687367D01*
X25070000Y31687367D02*
X25024038Y31733329D01*
X25897314Y32606606D02*
X26219048Y31641406D01*
X26219048Y31641406D02*
X26540781Y32606606D01*
X-22334995Y77023084D02*
X-22429337Y77070255D01*
X-22429337Y77070255D02*
X-22570852Y77070255D01*
X-22570852Y77070255D02*
X-22712366Y77023084D01*
X-22712366Y77023084D02*
X-22806709Y76928741D01*
X-22806709Y76928741D02*
X-22853880Y76834398D01*
X-22853880Y76834398D02*
X-22901052Y76645712D01*
X-22901052Y76645712D02*
X-22901052Y76504198D01*
X-22901052Y76504198D02*
X-22853880Y76315512D01*
X-22853880Y76315512D02*
X-22806709Y76221169D01*
X-22806709Y76221169D02*
X-22712366Y76126826D01*
X-22712366Y76126826D02*
X-22570852Y76079655D01*
X-22570852Y76079655D02*
X-22476509Y76079655D01*
X-22476509Y76079655D02*
X-22334995Y76126826D01*
X-22334995Y76126826D02*
X-22287823Y76173998D01*
X-22287823Y76173998D02*
X-22287823Y76504198D01*
X-22287823Y76504198D02*
X-22476509Y76504198D01*
X-21863280Y76079655D02*
X-21863280Y77070255D01*
X-21863280Y77070255D02*
X-21297223Y76079655D01*
X-21297223Y76079655D02*
X-21297223Y77070255D01*
X-20825509Y76079655D02*
X-20825509Y77070255D01*
X-20825509Y77070255D02*
X-20589652Y77070255D01*
X-20589652Y77070255D02*
X-20448138Y77023084D01*
X-20448138Y77023084D02*
X-20353795Y76928741D01*
X-20353795Y76928741D02*
X-20306624Y76834398D01*
X-20306624Y76834398D02*
X-20259452Y76645712D01*
X-20259452Y76645712D02*
X-20259452Y76504198D01*
X-20259452Y76504198D02*
X-20306624Y76315512D01*
X-20306624Y76315512D02*
X-20353795Y76221169D01*
X-20353795Y76221169D02*
X-20448138Y76126826D01*
X-20448138Y76126826D02*
X-20589652Y76079655D01*
X-20589652Y76079655D02*
X-20825509Y76079655D01*
X-11016606Y31068839D02*
X-11016606Y31666344D01*
X-11016606Y31666344D02*
X-10648910Y31344611D01*
X-10648910Y31344611D02*
X-10648910Y31482496D01*
X-10648910Y31482496D02*
X-10602948Y31574420D01*
X-10602948Y31574420D02*
X-10556987Y31620382D01*
X-10556987Y31620382D02*
X-10465063Y31666344D01*
X-10465063Y31666344D02*
X-10235253Y31666344D01*
X-10235253Y31666344D02*
X-10143329Y31620382D01*
X-10143329Y31620382D02*
X-10097367Y31574420D01*
X-10097367Y31574420D02*
X-10051406Y31482496D01*
X-10051406Y31482496D02*
X-10051406Y31206725D01*
X-10051406Y31206725D02*
X-10097367Y31114801D01*
X-10097367Y31114801D02*
X-10143329Y31068839D01*
X-10143329Y32080001D02*
X-10097367Y32125963D01*
X-10097367Y32125963D02*
X-10051406Y32080001D01*
X-10051406Y32080001D02*
X-10097367Y32034039D01*
X-10097367Y32034039D02*
X-10143329Y32080001D01*
X-10143329Y32080001D02*
X-10051406Y32080001D01*
X-11016606Y32447696D02*
X-11016606Y33045201D01*
X-11016606Y33045201D02*
X-10648910Y32723468D01*
X-10648910Y32723468D02*
X-10648910Y32861353D01*
X-10648910Y32861353D02*
X-10602948Y32953277D01*
X-10602948Y32953277D02*
X-10556987Y32999239D01*
X-10556987Y32999239D02*
X-10465063Y33045201D01*
X-10465063Y33045201D02*
X-10235253Y33045201D01*
X-10235253Y33045201D02*
X-10143329Y32999239D01*
X-10143329Y32999239D02*
X-10097367Y32953277D01*
X-10097367Y32953277D02*
X-10051406Y32861353D01*
X-10051406Y32861353D02*
X-10051406Y32585582D01*
X-10051406Y32585582D02*
X-10097367Y32493658D01*
X-10097367Y32493658D02*
X-10143329Y32447696D01*
X-25393880Y48139655D02*
X-25393880Y49130255D01*
X-25393880Y49130255D02*
X-25158023Y49130255D01*
X-25158023Y49130255D02*
X-25016509Y49083084D01*
X-25016509Y49083084D02*
X-24922166Y48988741D01*
X-24922166Y48988741D02*
X-24874995Y48894398D01*
X-24874995Y48894398D02*
X-24827823Y48705712D01*
X-24827823Y48705712D02*
X-24827823Y48564198D01*
X-24827823Y48564198D02*
X-24874995Y48375512D01*
X-24874995Y48375512D02*
X-24922166Y48281169D01*
X-24922166Y48281169D02*
X-25016509Y48186826D01*
X-25016509Y48186826D02*
X-25158023Y48139655D01*
X-25158023Y48139655D02*
X-25393880Y48139655D01*
X-24403280Y48139655D02*
X-24403280Y49130255D01*
X-23931566Y48139655D02*
X-23931566Y49130255D01*
X-23931566Y49130255D02*
X-23365509Y48139655D01*
X-23365509Y48139655D02*
X-23365509Y49130255D01*
X-22374910Y48139655D02*
X-22940967Y48139655D01*
X-22657938Y48139655D02*
X-22657938Y49130255D01*
X-22657938Y49130255D02*
X-22752281Y48988741D01*
X-22752281Y48988741D02*
X-22846624Y48894398D01*
X-22846624Y48894398D02*
X-22940967Y48847226D01*
D10*
X-15115181Y31318096D02*
X-16115181Y31318096D01*
X-16115181Y31318096D02*
X-16115181Y31556191D01*
X-16115181Y31556191D02*
X-16067562Y31699048D01*
X-16067562Y31699048D02*
X-15972324Y31794286D01*
X-15972324Y31794286D02*
X-15877086Y31841905D01*
X-15877086Y31841905D02*
X-15686610Y31889524D01*
X-15686610Y31889524D02*
X-15543753Y31889524D01*
X-15543753Y31889524D02*
X-15353277Y31841905D01*
X-15353277Y31841905D02*
X-15258039Y31794286D01*
X-15258039Y31794286D02*
X-15162800Y31699048D01*
X-15162800Y31699048D02*
X-15115181Y31556191D01*
X-15115181Y31556191D02*
X-15115181Y31318096D01*
X-15210420Y32889524D02*
X-15162800Y32841905D01*
X-15162800Y32841905D02*
X-15115181Y32699048D01*
X-15115181Y32699048D02*
X-15115181Y32603810D01*
X-15115181Y32603810D02*
X-15162800Y32460953D01*
X-15162800Y32460953D02*
X-15258039Y32365715D01*
X-15258039Y32365715D02*
X-15353277Y32318096D01*
X-15353277Y32318096D02*
X-15543753Y32270477D01*
X-15543753Y32270477D02*
X-15686610Y32270477D01*
X-15686610Y32270477D02*
X-15877086Y32318096D01*
X-15877086Y32318096D02*
X-15972324Y32365715D01*
X-15972324Y32365715D02*
X-16067562Y32460953D01*
X-16067562Y32460953D02*
X-16115181Y32603810D01*
X-16115181Y32603810D02*
X-16115181Y32699048D01*
X-16115181Y32699048D02*
X-16067562Y32841905D01*
X-16067562Y32841905D02*
X-16019943Y32889524D01*
D11*
X-22853880Y78619655D02*
X-22853880Y79610255D01*
X-22429338Y78902684D02*
X-21957623Y78902684D01*
X-22523681Y78619655D02*
X-22193481Y79610255D01*
X-22193481Y79610255D02*
X-21863281Y78619655D01*
X-21627423Y79610255D02*
X-21391566Y78619655D01*
X-21391566Y78619655D02*
X-21202880Y79327226D01*
X-21202880Y79327226D02*
X-21014195Y78619655D01*
X-21014195Y78619655D02*
X-20778337Y79610255D01*
X-20070766Y79138541D02*
X-19929252Y79091369D01*
X-19929252Y79091369D02*
X-19882081Y79044198D01*
X-19882081Y79044198D02*
X-19834909Y78949855D01*
X-19834909Y78949855D02*
X-19834909Y78808341D01*
X-19834909Y78808341D02*
X-19882081Y78713998D01*
X-19882081Y78713998D02*
X-19929252Y78666826D01*
X-19929252Y78666826D02*
X-20023595Y78619655D01*
X-20023595Y78619655D02*
X-20400966Y78619655D01*
X-20400966Y78619655D02*
X-20400966Y79610255D01*
X-20400966Y79610255D02*
X-20070766Y79610255D01*
X-20070766Y79610255D02*
X-19976423Y79563084D01*
X-19976423Y79563084D02*
X-19929252Y79515912D01*
X-19929252Y79515912D02*
X-19882081Y79421569D01*
X-19882081Y79421569D02*
X-19882081Y79327226D01*
X-19882081Y79327226D02*
X-19929252Y79232884D01*
X-19929252Y79232884D02*
X-19976423Y79185712D01*
X-19976423Y79185712D02*
X-20070766Y79138541D01*
X-20070766Y79138541D02*
X-20400966Y79138541D01*
X6763394Y31068839D02*
X6763394Y31666344D01*
X6763394Y31666344D02*
X7131090Y31344611D01*
X7131090Y31344611D02*
X7131090Y31482496D01*
X7131090Y31482496D02*
X7177052Y31574420D01*
X7177052Y31574420D02*
X7223013Y31620382D01*
X7223013Y31620382D02*
X7314937Y31666344D01*
X7314937Y31666344D02*
X7544747Y31666344D01*
X7544747Y31666344D02*
X7636671Y31620382D01*
X7636671Y31620382D02*
X7682633Y31574420D01*
X7682633Y31574420D02*
X7728594Y31482496D01*
X7728594Y31482496D02*
X7728594Y31206725D01*
X7728594Y31206725D02*
X7682633Y31114801D01*
X7682633Y31114801D02*
X7636671Y31068839D01*
X7636671Y32080001D02*
X7682633Y32125963D01*
X7682633Y32125963D02*
X7728594Y32080001D01*
X7728594Y32080001D02*
X7682633Y32034039D01*
X7682633Y32034039D02*
X7636671Y32080001D01*
X7636671Y32080001D02*
X7728594Y32080001D01*
X6763394Y32447696D02*
X6763394Y33045201D01*
X6763394Y33045201D02*
X7131090Y32723468D01*
X7131090Y32723468D02*
X7131090Y32861353D01*
X7131090Y32861353D02*
X7177052Y32953277D01*
X7177052Y32953277D02*
X7223013Y32999239D01*
X7223013Y32999239D02*
X7314937Y33045201D01*
X7314937Y33045201D02*
X7544747Y33045201D01*
X7544747Y33045201D02*
X7636671Y32999239D01*
X7636671Y32999239D02*
X7682633Y32953277D01*
X7682633Y32953277D02*
X7728594Y32861353D01*
X7728594Y32861353D02*
X7728594Y32585582D01*
X7728594Y32585582D02*
X7682633Y32493658D01*
X7682633Y32493658D02*
X7636671Y32447696D01*
X-25418071Y40507905D02*
X-25418071Y41523905D01*
X-25418071Y41523905D02*
X-25079404Y41523905D01*
X-25079404Y41523905D02*
X-24994737Y41475524D01*
X-24994737Y41475524D02*
X-24952404Y41427143D01*
X-24952404Y41427143D02*
X-24910071Y41330381D01*
X-24910071Y41330381D02*
X-24910071Y41185238D01*
X-24910071Y41185238D02*
X-24952404Y41088476D01*
X-24952404Y41088476D02*
X-24994737Y41040095D01*
X-24994737Y41040095D02*
X-25079404Y40991714D01*
X-25079404Y40991714D02*
X-25418071Y40991714D01*
X-24613737Y41523905D02*
X-24402071Y40507905D01*
X-24402071Y40507905D02*
X-24232737Y41233619D01*
X-24232737Y41233619D02*
X-24063404Y40507905D01*
X-24063404Y40507905D02*
X-23851737Y41523905D01*
X-23513071Y40507905D02*
X-23513071Y41523905D01*
X-23513071Y41523905D02*
X-23216737Y40798190D01*
X-23216737Y40798190D02*
X-22920404Y41523905D01*
X-22920404Y41523905D02*
X-22920404Y40507905D01*
X-22327737Y41523905D02*
X-22158404Y41523905D01*
X-22158404Y41523905D02*
X-22073737Y41475524D01*
X-22073737Y41475524D02*
X-21989071Y41378762D01*
X-21989071Y41378762D02*
X-21946737Y41185238D01*
X-21946737Y41185238D02*
X-21946737Y40846571D01*
X-21946737Y40846571D02*
X-21989071Y40653047D01*
X-21989071Y40653047D02*
X-22073737Y40556285D01*
X-22073737Y40556285D02*
X-22158404Y40507905D01*
X-22158404Y40507905D02*
X-22327737Y40507905D01*
X-22327737Y40507905D02*
X-22412404Y40556285D01*
X-22412404Y40556285D02*
X-22497071Y40653047D01*
X-22497071Y40653047D02*
X-22539404Y40846571D01*
X-22539404Y40846571D02*
X-22539404Y41185238D01*
X-22539404Y41185238D02*
X-22497071Y41378762D01*
X-22497071Y41378762D02*
X-22412404Y41475524D01*
X-22412404Y41475524D02*
X-22327737Y41523905D01*
X-21565738Y41523905D02*
X-21565738Y40701428D01*
X-21565738Y40701428D02*
X-21523404Y40604666D01*
X-21523404Y40604666D02*
X-21481071Y40556285D01*
X-21481071Y40556285D02*
X-21396404Y40507905D01*
X-21396404Y40507905D02*
X-21227071Y40507905D01*
X-21227071Y40507905D02*
X-21142404Y40556285D01*
X-21142404Y40556285D02*
X-21100071Y40604666D01*
X-21100071Y40604666D02*
X-21057738Y40701428D01*
X-21057738Y40701428D02*
X-21057738Y41523905D01*
X-20761405Y41523905D02*
X-20253405Y41523905D01*
X-20507405Y40507905D02*
X-20507405Y41523905D01*
X41115543Y80866606D02*
X41207466Y80866606D01*
X41207466Y80866606D02*
X41299390Y80820644D01*
X41299390Y80820644D02*
X41345352Y80774682D01*
X41345352Y80774682D02*
X41391314Y80682758D01*
X41391314Y80682758D02*
X41437276Y80498910D01*
X41437276Y80498910D02*
X41437276Y80269101D01*
X41437276Y80269101D02*
X41391314Y80085253D01*
X41391314Y80085253D02*
X41345352Y79993329D01*
X41345352Y79993329D02*
X41299390Y79947367D01*
X41299390Y79947367D02*
X41207466Y79901406D01*
X41207466Y79901406D02*
X41115543Y79901406D01*
X41115543Y79901406D02*
X41023619Y79947367D01*
X41023619Y79947367D02*
X40977657Y79993329D01*
X40977657Y79993329D02*
X40931695Y80085253D01*
X40931695Y80085253D02*
X40885733Y80269101D01*
X40885733Y80269101D02*
X40885733Y80498910D01*
X40885733Y80498910D02*
X40931695Y80682758D01*
X40931695Y80682758D02*
X40977657Y80774682D01*
X40977657Y80774682D02*
X41023619Y80820644D01*
X41023619Y80820644D02*
X41115543Y80866606D01*
X42310552Y80866606D02*
X41850933Y80866606D01*
X41850933Y80866606D02*
X41804971Y80406987D01*
X41804971Y80406987D02*
X41850933Y80452948D01*
X41850933Y80452948D02*
X41942857Y80498910D01*
X41942857Y80498910D02*
X42172666Y80498910D01*
X42172666Y80498910D02*
X42264590Y80452948D01*
X42264590Y80452948D02*
X42310552Y80406987D01*
X42310552Y80406987D02*
X42356514Y80315063D01*
X42356514Y80315063D02*
X42356514Y80085253D01*
X42356514Y80085253D02*
X42310552Y79993329D01*
X42310552Y79993329D02*
X42264590Y79947367D01*
X42264590Y79947367D02*
X42172666Y79901406D01*
X42172666Y79901406D02*
X41942857Y79901406D01*
X41942857Y79901406D02*
X41850933Y79947367D01*
X41850933Y79947367D02*
X41804971Y79993329D01*
X43459600Y80912567D02*
X42632285Y79671596D01*
X44286914Y79901406D02*
X43735371Y79901406D01*
X44011143Y79901406D02*
X44011143Y80866606D01*
X44011143Y80866606D02*
X43919219Y80728720D01*
X43919219Y80728720D02*
X43827295Y80636796D01*
X43827295Y80636796D02*
X43735371Y80590834D01*
X45206152Y79901406D02*
X44654609Y79901406D01*
X44930381Y79901406D02*
X44930381Y80866606D01*
X44930381Y80866606D02*
X44838457Y80728720D01*
X44838457Y80728720D02*
X44746533Y80636796D01*
X44746533Y80636796D02*
X44654609Y80590834D01*
X46309238Y80912567D02*
X45481923Y79671596D01*
X46585009Y80774682D02*
X46630971Y80820644D01*
X46630971Y80820644D02*
X46722895Y80866606D01*
X46722895Y80866606D02*
X46952704Y80866606D01*
X46952704Y80866606D02*
X47044628Y80820644D01*
X47044628Y80820644D02*
X47090590Y80774682D01*
X47090590Y80774682D02*
X47136552Y80682758D01*
X47136552Y80682758D02*
X47136552Y80590834D01*
X47136552Y80590834D02*
X47090590Y80452948D01*
X47090590Y80452948D02*
X46539047Y79901406D01*
X46539047Y79901406D02*
X47136552Y79901406D01*
X47734057Y80866606D02*
X47825980Y80866606D01*
X47825980Y80866606D02*
X47917904Y80820644D01*
X47917904Y80820644D02*
X47963866Y80774682D01*
X47963866Y80774682D02*
X48009828Y80682758D01*
X48009828Y80682758D02*
X48055790Y80498910D01*
X48055790Y80498910D02*
X48055790Y80269101D01*
X48055790Y80269101D02*
X48009828Y80085253D01*
X48009828Y80085253D02*
X47963866Y79993329D01*
X47963866Y79993329D02*
X47917904Y79947367D01*
X47917904Y79947367D02*
X47825980Y79901406D01*
X47825980Y79901406D02*
X47734057Y79901406D01*
X47734057Y79901406D02*
X47642133Y79947367D01*
X47642133Y79947367D02*
X47596171Y79993329D01*
X47596171Y79993329D02*
X47550209Y80085253D01*
X47550209Y80085253D02*
X47504247Y80269101D01*
X47504247Y80269101D02*
X47504247Y80498910D01*
X47504247Y80498910D02*
X47550209Y80682758D01*
X47550209Y80682758D02*
X47596171Y80774682D01*
X47596171Y80774682D02*
X47642133Y80820644D01*
X47642133Y80820644D02*
X47734057Y80866606D01*
X48423485Y80774682D02*
X48469447Y80820644D01*
X48469447Y80820644D02*
X48561371Y80866606D01*
X48561371Y80866606D02*
X48791180Y80866606D01*
X48791180Y80866606D02*
X48883104Y80820644D01*
X48883104Y80820644D02*
X48929066Y80774682D01*
X48929066Y80774682D02*
X48975028Y80682758D01*
X48975028Y80682758D02*
X48975028Y80590834D01*
X48975028Y80590834D02*
X48929066Y80452948D01*
X48929066Y80452948D02*
X48377523Y79901406D01*
X48377523Y79901406D02*
X48975028Y79901406D01*
X49802342Y80544872D02*
X49802342Y79901406D01*
X49572533Y80912567D02*
X49342723Y80223139D01*
X49342723Y80223139D02*
X49940228Y80223139D01*
X-22334995Y66863084D02*
X-22429337Y66910255D01*
X-22429337Y66910255D02*
X-22570852Y66910255D01*
X-22570852Y66910255D02*
X-22712366Y66863084D01*
X-22712366Y66863084D02*
X-22806709Y66768741D01*
X-22806709Y66768741D02*
X-22853880Y66674398D01*
X-22853880Y66674398D02*
X-22901052Y66485712D01*
X-22901052Y66485712D02*
X-22901052Y66344198D01*
X-22901052Y66344198D02*
X-22853880Y66155512D01*
X-22853880Y66155512D02*
X-22806709Y66061169D01*
X-22806709Y66061169D02*
X-22712366Y65966826D01*
X-22712366Y65966826D02*
X-22570852Y65919655D01*
X-22570852Y65919655D02*
X-22476509Y65919655D01*
X-22476509Y65919655D02*
X-22334995Y65966826D01*
X-22334995Y65966826D02*
X-22287823Y66013998D01*
X-22287823Y66013998D02*
X-22287823Y66344198D01*
X-22287823Y66344198D02*
X-22476509Y66344198D01*
X-21863280Y65919655D02*
X-21863280Y66910255D01*
X-21863280Y66910255D02*
X-21297223Y65919655D01*
X-21297223Y65919655D02*
X-21297223Y66910255D01*
X-20825509Y65919655D02*
X-20825509Y66910255D01*
X-20825509Y66910255D02*
X-20589652Y66910255D01*
X-20589652Y66910255D02*
X-20448138Y66863084D01*
X-20448138Y66863084D02*
X-20353795Y66768741D01*
X-20353795Y66768741D02*
X-20306624Y66674398D01*
X-20306624Y66674398D02*
X-20259452Y66485712D01*
X-20259452Y66485712D02*
X-20259452Y66344198D01*
X-20259452Y66344198D02*
X-20306624Y66155512D01*
X-20306624Y66155512D02*
X-20353795Y66061169D01*
X-20353795Y66061169D02*
X-20448138Y65966826D01*
X-20448138Y65966826D02*
X-20589652Y65919655D01*
X-20589652Y65919655D02*
X-20825509Y65919655D01*
X-25393880Y49409655D02*
X-25393880Y50400255D01*
X-25393880Y50400255D02*
X-25158023Y50400255D01*
X-25158023Y50400255D02*
X-25016509Y50353084D01*
X-25016509Y50353084D02*
X-24922166Y50258741D01*
X-24922166Y50258741D02*
X-24874995Y50164398D01*
X-24874995Y50164398D02*
X-24827823Y49975712D01*
X-24827823Y49975712D02*
X-24827823Y49834198D01*
X-24827823Y49834198D02*
X-24874995Y49645512D01*
X-24874995Y49645512D02*
X-24922166Y49551169D01*
X-24922166Y49551169D02*
X-25016509Y49456826D01*
X-25016509Y49456826D02*
X-25158023Y49409655D01*
X-25158023Y49409655D02*
X-25393880Y49409655D01*
X-24403280Y49409655D02*
X-24403280Y50400255D01*
X-23931566Y49409655D02*
X-23931566Y50400255D01*
X-23931566Y50400255D02*
X-23365509Y49409655D01*
X-23365509Y49409655D02*
X-23365509Y50400255D01*
X-22705110Y50400255D02*
X-22610767Y50400255D01*
X-22610767Y50400255D02*
X-22516424Y50353084D01*
X-22516424Y50353084D02*
X-22469252Y50305912D01*
X-22469252Y50305912D02*
X-22422081Y50211569D01*
X-22422081Y50211569D02*
X-22374910Y50022884D01*
X-22374910Y50022884D02*
X-22374910Y49787026D01*
X-22374910Y49787026D02*
X-22422081Y49598341D01*
X-22422081Y49598341D02*
X-22469252Y49503998D01*
X-22469252Y49503998D02*
X-22516424Y49456826D01*
X-22516424Y49456826D02*
X-22610767Y49409655D01*
X-22610767Y49409655D02*
X-22705110Y49409655D01*
X-22705110Y49409655D02*
X-22799452Y49456826D01*
X-22799452Y49456826D02*
X-22846624Y49503998D01*
X-22846624Y49503998D02*
X-22893795Y49598341D01*
X-22893795Y49598341D02*
X-22940967Y49787026D01*
X-22940967Y49787026D02*
X-22940967Y50022884D01*
X-22940967Y50022884D02*
X-22893795Y50211569D01*
X-22893795Y50211569D02*
X-22846624Y50305912D01*
X-22846624Y50305912D02*
X-22799452Y50353084D01*
X-22799452Y50353084D02*
X-22705110Y50400255D01*
D10*
X4919104Y31341906D02*
X4919104Y31818096D01*
X5204819Y31246668D02*
X4204819Y31580001D01*
X4204819Y31580001D02*
X5204819Y31913334D01*
X5109580Y32818096D02*
X5157200Y32770477D01*
X5157200Y32770477D02*
X5204819Y32627620D01*
X5204819Y32627620D02*
X5204819Y32532382D01*
X5204819Y32532382D02*
X5157200Y32389525D01*
X5157200Y32389525D02*
X5061961Y32294287D01*
X5061961Y32294287D02*
X4966723Y32246668D01*
X4966723Y32246668D02*
X4776247Y32199049D01*
X4776247Y32199049D02*
X4633390Y32199049D01*
X4633390Y32199049D02*
X4442914Y32246668D01*
X4442914Y32246668D02*
X4347676Y32294287D01*
X4347676Y32294287D02*
X4252438Y32389525D01*
X4252438Y32389525D02*
X4204819Y32532382D01*
X4204819Y32532382D02*
X4204819Y32627620D01*
X4204819Y32627620D02*
X4252438Y32770477D01*
X4252438Y32770477D02*
X4300057Y32818096D01*
D11*
X-900255Y31064606D02*
X90345Y31394806D01*
X90345Y31394806D02*
X-900255Y31725006D01*
X-3998Y32621264D02*
X43174Y32574092D01*
X43174Y32574092D02*
X90345Y32432578D01*
X90345Y32432578D02*
X90345Y32338235D01*
X90345Y32338235D02*
X43174Y32196721D01*
X43174Y32196721D02*
X-51169Y32102378D01*
X-51169Y32102378D02*
X-145512Y32055207D01*
X-145512Y32055207D02*
X-334198Y32008035D01*
X-334198Y32008035D02*
X-475712Y32008035D01*
X-475712Y32008035D02*
X-664398Y32055207D01*
X-664398Y32055207D02*
X-758741Y32102378D01*
X-758741Y32102378D02*
X-853084Y32196721D01*
X-853084Y32196721D02*
X-900255Y32338235D01*
X-900255Y32338235D02*
X-900255Y32432578D01*
X-900255Y32432578D02*
X-853084Y32574092D01*
X-853084Y32574092D02*
X-805912Y32621264D01*
X90345Y33045807D02*
X-900255Y33045807D01*
X-900255Y33045807D02*
X-192684Y33376007D01*
X-192684Y33376007D02*
X-900255Y33706207D01*
X-900255Y33706207D02*
X90345Y33706207D01*
D10*
X20444819Y31318096D02*
X19444819Y31318096D01*
X19444819Y31318096D02*
X19444819Y31556191D01*
X19444819Y31556191D02*
X19492438Y31699048D01*
X19492438Y31699048D02*
X19587676Y31794286D01*
X19587676Y31794286D02*
X19682914Y31841905D01*
X19682914Y31841905D02*
X19873390Y31889524D01*
X19873390Y31889524D02*
X20016247Y31889524D01*
X20016247Y31889524D02*
X20206723Y31841905D01*
X20206723Y31841905D02*
X20301961Y31794286D01*
X20301961Y31794286D02*
X20397200Y31699048D01*
X20397200Y31699048D02*
X20444819Y31556191D01*
X20444819Y31556191D02*
X20444819Y31318096D01*
X20349580Y32889524D02*
X20397200Y32841905D01*
X20397200Y32841905D02*
X20444819Y32699048D01*
X20444819Y32699048D02*
X20444819Y32603810D01*
X20444819Y32603810D02*
X20397200Y32460953D01*
X20397200Y32460953D02*
X20301961Y32365715D01*
X20301961Y32365715D02*
X20206723Y32318096D01*
X20206723Y32318096D02*
X20016247Y32270477D01*
X20016247Y32270477D02*
X19873390Y32270477D01*
X19873390Y32270477D02*
X19682914Y32318096D01*
X19682914Y32318096D02*
X19587676Y32365715D01*
X19587676Y32365715D02*
X19492438Y32460953D01*
X19492438Y32460953D02*
X19444819Y32603810D01*
X19444819Y32603810D02*
X19444819Y32699048D01*
X19444819Y32699048D02*
X19492438Y32841905D01*
X19492438Y32841905D02*
X19540057Y32889524D01*
X22699104Y31341906D02*
X22699104Y31818096D01*
X22984819Y31246668D02*
X21984819Y31580001D01*
X21984819Y31580001D02*
X22984819Y31913334D01*
X22889580Y32818096D02*
X22937200Y32770477D01*
X22937200Y32770477D02*
X22984819Y32627620D01*
X22984819Y32627620D02*
X22984819Y32532382D01*
X22984819Y32532382D02*
X22937200Y32389525D01*
X22937200Y32389525D02*
X22841961Y32294287D01*
X22841961Y32294287D02*
X22746723Y32246668D01*
X22746723Y32246668D02*
X22556247Y32199049D01*
X22556247Y32199049D02*
X22413390Y32199049D01*
X22413390Y32199049D02*
X22222914Y32246668D01*
X22222914Y32246668D02*
X22127676Y32294287D01*
X22127676Y32294287D02*
X22032438Y32389525D01*
X22032438Y32389525D02*
X21984819Y32532382D01*
X21984819Y32532382D02*
X21984819Y32627620D01*
X21984819Y32627620D02*
X22032438Y32770477D01*
X22032438Y32770477D02*
X22080057Y32818096D01*
D11*
X-22844204Y73818190D02*
X-22420871Y73818190D01*
X-22928871Y73527905D02*
X-22632537Y74543905D01*
X-22632537Y74543905D02*
X-22336204Y73527905D01*
X-22124537Y74543905D02*
X-21912871Y73527905D01*
X-21912871Y73527905D02*
X-21743537Y74253619D01*
X-21743537Y74253619D02*
X-21574204Y73527905D01*
X-21574204Y73527905D02*
X-21362537Y74543905D01*
X-20558204Y74495524D02*
X-20642871Y74543905D01*
X-20642871Y74543905D02*
X-20769871Y74543905D01*
X-20769871Y74543905D02*
X-20896871Y74495524D01*
X-20896871Y74495524D02*
X-20981537Y74398762D01*
X-20981537Y74398762D02*
X-21023871Y74302000D01*
X-21023871Y74302000D02*
X-21066204Y74108476D01*
X-21066204Y74108476D02*
X-21066204Y73963333D01*
X-21066204Y73963333D02*
X-21023871Y73769809D01*
X-21023871Y73769809D02*
X-20981537Y73673047D01*
X-20981537Y73673047D02*
X-20896871Y73576285D01*
X-20896871Y73576285D02*
X-20769871Y73527905D01*
X-20769871Y73527905D02*
X-20685204Y73527905D01*
X-20685204Y73527905D02*
X-20558204Y73576285D01*
X-20558204Y73576285D02*
X-20515871Y73624666D01*
X-20515871Y73624666D02*
X-20515871Y73963333D01*
X-20515871Y73963333D02*
X-20685204Y73963333D01*
X-19838537Y74060095D02*
X-19711537Y74011714D01*
X-19711537Y74011714D02*
X-19669204Y73963333D01*
X-19669204Y73963333D02*
X-19626871Y73866571D01*
X-19626871Y73866571D02*
X-19626871Y73721428D01*
X-19626871Y73721428D02*
X-19669204Y73624666D01*
X-19669204Y73624666D02*
X-19711537Y73576285D01*
X-19711537Y73576285D02*
X-19796204Y73527905D01*
X-19796204Y73527905D02*
X-20134871Y73527905D01*
X-20134871Y73527905D02*
X-20134871Y74543905D01*
X-20134871Y74543905D02*
X-19838537Y74543905D01*
X-19838537Y74543905D02*
X-19753871Y74495524D01*
X-19753871Y74495524D02*
X-19711537Y74447143D01*
X-19711537Y74447143D02*
X-19669204Y74350381D01*
X-19669204Y74350381D02*
X-19669204Y74253619D01*
X-19669204Y74253619D02*
X-19711537Y74156857D01*
X-19711537Y74156857D02*
X-19753871Y74108476D01*
X-19753871Y74108476D02*
X-19838537Y74060095D01*
X-19838537Y74060095D02*
X-20134871Y74060095D01*
X-22860404Y63658190D02*
X-22437071Y63658190D01*
X-22945071Y63367905D02*
X-22648737Y64383905D01*
X-22648737Y64383905D02*
X-22352404Y63367905D01*
X-22140737Y64383905D02*
X-21929071Y63367905D01*
X-21929071Y63367905D02*
X-21759737Y64093619D01*
X-21759737Y64093619D02*
X-21590404Y63367905D01*
X-21590404Y63367905D02*
X-21378737Y64383905D01*
X-20574404Y64335524D02*
X-20659071Y64383905D01*
X-20659071Y64383905D02*
X-20786071Y64383905D01*
X-20786071Y64383905D02*
X-20913071Y64335524D01*
X-20913071Y64335524D02*
X-20997737Y64238762D01*
X-20997737Y64238762D02*
X-21040071Y64142000D01*
X-21040071Y64142000D02*
X-21082404Y63948476D01*
X-21082404Y63948476D02*
X-21082404Y63803333D01*
X-21082404Y63803333D02*
X-21040071Y63609809D01*
X-21040071Y63609809D02*
X-20997737Y63513047D01*
X-20997737Y63513047D02*
X-20913071Y63416285D01*
X-20913071Y63416285D02*
X-20786071Y63367905D01*
X-20786071Y63367905D02*
X-20701404Y63367905D01*
X-20701404Y63367905D02*
X-20574404Y63416285D01*
X-20574404Y63416285D02*
X-20532071Y63464666D01*
X-20532071Y63464666D02*
X-20532071Y63803333D01*
X-20532071Y63803333D02*
X-20701404Y63803333D01*
X-20193404Y63658190D02*
X-19770071Y63658190D01*
X-20278071Y63367905D02*
X-19981737Y64383905D01*
X-19981737Y64383905D02*
X-19685404Y63367905D01*
X-25393880Y44329655D02*
X-25393880Y45320255D01*
X-25393880Y45320255D02*
X-25158023Y45320255D01*
X-25158023Y45320255D02*
X-25016509Y45273084D01*
X-25016509Y45273084D02*
X-24922166Y45178741D01*
X-24922166Y45178741D02*
X-24874995Y45084398D01*
X-24874995Y45084398D02*
X-24827823Y44895712D01*
X-24827823Y44895712D02*
X-24827823Y44754198D01*
X-24827823Y44754198D02*
X-24874995Y44565512D01*
X-24874995Y44565512D02*
X-24922166Y44471169D01*
X-24922166Y44471169D02*
X-25016509Y44376826D01*
X-25016509Y44376826D02*
X-25158023Y44329655D01*
X-25158023Y44329655D02*
X-25393880Y44329655D01*
X-24403280Y44329655D02*
X-24403280Y45320255D01*
X-23931566Y44329655D02*
X-23931566Y45320255D01*
X-23931566Y45320255D02*
X-23365509Y44329655D01*
X-23365509Y44329655D02*
X-23365509Y45320255D01*
X-22988138Y45320255D02*
X-22374910Y45320255D01*
X-22374910Y45320255D02*
X-22705110Y44942884D01*
X-22705110Y44942884D02*
X-22563595Y44942884D01*
X-22563595Y44942884D02*
X-22469252Y44895712D01*
X-22469252Y44895712D02*
X-22422081Y44848541D01*
X-22422081Y44848541D02*
X-22374910Y44754198D01*
X-22374910Y44754198D02*
X-22374910Y44518341D01*
X-22374910Y44518341D02*
X-22422081Y44423998D01*
X-22422081Y44423998D02*
X-22469252Y44376826D01*
X-22469252Y44376826D02*
X-22563595Y44329655D01*
X-22563595Y44329655D02*
X-22846624Y44329655D01*
X-22846624Y44329655D02*
X-22940967Y44376826D01*
X-22940967Y44376826D02*
X-22988138Y44423998D01*
X-22334995Y71943084D02*
X-22429337Y71990255D01*
X-22429337Y71990255D02*
X-22570852Y71990255D01*
X-22570852Y71990255D02*
X-22712366Y71943084D01*
X-22712366Y71943084D02*
X-22806709Y71848741D01*
X-22806709Y71848741D02*
X-22853880Y71754398D01*
X-22853880Y71754398D02*
X-22901052Y71565712D01*
X-22901052Y71565712D02*
X-22901052Y71424198D01*
X-22901052Y71424198D02*
X-22853880Y71235512D01*
X-22853880Y71235512D02*
X-22806709Y71141169D01*
X-22806709Y71141169D02*
X-22712366Y71046826D01*
X-22712366Y71046826D02*
X-22570852Y70999655D01*
X-22570852Y70999655D02*
X-22476509Y70999655D01*
X-22476509Y70999655D02*
X-22334995Y71046826D01*
X-22334995Y71046826D02*
X-22287823Y71093998D01*
X-22287823Y71093998D02*
X-22287823Y71424198D01*
X-22287823Y71424198D02*
X-22476509Y71424198D01*
X-21863280Y70999655D02*
X-21863280Y71990255D01*
X-21863280Y71990255D02*
X-21297223Y70999655D01*
X-21297223Y70999655D02*
X-21297223Y71990255D01*
X-20825509Y70999655D02*
X-20825509Y71990255D01*
X-20825509Y71990255D02*
X-20589652Y71990255D01*
X-20589652Y71990255D02*
X-20448138Y71943084D01*
X-20448138Y71943084D02*
X-20353795Y71848741D01*
X-20353795Y71848741D02*
X-20306624Y71754398D01*
X-20306624Y71754398D02*
X-20259452Y71565712D01*
X-20259452Y71565712D02*
X-20259452Y71424198D01*
X-20259452Y71424198D02*
X-20306624Y71235512D01*
X-20306624Y71235512D02*
X-20353795Y71141169D01*
X-20353795Y71141169D02*
X-20448138Y71046826D01*
X-20448138Y71046826D02*
X-20589652Y70999655D01*
X-20589652Y70999655D02*
X-20825509Y70999655D01*
D10*
X-12860896Y31341906D02*
X-12860896Y31818096D01*
X-12575181Y31246668D02*
X-13575181Y31580001D01*
X-13575181Y31580001D02*
X-12575181Y31913334D01*
X-12670420Y32818096D02*
X-12622800Y32770477D01*
X-12622800Y32770477D02*
X-12575181Y32627620D01*
X-12575181Y32627620D02*
X-12575181Y32532382D01*
X-12575181Y32532382D02*
X-12622800Y32389525D01*
X-12622800Y32389525D02*
X-12718039Y32294287D01*
X-12718039Y32294287D02*
X-12813277Y32246668D01*
X-12813277Y32246668D02*
X-13003753Y32199049D01*
X-13003753Y32199049D02*
X-13146610Y32199049D01*
X-13146610Y32199049D02*
X-13337086Y32246668D01*
X-13337086Y32246668D02*
X-13432324Y32294287D01*
X-13432324Y32294287D02*
X-13527562Y32389525D01*
X-13527562Y32389525D02*
X-13575181Y32532382D01*
X-13575181Y32532382D02*
X-13575181Y32627620D01*
X-13575181Y32627620D02*
X-13527562Y32770477D01*
X-13527562Y32770477D02*
X-13479943Y32818096D01*
D11*
X-18680255Y31054930D02*
X-17689655Y31351263D01*
X-17689655Y31351263D02*
X-18680255Y31647597D01*
X-17783998Y32451930D02*
X-17736826Y32409597D01*
X-17736826Y32409597D02*
X-17689655Y32282597D01*
X-17689655Y32282597D02*
X-17689655Y32197930D01*
X-17689655Y32197930D02*
X-17736826Y32070930D01*
X-17736826Y32070930D02*
X-17831169Y31986263D01*
X-17831169Y31986263D02*
X-17925512Y31943930D01*
X-17925512Y31943930D02*
X-18114198Y31901597D01*
X-18114198Y31901597D02*
X-18255712Y31901597D01*
X-18255712Y31901597D02*
X-18444398Y31943930D01*
X-18444398Y31943930D02*
X-18538741Y31986263D01*
X-18538741Y31986263D02*
X-18633084Y32070930D01*
X-18633084Y32070930D02*
X-18680255Y32197930D01*
X-18680255Y32197930D02*
X-18680255Y32282597D01*
X-18680255Y32282597D02*
X-18633084Y32409597D01*
X-18633084Y32409597D02*
X-18585912Y32451930D01*
X-17689655Y32832930D02*
X-18680255Y32832930D01*
X-18680255Y32832930D02*
X-17972684Y33129263D01*
X-17972684Y33129263D02*
X-18680255Y33425597D01*
X-18680255Y33425597D02*
X-17689655Y33425597D01*
D10*
X2664819Y31318096D02*
X1664819Y31318096D01*
X1664819Y31318096D02*
X1664819Y31556191D01*
X1664819Y31556191D02*
X1712438Y31699048D01*
X1712438Y31699048D02*
X1807676Y31794286D01*
X1807676Y31794286D02*
X1902914Y31841905D01*
X1902914Y31841905D02*
X2093390Y31889524D01*
X2093390Y31889524D02*
X2236247Y31889524D01*
X2236247Y31889524D02*
X2426723Y31841905D01*
X2426723Y31841905D02*
X2521961Y31794286D01*
X2521961Y31794286D02*
X2617200Y31699048D01*
X2617200Y31699048D02*
X2664819Y31556191D01*
X2664819Y31556191D02*
X2664819Y31318096D01*
X2569580Y32889524D02*
X2617200Y32841905D01*
X2617200Y32841905D02*
X2664819Y32699048D01*
X2664819Y32699048D02*
X2664819Y32603810D01*
X2664819Y32603810D02*
X2617200Y32460953D01*
X2617200Y32460953D02*
X2521961Y32365715D01*
X2521961Y32365715D02*
X2426723Y32318096D01*
X2426723Y32318096D02*
X2236247Y32270477D01*
X2236247Y32270477D02*
X2093390Y32270477D01*
X2093390Y32270477D02*
X1902914Y32318096D01*
X1902914Y32318096D02*
X1807676Y32365715D01*
X1807676Y32365715D02*
X1712438Y32460953D01*
X1712438Y32460953D02*
X1664819Y32603810D01*
X1664819Y32603810D02*
X1664819Y32699048D01*
X1664819Y32699048D02*
X1712438Y32841905D01*
X1712438Y32841905D02*
X1760057Y32889524D01*
D11*
X16879745Y31054930D02*
X17870345Y31351263D01*
X17870345Y31351263D02*
X16879745Y31647597D01*
X17776002Y32451930D02*
X17823174Y32409597D01*
X17823174Y32409597D02*
X17870345Y32282597D01*
X17870345Y32282597D02*
X17870345Y32197930D01*
X17870345Y32197930D02*
X17823174Y32070930D01*
X17823174Y32070930D02*
X17728831Y31986263D01*
X17728831Y31986263D02*
X17634488Y31943930D01*
X17634488Y31943930D02*
X17445802Y31901597D01*
X17445802Y31901597D02*
X17304288Y31901597D01*
X17304288Y31901597D02*
X17115602Y31943930D01*
X17115602Y31943930D02*
X17021259Y31986263D01*
X17021259Y31986263D02*
X16926916Y32070930D01*
X16926916Y32070930D02*
X16879745Y32197930D01*
X16879745Y32197930D02*
X16879745Y32282597D01*
X16879745Y32282597D02*
X16926916Y32409597D01*
X16926916Y32409597D02*
X16974088Y32451930D01*
X17870345Y32832930D02*
X16879745Y32832930D01*
X16879745Y32832930D02*
X17587316Y33129263D01*
X17587316Y33129263D02*
X16879745Y33425597D01*
X16879745Y33425597D02*
X17870345Y33425597D01*
X-23683084Y31665006D02*
X-23730255Y31570663D01*
X-23730255Y31570663D02*
X-23730255Y31429149D01*
X-23730255Y31429149D02*
X-23683084Y31287635D01*
X-23683084Y31287635D02*
X-23588741Y31193292D01*
X-23588741Y31193292D02*
X-23494398Y31146121D01*
X-23494398Y31146121D02*
X-23305712Y31098949D01*
X-23305712Y31098949D02*
X-23164198Y31098949D01*
X-23164198Y31098949D02*
X-22975512Y31146121D01*
X-22975512Y31146121D02*
X-22881169Y31193292D01*
X-22881169Y31193292D02*
X-22786826Y31287635D01*
X-22786826Y31287635D02*
X-22739655Y31429149D01*
X-22739655Y31429149D02*
X-22739655Y31523492D01*
X-22739655Y31523492D02*
X-22786826Y31665006D01*
X-22786826Y31665006D02*
X-22833998Y31712178D01*
X-22833998Y31712178D02*
X-23164198Y31712178D01*
X-23164198Y31712178D02*
X-23164198Y31523492D01*
X-22739655Y32136721D02*
X-23730255Y32136721D01*
X-23730255Y32136721D02*
X-22739655Y32702778D01*
X-22739655Y32702778D02*
X-23730255Y32702778D01*
X-22739655Y33174492D02*
X-23730255Y33174492D01*
X-23730255Y33174492D02*
X-23730255Y33410349D01*
X-23730255Y33410349D02*
X-23683084Y33551863D01*
X-23683084Y33551863D02*
X-23588741Y33646206D01*
X-23588741Y33646206D02*
X-23494398Y33693377D01*
X-23494398Y33693377D02*
X-23305712Y33740549D01*
X-23305712Y33740549D02*
X-23164198Y33740549D01*
X-23164198Y33740549D02*
X-22975512Y33693377D01*
X-22975512Y33693377D02*
X-22881169Y33646206D01*
X-22881169Y33646206D02*
X-22786826Y33551863D01*
X-22786826Y33551863D02*
X-22739655Y33410349D01*
X-22739655Y33410349D02*
X-22739655Y33174492D01*
D12*
X-25216749Y38322025D02*
X-25216749Y39719025D01*
X-25216749Y39719025D02*
X-24636178Y39719025D01*
X-24636178Y39719025D02*
X-24491035Y39652501D01*
X-24491035Y39652501D02*
X-24418464Y39585977D01*
X-24418464Y39585977D02*
X-24345892Y39452929D01*
X-24345892Y39452929D02*
X-24345892Y39253358D01*
X-24345892Y39253358D02*
X-24418464Y39120310D01*
X-24418464Y39120310D02*
X-24491035Y39053787D01*
X-24491035Y39053787D02*
X-24636178Y38987263D01*
X-24636178Y38987263D02*
X-25216749Y38987263D01*
X-23692749Y38322025D02*
X-23692749Y39253358D01*
X-23692749Y39719025D02*
X-23765321Y39652501D01*
X-23765321Y39652501D02*
X-23692749Y39585977D01*
X-23692749Y39585977D02*
X-23620178Y39652501D01*
X-23620178Y39652501D02*
X-23692749Y39719025D01*
X-23692749Y39719025D02*
X-23692749Y39585977D01*
X-21805892Y38322025D02*
X-21805892Y39719025D01*
X-21805892Y39719025D02*
X-21225321Y39719025D01*
X-21225321Y39719025D02*
X-21080178Y39652501D01*
X-21080178Y39652501D02*
X-21007607Y39585977D01*
X-21007607Y39585977D02*
X-20935035Y39452929D01*
X-20935035Y39452929D02*
X-20935035Y39253358D01*
X-20935035Y39253358D02*
X-21007607Y39120310D01*
X-21007607Y39120310D02*
X-21080178Y39053787D01*
X-21080178Y39053787D02*
X-21225321Y38987263D01*
X-21225321Y38987263D02*
X-21805892Y38987263D01*
X-20281892Y38322025D02*
X-20281892Y39719025D01*
X-18685321Y38455072D02*
X-18757893Y38388548D01*
X-18757893Y38388548D02*
X-18975607Y38322025D01*
X-18975607Y38322025D02*
X-19120750Y38322025D01*
X-19120750Y38322025D02*
X-19338464Y38388548D01*
X-19338464Y38388548D02*
X-19483607Y38521596D01*
X-19483607Y38521596D02*
X-19556178Y38654644D01*
X-19556178Y38654644D02*
X-19628750Y38920739D01*
X-19628750Y38920739D02*
X-19628750Y39120310D01*
X-19628750Y39120310D02*
X-19556178Y39386406D01*
X-19556178Y39386406D02*
X-19483607Y39519453D01*
X-19483607Y39519453D02*
X-19338464Y39652501D01*
X-19338464Y39652501D02*
X-19120750Y39719025D01*
X-19120750Y39719025D02*
X-18975607Y39719025D01*
X-18975607Y39719025D02*
X-18757893Y39652501D01*
X-18757893Y39652501D02*
X-18685321Y39585977D01*
X-17741893Y39719025D02*
X-17451607Y39719025D01*
X-17451607Y39719025D02*
X-17306464Y39652501D01*
X-17306464Y39652501D02*
X-17161321Y39519453D01*
X-17161321Y39519453D02*
X-17088750Y39253358D01*
X-17088750Y39253358D02*
X-17088750Y38787691D01*
X-17088750Y38787691D02*
X-17161321Y38521596D01*
X-17161321Y38521596D02*
X-17306464Y38388548D01*
X-17306464Y38388548D02*
X-17451607Y38322025D01*
X-17451607Y38322025D02*
X-17741893Y38322025D01*
X-17741893Y38322025D02*
X-17887035Y38388548D01*
X-17887035Y38388548D02*
X-18032178Y38521596D01*
X-18032178Y38521596D02*
X-18104750Y38787691D01*
X-18104750Y38787691D02*
X-18104750Y39253358D01*
X-18104750Y39253358D02*
X-18032178Y39519453D01*
X-18032178Y39519453D02*
X-17887035Y39652501D01*
X-17887035Y39652501D02*
X-17741893Y39719025D01*
X-25289321Y36139378D02*
X-25071606Y36072855D01*
X-25071606Y36072855D02*
X-24708749Y36072855D01*
X-24708749Y36072855D02*
X-24563606Y36139378D01*
X-24563606Y36139378D02*
X-24491035Y36205902D01*
X-24491035Y36205902D02*
X-24418464Y36338950D01*
X-24418464Y36338950D02*
X-24418464Y36471998D01*
X-24418464Y36471998D02*
X-24491035Y36605045D01*
X-24491035Y36605045D02*
X-24563606Y36671569D01*
X-24563606Y36671569D02*
X-24708749Y36738093D01*
X-24708749Y36738093D02*
X-24999035Y36804617D01*
X-24999035Y36804617D02*
X-25144178Y36871140D01*
X-25144178Y36871140D02*
X-25216749Y36937664D01*
X-25216749Y36937664D02*
X-25289321Y37070712D01*
X-25289321Y37070712D02*
X-25289321Y37203759D01*
X-25289321Y37203759D02*
X-25216749Y37336807D01*
X-25216749Y37336807D02*
X-25144178Y37403331D01*
X-25144178Y37403331D02*
X-24999035Y37469855D01*
X-24999035Y37469855D02*
X-24636178Y37469855D01*
X-24636178Y37469855D02*
X-24418464Y37403331D01*
X-23112177Y36139378D02*
X-23257320Y36072855D01*
X-23257320Y36072855D02*
X-23547606Y36072855D01*
X-23547606Y36072855D02*
X-23692749Y36139378D01*
X-23692749Y36139378D02*
X-23765320Y36205902D01*
X-23765320Y36205902D02*
X-23837892Y36338950D01*
X-23837892Y36338950D02*
X-23837892Y36738093D01*
X-23837892Y36738093D02*
X-23765320Y36871140D01*
X-23765320Y36871140D02*
X-23692749Y36937664D01*
X-23692749Y36937664D02*
X-23547606Y37004188D01*
X-23547606Y37004188D02*
X-23257320Y37004188D01*
X-23257320Y37004188D02*
X-23112177Y36937664D01*
X-22241320Y36072855D02*
X-22386463Y36139378D01*
X-22386463Y36139378D02*
X-22459034Y36205902D01*
X-22459034Y36205902D02*
X-22531606Y36338950D01*
X-22531606Y36338950D02*
X-22531606Y36738093D01*
X-22531606Y36738093D02*
X-22459034Y36871140D01*
X-22459034Y36871140D02*
X-22386463Y36937664D01*
X-22386463Y36937664D02*
X-22241320Y37004188D01*
X-22241320Y37004188D02*
X-22023606Y37004188D01*
X-22023606Y37004188D02*
X-21878463Y36937664D01*
X-21878463Y36937664D02*
X-21805891Y36871140D01*
X-21805891Y36871140D02*
X-21733320Y36738093D01*
X-21733320Y36738093D02*
X-21733320Y36338950D01*
X-21733320Y36338950D02*
X-21805891Y36205902D01*
X-21805891Y36205902D02*
X-21878463Y36139378D01*
X-21878463Y36139378D02*
X-22023606Y36072855D01*
X-22023606Y36072855D02*
X-22241320Y36072855D01*
X-21080177Y37004188D02*
X-21080177Y35607188D01*
X-21080177Y36937664D02*
X-20935034Y37004188D01*
X-20935034Y37004188D02*
X-20644749Y37004188D01*
X-20644749Y37004188D02*
X-20499606Y36937664D01*
X-20499606Y36937664D02*
X-20427034Y36871140D01*
X-20427034Y36871140D02*
X-20354463Y36738093D01*
X-20354463Y36738093D02*
X-20354463Y36338950D01*
X-20354463Y36338950D02*
X-20427034Y36205902D01*
X-20427034Y36205902D02*
X-20499606Y36139378D01*
X-20499606Y36139378D02*
X-20644749Y36072855D01*
X-20644749Y36072855D02*
X-20935034Y36072855D01*
X-20935034Y36072855D02*
X-21080177Y36139378D01*
X-19120749Y36139378D02*
X-19265892Y36072855D01*
X-19265892Y36072855D02*
X-19556177Y36072855D01*
X-19556177Y36072855D02*
X-19701320Y36139378D01*
X-19701320Y36139378D02*
X-19773892Y36272426D01*
X-19773892Y36272426D02*
X-19773892Y36804617D01*
X-19773892Y36804617D02*
X-19701320Y36937664D01*
X-19701320Y36937664D02*
X-19556177Y37004188D01*
X-19556177Y37004188D02*
X-19265892Y37004188D01*
X-19265892Y37004188D02*
X-19120749Y36937664D01*
X-19120749Y36937664D02*
X-19048177Y36804617D01*
X-19048177Y36804617D02*
X-19048177Y36671569D01*
X-19048177Y36671569D02*
X-19773892Y36538521D01*
X-17379034Y37469855D02*
X-16435606Y37469855D01*
X-16435606Y37469855D02*
X-16943606Y36937664D01*
X-16943606Y36937664D02*
X-16725891Y36937664D01*
X-16725891Y36937664D02*
X-16580748Y36871140D01*
X-16580748Y36871140D02*
X-16508177Y36804617D01*
X-16508177Y36804617D02*
X-16435606Y36671569D01*
X-16435606Y36671569D02*
X-16435606Y36338950D01*
X-16435606Y36338950D02*
X-16508177Y36205902D01*
X-16508177Y36205902D02*
X-16580748Y36139378D01*
X-16580748Y36139378D02*
X-16725891Y36072855D01*
X-16725891Y36072855D02*
X-17161320Y36072855D01*
X-17161320Y36072855D02*
X-17306463Y36139378D01*
X-17306463Y36139378D02*
X-17379034Y36205902D01*
D11*
X-25393880Y43059655D02*
X-25393880Y44050255D01*
X-25393880Y44050255D02*
X-25158023Y44050255D01*
X-25158023Y44050255D02*
X-25016509Y44003084D01*
X-25016509Y44003084D02*
X-24922166Y43908741D01*
X-24922166Y43908741D02*
X-24874995Y43814398D01*
X-24874995Y43814398D02*
X-24827823Y43625712D01*
X-24827823Y43625712D02*
X-24827823Y43484198D01*
X-24827823Y43484198D02*
X-24874995Y43295512D01*
X-24874995Y43295512D02*
X-24922166Y43201169D01*
X-24922166Y43201169D02*
X-25016509Y43106826D01*
X-25016509Y43106826D02*
X-25158023Y43059655D01*
X-25158023Y43059655D02*
X-25393880Y43059655D01*
X-24403280Y43059655D02*
X-24403280Y44050255D01*
X-23931566Y43059655D02*
X-23931566Y44050255D01*
X-23931566Y44050255D02*
X-23365509Y43059655D01*
X-23365509Y43059655D02*
X-23365509Y44050255D01*
X-22469252Y43720055D02*
X-22469252Y43059655D01*
X-22705110Y44097426D02*
X-22940967Y43389855D01*
X-22940967Y43389855D02*
X-22327738Y43389855D01*
D10*
X50244580Y30643334D02*
X50292200Y30595715D01*
X50292200Y30595715D02*
X50339819Y30452858D01*
X50339819Y30452858D02*
X50339819Y30357620D01*
X50339819Y30357620D02*
X50292200Y30214763D01*
X50292200Y30214763D02*
X50196961Y30119525D01*
X50196961Y30119525D02*
X50101723Y30071906D01*
X50101723Y30071906D02*
X49911247Y30024287D01*
X49911247Y30024287D02*
X49768390Y30024287D01*
X49768390Y30024287D02*
X49577914Y30071906D01*
X49577914Y30071906D02*
X49482676Y30119525D01*
X49482676Y30119525D02*
X49387438Y30214763D01*
X49387438Y30214763D02*
X49339819Y30357620D01*
X49339819Y30357620D02*
X49339819Y30452858D01*
X49339819Y30452858D02*
X49387438Y30595715D01*
X49387438Y30595715D02*
X49435057Y30643334D01*
X49673152Y31500477D02*
X50339819Y31500477D01*
X49292200Y31262382D02*
X50006485Y31024287D01*
X50006485Y31024287D02*
X50006485Y31643334D01*
X23593333Y78125420D02*
X23545714Y78077800D01*
X23545714Y78077800D02*
X23402857Y78030181D01*
X23402857Y78030181D02*
X23307619Y78030181D01*
X23307619Y78030181D02*
X23164762Y78077800D01*
X23164762Y78077800D02*
X23069524Y78173039D01*
X23069524Y78173039D02*
X23021905Y78268277D01*
X23021905Y78268277D02*
X22974286Y78458753D01*
X22974286Y78458753D02*
X22974286Y78601610D01*
X22974286Y78601610D02*
X23021905Y78792086D01*
X23021905Y78792086D02*
X23069524Y78887324D01*
X23069524Y78887324D02*
X23164762Y78982562D01*
X23164762Y78982562D02*
X23307619Y79030181D01*
X23307619Y79030181D02*
X23402857Y79030181D01*
X23402857Y79030181D02*
X23545714Y78982562D01*
X23545714Y78982562D02*
X23593333Y78934943D01*
X24450476Y79030181D02*
X24260000Y79030181D01*
X24260000Y79030181D02*
X24164762Y78982562D01*
X24164762Y78982562D02*
X24117143Y78934943D01*
X24117143Y78934943D02*
X24021905Y78792086D01*
X24021905Y78792086D02*
X23974286Y78601610D01*
X23974286Y78601610D02*
X23974286Y78220658D01*
X23974286Y78220658D02*
X24021905Y78125420D01*
X24021905Y78125420D02*
X24069524Y78077800D01*
X24069524Y78077800D02*
X24164762Y78030181D01*
X24164762Y78030181D02*
X24355238Y78030181D01*
X24355238Y78030181D02*
X24450476Y78077800D01*
X24450476Y78077800D02*
X24498095Y78125420D01*
X24498095Y78125420D02*
X24545714Y78220658D01*
X24545714Y78220658D02*
X24545714Y78458753D01*
X24545714Y78458753D02*
X24498095Y78553991D01*
X24498095Y78553991D02*
X24450476Y78601610D01*
X24450476Y78601610D02*
X24355238Y78649229D01*
X24355238Y78649229D02*
X24164762Y78649229D01*
X24164762Y78649229D02*
X24069524Y78601610D01*
X24069524Y78601610D02*
X24021905Y78553991D01*
X24021905Y78553991D02*
X23974286Y78458753D01*
X21093333Y45010181D02*
X20760000Y45486372D01*
X20521905Y45010181D02*
X20521905Y46010181D01*
X20521905Y46010181D02*
X20902857Y46010181D01*
X20902857Y46010181D02*
X20998095Y45962562D01*
X20998095Y45962562D02*
X21045714Y45914943D01*
X21045714Y45914943D02*
X21093333Y45819705D01*
X21093333Y45819705D02*
X21093333Y45676848D01*
X21093333Y45676848D02*
X21045714Y45581610D01*
X21045714Y45581610D02*
X20998095Y45533991D01*
X20998095Y45533991D02*
X20902857Y45486372D01*
X20902857Y45486372D02*
X20521905Y45486372D01*
X21998095Y46010181D02*
X21521905Y46010181D01*
X21521905Y46010181D02*
X21474286Y45533991D01*
X21474286Y45533991D02*
X21521905Y45581610D01*
X21521905Y45581610D02*
X21617143Y45629229D01*
X21617143Y45629229D02*
X21855238Y45629229D01*
X21855238Y45629229D02*
X21950476Y45581610D01*
X21950476Y45581610D02*
X21998095Y45533991D01*
X21998095Y45533991D02*
X22045714Y45438753D01*
X22045714Y45438753D02*
X22045714Y45200658D01*
X22045714Y45200658D02*
X21998095Y45105420D01*
X21998095Y45105420D02*
X21950476Y45057800D01*
X21950476Y45057800D02*
X21855238Y45010181D01*
X21855238Y45010181D02*
X21617143Y45010181D01*
X21617143Y45010181D02*
X21521905Y45057800D01*
X21521905Y45057800D02*
X21474286Y45105420D01*
X-14466667Y48820181D02*
X-14800000Y49296372D01*
X-15038095Y48820181D02*
X-15038095Y49820181D01*
X-15038095Y49820181D02*
X-14657143Y49820181D01*
X-14657143Y49820181D02*
X-14561905Y49772562D01*
X-14561905Y49772562D02*
X-14514286Y49724943D01*
X-14514286Y49724943D02*
X-14466667Y49629705D01*
X-14466667Y49629705D02*
X-14466667Y49486848D01*
X-14466667Y49486848D02*
X-14514286Y49391610D01*
X-14514286Y49391610D02*
X-14561905Y49343991D01*
X-14561905Y49343991D02*
X-14657143Y49296372D01*
X-14657143Y49296372D02*
X-15038095Y49296372D01*
X-13990476Y48820181D02*
X-13800000Y48820181D01*
X-13800000Y48820181D02*
X-13704762Y48867800D01*
X-13704762Y48867800D02*
X-13657143Y48915420D01*
X-13657143Y48915420D02*
X-13561905Y49058277D01*
X-13561905Y49058277D02*
X-13514286Y49248753D01*
X-13514286Y49248753D02*
X-13514286Y49629705D01*
X-13514286Y49629705D02*
X-13561905Y49724943D01*
X-13561905Y49724943D02*
X-13609524Y49772562D01*
X-13609524Y49772562D02*
X-13704762Y49820181D01*
X-13704762Y49820181D02*
X-13895238Y49820181D01*
X-13895238Y49820181D02*
X-13990476Y49772562D01*
X-13990476Y49772562D02*
X-14038095Y49724943D01*
X-14038095Y49724943D02*
X-14085714Y49629705D01*
X-14085714Y49629705D02*
X-14085714Y49391610D01*
X-14085714Y49391610D02*
X-14038095Y49296372D01*
X-14038095Y49296372D02*
X-13990476Y49248753D01*
X-13990476Y49248753D02*
X-13895238Y49201134D01*
X-13895238Y49201134D02*
X-13704762Y49201134D01*
X-13704762Y49201134D02*
X-13609524Y49248753D01*
X-13609524Y49248753D02*
X-13561905Y49296372D01*
X-13561905Y49296372D02*
X-13514286Y49391610D01*
X9187142Y43640181D02*
X8853809Y44116372D01*
X8615714Y43640181D02*
X8615714Y44640181D01*
X8615714Y44640181D02*
X8996666Y44640181D01*
X8996666Y44640181D02*
X9091904Y44592562D01*
X9091904Y44592562D02*
X9139523Y44544943D01*
X9139523Y44544943D02*
X9187142Y44449705D01*
X9187142Y44449705D02*
X9187142Y44306848D01*
X9187142Y44306848D02*
X9139523Y44211610D01*
X9139523Y44211610D02*
X9091904Y44163991D01*
X9091904Y44163991D02*
X8996666Y44116372D01*
X8996666Y44116372D02*
X8615714Y44116372D01*
X10139523Y43640181D02*
X9568095Y43640181D01*
X9853809Y43640181D02*
X9853809Y44640181D01*
X9853809Y44640181D02*
X9758571Y44497324D01*
X9758571Y44497324D02*
X9663333Y44402086D01*
X9663333Y44402086D02*
X9568095Y44354467D01*
X10996666Y44640181D02*
X10806190Y44640181D01*
X10806190Y44640181D02*
X10710952Y44592562D01*
X10710952Y44592562D02*
X10663333Y44544943D01*
X10663333Y44544943D02*
X10568095Y44402086D01*
X10568095Y44402086D02*
X10520476Y44211610D01*
X10520476Y44211610D02*
X10520476Y43830658D01*
X10520476Y43830658D02*
X10568095Y43735420D01*
X10568095Y43735420D02*
X10615714Y43687800D01*
X10615714Y43687800D02*
X10710952Y43640181D01*
X10710952Y43640181D02*
X10901428Y43640181D01*
X10901428Y43640181D02*
X10996666Y43687800D01*
X10996666Y43687800D02*
X11044285Y43735420D01*
X11044285Y43735420D02*
X11091904Y43830658D01*
X11091904Y43830658D02*
X11091904Y44068753D01*
X11091904Y44068753D02*
X11044285Y44163991D01*
X11044285Y44163991D02*
X10996666Y44211610D01*
X10996666Y44211610D02*
X10901428Y44259229D01*
X10901428Y44259229D02*
X10710952Y44259229D01*
X10710952Y44259229D02*
X10615714Y44211610D01*
X10615714Y44211610D02*
X10568095Y44163991D01*
X10568095Y44163991D02*
X10520476Y44068753D01*
X-9981905Y70515181D02*
X-9981905Y69705658D01*
X-9981905Y69705658D02*
X-9934286Y69610420D01*
X-9934286Y69610420D02*
X-9886667Y69562800D01*
X-9886667Y69562800D02*
X-9791429Y69515181D01*
X-9791429Y69515181D02*
X-9600953Y69515181D01*
X-9600953Y69515181D02*
X-9505715Y69562800D01*
X-9505715Y69562800D02*
X-9458096Y69610420D01*
X-9458096Y69610420D02*
X-9410477Y69705658D01*
X-9410477Y69705658D02*
X-9410477Y70515181D01*
X-8981905Y70419943D02*
X-8934286Y70467562D01*
X-8934286Y70467562D02*
X-8839048Y70515181D01*
X-8839048Y70515181D02*
X-8600953Y70515181D01*
X-8600953Y70515181D02*
X-8505715Y70467562D01*
X-8505715Y70467562D02*
X-8458096Y70419943D01*
X-8458096Y70419943D02*
X-8410477Y70324705D01*
X-8410477Y70324705D02*
X-8410477Y70229467D01*
X-8410477Y70229467D02*
X-8458096Y70086610D01*
X-8458096Y70086610D02*
X-9029524Y69515181D01*
X-9029524Y69515181D02*
X-8410477Y69515181D01*
X-14720477Y70995181D02*
X-15196667Y70995181D01*
X-15196667Y70995181D02*
X-15196667Y71995181D01*
X-14387143Y70995181D02*
X-14387143Y71995181D01*
X-14387143Y71995181D02*
X-14053810Y71280896D01*
X-14053810Y71280896D02*
X-13720477Y71995181D01*
X-13720477Y71995181D02*
X-13720477Y70995181D01*
X-13339524Y71995181D02*
X-12720477Y71995181D01*
X-12720477Y71995181D02*
X-13053810Y71614229D01*
X-13053810Y71614229D02*
X-12910953Y71614229D01*
X-12910953Y71614229D02*
X-12815715Y71566610D01*
X-12815715Y71566610D02*
X-12768096Y71518991D01*
X-12768096Y71518991D02*
X-12720477Y71423753D01*
X-12720477Y71423753D02*
X-12720477Y71185658D01*
X-12720477Y71185658D02*
X-12768096Y71090420D01*
X-12768096Y71090420D02*
X-12815715Y71042800D01*
X-12815715Y71042800D02*
X-12910953Y70995181D01*
X-12910953Y70995181D02*
X-13196667Y70995181D01*
X-13196667Y70995181D02*
X-13291905Y71042800D01*
X-13291905Y71042800D02*
X-13339524Y71090420D01*
X-12339524Y71899943D02*
X-12291905Y71947562D01*
X-12291905Y71947562D02*
X-12196667Y71995181D01*
X-12196667Y71995181D02*
X-11958572Y71995181D01*
X-11958572Y71995181D02*
X-11863334Y71947562D01*
X-11863334Y71947562D02*
X-11815715Y71899943D01*
X-11815715Y71899943D02*
X-11768096Y71804705D01*
X-11768096Y71804705D02*
X-11768096Y71709467D01*
X-11768096Y71709467D02*
X-11815715Y71566610D01*
X-11815715Y71566610D02*
X-12387143Y70995181D01*
X-12387143Y70995181D02*
X-11768096Y70995181D01*
X-10910953Y71661848D02*
X-10910953Y70995181D01*
X-11149048Y72042800D02*
X-11387143Y71328515D01*
X-11387143Y71328515D02*
X-10768096Y71328515D01*
X27276666Y30085181D02*
X27276666Y29370896D01*
X27276666Y29370896D02*
X27229047Y29228039D01*
X27229047Y29228039D02*
X27133809Y29132800D01*
X27133809Y29132800D02*
X26990952Y29085181D01*
X26990952Y29085181D02*
X26895714Y29085181D01*
X28276666Y29085181D02*
X27705238Y29085181D01*
X27990952Y29085181D02*
X27990952Y30085181D01*
X27990952Y30085181D02*
X27895714Y29942324D01*
X27895714Y29942324D02*
X27800476Y29847086D01*
X27800476Y29847086D02*
X27705238Y29799467D01*
X39667142Y32310181D02*
X39333809Y32786372D01*
X39095714Y32310181D02*
X39095714Y33310181D01*
X39095714Y33310181D02*
X39476666Y33310181D01*
X39476666Y33310181D02*
X39571904Y33262562D01*
X39571904Y33262562D02*
X39619523Y33214943D01*
X39619523Y33214943D02*
X39667142Y33119705D01*
X39667142Y33119705D02*
X39667142Y32976848D01*
X39667142Y32976848D02*
X39619523Y32881610D01*
X39619523Y32881610D02*
X39571904Y32833991D01*
X39571904Y32833991D02*
X39476666Y32786372D01*
X39476666Y32786372D02*
X39095714Y32786372D01*
X40619523Y32310181D02*
X40048095Y32310181D01*
X40333809Y32310181D02*
X40333809Y33310181D01*
X40333809Y33310181D02*
X40238571Y33167324D01*
X40238571Y33167324D02*
X40143333Y33072086D01*
X40143333Y33072086D02*
X40048095Y33024467D01*
X41095714Y32310181D02*
X41286190Y32310181D01*
X41286190Y32310181D02*
X41381428Y32357800D01*
X41381428Y32357800D02*
X41429047Y32405420D01*
X41429047Y32405420D02*
X41524285Y32548277D01*
X41524285Y32548277D02*
X41571904Y32738753D01*
X41571904Y32738753D02*
X41571904Y33119705D01*
X41571904Y33119705D02*
X41524285Y33214943D01*
X41524285Y33214943D02*
X41476666Y33262562D01*
X41476666Y33262562D02*
X41381428Y33310181D01*
X41381428Y33310181D02*
X41190952Y33310181D01*
X41190952Y33310181D02*
X41095714Y33262562D01*
X41095714Y33262562D02*
X41048095Y33214943D01*
X41048095Y33214943D02*
X41000476Y33119705D01*
X41000476Y33119705D02*
X41000476Y32881610D01*
X41000476Y32881610D02*
X41048095Y32786372D01*
X41048095Y32786372D02*
X41095714Y32738753D01*
X41095714Y32738753D02*
X41190952Y32691134D01*
X41190952Y32691134D02*
X41381428Y32691134D01*
X41381428Y32691134D02*
X41476666Y32738753D01*
X41476666Y32738753D02*
X41524285Y32786372D01*
X41524285Y32786372D02*
X41571904Y32881610D01*
X-22253334Y60565181D02*
X-22253334Y59850896D01*
X-22253334Y59850896D02*
X-22300953Y59708039D01*
X-22300953Y59708039D02*
X-22396191Y59612800D01*
X-22396191Y59612800D02*
X-22539048Y59565181D01*
X-22539048Y59565181D02*
X-22634286Y59565181D01*
X-21872381Y60565181D02*
X-21253334Y60565181D01*
X-21253334Y60565181D02*
X-21586667Y60184229D01*
X-21586667Y60184229D02*
X-21443810Y60184229D01*
X-21443810Y60184229D02*
X-21348572Y60136610D01*
X-21348572Y60136610D02*
X-21300953Y60088991D01*
X-21300953Y60088991D02*
X-21253334Y59993753D01*
X-21253334Y59993753D02*
X-21253334Y59755658D01*
X-21253334Y59755658D02*
X-21300953Y59660420D01*
X-21300953Y59660420D02*
X-21348572Y59612800D01*
X-21348572Y59612800D02*
X-21443810Y59565181D01*
X-21443810Y59565181D02*
X-21729524Y59565181D01*
X-21729524Y59565181D02*
X-21824762Y59612800D01*
X-21824762Y59612800D02*
X-21872381Y59660420D01*
X-3036667Y61420181D02*
X-3370000Y61896372D01*
X-3608095Y61420181D02*
X-3608095Y62420181D01*
X-3608095Y62420181D02*
X-3227143Y62420181D01*
X-3227143Y62420181D02*
X-3131905Y62372562D01*
X-3131905Y62372562D02*
X-3084286Y62324943D01*
X-3084286Y62324943D02*
X-3036667Y62229705D01*
X-3036667Y62229705D02*
X-3036667Y62086848D01*
X-3036667Y62086848D02*
X-3084286Y61991610D01*
X-3084286Y61991610D02*
X-3131905Y61943991D01*
X-3131905Y61943991D02*
X-3227143Y61896372D01*
X-3227143Y61896372D02*
X-3608095Y61896372D01*
X-2465238Y61991610D02*
X-2560476Y62039229D01*
X-2560476Y62039229D02*
X-2608095Y62086848D01*
X-2608095Y62086848D02*
X-2655714Y62182086D01*
X-2655714Y62182086D02*
X-2655714Y62229705D01*
X-2655714Y62229705D02*
X-2608095Y62324943D01*
X-2608095Y62324943D02*
X-2560476Y62372562D01*
X-2560476Y62372562D02*
X-2465238Y62420181D01*
X-2465238Y62420181D02*
X-2274762Y62420181D01*
X-2274762Y62420181D02*
X-2179524Y62372562D01*
X-2179524Y62372562D02*
X-2131905Y62324943D01*
X-2131905Y62324943D02*
X-2084286Y62229705D01*
X-2084286Y62229705D02*
X-2084286Y62182086D01*
X-2084286Y62182086D02*
X-2131905Y62086848D01*
X-2131905Y62086848D02*
X-2179524Y62039229D01*
X-2179524Y62039229D02*
X-2274762Y61991610D01*
X-2274762Y61991610D02*
X-2465238Y61991610D01*
X-2465238Y61991610D02*
X-2560476Y61943991D01*
X-2560476Y61943991D02*
X-2608095Y61896372D01*
X-2608095Y61896372D02*
X-2655714Y61801134D01*
X-2655714Y61801134D02*
X-2655714Y61610658D01*
X-2655714Y61610658D02*
X-2608095Y61515420D01*
X-2608095Y61515420D02*
X-2560476Y61467800D01*
X-2560476Y61467800D02*
X-2465238Y61420181D01*
X-2465238Y61420181D02*
X-2274762Y61420181D01*
X-2274762Y61420181D02*
X-2179524Y61467800D01*
X-2179524Y61467800D02*
X-2131905Y61515420D01*
X-2131905Y61515420D02*
X-2084286Y61610658D01*
X-2084286Y61610658D02*
X-2084286Y61801134D01*
X-2084286Y61801134D02*
X-2131905Y61896372D01*
X-2131905Y61896372D02*
X-2179524Y61943991D01*
X-2179524Y61943991D02*
X-2274762Y61991610D01*
X-17006667Y50090181D02*
X-17340000Y50566372D01*
X-17578095Y50090181D02*
X-17578095Y51090181D01*
X-17578095Y51090181D02*
X-17197143Y51090181D01*
X-17197143Y51090181D02*
X-17101905Y51042562D01*
X-17101905Y51042562D02*
X-17054286Y50994943D01*
X-17054286Y50994943D02*
X-17006667Y50899705D01*
X-17006667Y50899705D02*
X-17006667Y50756848D01*
X-17006667Y50756848D02*
X-17054286Y50661610D01*
X-17054286Y50661610D02*
X-17101905Y50613991D01*
X-17101905Y50613991D02*
X-17197143Y50566372D01*
X-17197143Y50566372D02*
X-17578095Y50566372D01*
X-16625714Y50994943D02*
X-16578095Y51042562D01*
X-16578095Y51042562D02*
X-16482857Y51090181D01*
X-16482857Y51090181D02*
X-16244762Y51090181D01*
X-16244762Y51090181D02*
X-16149524Y51042562D01*
X-16149524Y51042562D02*
X-16101905Y50994943D01*
X-16101905Y50994943D02*
X-16054286Y50899705D01*
X-16054286Y50899705D02*
X-16054286Y50804467D01*
X-16054286Y50804467D02*
X-16101905Y50661610D01*
X-16101905Y50661610D02*
X-16673333Y50090181D01*
X-16673333Y50090181D02*
X-16054286Y50090181D01*
X-18276667Y76660181D02*
X-18610000Y77136372D01*
X-18848095Y76660181D02*
X-18848095Y77660181D01*
X-18848095Y77660181D02*
X-18467143Y77660181D01*
X-18467143Y77660181D02*
X-18371905Y77612562D01*
X-18371905Y77612562D02*
X-18324286Y77564943D01*
X-18324286Y77564943D02*
X-18276667Y77469705D01*
X-18276667Y77469705D02*
X-18276667Y77326848D01*
X-18276667Y77326848D02*
X-18324286Y77231610D01*
X-18324286Y77231610D02*
X-18371905Y77183991D01*
X-18371905Y77183991D02*
X-18467143Y77136372D01*
X-18467143Y77136372D02*
X-18848095Y77136372D01*
X-17419524Y77326848D02*
X-17419524Y76660181D01*
X-17657619Y77707800D02*
X-17895714Y76993515D01*
X-17895714Y76993515D02*
X-17276667Y76993515D01*
X-5576667Y41880420D02*
X-5624286Y41832800D01*
X-5624286Y41832800D02*
X-5767143Y41785181D01*
X-5767143Y41785181D02*
X-5862381Y41785181D01*
X-5862381Y41785181D02*
X-6005238Y41832800D01*
X-6005238Y41832800D02*
X-6100476Y41928039D01*
X-6100476Y41928039D02*
X-6148095Y42023277D01*
X-6148095Y42023277D02*
X-6195714Y42213753D01*
X-6195714Y42213753D02*
X-6195714Y42356610D01*
X-6195714Y42356610D02*
X-6148095Y42547086D01*
X-6148095Y42547086D02*
X-6100476Y42642324D01*
X-6100476Y42642324D02*
X-6005238Y42737562D01*
X-6005238Y42737562D02*
X-5862381Y42785181D01*
X-5862381Y42785181D02*
X-5767143Y42785181D01*
X-5767143Y42785181D02*
X-5624286Y42737562D01*
X-5624286Y42737562D02*
X-5576667Y42689943D01*
X-5243333Y42785181D02*
X-4624286Y42785181D01*
X-4624286Y42785181D02*
X-4957619Y42404229D01*
X-4957619Y42404229D02*
X-4814762Y42404229D01*
X-4814762Y42404229D02*
X-4719524Y42356610D01*
X-4719524Y42356610D02*
X-4671905Y42308991D01*
X-4671905Y42308991D02*
X-4624286Y42213753D01*
X-4624286Y42213753D02*
X-4624286Y41975658D01*
X-4624286Y41975658D02*
X-4671905Y41880420D01*
X-4671905Y41880420D02*
X-4719524Y41832800D01*
X-4719524Y41832800D02*
X-4814762Y41785181D01*
X-4814762Y41785181D02*
X-5100476Y41785181D01*
X-5100476Y41785181D02*
X-5195714Y41832800D01*
X-5195714Y41832800D02*
X-5243333Y41880420D01*
X18077142Y43640181D02*
X17743809Y44116372D01*
X17505714Y43640181D02*
X17505714Y44640181D01*
X17505714Y44640181D02*
X17886666Y44640181D01*
X17886666Y44640181D02*
X17981904Y44592562D01*
X17981904Y44592562D02*
X18029523Y44544943D01*
X18029523Y44544943D02*
X18077142Y44449705D01*
X18077142Y44449705D02*
X18077142Y44306848D01*
X18077142Y44306848D02*
X18029523Y44211610D01*
X18029523Y44211610D02*
X17981904Y44163991D01*
X17981904Y44163991D02*
X17886666Y44116372D01*
X17886666Y44116372D02*
X17505714Y44116372D01*
X19029523Y43640181D02*
X18458095Y43640181D01*
X18743809Y43640181D02*
X18743809Y44640181D01*
X18743809Y44640181D02*
X18648571Y44497324D01*
X18648571Y44497324D02*
X18553333Y44402086D01*
X18553333Y44402086D02*
X18458095Y44354467D01*
X19362857Y44640181D02*
X20029523Y44640181D01*
X20029523Y44640181D02*
X19600952Y43640181D01*
X-8493334Y30085181D02*
X-8493334Y29370896D01*
X-8493334Y29370896D02*
X-8540953Y29228039D01*
X-8540953Y29228039D02*
X-8636191Y29132800D01*
X-8636191Y29132800D02*
X-8779048Y29085181D01*
X-8779048Y29085181D02*
X-8874286Y29085181D01*
X-7540953Y30085181D02*
X-8017143Y30085181D01*
X-8017143Y30085181D02*
X-8064762Y29608991D01*
X-8064762Y29608991D02*
X-8017143Y29656610D01*
X-8017143Y29656610D02*
X-7921905Y29704229D01*
X-7921905Y29704229D02*
X-7683810Y29704229D01*
X-7683810Y29704229D02*
X-7588572Y29656610D01*
X-7588572Y29656610D02*
X-7540953Y29608991D01*
X-7540953Y29608991D02*
X-7493334Y29513753D01*
X-7493334Y29513753D02*
X-7493334Y29275658D01*
X-7493334Y29275658D02*
X-7540953Y29180420D01*
X-7540953Y29180420D02*
X-7588572Y29132800D01*
X-7588572Y29132800D02*
X-7683810Y29085181D01*
X-7683810Y29085181D02*
X-7921905Y29085181D01*
X-7921905Y29085181D02*
X-8017143Y29132800D01*
X-8017143Y29132800D02*
X-8064762Y29180420D01*
X7123333Y41155420D02*
X7075714Y41107800D01*
X7075714Y41107800D02*
X6932857Y41060181D01*
X6932857Y41060181D02*
X6837619Y41060181D01*
X6837619Y41060181D02*
X6694762Y41107800D01*
X6694762Y41107800D02*
X6599524Y41203039D01*
X6599524Y41203039D02*
X6551905Y41298277D01*
X6551905Y41298277D02*
X6504286Y41488753D01*
X6504286Y41488753D02*
X6504286Y41631610D01*
X6504286Y41631610D02*
X6551905Y41822086D01*
X6551905Y41822086D02*
X6599524Y41917324D01*
X6599524Y41917324D02*
X6694762Y42012562D01*
X6694762Y42012562D02*
X6837619Y42060181D01*
X6837619Y42060181D02*
X6932857Y42060181D01*
X6932857Y42060181D02*
X7075714Y42012562D01*
X7075714Y42012562D02*
X7123333Y41964943D01*
X7504286Y41964943D02*
X7551905Y42012562D01*
X7551905Y42012562D02*
X7647143Y42060181D01*
X7647143Y42060181D02*
X7885238Y42060181D01*
X7885238Y42060181D02*
X7980476Y42012562D01*
X7980476Y42012562D02*
X8028095Y41964943D01*
X8028095Y41964943D02*
X8075714Y41869705D01*
X8075714Y41869705D02*
X8075714Y41774467D01*
X8075714Y41774467D02*
X8028095Y41631610D01*
X8028095Y41631610D02*
X7456667Y41060181D01*
X7456667Y41060181D02*
X8075714Y41060181D01*
X-16212858Y69040181D02*
X-16546191Y69516372D01*
X-16784286Y69040181D02*
X-16784286Y70040181D01*
X-16784286Y70040181D02*
X-16403334Y70040181D01*
X-16403334Y70040181D02*
X-16308096Y69992562D01*
X-16308096Y69992562D02*
X-16260477Y69944943D01*
X-16260477Y69944943D02*
X-16212858Y69849705D01*
X-16212858Y69849705D02*
X-16212858Y69706848D01*
X-16212858Y69706848D02*
X-16260477Y69611610D01*
X-16260477Y69611610D02*
X-16308096Y69563991D01*
X-16308096Y69563991D02*
X-16403334Y69516372D01*
X-16403334Y69516372D02*
X-16784286Y69516372D01*
X-15260477Y69040181D02*
X-15831905Y69040181D01*
X-15546191Y69040181D02*
X-15546191Y70040181D01*
X-15546191Y70040181D02*
X-15641429Y69897324D01*
X-15641429Y69897324D02*
X-15736667Y69802086D01*
X-15736667Y69802086D02*
X-15831905Y69754467D01*
X-14308096Y69040181D02*
X-14879524Y69040181D01*
X-14593810Y69040181D02*
X-14593810Y70040181D01*
X-14593810Y70040181D02*
X-14689048Y69897324D01*
X-14689048Y69897324D02*
X-14784286Y69802086D01*
X-14784286Y69802086D02*
X-14879524Y69754467D01*
X19823333Y41920420D02*
X19775714Y41872800D01*
X19775714Y41872800D02*
X19632857Y41825181D01*
X19632857Y41825181D02*
X19537619Y41825181D01*
X19537619Y41825181D02*
X19394762Y41872800D01*
X19394762Y41872800D02*
X19299524Y41968039D01*
X19299524Y41968039D02*
X19251905Y42063277D01*
X19251905Y42063277D02*
X19204286Y42253753D01*
X19204286Y42253753D02*
X19204286Y42396610D01*
X19204286Y42396610D02*
X19251905Y42587086D01*
X19251905Y42587086D02*
X19299524Y42682324D01*
X19299524Y42682324D02*
X19394762Y42777562D01*
X19394762Y42777562D02*
X19537619Y42825181D01*
X19537619Y42825181D02*
X19632857Y42825181D01*
X19632857Y42825181D02*
X19775714Y42777562D01*
X19775714Y42777562D02*
X19823333Y42729943D01*
X20775714Y41825181D02*
X20204286Y41825181D01*
X20490000Y41825181D02*
X20490000Y42825181D01*
X20490000Y42825181D02*
X20394762Y42682324D01*
X20394762Y42682324D02*
X20299524Y42587086D01*
X20299524Y42587086D02*
X20204286Y42539467D01*
X24524819Y60528096D02*
X25334342Y60528096D01*
X25334342Y60528096D02*
X25429580Y60575715D01*
X25429580Y60575715D02*
X25477200Y60623334D01*
X25477200Y60623334D02*
X25524819Y60718572D01*
X25524819Y60718572D02*
X25524819Y60909048D01*
X25524819Y60909048D02*
X25477200Y61004286D01*
X25477200Y61004286D02*
X25429580Y61051905D01*
X25429580Y61051905D02*
X25334342Y61099524D01*
X25334342Y61099524D02*
X24524819Y61099524D01*
X24524819Y61480477D02*
X24524819Y62099524D01*
X24524819Y62099524D02*
X24905771Y61766191D01*
X24905771Y61766191D02*
X24905771Y61909048D01*
X24905771Y61909048D02*
X24953390Y62004286D01*
X24953390Y62004286D02*
X25001009Y62051905D01*
X25001009Y62051905D02*
X25096247Y62099524D01*
X25096247Y62099524D02*
X25334342Y62099524D01*
X25334342Y62099524D02*
X25429580Y62051905D01*
X25429580Y62051905D02*
X25477200Y62004286D01*
X25477200Y62004286D02*
X25524819Y61909048D01*
X25524819Y61909048D02*
X25524819Y61623334D01*
X25524819Y61623334D02*
X25477200Y61528096D01*
X25477200Y61528096D02*
X25429580Y61480477D01*
X23365819Y59909049D02*
X22365819Y59909049D01*
X22365819Y59909049D02*
X22365819Y60290001D01*
X22365819Y60290001D02*
X22413438Y60385239D01*
X22413438Y60385239D02*
X22461057Y60432858D01*
X22461057Y60432858D02*
X22556295Y60480477D01*
X22556295Y60480477D02*
X22699152Y60480477D01*
X22699152Y60480477D02*
X22794390Y60432858D01*
X22794390Y60432858D02*
X22842009Y60385239D01*
X22842009Y60385239D02*
X22889628Y60290001D01*
X22889628Y60290001D02*
X22889628Y59909049D01*
X23365819Y60909049D02*
X22699152Y60909049D01*
X22365819Y60909049D02*
X22413438Y60861430D01*
X22413438Y60861430D02*
X22461057Y60909049D01*
X22461057Y60909049D02*
X22413438Y60956668D01*
X22413438Y60956668D02*
X22365819Y60909049D01*
X22365819Y60909049D02*
X22461057Y60909049D01*
X23318200Y61813810D02*
X23365819Y61718572D01*
X23365819Y61718572D02*
X23365819Y61528096D01*
X23365819Y61528096D02*
X23318200Y61432858D01*
X23318200Y61432858D02*
X23270580Y61385239D01*
X23270580Y61385239D02*
X23175342Y61337620D01*
X23175342Y61337620D02*
X22889628Y61337620D01*
X22889628Y61337620D02*
X22794390Y61385239D01*
X22794390Y61385239D02*
X22746771Y61432858D01*
X22746771Y61432858D02*
X22699152Y61528096D01*
X22699152Y61528096D02*
X22699152Y61718572D01*
X22699152Y61718572D02*
X22746771Y61813810D01*
X23365819Y62385239D02*
X23318200Y62290001D01*
X23318200Y62290001D02*
X23270580Y62242382D01*
X23270580Y62242382D02*
X23175342Y62194763D01*
X23175342Y62194763D02*
X22889628Y62194763D01*
X22889628Y62194763D02*
X22794390Y62242382D01*
X22794390Y62242382D02*
X22746771Y62290001D01*
X22746771Y62290001D02*
X22699152Y62385239D01*
X22699152Y62385239D02*
X22699152Y62528096D01*
X22699152Y62528096D02*
X22746771Y62623334D01*
X22746771Y62623334D02*
X22794390Y62670953D01*
X22794390Y62670953D02*
X22889628Y62718572D01*
X22889628Y62718572D02*
X23175342Y62718572D01*
X23175342Y62718572D02*
X23270580Y62670953D01*
X23270580Y62670953D02*
X23318200Y62623334D01*
X23318200Y62623334D02*
X23365819Y62528096D01*
X23365819Y62528096D02*
X23365819Y62385239D01*
X3804200Y57054762D02*
X3842295Y57169048D01*
X3842295Y57169048D02*
X3842295Y57359524D01*
X3842295Y57359524D02*
X3804200Y57435715D01*
X3804200Y57435715D02*
X3766104Y57473810D01*
X3766104Y57473810D02*
X3689914Y57511905D01*
X3689914Y57511905D02*
X3613723Y57511905D01*
X3613723Y57511905D02*
X3537533Y57473810D01*
X3537533Y57473810D02*
X3499438Y57435715D01*
X3499438Y57435715D02*
X3461342Y57359524D01*
X3461342Y57359524D02*
X3423247Y57207143D01*
X3423247Y57207143D02*
X3385152Y57130953D01*
X3385152Y57130953D02*
X3347057Y57092858D01*
X3347057Y57092858D02*
X3270866Y57054762D01*
X3270866Y57054762D02*
X3194676Y57054762D01*
X3194676Y57054762D02*
X3118485Y57092858D01*
X3118485Y57092858D02*
X3080390Y57130953D01*
X3080390Y57130953D02*
X3042295Y57207143D01*
X3042295Y57207143D02*
X3042295Y57397620D01*
X3042295Y57397620D02*
X3080390Y57511905D01*
X3042295Y57778572D02*
X3842295Y57969048D01*
X3842295Y57969048D02*
X3270866Y58121429D01*
X3270866Y58121429D02*
X3842295Y58273810D01*
X3842295Y58273810D02*
X3042295Y58464286D01*
X3842295Y58769049D02*
X3042295Y58769049D01*
X3042295Y58769049D02*
X3042295Y58959525D01*
X3042295Y58959525D02*
X3080390Y59073811D01*
X3080390Y59073811D02*
X3156580Y59150001D01*
X3156580Y59150001D02*
X3232771Y59188096D01*
X3232771Y59188096D02*
X3385152Y59226192D01*
X3385152Y59226192D02*
X3499438Y59226192D01*
X3499438Y59226192D02*
X3651819Y59188096D01*
X3651819Y59188096D02*
X3728009Y59150001D01*
X3728009Y59150001D02*
X3804200Y59073811D01*
X3804200Y59073811D02*
X3842295Y58959525D01*
X3842295Y58959525D02*
X3842295Y58769049D01*
X3842295Y59569049D02*
X3042295Y59569049D01*
X3042295Y60102382D02*
X3042295Y60254763D01*
X3042295Y60254763D02*
X3080390Y60330953D01*
X3080390Y60330953D02*
X3156580Y60407144D01*
X3156580Y60407144D02*
X3308961Y60445239D01*
X3308961Y60445239D02*
X3575628Y60445239D01*
X3575628Y60445239D02*
X3728009Y60407144D01*
X3728009Y60407144D02*
X3804200Y60330953D01*
X3804200Y60330953D02*
X3842295Y60254763D01*
X3842295Y60254763D02*
X3842295Y60102382D01*
X3842295Y60102382D02*
X3804200Y60026191D01*
X3804200Y60026191D02*
X3728009Y59950001D01*
X3728009Y59950001D02*
X3575628Y59911905D01*
X3575628Y59911905D02*
X3308961Y59911905D01*
X3308961Y59911905D02*
X3156580Y59950001D01*
X3156580Y59950001D02*
X3080390Y60026191D01*
X3080390Y60026191D02*
X3042295Y60102382D01*
X-16002Y54549132D02*
X-96815Y54522195D01*
X-96815Y54522195D02*
X-177627Y54441382D01*
X-177627Y54441382D02*
X-231502Y54333633D01*
X-231502Y54333633D02*
X-231502Y54225883D01*
X-231502Y54225883D02*
X-204564Y54145071D01*
X-204564Y54145071D02*
X-123752Y54010384D01*
X-123752Y54010384D02*
X-42940Y53929572D01*
X-42940Y53929572D02*
X91747Y53848759D01*
X91747Y53848759D02*
X172560Y53821822D01*
X172560Y53821822D02*
X280309Y53821822D01*
X280309Y53821822D02*
X388059Y53875697D01*
X388059Y53875697D02*
X441934Y53929572D01*
X441934Y53929572D02*
X495808Y54037321D01*
X495808Y54037321D02*
X495808Y54091196D01*
X495808Y54091196D02*
X307247Y54279758D01*
X307247Y54279758D02*
X199497Y54172008D01*
X792120Y54279758D02*
X226434Y54845443D01*
X226434Y54845443D02*
X441934Y55060943D01*
X441934Y55060943D02*
X522746Y55087880D01*
X522746Y55087880D02*
X576621Y55087880D01*
X576621Y55087880D02*
X657433Y55060943D01*
X657433Y55060943D02*
X738245Y54980130D01*
X738245Y54980130D02*
X765182Y54899318D01*
X765182Y54899318D02*
X765182Y54845443D01*
X765182Y54845443D02*
X738245Y54764631D01*
X738245Y54764631D02*
X522746Y54549132D01*
X1654117Y55141755D02*
X1330868Y54818506D01*
X1492492Y54980130D02*
X926807Y55545816D01*
X926807Y55545816D02*
X953744Y55411129D01*
X953744Y55411129D02*
X953744Y55303379D01*
X953744Y55303379D02*
X926807Y55222567D01*
X1573305Y56192314D02*
X1465555Y56084564D01*
X1465555Y56084564D02*
X1438618Y56003752D01*
X1438618Y56003752D02*
X1438618Y55949877D01*
X1438618Y55949877D02*
X1465555Y55815190D01*
X1465555Y55815190D02*
X1546367Y55680503D01*
X1546367Y55680503D02*
X1761866Y55465004D01*
X1761866Y55465004D02*
X1842679Y55438066D01*
X1842679Y55438066D02*
X1896553Y55438066D01*
X1896553Y55438066D02*
X1977366Y55465004D01*
X1977366Y55465004D02*
X2085115Y55572753D01*
X2085115Y55572753D02*
X2112053Y55653566D01*
X2112053Y55653566D02*
X2112053Y55707440D01*
X2112053Y55707440D02*
X2085115Y55788253D01*
X2085115Y55788253D02*
X1950428Y55922940D01*
X1950428Y55922940D02*
X1869616Y55949877D01*
X1869616Y55949877D02*
X1815741Y55949877D01*
X1815741Y55949877D02*
X1734929Y55922940D01*
X1734929Y55922940D02*
X1627179Y55815190D01*
X1627179Y55815190D02*
X1600242Y55734378D01*
X1600242Y55734378D02*
X1600242Y55680503D01*
X1600242Y55680503D02*
X1627179Y55599691D01*
X30328759Y55842127D02*
X30598133Y55572753D01*
X30113260Y55734377D02*
X30867507Y56111501D01*
X30867507Y56111501D02*
X30490384Y55357254D01*
X31514005Y55411129D02*
X31487067Y55491941D01*
X31487067Y55491941D02*
X31406255Y55572753D01*
X31406255Y55572753D02*
X31298505Y55626628D01*
X31298505Y55626628D02*
X31190756Y55626628D01*
X31190756Y55626628D02*
X31109944Y55599690D01*
X31109944Y55599690D02*
X30975257Y55518878D01*
X30975257Y55518878D02*
X30894444Y55438066D01*
X30894444Y55438066D02*
X30813632Y55303379D01*
X30813632Y55303379D02*
X30786695Y55222567D01*
X30786695Y55222567D02*
X30786695Y55114817D01*
X30786695Y55114817D02*
X30840570Y55007068D01*
X30840570Y55007068D02*
X30894444Y54953193D01*
X30894444Y54953193D02*
X31002194Y54899318D01*
X31002194Y54899318D02*
X31056069Y54899318D01*
X31056069Y54899318D02*
X31244631Y55087880D01*
X31244631Y55087880D02*
X31136881Y55195629D01*
X31244631Y54603007D02*
X31810316Y55168692D01*
X31810316Y55168692D02*
X31567879Y54279758D01*
X31567879Y54279758D02*
X32133565Y54845443D01*
X31837253Y54010384D02*
X32402939Y54576069D01*
X32402939Y54576069D02*
X32537626Y54441382D01*
X32537626Y54441382D02*
X32591501Y54333633D01*
X32591501Y54333633D02*
X32591501Y54225883D01*
X32591501Y54225883D02*
X32564563Y54145071D01*
X32564563Y54145071D02*
X32483751Y54010384D01*
X32483751Y54010384D02*
X32402939Y53929572D01*
X32402939Y53929572D02*
X32268252Y53848759D01*
X32268252Y53848759D02*
X32187439Y53821822D01*
X32187439Y53821822D02*
X32079690Y53821822D01*
X32079690Y53821822D02*
X31971940Y53875697D01*
X31971940Y53875697D02*
X31837253Y54010384D01*
X41458505Y68326628D02*
X41431568Y68407440D01*
X41431568Y68407440D02*
X41350756Y68488252D01*
X41350756Y68488252D02*
X41243006Y68542127D01*
X41243006Y68542127D02*
X41135257Y68542127D01*
X41135257Y68542127D02*
X41054444Y68515190D01*
X41054444Y68515190D02*
X40919757Y68434377D01*
X40919757Y68434377D02*
X40838945Y68353565D01*
X40838945Y68353565D02*
X40758133Y68218878D01*
X40758133Y68218878D02*
X40731196Y68138066D01*
X40731196Y68138066D02*
X40731196Y68030316D01*
X40731196Y68030316D02*
X40785070Y67922567D01*
X40785070Y67922567D02*
X40838945Y67868692D01*
X40838945Y67868692D02*
X40946695Y67814817D01*
X40946695Y67814817D02*
X41000570Y67814817D01*
X41000570Y67814817D02*
X41189131Y68003379D01*
X41189131Y68003379D02*
X41081382Y68111129D01*
X41189131Y67518506D02*
X41754817Y68084191D01*
X41754817Y68084191D02*
X41970316Y67868692D01*
X41970316Y67868692D02*
X41997253Y67787880D01*
X41997253Y67787880D02*
X41997253Y67734005D01*
X41997253Y67734005D02*
X41970316Y67653193D01*
X41970316Y67653193D02*
X41889504Y67572381D01*
X41889504Y67572381D02*
X41808692Y67545443D01*
X41808692Y67545443D02*
X41754817Y67545443D01*
X41754817Y67545443D02*
X41674005Y67572381D01*
X41674005Y67572381D02*
X41458505Y67787880D01*
X42239690Y67491568D02*
X42293565Y67491568D01*
X42293565Y67491568D02*
X42374377Y67464631D01*
X42374377Y67464631D02*
X42509064Y67329944D01*
X42509064Y67329944D02*
X42536001Y67249132D01*
X42536001Y67249132D02*
X42536001Y67195257D01*
X42536001Y67195257D02*
X42509064Y67114445D01*
X42509064Y67114445D02*
X42455189Y67060570D01*
X42455189Y67060570D02*
X42347440Y67006695D01*
X42347440Y67006695D02*
X41700942Y67006695D01*
X41700942Y67006695D02*
X42051128Y66656509D01*
X33195950Y58054936D02*
X33465324Y57785562D01*
X32980450Y57947187D02*
X33734698Y58324310D01*
X33734698Y58324310D02*
X33357574Y57570063D01*
X33546136Y57381501D02*
X34111821Y57947187D01*
X34111821Y57947187D02*
X34246508Y57812500D01*
X34246508Y57812500D02*
X34300383Y57704750D01*
X34300383Y57704750D02*
X34300383Y57597001D01*
X34300383Y57597001D02*
X34273446Y57516188D01*
X34273446Y57516188D02*
X34192633Y57381501D01*
X34192633Y57381501D02*
X34111821Y57300689D01*
X34111821Y57300689D02*
X33977134Y57219877D01*
X33977134Y57219877D02*
X33896322Y57192940D01*
X33896322Y57192940D02*
X33788572Y57192940D01*
X33788572Y57192940D02*
X33680823Y57246814D01*
X33680823Y57246814D02*
X33546136Y57381501D01*
X34488945Y56546442D02*
X34435070Y56546442D01*
X34435070Y56546442D02*
X34327320Y56600317D01*
X34327320Y56600317D02*
X34273446Y56654192D01*
X34273446Y56654192D02*
X34219571Y56761941D01*
X34219571Y56761941D02*
X34219571Y56869691D01*
X34219571Y56869691D02*
X34246508Y56950503D01*
X34246508Y56950503D02*
X34327320Y57085190D01*
X34327320Y57085190D02*
X34408133Y57166002D01*
X34408133Y57166002D02*
X34542820Y57246814D01*
X34542820Y57246814D02*
X34623632Y57273752D01*
X34623632Y57273752D02*
X34731381Y57273752D01*
X34731381Y57273752D02*
X34839131Y57219877D01*
X34839131Y57219877D02*
X34893006Y57166002D01*
X34893006Y57166002D02*
X34946881Y57058253D01*
X34946881Y57058253D02*
X34946881Y57004378D01*
X34488945Y56330943D02*
X34919943Y55899944D01*
X35593378Y56465630D02*
X35216255Y55711382D01*
X35216255Y55711382D02*
X35970502Y56088506D01*
X35916627Y55011010D02*
X35997439Y55468946D01*
X35593378Y55334259D02*
X36159064Y55899944D01*
X36159064Y55899944D02*
X36374563Y55684445D01*
X36374563Y55684445D02*
X36401500Y55603633D01*
X36401500Y55603633D02*
X36401500Y55549758D01*
X36401500Y55549758D02*
X36374563Y55468946D01*
X36374563Y55468946D02*
X36293751Y55388134D01*
X36293751Y55388134D02*
X36212938Y55361196D01*
X36212938Y55361196D02*
X36159064Y55361196D01*
X36159064Y55361196D02*
X36078251Y55388134D01*
X36078251Y55388134D02*
X35862752Y55603633D01*
X36455375Y55064885D02*
X36643937Y54876323D01*
X36428438Y54499200D02*
X36159064Y54768574D01*
X36159064Y54768574D02*
X36724749Y55334259D01*
X36724749Y55334259D02*
X36994123Y55064885D01*
X37155748Y54364512D02*
X36967186Y54553074D01*
X36670874Y54256763D02*
X37236560Y54822448D01*
X37236560Y54822448D02*
X37505934Y54553074D01*
X-16002Y67249132D02*
X-96815Y67222195D01*
X-96815Y67222195D02*
X-177627Y67141382D01*
X-177627Y67141382D02*
X-231502Y67033633D01*
X-231502Y67033633D02*
X-231502Y66925883D01*
X-231502Y66925883D02*
X-204564Y66845071D01*
X-204564Y66845071D02*
X-123752Y66710384D01*
X-123752Y66710384D02*
X-42940Y66629572D01*
X-42940Y66629572D02*
X91747Y66548759D01*
X91747Y66548759D02*
X172560Y66521822D01*
X172560Y66521822D02*
X280309Y66521822D01*
X280309Y66521822D02*
X388059Y66575697D01*
X388059Y66575697D02*
X441934Y66629572D01*
X441934Y66629572D02*
X495808Y66737321D01*
X495808Y66737321D02*
X495808Y66791196D01*
X495808Y66791196D02*
X307247Y66979758D01*
X307247Y66979758D02*
X199497Y66872008D01*
X792120Y66979758D02*
X226434Y67545443D01*
X226434Y67545443D02*
X441934Y67760943D01*
X441934Y67760943D02*
X522746Y67787880D01*
X522746Y67787880D02*
X576621Y67787880D01*
X576621Y67787880D02*
X657433Y67760943D01*
X657433Y67760943D02*
X738245Y67680130D01*
X738245Y67680130D02*
X765182Y67599318D01*
X765182Y67599318D02*
X765182Y67545443D01*
X765182Y67545443D02*
X738245Y67464631D01*
X738245Y67464631D02*
X522746Y67249132D01*
X1654117Y67841755D02*
X1330868Y67518506D01*
X1492492Y67680130D02*
X926807Y68245816D01*
X926807Y68245816D02*
X953744Y68111129D01*
X953744Y68111129D02*
X953744Y68003379D01*
X953744Y68003379D02*
X926807Y67922567D01*
X1600242Y68919251D02*
X1330868Y68649877D01*
X1330868Y68649877D02*
X1573305Y68353566D01*
X1573305Y68353566D02*
X1573305Y68407440D01*
X1573305Y68407440D02*
X1600242Y68488253D01*
X1600242Y68488253D02*
X1734929Y68622940D01*
X1734929Y68622940D02*
X1815741Y68649877D01*
X1815741Y68649877D02*
X1869616Y68649877D01*
X1869616Y68649877D02*
X1950428Y68622940D01*
X1950428Y68622940D02*
X2085115Y68488253D01*
X2085115Y68488253D02*
X2112053Y68407440D01*
X2112053Y68407440D02*
X2112053Y68353566D01*
X2112053Y68353566D02*
X2085115Y68272753D01*
X2085115Y68272753D02*
X1950428Y68138066D01*
X1950428Y68138066D02*
X1869616Y68111129D01*
X1869616Y68111129D02*
X1815741Y68111129D01*
X8169131Y55896002D02*
X8142194Y55976815D01*
X8142194Y55976815D02*
X8061381Y56057627D01*
X8061381Y56057627D02*
X7953632Y56111502D01*
X7953632Y56111502D02*
X7845882Y56111502D01*
X7845882Y56111502D02*
X7765070Y56084564D01*
X7765070Y56084564D02*
X7630383Y56003752D01*
X7630383Y56003752D02*
X7549571Y55922940D01*
X7549571Y55922940D02*
X7468758Y55788253D01*
X7468758Y55788253D02*
X7441821Y55707440D01*
X7441821Y55707440D02*
X7441821Y55599691D01*
X7441821Y55599691D02*
X7495696Y55491941D01*
X7495696Y55491941D02*
X7549571Y55438066D01*
X7549571Y55438066D02*
X7657320Y55384192D01*
X7657320Y55384192D02*
X7711195Y55384192D01*
X7711195Y55384192D02*
X7899757Y55572753D01*
X7899757Y55572753D02*
X7792007Y55680503D01*
X7899757Y55087880D02*
X8465442Y55653566D01*
X8465442Y55653566D02*
X8680942Y55438066D01*
X8680942Y55438066D02*
X8707879Y55357254D01*
X8707879Y55357254D02*
X8707879Y55303379D01*
X8707879Y55303379D02*
X8680942Y55222567D01*
X8680942Y55222567D02*
X8600129Y55141755D01*
X8600129Y55141755D02*
X8519317Y55114818D01*
X8519317Y55114818D02*
X8465442Y55114818D01*
X8465442Y55114818D02*
X8384630Y55141755D01*
X8384630Y55141755D02*
X8169131Y55357254D01*
X8761754Y54225883D02*
X8438505Y54549132D01*
X8600129Y54387508D02*
X9165815Y54953193D01*
X9165815Y54953193D02*
X9031128Y54926256D01*
X9031128Y54926256D02*
X8923378Y54926256D01*
X8923378Y54926256D02*
X8842566Y54953193D01*
X9408252Y54225883D02*
X9381314Y54306695D01*
X9381314Y54306695D02*
X9381314Y54360570D01*
X9381314Y54360570D02*
X9408252Y54441382D01*
X9408252Y54441382D02*
X9435189Y54468320D01*
X9435189Y54468320D02*
X9516001Y54495257D01*
X9516001Y54495257D02*
X9569876Y54495257D01*
X9569876Y54495257D02*
X9650688Y54468320D01*
X9650688Y54468320D02*
X9758438Y54360570D01*
X9758438Y54360570D02*
X9785375Y54279758D01*
X9785375Y54279758D02*
X9785375Y54225883D01*
X9785375Y54225883D02*
X9758438Y54145071D01*
X9758438Y54145071D02*
X9731500Y54118134D01*
X9731500Y54118134D02*
X9650688Y54091196D01*
X9650688Y54091196D02*
X9596813Y54091196D01*
X9596813Y54091196D02*
X9516001Y54118134D01*
X9516001Y54118134D02*
X9408252Y54225883D01*
X9408252Y54225883D02*
X9327439Y54252821D01*
X9327439Y54252821D02*
X9273565Y54252821D01*
X9273565Y54252821D02*
X9192752Y54225883D01*
X9192752Y54225883D02*
X9085003Y54118134D01*
X9085003Y54118134D02*
X9058065Y54037321D01*
X9058065Y54037321D02*
X9058065Y53983447D01*
X9058065Y53983447D02*
X9085003Y53902634D01*
X9085003Y53902634D02*
X9192752Y53794885D01*
X9192752Y53794885D02*
X9273565Y53767947D01*
X9273565Y53767947D02*
X9327439Y53767947D01*
X9327439Y53767947D02*
X9408252Y53794885D01*
X9408252Y53794885D02*
X9516001Y53902634D01*
X9516001Y53902634D02*
X9542939Y53983447D01*
X9542939Y53983447D02*
X9542939Y54037321D01*
X9542939Y54037321D02*
X9516001Y54118134D01*
X38579131Y55949877D02*
X38929317Y55599691D01*
X38929317Y55599691D02*
X38525256Y55572753D01*
X38525256Y55572753D02*
X38606068Y55491941D01*
X38606068Y55491941D02*
X38633006Y55411129D01*
X38633006Y55411129D02*
X38633006Y55357254D01*
X38633006Y55357254D02*
X38606068Y55276442D01*
X38606068Y55276442D02*
X38471381Y55141755D01*
X38471381Y55141755D02*
X38390569Y55114818D01*
X38390569Y55114818D02*
X38336694Y55114818D01*
X38336694Y55114818D02*
X38255882Y55141755D01*
X38255882Y55141755D02*
X38094258Y55303379D01*
X38094258Y55303379D02*
X38067320Y55384192D01*
X38067320Y55384192D02*
X38067320Y55438066D01*
X39090942Y55438066D02*
X38713818Y54683819D01*
X38713818Y54683819D02*
X39468065Y55060943D01*
X39602752Y54926256D02*
X39952938Y54576070D01*
X39952938Y54576070D02*
X39548877Y54549132D01*
X39548877Y54549132D02*
X39629690Y54468320D01*
X39629690Y54468320D02*
X39656627Y54387508D01*
X39656627Y54387508D02*
X39656627Y54333633D01*
X39656627Y54333633D02*
X39629690Y54252821D01*
X39629690Y54252821D02*
X39495003Y54118134D01*
X39495003Y54118134D02*
X39414190Y54091196D01*
X39414190Y54091196D02*
X39360316Y54091196D01*
X39360316Y54091196D02*
X39279503Y54118134D01*
X39279503Y54118134D02*
X39117879Y54279758D01*
X39117879Y54279758D02*
X39090942Y54360570D01*
X39090942Y54360570D02*
X39090942Y54414445D01*
X39151415Y57987593D02*
X39501601Y57637407D01*
X39501601Y57637407D02*
X39097540Y57610469D01*
X39097540Y57610469D02*
X39178353Y57529657D01*
X39178353Y57529657D02*
X39205290Y57448845D01*
X39205290Y57448845D02*
X39205290Y57394970D01*
X39205290Y57394970D02*
X39178353Y57314158D01*
X39178353Y57314158D02*
X39043666Y57179471D01*
X39043666Y57179471D02*
X38962853Y57152533D01*
X38962853Y57152533D02*
X38908979Y57152533D01*
X38908979Y57152533D02*
X38828166Y57179471D01*
X38828166Y57179471D02*
X38666542Y57341095D01*
X38666542Y57341095D02*
X38639605Y57421907D01*
X38639605Y57421907D02*
X38639605Y57475782D01*
X39663226Y57475782D02*
X39286102Y56721535D01*
X39286102Y56721535D02*
X40040350Y57098658D01*
X40175036Y56963972D02*
X40525223Y56613785D01*
X40525223Y56613785D02*
X40121162Y56586848D01*
X40121162Y56586848D02*
X40201974Y56506036D01*
X40201974Y56506036D02*
X40228911Y56425224D01*
X40228911Y56425224D02*
X40228911Y56371349D01*
X40228911Y56371349D02*
X40201974Y56290536D01*
X40201974Y56290536D02*
X40067287Y56155849D01*
X40067287Y56155849D02*
X39986475Y56128912D01*
X39986475Y56128912D02*
X39932600Y56128912D01*
X39932600Y56128912D02*
X39851788Y56155849D01*
X39851788Y56155849D02*
X39690163Y56317474D01*
X39690163Y56317474D02*
X39663226Y56398286D01*
X39663226Y56398286D02*
X39663226Y56452161D01*
X40013412Y55886475D02*
X40444411Y55455477D01*
X40929284Y55670976D02*
X41117846Y55482414D01*
X40902347Y55105291D02*
X40632973Y55374665D01*
X40632973Y55374665D02*
X41198658Y55940350D01*
X41198658Y55940350D02*
X41468032Y55670976D01*
X41144784Y54862854D02*
X41710469Y55428539D01*
X41710469Y55428539D02*
X41468032Y54539605D01*
X41468032Y54539605D02*
X42033718Y55105290D01*
X26218505Y68326628D02*
X26191568Y68407440D01*
X26191568Y68407440D02*
X26110756Y68488252D01*
X26110756Y68488252D02*
X26003006Y68542127D01*
X26003006Y68542127D02*
X25895257Y68542127D01*
X25895257Y68542127D02*
X25814444Y68515190D01*
X25814444Y68515190D02*
X25679757Y68434377D01*
X25679757Y68434377D02*
X25598945Y68353565D01*
X25598945Y68353565D02*
X25518133Y68218878D01*
X25518133Y68218878D02*
X25491196Y68138066D01*
X25491196Y68138066D02*
X25491196Y68030316D01*
X25491196Y68030316D02*
X25545070Y67922567D01*
X25545070Y67922567D02*
X25598945Y67868692D01*
X25598945Y67868692D02*
X25706695Y67814817D01*
X25706695Y67814817D02*
X25760570Y67814817D01*
X25760570Y67814817D02*
X25949131Y68003379D01*
X25949131Y68003379D02*
X25841382Y68111129D01*
X25949131Y67518506D02*
X26514817Y68084191D01*
X26514817Y68084191D02*
X26730316Y67868692D01*
X26730316Y67868692D02*
X26757253Y67787880D01*
X26757253Y67787880D02*
X26757253Y67734005D01*
X26757253Y67734005D02*
X26730316Y67653193D01*
X26730316Y67653193D02*
X26649504Y67572381D01*
X26649504Y67572381D02*
X26568692Y67545443D01*
X26568692Y67545443D02*
X26514817Y67545443D01*
X26514817Y67545443D02*
X26434005Y67572381D01*
X26434005Y67572381D02*
X26218505Y67787880D01*
X27026627Y67572381D02*
X27403751Y67195257D01*
X27403751Y67195257D02*
X26595629Y66872008D01*
X5871568Y55653565D02*
X5844631Y55734377D01*
X5844631Y55734377D02*
X5763819Y55815189D01*
X5763819Y55815189D02*
X5656069Y55869064D01*
X5656069Y55869064D02*
X5548319Y55869064D01*
X5548319Y55869064D02*
X5467507Y55842127D01*
X5467507Y55842127D02*
X5332820Y55761315D01*
X5332820Y55761315D02*
X5252008Y55680502D01*
X5252008Y55680502D02*
X5171196Y55545815D01*
X5171196Y55545815D02*
X5144258Y55465003D01*
X5144258Y55465003D02*
X5144258Y55357254D01*
X5144258Y55357254D02*
X5198133Y55249504D01*
X5198133Y55249504D02*
X5252008Y55195629D01*
X5252008Y55195629D02*
X5359758Y55141754D01*
X5359758Y55141754D02*
X5413632Y55141754D01*
X5413632Y55141754D02*
X5602194Y55330316D01*
X5602194Y55330316D02*
X5494445Y55438066D01*
X5602194Y54845443D02*
X6167880Y55411128D01*
X6167880Y55411128D02*
X5925443Y54522194D01*
X5925443Y54522194D02*
X6491128Y55087880D01*
X6194817Y54252820D02*
X6760502Y54818506D01*
X6760502Y54818506D02*
X6895189Y54683819D01*
X6895189Y54683819D02*
X6949064Y54576069D01*
X6949064Y54576069D02*
X6949064Y54468320D01*
X6949064Y54468320D02*
X6922127Y54387507D01*
X6922127Y54387507D02*
X6841314Y54252820D01*
X6841314Y54252820D02*
X6760502Y54172008D01*
X6760502Y54172008D02*
X6625815Y54091196D01*
X6625815Y54091196D02*
X6545003Y54064259D01*
X6545003Y54064259D02*
X6437253Y54064259D01*
X6437253Y54064259D02*
X6329504Y54118133D01*
X6329504Y54118133D02*
X6194817Y54252820D01*
X25949131Y55896002D02*
X25922194Y55976815D01*
X25922194Y55976815D02*
X25841381Y56057627D01*
X25841381Y56057627D02*
X25733632Y56111502D01*
X25733632Y56111502D02*
X25625882Y56111502D01*
X25625882Y56111502D02*
X25545070Y56084564D01*
X25545070Y56084564D02*
X25410383Y56003752D01*
X25410383Y56003752D02*
X25329571Y55922940D01*
X25329571Y55922940D02*
X25248758Y55788253D01*
X25248758Y55788253D02*
X25221821Y55707440D01*
X25221821Y55707440D02*
X25221821Y55599691D01*
X25221821Y55599691D02*
X25275696Y55491941D01*
X25275696Y55491941D02*
X25329571Y55438066D01*
X25329571Y55438066D02*
X25437320Y55384192D01*
X25437320Y55384192D02*
X25491195Y55384192D01*
X25491195Y55384192D02*
X25679757Y55572753D01*
X25679757Y55572753D02*
X25572007Y55680503D01*
X25679757Y55087880D02*
X26245442Y55653566D01*
X26245442Y55653566D02*
X26460942Y55438066D01*
X26460942Y55438066D02*
X26487879Y55357254D01*
X26487879Y55357254D02*
X26487879Y55303379D01*
X26487879Y55303379D02*
X26460942Y55222567D01*
X26460942Y55222567D02*
X26380129Y55141755D01*
X26380129Y55141755D02*
X26299317Y55114818D01*
X26299317Y55114818D02*
X26245442Y55114818D01*
X26245442Y55114818D02*
X26164630Y55141755D01*
X26164630Y55141755D02*
X25949131Y55357254D01*
X26730316Y55060943D02*
X26784190Y55060943D01*
X26784190Y55060943D02*
X26865003Y55034005D01*
X26865003Y55034005D02*
X26999690Y54899318D01*
X26999690Y54899318D02*
X27026627Y54818506D01*
X27026627Y54818506D02*
X27026627Y54764631D01*
X27026627Y54764631D02*
X26999690Y54683819D01*
X26999690Y54683819D02*
X26945815Y54629944D01*
X26945815Y54629944D02*
X26838065Y54576070D01*
X26838065Y54576070D02*
X26191568Y54576070D01*
X26191568Y54576070D02*
X26541754Y54225883D01*
X27592313Y54306695D02*
X27484563Y54414445D01*
X27484563Y54414445D02*
X27403751Y54441382D01*
X27403751Y54441382D02*
X27349876Y54441382D01*
X27349876Y54441382D02*
X27215189Y54414445D01*
X27215189Y54414445D02*
X27080502Y54333633D01*
X27080502Y54333633D02*
X26865003Y54118134D01*
X26865003Y54118134D02*
X26838065Y54037321D01*
X26838065Y54037321D02*
X26838065Y53983447D01*
X26838065Y53983447D02*
X26865003Y53902634D01*
X26865003Y53902634D02*
X26972752Y53794885D01*
X26972752Y53794885D02*
X27053565Y53767947D01*
X27053565Y53767947D02*
X27107439Y53767947D01*
X27107439Y53767947D02*
X27188252Y53794885D01*
X27188252Y53794885D02*
X27322939Y53929572D01*
X27322939Y53929572D02*
X27349876Y54010384D01*
X27349876Y54010384D02*
X27349876Y54064259D01*
X27349876Y54064259D02*
X27322939Y54145071D01*
X27322939Y54145071D02*
X27215189Y54252821D01*
X27215189Y54252821D02*
X27134377Y54279758D01*
X27134377Y54279758D02*
X27080502Y54279758D01*
X27080502Y54279758D02*
X26999690Y54252821D01*
X10709131Y55896002D02*
X10682194Y55976815D01*
X10682194Y55976815D02*
X10601381Y56057627D01*
X10601381Y56057627D02*
X10493632Y56111502D01*
X10493632Y56111502D02*
X10385882Y56111502D01*
X10385882Y56111502D02*
X10305070Y56084564D01*
X10305070Y56084564D02*
X10170383Y56003752D01*
X10170383Y56003752D02*
X10089571Y55922940D01*
X10089571Y55922940D02*
X10008758Y55788253D01*
X10008758Y55788253D02*
X9981821Y55707440D01*
X9981821Y55707440D02*
X9981821Y55599691D01*
X9981821Y55599691D02*
X10035696Y55491941D01*
X10035696Y55491941D02*
X10089571Y55438066D01*
X10089571Y55438066D02*
X10197320Y55384192D01*
X10197320Y55384192D02*
X10251195Y55384192D01*
X10251195Y55384192D02*
X10439757Y55572753D01*
X10439757Y55572753D02*
X10332007Y55680503D01*
X10439757Y55087880D02*
X11005442Y55653566D01*
X11005442Y55653566D02*
X11220942Y55438066D01*
X11220942Y55438066D02*
X11247879Y55357254D01*
X11247879Y55357254D02*
X11247879Y55303379D01*
X11247879Y55303379D02*
X11220942Y55222567D01*
X11220942Y55222567D02*
X11140129Y55141755D01*
X11140129Y55141755D02*
X11059317Y55114818D01*
X11059317Y55114818D02*
X11005442Y55114818D01*
X11005442Y55114818D02*
X10924630Y55141755D01*
X10924630Y55141755D02*
X10709131Y55357254D01*
X11301754Y54225883D02*
X10978505Y54549132D01*
X11140129Y54387508D02*
X11705815Y54953193D01*
X11705815Y54953193D02*
X11571128Y54926256D01*
X11571128Y54926256D02*
X11463378Y54926256D01*
X11463378Y54926256D02*
X11382566Y54953193D01*
X11571128Y53956509D02*
X11678878Y53848760D01*
X11678878Y53848760D02*
X11759690Y53821822D01*
X11759690Y53821822D02*
X11813565Y53821822D01*
X11813565Y53821822D02*
X11948252Y53848760D01*
X11948252Y53848760D02*
X12082939Y53929572D01*
X12082939Y53929572D02*
X12298438Y54145071D01*
X12298438Y54145071D02*
X12325375Y54225883D01*
X12325375Y54225883D02*
X12325375Y54279758D01*
X12325375Y54279758D02*
X12298438Y54360570D01*
X12298438Y54360570D02*
X12190688Y54468320D01*
X12190688Y54468320D02*
X12109876Y54495257D01*
X12109876Y54495257D02*
X12056001Y54495257D01*
X12056001Y54495257D02*
X11975189Y54468320D01*
X11975189Y54468320D02*
X11840502Y54333633D01*
X11840502Y54333633D02*
X11813565Y54252821D01*
X11813565Y54252821D02*
X11813565Y54198946D01*
X11813565Y54198946D02*
X11840502Y54118134D01*
X11840502Y54118134D02*
X11948252Y54010384D01*
X11948252Y54010384D02*
X12029064Y53983447D01*
X12029064Y53983447D02*
X12082939Y53983447D01*
X12082939Y53983447D02*
X12163751Y54010384D01*
X46548505Y68326628D02*
X46521568Y68407440D01*
X46521568Y68407440D02*
X46440756Y68488252D01*
X46440756Y68488252D02*
X46333006Y68542127D01*
X46333006Y68542127D02*
X46225257Y68542127D01*
X46225257Y68542127D02*
X46144444Y68515190D01*
X46144444Y68515190D02*
X46009757Y68434377D01*
X46009757Y68434377D02*
X45928945Y68353565D01*
X45928945Y68353565D02*
X45848133Y68218878D01*
X45848133Y68218878D02*
X45821196Y68138066D01*
X45821196Y68138066D02*
X45821196Y68030316D01*
X45821196Y68030316D02*
X45875070Y67922567D01*
X45875070Y67922567D02*
X45928945Y67868692D01*
X45928945Y67868692D02*
X46036695Y67814817D01*
X46036695Y67814817D02*
X46090570Y67814817D01*
X46090570Y67814817D02*
X46279131Y68003379D01*
X46279131Y68003379D02*
X46171382Y68111129D01*
X46279131Y67518506D02*
X46844817Y68084191D01*
X46844817Y68084191D02*
X47060316Y67868692D01*
X47060316Y67868692D02*
X47087253Y67787880D01*
X47087253Y67787880D02*
X47087253Y67734005D01*
X47087253Y67734005D02*
X47060316Y67653193D01*
X47060316Y67653193D02*
X46979504Y67572381D01*
X46979504Y67572381D02*
X46898692Y67545443D01*
X46898692Y67545443D02*
X46844817Y67545443D01*
X46844817Y67545443D02*
X46764005Y67572381D01*
X46764005Y67572381D02*
X46548505Y67787880D01*
X47141128Y66656509D02*
X46817879Y66979758D01*
X46979504Y66818133D02*
X47545189Y67383819D01*
X47545189Y67383819D02*
X47410502Y67356881D01*
X47410502Y67356881D02*
X47302753Y67356881D01*
X47302753Y67356881D02*
X47221940Y67383819D01*
X23678505Y68326628D02*
X23651568Y68407440D01*
X23651568Y68407440D02*
X23570756Y68488252D01*
X23570756Y68488252D02*
X23463006Y68542127D01*
X23463006Y68542127D02*
X23355257Y68542127D01*
X23355257Y68542127D02*
X23274444Y68515190D01*
X23274444Y68515190D02*
X23139757Y68434377D01*
X23139757Y68434377D02*
X23058945Y68353565D01*
X23058945Y68353565D02*
X22978133Y68218878D01*
X22978133Y68218878D02*
X22951196Y68138066D01*
X22951196Y68138066D02*
X22951196Y68030316D01*
X22951196Y68030316D02*
X23005070Y67922567D01*
X23005070Y67922567D02*
X23058945Y67868692D01*
X23058945Y67868692D02*
X23166695Y67814817D01*
X23166695Y67814817D02*
X23220570Y67814817D01*
X23220570Y67814817D02*
X23409131Y68003379D01*
X23409131Y68003379D02*
X23301382Y68111129D01*
X23409131Y67518506D02*
X23974817Y68084191D01*
X23974817Y68084191D02*
X24190316Y67868692D01*
X24190316Y67868692D02*
X24217253Y67787880D01*
X24217253Y67787880D02*
X24217253Y67734005D01*
X24217253Y67734005D02*
X24190316Y67653193D01*
X24190316Y67653193D02*
X24109504Y67572381D01*
X24109504Y67572381D02*
X24028692Y67545443D01*
X24028692Y67545443D02*
X23974817Y67545443D01*
X23974817Y67545443D02*
X23894005Y67572381D01*
X23894005Y67572381D02*
X23678505Y67787880D01*
X24378878Y67195257D02*
X24351940Y67276069D01*
X24351940Y67276069D02*
X24351940Y67329944D01*
X24351940Y67329944D02*
X24378878Y67410756D01*
X24378878Y67410756D02*
X24405815Y67437694D01*
X24405815Y67437694D02*
X24486627Y67464631D01*
X24486627Y67464631D02*
X24540502Y67464631D01*
X24540502Y67464631D02*
X24621314Y67437694D01*
X24621314Y67437694D02*
X24729064Y67329944D01*
X24729064Y67329944D02*
X24756001Y67249132D01*
X24756001Y67249132D02*
X24756001Y67195257D01*
X24756001Y67195257D02*
X24729064Y67114445D01*
X24729064Y67114445D02*
X24702127Y67087507D01*
X24702127Y67087507D02*
X24621314Y67060570D01*
X24621314Y67060570D02*
X24567440Y67060570D01*
X24567440Y67060570D02*
X24486627Y67087507D01*
X24486627Y67087507D02*
X24378878Y67195257D01*
X24378878Y67195257D02*
X24298066Y67222194D01*
X24298066Y67222194D02*
X24244191Y67222194D01*
X24244191Y67222194D02*
X24163379Y67195257D01*
X24163379Y67195257D02*
X24055629Y67087507D01*
X24055629Y67087507D02*
X24028692Y67006695D01*
X24028692Y67006695D02*
X24028692Y66952820D01*
X24028692Y66952820D02*
X24055629Y66872008D01*
X24055629Y66872008D02*
X24163379Y66764259D01*
X24163379Y66764259D02*
X24244191Y66737321D01*
X24244191Y66737321D02*
X24298066Y66737321D01*
X24298066Y66737321D02*
X24378878Y66764259D01*
X24378878Y66764259D02*
X24486627Y66872008D01*
X24486627Y66872008D02*
X24513565Y66952820D01*
X24513565Y66952820D02*
X24513565Y67006695D01*
X24513565Y67006695D02*
X24486627Y67087507D01*
X18571568Y68353565D02*
X18544631Y68434377D01*
X18544631Y68434377D02*
X18463819Y68515189D01*
X18463819Y68515189D02*
X18356069Y68569064D01*
X18356069Y68569064D02*
X18248319Y68569064D01*
X18248319Y68569064D02*
X18167507Y68542127D01*
X18167507Y68542127D02*
X18032820Y68461315D01*
X18032820Y68461315D02*
X17952008Y68380502D01*
X17952008Y68380502D02*
X17871196Y68245815D01*
X17871196Y68245815D02*
X17844258Y68165003D01*
X17844258Y68165003D02*
X17844258Y68057254D01*
X17844258Y68057254D02*
X17898133Y67949504D01*
X17898133Y67949504D02*
X17952008Y67895629D01*
X17952008Y67895629D02*
X18059758Y67841754D01*
X18059758Y67841754D02*
X18113632Y67841754D01*
X18113632Y67841754D02*
X18302194Y68030316D01*
X18302194Y68030316D02*
X18194445Y68138066D01*
X18302194Y67545443D02*
X18867880Y68111128D01*
X18867880Y68111128D02*
X18625443Y67222194D01*
X18625443Y67222194D02*
X19191128Y67787880D01*
X18894817Y66952820D02*
X19460502Y67518506D01*
X19460502Y67518506D02*
X19595189Y67383819D01*
X19595189Y67383819D02*
X19649064Y67276069D01*
X19649064Y67276069D02*
X19649064Y67168320D01*
X19649064Y67168320D02*
X19622127Y67087507D01*
X19622127Y67087507D02*
X19541314Y66952820D01*
X19541314Y66952820D02*
X19460502Y66872008D01*
X19460502Y66872008D02*
X19325815Y66791196D01*
X19325815Y66791196D02*
X19245003Y66764259D01*
X19245003Y66764259D02*
X19137253Y66764259D01*
X19137253Y66764259D02*
X19029504Y66818133D01*
X19029504Y66818133D02*
X18894817Y66952820D01*
X31271568Y68353565D02*
X31244631Y68434377D01*
X31244631Y68434377D02*
X31163819Y68515189D01*
X31163819Y68515189D02*
X31056069Y68569064D01*
X31056069Y68569064D02*
X30948319Y68569064D01*
X30948319Y68569064D02*
X30867507Y68542127D01*
X30867507Y68542127D02*
X30732820Y68461315D01*
X30732820Y68461315D02*
X30652008Y68380502D01*
X30652008Y68380502D02*
X30571196Y68245815D01*
X30571196Y68245815D02*
X30544258Y68165003D01*
X30544258Y68165003D02*
X30544258Y68057254D01*
X30544258Y68057254D02*
X30598133Y67949504D01*
X30598133Y67949504D02*
X30652008Y67895629D01*
X30652008Y67895629D02*
X30759758Y67841754D01*
X30759758Y67841754D02*
X30813632Y67841754D01*
X30813632Y67841754D02*
X31002194Y68030316D01*
X31002194Y68030316D02*
X30894445Y68138066D01*
X31002194Y67545443D02*
X31567880Y68111128D01*
X31567880Y68111128D02*
X31325443Y67222194D01*
X31325443Y67222194D02*
X31891128Y67787880D01*
X31594817Y66952820D02*
X32160502Y67518506D01*
X32160502Y67518506D02*
X32295189Y67383819D01*
X32295189Y67383819D02*
X32349064Y67276069D01*
X32349064Y67276069D02*
X32349064Y67168320D01*
X32349064Y67168320D02*
X32322127Y67087507D01*
X32322127Y67087507D02*
X32241314Y66952820D01*
X32241314Y66952820D02*
X32160502Y66872008D01*
X32160502Y66872008D02*
X32025815Y66791196D01*
X32025815Y66791196D02*
X31945003Y66764259D01*
X31945003Y66764259D02*
X31837253Y66764259D01*
X31837253Y66764259D02*
X31729504Y66818133D01*
X31729504Y66818133D02*
X31594817Y66952820D01*
X18571568Y55653565D02*
X18544631Y55734377D01*
X18544631Y55734377D02*
X18463819Y55815189D01*
X18463819Y55815189D02*
X18356069Y55869064D01*
X18356069Y55869064D02*
X18248319Y55869064D01*
X18248319Y55869064D02*
X18167507Y55842127D01*
X18167507Y55842127D02*
X18032820Y55761315D01*
X18032820Y55761315D02*
X17952008Y55680502D01*
X17952008Y55680502D02*
X17871196Y55545815D01*
X17871196Y55545815D02*
X17844258Y55465003D01*
X17844258Y55465003D02*
X17844258Y55357254D01*
X17844258Y55357254D02*
X17898133Y55249504D01*
X17898133Y55249504D02*
X17952008Y55195629D01*
X17952008Y55195629D02*
X18059758Y55141754D01*
X18059758Y55141754D02*
X18113632Y55141754D01*
X18113632Y55141754D02*
X18302194Y55330316D01*
X18302194Y55330316D02*
X18194445Y55438066D01*
X18302194Y54845443D02*
X18867880Y55411128D01*
X18867880Y55411128D02*
X18625443Y54522194D01*
X18625443Y54522194D02*
X19191128Y55087880D01*
X18894817Y54252820D02*
X19460502Y54818506D01*
X19460502Y54818506D02*
X19595189Y54683819D01*
X19595189Y54683819D02*
X19649064Y54576069D01*
X19649064Y54576069D02*
X19649064Y54468320D01*
X19649064Y54468320D02*
X19622127Y54387507D01*
X19622127Y54387507D02*
X19541314Y54252820D01*
X19541314Y54252820D02*
X19460502Y54172008D01*
X19460502Y54172008D02*
X19325815Y54091196D01*
X19325815Y54091196D02*
X19245003Y54064259D01*
X19245003Y54064259D02*
X19137253Y54064259D01*
X19137253Y54064259D02*
X19029504Y54118133D01*
X19029504Y54118133D02*
X18894817Y54252820D01*
X2523998Y54549132D02*
X2443185Y54522195D01*
X2443185Y54522195D02*
X2362373Y54441382D01*
X2362373Y54441382D02*
X2308498Y54333633D01*
X2308498Y54333633D02*
X2308498Y54225883D01*
X2308498Y54225883D02*
X2335436Y54145071D01*
X2335436Y54145071D02*
X2416248Y54010384D01*
X2416248Y54010384D02*
X2497060Y53929572D01*
X2497060Y53929572D02*
X2631747Y53848759D01*
X2631747Y53848759D02*
X2712560Y53821822D01*
X2712560Y53821822D02*
X2820309Y53821822D01*
X2820309Y53821822D02*
X2928059Y53875697D01*
X2928059Y53875697D02*
X2981934Y53929572D01*
X2981934Y53929572D02*
X3035808Y54037321D01*
X3035808Y54037321D02*
X3035808Y54091196D01*
X3035808Y54091196D02*
X2847247Y54279758D01*
X2847247Y54279758D02*
X2739497Y54172008D01*
X3332120Y54279758D02*
X2766434Y54845443D01*
X2766434Y54845443D02*
X2981934Y55060943D01*
X2981934Y55060943D02*
X3062746Y55087880D01*
X3062746Y55087880D02*
X3116621Y55087880D01*
X3116621Y55087880D02*
X3197433Y55060943D01*
X3197433Y55060943D02*
X3278245Y54980130D01*
X3278245Y54980130D02*
X3305182Y54899318D01*
X3305182Y54899318D02*
X3305182Y54845443D01*
X3305182Y54845443D02*
X3278245Y54764631D01*
X3278245Y54764631D02*
X3062746Y54549132D01*
X4194117Y55141755D02*
X3870868Y54818506D01*
X4032492Y54980130D02*
X3466807Y55545816D01*
X3466807Y55545816D02*
X3493744Y55411129D01*
X3493744Y55411129D02*
X3493744Y55303379D01*
X3493744Y55303379D02*
X3466807Y55222567D01*
X3816993Y55896002D02*
X4194117Y56273126D01*
X4194117Y56273126D02*
X4517366Y55465004D01*
X23126289Y55101349D02*
X23207101Y55559284D01*
X22803040Y55424597D02*
X23368725Y55990283D01*
X23368725Y55990283D02*
X23584224Y55774784D01*
X23584224Y55774784D02*
X23611162Y55693971D01*
X23611162Y55693971D02*
X23611162Y55640097D01*
X23611162Y55640097D02*
X23584224Y55559284D01*
X23584224Y55559284D02*
X23503412Y55478472D01*
X23503412Y55478472D02*
X23422600Y55451535D01*
X23422600Y55451535D02*
X23368725Y55451535D01*
X23368725Y55451535D02*
X23287913Y55478472D01*
X23287913Y55478472D02*
X23072414Y55693971D01*
X23934411Y55424597D02*
X23476475Y54966662D01*
X23476475Y54966662D02*
X23449537Y54885849D01*
X23449537Y54885849D02*
X23449537Y54831975D01*
X23449537Y54831975D02*
X23476475Y54751162D01*
X23476475Y54751162D02*
X23584224Y54643413D01*
X23584224Y54643413D02*
X23665037Y54616475D01*
X23665037Y54616475D02*
X23718911Y54616475D01*
X23718911Y54616475D02*
X23799724Y54643413D01*
X23799724Y54643413D02*
X24257659Y55101349D01*
X23961348Y54266289D02*
X24527033Y54831975D01*
X24527033Y54831975D02*
X24284597Y53943041D01*
X24284597Y53943041D02*
X24850282Y54508726D01*
X20869131Y55896002D02*
X20842194Y55976815D01*
X20842194Y55976815D02*
X20761381Y56057627D01*
X20761381Y56057627D02*
X20653632Y56111502D01*
X20653632Y56111502D02*
X20545882Y56111502D01*
X20545882Y56111502D02*
X20465070Y56084564D01*
X20465070Y56084564D02*
X20330383Y56003752D01*
X20330383Y56003752D02*
X20249571Y55922940D01*
X20249571Y55922940D02*
X20168758Y55788253D01*
X20168758Y55788253D02*
X20141821Y55707440D01*
X20141821Y55707440D02*
X20141821Y55599691D01*
X20141821Y55599691D02*
X20195696Y55491941D01*
X20195696Y55491941D02*
X20249571Y55438066D01*
X20249571Y55438066D02*
X20357320Y55384192D01*
X20357320Y55384192D02*
X20411195Y55384192D01*
X20411195Y55384192D02*
X20599757Y55572753D01*
X20599757Y55572753D02*
X20492007Y55680503D01*
X20599757Y55087880D02*
X21165442Y55653566D01*
X21165442Y55653566D02*
X21380942Y55438066D01*
X21380942Y55438066D02*
X21407879Y55357254D01*
X21407879Y55357254D02*
X21407879Y55303379D01*
X21407879Y55303379D02*
X21380942Y55222567D01*
X21380942Y55222567D02*
X21300129Y55141755D01*
X21300129Y55141755D02*
X21219317Y55114818D01*
X21219317Y55114818D02*
X21165442Y55114818D01*
X21165442Y55114818D02*
X21084630Y55141755D01*
X21084630Y55141755D02*
X20869131Y55357254D01*
X21650316Y55060943D02*
X21704190Y55060943D01*
X21704190Y55060943D02*
X21785003Y55034005D01*
X21785003Y55034005D02*
X21919690Y54899318D01*
X21919690Y54899318D02*
X21946627Y54818506D01*
X21946627Y54818506D02*
X21946627Y54764631D01*
X21946627Y54764631D02*
X21919690Y54683819D01*
X21919690Y54683819D02*
X21865815Y54629944D01*
X21865815Y54629944D02*
X21758065Y54576070D01*
X21758065Y54576070D02*
X21111568Y54576070D01*
X21111568Y54576070D02*
X21461754Y54225883D01*
X22189064Y54522195D02*
X22242939Y54522195D01*
X22242939Y54522195D02*
X22323751Y54495257D01*
X22323751Y54495257D02*
X22458438Y54360570D01*
X22458438Y54360570D02*
X22485375Y54279758D01*
X22485375Y54279758D02*
X22485375Y54225883D01*
X22485375Y54225883D02*
X22458438Y54145071D01*
X22458438Y54145071D02*
X22404563Y54091196D01*
X22404563Y54091196D02*
X22296813Y54037321D01*
X22296813Y54037321D02*
X21650316Y54037321D01*
X21650316Y54037321D02*
X22000502Y53687135D01*
X3804200Y62020476D02*
X3842295Y62134762D01*
X3842295Y62134762D02*
X3842295Y62325238D01*
X3842295Y62325238D02*
X3804200Y62401429D01*
X3804200Y62401429D02*
X3766104Y62439524D01*
X3766104Y62439524D02*
X3689914Y62477619D01*
X3689914Y62477619D02*
X3613723Y62477619D01*
X3613723Y62477619D02*
X3537533Y62439524D01*
X3537533Y62439524D02*
X3499438Y62401429D01*
X3499438Y62401429D02*
X3461342Y62325238D01*
X3461342Y62325238D02*
X3423247Y62172857D01*
X3423247Y62172857D02*
X3385152Y62096667D01*
X3385152Y62096667D02*
X3347057Y62058572D01*
X3347057Y62058572D02*
X3270866Y62020476D01*
X3270866Y62020476D02*
X3194676Y62020476D01*
X3194676Y62020476D02*
X3118485Y62058572D01*
X3118485Y62058572D02*
X3080390Y62096667D01*
X3080390Y62096667D02*
X3042295Y62172857D01*
X3042295Y62172857D02*
X3042295Y62363334D01*
X3042295Y62363334D02*
X3080390Y62477619D01*
X3042295Y62744286D02*
X3842295Y62934762D01*
X3842295Y62934762D02*
X3270866Y63087143D01*
X3270866Y63087143D02*
X3842295Y63239524D01*
X3842295Y63239524D02*
X3042295Y63430000D01*
X3766104Y64191906D02*
X3804200Y64153810D01*
X3804200Y64153810D02*
X3842295Y64039525D01*
X3842295Y64039525D02*
X3842295Y63963334D01*
X3842295Y63963334D02*
X3804200Y63849048D01*
X3804200Y63849048D02*
X3728009Y63772858D01*
X3728009Y63772858D02*
X3651819Y63734763D01*
X3651819Y63734763D02*
X3499438Y63696667D01*
X3499438Y63696667D02*
X3385152Y63696667D01*
X3385152Y63696667D02*
X3232771Y63734763D01*
X3232771Y63734763D02*
X3156580Y63772858D01*
X3156580Y63772858D02*
X3080390Y63849048D01*
X3080390Y63849048D02*
X3042295Y63963334D01*
X3042295Y63963334D02*
X3042295Y64039525D01*
X3042295Y64039525D02*
X3080390Y64153810D01*
X3080390Y64153810D02*
X3118485Y64191906D01*
X3842295Y64915715D02*
X3842295Y64534763D01*
X3842295Y64534763D02*
X3042295Y64534763D01*
X3842295Y65182382D02*
X3042295Y65182382D01*
X3842295Y65639525D02*
X3385152Y65296667D01*
X3042295Y65639525D02*
X3499438Y65182382D01*
X13249131Y68596002D02*
X13222194Y68676815D01*
X13222194Y68676815D02*
X13141381Y68757627D01*
X13141381Y68757627D02*
X13033632Y68811502D01*
X13033632Y68811502D02*
X12925882Y68811502D01*
X12925882Y68811502D02*
X12845070Y68784564D01*
X12845070Y68784564D02*
X12710383Y68703752D01*
X12710383Y68703752D02*
X12629571Y68622940D01*
X12629571Y68622940D02*
X12548758Y68488253D01*
X12548758Y68488253D02*
X12521821Y68407440D01*
X12521821Y68407440D02*
X12521821Y68299691D01*
X12521821Y68299691D02*
X12575696Y68191941D01*
X12575696Y68191941D02*
X12629571Y68138066D01*
X12629571Y68138066D02*
X12737320Y68084192D01*
X12737320Y68084192D02*
X12791195Y68084192D01*
X12791195Y68084192D02*
X12979757Y68272753D01*
X12979757Y68272753D02*
X12872007Y68380503D01*
X12979757Y67787880D02*
X13545442Y68353566D01*
X13545442Y68353566D02*
X13760942Y68138066D01*
X13760942Y68138066D02*
X13787879Y68057254D01*
X13787879Y68057254D02*
X13787879Y68003379D01*
X13787879Y68003379D02*
X13760942Y67922567D01*
X13760942Y67922567D02*
X13680129Y67841755D01*
X13680129Y67841755D02*
X13599317Y67814818D01*
X13599317Y67814818D02*
X13545442Y67814818D01*
X13545442Y67814818D02*
X13464630Y67841755D01*
X13464630Y67841755D02*
X13249131Y68057254D01*
X13841754Y66925883D02*
X13518505Y67249132D01*
X13680129Y67087508D02*
X14245815Y67653193D01*
X14245815Y67653193D02*
X14111128Y67626256D01*
X14111128Y67626256D02*
X14003378Y67626256D01*
X14003378Y67626256D02*
X13922566Y67653193D01*
X14380502Y66387135D02*
X14057253Y66710384D01*
X14218878Y66548760D02*
X14784563Y67114445D01*
X14784563Y67114445D02*
X14649876Y67087508D01*
X14649876Y67087508D02*
X14542126Y67087508D01*
X14542126Y67087508D02*
X14461314Y67114445D01*
X28479131Y55896002D02*
X28452194Y55976815D01*
X28452194Y55976815D02*
X28371381Y56057627D01*
X28371381Y56057627D02*
X28263632Y56111502D01*
X28263632Y56111502D02*
X28155882Y56111502D01*
X28155882Y56111502D02*
X28075070Y56084564D01*
X28075070Y56084564D02*
X27940383Y56003752D01*
X27940383Y56003752D02*
X27859571Y55922940D01*
X27859571Y55922940D02*
X27778758Y55788253D01*
X27778758Y55788253D02*
X27751821Y55707440D01*
X27751821Y55707440D02*
X27751821Y55599691D01*
X27751821Y55599691D02*
X27805696Y55491941D01*
X27805696Y55491941D02*
X27859571Y55438066D01*
X27859571Y55438066D02*
X27967320Y55384192D01*
X27967320Y55384192D02*
X28021195Y55384192D01*
X28021195Y55384192D02*
X28209757Y55572753D01*
X28209757Y55572753D02*
X28102007Y55680503D01*
X28209757Y55087880D02*
X28775442Y55653566D01*
X28775442Y55653566D02*
X28990942Y55438066D01*
X28990942Y55438066D02*
X29017879Y55357254D01*
X29017879Y55357254D02*
X29017879Y55303379D01*
X29017879Y55303379D02*
X28990942Y55222567D01*
X28990942Y55222567D02*
X28910129Y55141755D01*
X28910129Y55141755D02*
X28829317Y55114818D01*
X28829317Y55114818D02*
X28775442Y55114818D01*
X28775442Y55114818D02*
X28694630Y55141755D01*
X28694630Y55141755D02*
X28479131Y55357254D01*
X29260316Y55060943D02*
X29314190Y55060943D01*
X29314190Y55060943D02*
X29395003Y55034005D01*
X29395003Y55034005D02*
X29529690Y54899318D01*
X29529690Y54899318D02*
X29556627Y54818506D01*
X29556627Y54818506D02*
X29556627Y54764631D01*
X29556627Y54764631D02*
X29529690Y54683819D01*
X29529690Y54683819D02*
X29475815Y54629944D01*
X29475815Y54629944D02*
X29368065Y54576070D01*
X29368065Y54576070D02*
X28721568Y54576070D01*
X28721568Y54576070D02*
X29071754Y54225883D01*
X29826001Y54603007D02*
X30203125Y54225883D01*
X30203125Y54225883D02*
X29395003Y53902634D01*
X33569131Y55896002D02*
X33542194Y55976815D01*
X33542194Y55976815D02*
X33461381Y56057627D01*
X33461381Y56057627D02*
X33353632Y56111502D01*
X33353632Y56111502D02*
X33245882Y56111502D01*
X33245882Y56111502D02*
X33165070Y56084564D01*
X33165070Y56084564D02*
X33030383Y56003752D01*
X33030383Y56003752D02*
X32949571Y55922940D01*
X32949571Y55922940D02*
X32868758Y55788253D01*
X32868758Y55788253D02*
X32841821Y55707440D01*
X32841821Y55707440D02*
X32841821Y55599691D01*
X32841821Y55599691D02*
X32895696Y55491941D01*
X32895696Y55491941D02*
X32949571Y55438066D01*
X32949571Y55438066D02*
X33057320Y55384192D01*
X33057320Y55384192D02*
X33111195Y55384192D01*
X33111195Y55384192D02*
X33299757Y55572753D01*
X33299757Y55572753D02*
X33192007Y55680503D01*
X33299757Y55087880D02*
X33865442Y55653566D01*
X33865442Y55653566D02*
X34080942Y55438066D01*
X34080942Y55438066D02*
X34107879Y55357254D01*
X34107879Y55357254D02*
X34107879Y55303379D01*
X34107879Y55303379D02*
X34080942Y55222567D01*
X34080942Y55222567D02*
X34000129Y55141755D01*
X34000129Y55141755D02*
X33919317Y55114818D01*
X33919317Y55114818D02*
X33865442Y55114818D01*
X33865442Y55114818D02*
X33784630Y55141755D01*
X33784630Y55141755D02*
X33569131Y55357254D01*
X34350316Y55060943D02*
X34404190Y55060943D01*
X34404190Y55060943D02*
X34485003Y55034005D01*
X34485003Y55034005D02*
X34619690Y54899318D01*
X34619690Y54899318D02*
X34646627Y54818506D01*
X34646627Y54818506D02*
X34646627Y54764631D01*
X34646627Y54764631D02*
X34619690Y54683819D01*
X34619690Y54683819D02*
X34565815Y54629944D01*
X34565815Y54629944D02*
X34458065Y54576070D01*
X34458065Y54576070D02*
X33811568Y54576070D01*
X33811568Y54576070D02*
X34161754Y54225883D01*
X34808252Y54225883D02*
X34781314Y54306695D01*
X34781314Y54306695D02*
X34781314Y54360570D01*
X34781314Y54360570D02*
X34808252Y54441382D01*
X34808252Y54441382D02*
X34835189Y54468320D01*
X34835189Y54468320D02*
X34916001Y54495257D01*
X34916001Y54495257D02*
X34969876Y54495257D01*
X34969876Y54495257D02*
X35050688Y54468320D01*
X35050688Y54468320D02*
X35158438Y54360570D01*
X35158438Y54360570D02*
X35185375Y54279758D01*
X35185375Y54279758D02*
X35185375Y54225883D01*
X35185375Y54225883D02*
X35158438Y54145071D01*
X35158438Y54145071D02*
X35131500Y54118134D01*
X35131500Y54118134D02*
X35050688Y54091196D01*
X35050688Y54091196D02*
X34996813Y54091196D01*
X34996813Y54091196D02*
X34916001Y54118134D01*
X34916001Y54118134D02*
X34808252Y54225883D01*
X34808252Y54225883D02*
X34727439Y54252821D01*
X34727439Y54252821D02*
X34673565Y54252821D01*
X34673565Y54252821D02*
X34592752Y54225883D01*
X34592752Y54225883D02*
X34485003Y54118134D01*
X34485003Y54118134D02*
X34458065Y54037321D01*
X34458065Y54037321D02*
X34458065Y53983447D01*
X34458065Y53983447D02*
X34485003Y53902634D01*
X34485003Y53902634D02*
X34592752Y53794885D01*
X34592752Y53794885D02*
X34673565Y53767947D01*
X34673565Y53767947D02*
X34727439Y53767947D01*
X34727439Y53767947D02*
X34808252Y53794885D01*
X34808252Y53794885D02*
X34916001Y53902634D01*
X34916001Y53902634D02*
X34942939Y53983447D01*
X34942939Y53983447D02*
X34942939Y54037321D01*
X34942939Y54037321D02*
X34916001Y54118134D01*
X36378505Y68326628D02*
X36351568Y68407440D01*
X36351568Y68407440D02*
X36270756Y68488252D01*
X36270756Y68488252D02*
X36163006Y68542127D01*
X36163006Y68542127D02*
X36055257Y68542127D01*
X36055257Y68542127D02*
X35974444Y68515190D01*
X35974444Y68515190D02*
X35839757Y68434377D01*
X35839757Y68434377D02*
X35758945Y68353565D01*
X35758945Y68353565D02*
X35678133Y68218878D01*
X35678133Y68218878D02*
X35651196Y68138066D01*
X35651196Y68138066D02*
X35651196Y68030316D01*
X35651196Y68030316D02*
X35705070Y67922567D01*
X35705070Y67922567D02*
X35758945Y67868692D01*
X35758945Y67868692D02*
X35866695Y67814817D01*
X35866695Y67814817D02*
X35920570Y67814817D01*
X35920570Y67814817D02*
X36109131Y68003379D01*
X36109131Y68003379D02*
X36001382Y68111129D01*
X36109131Y67518506D02*
X36674817Y68084191D01*
X36674817Y68084191D02*
X36890316Y67868692D01*
X36890316Y67868692D02*
X36917253Y67787880D01*
X36917253Y67787880D02*
X36917253Y67734005D01*
X36917253Y67734005D02*
X36890316Y67653193D01*
X36890316Y67653193D02*
X36809504Y67572381D01*
X36809504Y67572381D02*
X36728692Y67545443D01*
X36728692Y67545443D02*
X36674817Y67545443D01*
X36674817Y67545443D02*
X36594005Y67572381D01*
X36594005Y67572381D02*
X36378505Y67787880D01*
X37294377Y67087507D02*
X36917253Y66710384D01*
X37375189Y67437694D02*
X36836441Y67168320D01*
X36836441Y67168320D02*
X37186627Y66818133D01*
X45999757Y56219251D02*
X45622633Y55465004D01*
X45622633Y55465004D02*
X46376881Y55842127D01*
X45999757Y55141755D02*
X46053632Y55034005D01*
X46053632Y55034005D02*
X46188319Y54899318D01*
X46188319Y54899318D02*
X46269131Y54872381D01*
X46269131Y54872381D02*
X46323006Y54872381D01*
X46323006Y54872381D02*
X46403818Y54899318D01*
X46403818Y54899318D02*
X46457693Y54953193D01*
X46457693Y54953193D02*
X46484630Y55034005D01*
X46484630Y55034005D02*
X46484630Y55087880D01*
X46484630Y55087880D02*
X46457693Y55168692D01*
X46457693Y55168692D02*
X46376881Y55303379D01*
X46376881Y55303379D02*
X46349943Y55384192D01*
X46349943Y55384192D02*
X46349943Y55438066D01*
X46349943Y55438066D02*
X46376881Y55518879D01*
X46376881Y55518879D02*
X46430755Y55572753D01*
X46430755Y55572753D02*
X46511568Y55599691D01*
X46511568Y55599691D02*
X46565442Y55599691D01*
X46565442Y55599691D02*
X46646255Y55572753D01*
X46646255Y55572753D02*
X46780942Y55438066D01*
X46780942Y55438066D02*
X46834816Y55330317D01*
X46915629Y54710756D02*
X46646255Y54441382D01*
X47023378Y55195630D02*
X46915629Y54710756D01*
X46915629Y54710756D02*
X47400502Y54818506D01*
X47023378Y54118134D02*
X47077253Y54010384D01*
X47077253Y54010384D02*
X47211940Y53875697D01*
X47211940Y53875697D02*
X47292752Y53848760D01*
X47292752Y53848760D02*
X47346627Y53848760D01*
X47346627Y53848760D02*
X47427439Y53875697D01*
X47427439Y53875697D02*
X47481314Y53929572D01*
X47481314Y53929572D02*
X47508251Y54010384D01*
X47508251Y54010384D02*
X47508251Y54064259D01*
X47508251Y54064259D02*
X47481314Y54145071D01*
X47481314Y54145071D02*
X47400502Y54279758D01*
X47400502Y54279758D02*
X47373564Y54360570D01*
X47373564Y54360570D02*
X47373564Y54414445D01*
X47373564Y54414445D02*
X47400502Y54495257D01*
X47400502Y54495257D02*
X47454377Y54549132D01*
X47454377Y54549132D02*
X47535189Y54576070D01*
X47535189Y54576070D02*
X47589064Y54576070D01*
X47589064Y54576070D02*
X47669876Y54549132D01*
X47669876Y54549132D02*
X47804563Y54414445D01*
X47804563Y54414445D02*
X47858438Y54306696D01*
X43971568Y55653565D02*
X43944631Y55734377D01*
X43944631Y55734377D02*
X43863819Y55815189D01*
X43863819Y55815189D02*
X43756069Y55869064D01*
X43756069Y55869064D02*
X43648319Y55869064D01*
X43648319Y55869064D02*
X43567507Y55842127D01*
X43567507Y55842127D02*
X43432820Y55761315D01*
X43432820Y55761315D02*
X43352008Y55680502D01*
X43352008Y55680502D02*
X43271196Y55545815D01*
X43271196Y55545815D02*
X43244258Y55465003D01*
X43244258Y55465003D02*
X43244258Y55357254D01*
X43244258Y55357254D02*
X43298133Y55249504D01*
X43298133Y55249504D02*
X43352008Y55195629D01*
X43352008Y55195629D02*
X43459758Y55141754D01*
X43459758Y55141754D02*
X43513632Y55141754D01*
X43513632Y55141754D02*
X43702194Y55330316D01*
X43702194Y55330316D02*
X43594445Y55438066D01*
X43702194Y54845443D02*
X44267880Y55411128D01*
X44267880Y55411128D02*
X44025443Y54522194D01*
X44025443Y54522194D02*
X44591128Y55087880D01*
X44294817Y54252820D02*
X44860502Y54818506D01*
X44860502Y54818506D02*
X44995189Y54683819D01*
X44995189Y54683819D02*
X45049064Y54576069D01*
X45049064Y54576069D02*
X45049064Y54468320D01*
X45049064Y54468320D02*
X45022127Y54387507D01*
X45022127Y54387507D02*
X44941314Y54252820D01*
X44941314Y54252820D02*
X44860502Y54172008D01*
X44860502Y54172008D02*
X44725815Y54091196D01*
X44725815Y54091196D02*
X44645003Y54064259D01*
X44645003Y54064259D02*
X44537253Y54064259D01*
X44537253Y54064259D02*
X44429504Y54118133D01*
X44429504Y54118133D02*
X44294817Y54252820D01*
X15779131Y55896002D02*
X15752194Y55976815D01*
X15752194Y55976815D02*
X15671381Y56057627D01*
X15671381Y56057627D02*
X15563632Y56111502D01*
X15563632Y56111502D02*
X15455882Y56111502D01*
X15455882Y56111502D02*
X15375070Y56084564D01*
X15375070Y56084564D02*
X15240383Y56003752D01*
X15240383Y56003752D02*
X15159571Y55922940D01*
X15159571Y55922940D02*
X15078758Y55788253D01*
X15078758Y55788253D02*
X15051821Y55707440D01*
X15051821Y55707440D02*
X15051821Y55599691D01*
X15051821Y55599691D02*
X15105696Y55491941D01*
X15105696Y55491941D02*
X15159571Y55438066D01*
X15159571Y55438066D02*
X15267320Y55384192D01*
X15267320Y55384192D02*
X15321195Y55384192D01*
X15321195Y55384192D02*
X15509757Y55572753D01*
X15509757Y55572753D02*
X15402007Y55680503D01*
X15509757Y55087880D02*
X16075442Y55653566D01*
X16075442Y55653566D02*
X16290942Y55438066D01*
X16290942Y55438066D02*
X16317879Y55357254D01*
X16317879Y55357254D02*
X16317879Y55303379D01*
X16317879Y55303379D02*
X16290942Y55222567D01*
X16290942Y55222567D02*
X16210129Y55141755D01*
X16210129Y55141755D02*
X16129317Y55114818D01*
X16129317Y55114818D02*
X16075442Y55114818D01*
X16075442Y55114818D02*
X15994630Y55141755D01*
X15994630Y55141755D02*
X15779131Y55357254D01*
X16560316Y55060943D02*
X16614190Y55060943D01*
X16614190Y55060943D02*
X16695003Y55034005D01*
X16695003Y55034005D02*
X16829690Y54899318D01*
X16829690Y54899318D02*
X16856627Y54818506D01*
X16856627Y54818506D02*
X16856627Y54764631D01*
X16856627Y54764631D02*
X16829690Y54683819D01*
X16829690Y54683819D02*
X16775815Y54629944D01*
X16775815Y54629944D02*
X16668065Y54576070D01*
X16668065Y54576070D02*
X16021568Y54576070D01*
X16021568Y54576070D02*
X16371754Y54225883D01*
X16910502Y53687135D02*
X16587253Y54010384D01*
X16748878Y53848760D02*
X17314563Y54414445D01*
X17314563Y54414445D02*
X17179876Y54387508D01*
X17179876Y54387508D02*
X17072126Y54387508D01*
X17072126Y54387508D02*
X16991314Y54414445D01*
X33838505Y68326628D02*
X33811568Y68407440D01*
X33811568Y68407440D02*
X33730756Y68488252D01*
X33730756Y68488252D02*
X33623006Y68542127D01*
X33623006Y68542127D02*
X33515257Y68542127D01*
X33515257Y68542127D02*
X33434444Y68515190D01*
X33434444Y68515190D02*
X33299757Y68434377D01*
X33299757Y68434377D02*
X33218945Y68353565D01*
X33218945Y68353565D02*
X33138133Y68218878D01*
X33138133Y68218878D02*
X33111196Y68138066D01*
X33111196Y68138066D02*
X33111196Y68030316D01*
X33111196Y68030316D02*
X33165070Y67922567D01*
X33165070Y67922567D02*
X33218945Y67868692D01*
X33218945Y67868692D02*
X33326695Y67814817D01*
X33326695Y67814817D02*
X33380570Y67814817D01*
X33380570Y67814817D02*
X33569131Y68003379D01*
X33569131Y68003379D02*
X33461382Y68111129D01*
X33569131Y67518506D02*
X34134817Y68084191D01*
X34134817Y68084191D02*
X34350316Y67868692D01*
X34350316Y67868692D02*
X34377253Y67787880D01*
X34377253Y67787880D02*
X34377253Y67734005D01*
X34377253Y67734005D02*
X34350316Y67653193D01*
X34350316Y67653193D02*
X34269504Y67572381D01*
X34269504Y67572381D02*
X34188692Y67545443D01*
X34188692Y67545443D02*
X34134817Y67545443D01*
X34134817Y67545443D02*
X34054005Y67572381D01*
X34054005Y67572381D02*
X33838505Y67787880D01*
X34969876Y67249132D02*
X34700502Y67518506D01*
X34700502Y67518506D02*
X34404191Y67276069D01*
X34404191Y67276069D02*
X34458066Y67276069D01*
X34458066Y67276069D02*
X34538878Y67249132D01*
X34538878Y67249132D02*
X34673565Y67114445D01*
X34673565Y67114445D02*
X34700502Y67033633D01*
X34700502Y67033633D02*
X34700502Y66979758D01*
X34700502Y66979758D02*
X34673565Y66898946D01*
X34673565Y66898946D02*
X34538878Y66764259D01*
X34538878Y66764259D02*
X34458066Y66737321D01*
X34458066Y66737321D02*
X34404191Y66737321D01*
X34404191Y66737321D02*
X34323379Y66764259D01*
X34323379Y66764259D02*
X34188692Y66898946D01*
X34188692Y66898946D02*
X34161754Y66979758D01*
X34161754Y66979758D02*
X34161754Y67033633D01*
X5871568Y68353565D02*
X5844631Y68434377D01*
X5844631Y68434377D02*
X5763819Y68515189D01*
X5763819Y68515189D02*
X5656069Y68569064D01*
X5656069Y68569064D02*
X5548319Y68569064D01*
X5548319Y68569064D02*
X5467507Y68542127D01*
X5467507Y68542127D02*
X5332820Y68461315D01*
X5332820Y68461315D02*
X5252008Y68380502D01*
X5252008Y68380502D02*
X5171196Y68245815D01*
X5171196Y68245815D02*
X5144258Y68165003D01*
X5144258Y68165003D02*
X5144258Y68057254D01*
X5144258Y68057254D02*
X5198133Y67949504D01*
X5198133Y67949504D02*
X5252008Y67895629D01*
X5252008Y67895629D02*
X5359758Y67841754D01*
X5359758Y67841754D02*
X5413632Y67841754D01*
X5413632Y67841754D02*
X5602194Y68030316D01*
X5602194Y68030316D02*
X5494445Y68138066D01*
X5602194Y67545443D02*
X6167880Y68111128D01*
X6167880Y68111128D02*
X5925443Y67222194D01*
X5925443Y67222194D02*
X6491128Y67787880D01*
X6194817Y66952820D02*
X6760502Y67518506D01*
X6760502Y67518506D02*
X6895189Y67383819D01*
X6895189Y67383819D02*
X6949064Y67276069D01*
X6949064Y67276069D02*
X6949064Y67168320D01*
X6949064Y67168320D02*
X6922127Y67087507D01*
X6922127Y67087507D02*
X6841314Y66952820D01*
X6841314Y66952820D02*
X6760502Y66872008D01*
X6760502Y66872008D02*
X6625815Y66791196D01*
X6625815Y66791196D02*
X6545003Y66764259D01*
X6545003Y66764259D02*
X6437253Y66764259D01*
X6437253Y66764259D02*
X6329504Y66818133D01*
X6329504Y66818133D02*
X6194817Y66952820D01*
X15789131Y68596002D02*
X15762194Y68676815D01*
X15762194Y68676815D02*
X15681381Y68757627D01*
X15681381Y68757627D02*
X15573632Y68811502D01*
X15573632Y68811502D02*
X15465882Y68811502D01*
X15465882Y68811502D02*
X15385070Y68784564D01*
X15385070Y68784564D02*
X15250383Y68703752D01*
X15250383Y68703752D02*
X15169571Y68622940D01*
X15169571Y68622940D02*
X15088758Y68488253D01*
X15088758Y68488253D02*
X15061821Y68407440D01*
X15061821Y68407440D02*
X15061821Y68299691D01*
X15061821Y68299691D02*
X15115696Y68191941D01*
X15115696Y68191941D02*
X15169571Y68138066D01*
X15169571Y68138066D02*
X15277320Y68084192D01*
X15277320Y68084192D02*
X15331195Y68084192D01*
X15331195Y68084192D02*
X15519757Y68272753D01*
X15519757Y68272753D02*
X15412007Y68380503D01*
X15519757Y67787880D02*
X16085442Y68353566D01*
X16085442Y68353566D02*
X16300942Y68138066D01*
X16300942Y68138066D02*
X16327879Y68057254D01*
X16327879Y68057254D02*
X16327879Y68003379D01*
X16327879Y68003379D02*
X16300942Y67922567D01*
X16300942Y67922567D02*
X16220129Y67841755D01*
X16220129Y67841755D02*
X16139317Y67814818D01*
X16139317Y67814818D02*
X16085442Y67814818D01*
X16085442Y67814818D02*
X16004630Y67841755D01*
X16004630Y67841755D02*
X15789131Y68057254D01*
X16381754Y66925883D02*
X16058505Y67249132D01*
X16220129Y67087508D02*
X16785815Y67653193D01*
X16785815Y67653193D02*
X16651128Y67626256D01*
X16651128Y67626256D02*
X16543378Y67626256D01*
X16543378Y67626256D02*
X16462566Y67653193D01*
X17297626Y67141382D02*
X17351500Y67087508D01*
X17351500Y67087508D02*
X17378438Y67006695D01*
X17378438Y67006695D02*
X17378438Y66952821D01*
X17378438Y66952821D02*
X17351500Y66872008D01*
X17351500Y66872008D02*
X17270688Y66737321D01*
X17270688Y66737321D02*
X17136001Y66602634D01*
X17136001Y66602634D02*
X17001314Y66521822D01*
X17001314Y66521822D02*
X16920502Y66494885D01*
X16920502Y66494885D02*
X16866627Y66494885D01*
X16866627Y66494885D02*
X16785815Y66521822D01*
X16785815Y66521822D02*
X16731940Y66575697D01*
X16731940Y66575697D02*
X16705003Y66656509D01*
X16705003Y66656509D02*
X16705003Y66710384D01*
X16705003Y66710384D02*
X16731940Y66791196D01*
X16731940Y66791196D02*
X16812752Y66925883D01*
X16812752Y66925883D02*
X16947439Y67060570D01*
X16947439Y67060570D02*
X17082126Y67141382D01*
X17082126Y67141382D02*
X17162939Y67168320D01*
X17162939Y67168320D02*
X17216813Y67168320D01*
X17216813Y67168320D02*
X17297626Y67141382D01*
X49078505Y68326628D02*
X49051568Y68407440D01*
X49051568Y68407440D02*
X48970756Y68488252D01*
X48970756Y68488252D02*
X48863006Y68542127D01*
X48863006Y68542127D02*
X48755257Y68542127D01*
X48755257Y68542127D02*
X48674444Y68515190D01*
X48674444Y68515190D02*
X48539757Y68434377D01*
X48539757Y68434377D02*
X48458945Y68353565D01*
X48458945Y68353565D02*
X48378133Y68218878D01*
X48378133Y68218878D02*
X48351196Y68138066D01*
X48351196Y68138066D02*
X48351196Y68030316D01*
X48351196Y68030316D02*
X48405070Y67922567D01*
X48405070Y67922567D02*
X48458945Y67868692D01*
X48458945Y67868692D02*
X48566695Y67814817D01*
X48566695Y67814817D02*
X48620570Y67814817D01*
X48620570Y67814817D02*
X48809131Y68003379D01*
X48809131Y68003379D02*
X48701382Y68111129D01*
X48809131Y67518506D02*
X49374817Y68084191D01*
X49374817Y68084191D02*
X49590316Y67868692D01*
X49590316Y67868692D02*
X49617253Y67787880D01*
X49617253Y67787880D02*
X49617253Y67734005D01*
X49617253Y67734005D02*
X49590316Y67653193D01*
X49590316Y67653193D02*
X49509504Y67572381D01*
X49509504Y67572381D02*
X49428692Y67545443D01*
X49428692Y67545443D02*
X49374817Y67545443D01*
X49374817Y67545443D02*
X49294005Y67572381D01*
X49294005Y67572381D02*
X49078505Y67787880D01*
X50048252Y67410756D02*
X50102127Y67356881D01*
X50102127Y67356881D02*
X50129064Y67276069D01*
X50129064Y67276069D02*
X50129064Y67222194D01*
X50129064Y67222194D02*
X50102127Y67141382D01*
X50102127Y67141382D02*
X50021314Y67006695D01*
X50021314Y67006695D02*
X49886627Y66872008D01*
X49886627Y66872008D02*
X49751940Y66791196D01*
X49751940Y66791196D02*
X49671128Y66764259D01*
X49671128Y66764259D02*
X49617253Y66764259D01*
X49617253Y66764259D02*
X49536441Y66791196D01*
X49536441Y66791196D02*
X49482566Y66845071D01*
X49482566Y66845071D02*
X49455629Y66925883D01*
X49455629Y66925883D02*
X49455629Y66979758D01*
X49455629Y66979758D02*
X49482566Y67060570D01*
X49482566Y67060570D02*
X49563379Y67195257D01*
X49563379Y67195257D02*
X49698066Y67329944D01*
X49698066Y67329944D02*
X49832753Y67410756D01*
X49832753Y67410756D02*
X49913565Y67437694D01*
X49913565Y67437694D02*
X49967440Y67437694D01*
X49967440Y67437694D02*
X50048252Y67410756D01*
X21138505Y68326628D02*
X21111568Y68407440D01*
X21111568Y68407440D02*
X21030756Y68488252D01*
X21030756Y68488252D02*
X20923006Y68542127D01*
X20923006Y68542127D02*
X20815257Y68542127D01*
X20815257Y68542127D02*
X20734444Y68515190D01*
X20734444Y68515190D02*
X20599757Y68434377D01*
X20599757Y68434377D02*
X20518945Y68353565D01*
X20518945Y68353565D02*
X20438133Y68218878D01*
X20438133Y68218878D02*
X20411196Y68138066D01*
X20411196Y68138066D02*
X20411196Y68030316D01*
X20411196Y68030316D02*
X20465070Y67922567D01*
X20465070Y67922567D02*
X20518945Y67868692D01*
X20518945Y67868692D02*
X20626695Y67814817D01*
X20626695Y67814817D02*
X20680570Y67814817D01*
X20680570Y67814817D02*
X20869131Y68003379D01*
X20869131Y68003379D02*
X20761382Y68111129D01*
X20869131Y67518506D02*
X21434817Y68084191D01*
X21434817Y68084191D02*
X21650316Y67868692D01*
X21650316Y67868692D02*
X21677253Y67787880D01*
X21677253Y67787880D02*
X21677253Y67734005D01*
X21677253Y67734005D02*
X21650316Y67653193D01*
X21650316Y67653193D02*
X21569504Y67572381D01*
X21569504Y67572381D02*
X21488692Y67545443D01*
X21488692Y67545443D02*
X21434817Y67545443D01*
X21434817Y67545443D02*
X21354005Y67572381D01*
X21354005Y67572381D02*
X21138505Y67787880D01*
X21461754Y66925883D02*
X21569504Y66818133D01*
X21569504Y66818133D02*
X21650316Y66791196D01*
X21650316Y66791196D02*
X21704191Y66791196D01*
X21704191Y66791196D02*
X21838878Y66818133D01*
X21838878Y66818133D02*
X21973565Y66898946D01*
X21973565Y66898946D02*
X22189064Y67114445D01*
X22189064Y67114445D02*
X22216001Y67195257D01*
X22216001Y67195257D02*
X22216001Y67249132D01*
X22216001Y67249132D02*
X22189064Y67329944D01*
X22189064Y67329944D02*
X22081314Y67437694D01*
X22081314Y67437694D02*
X22000502Y67464631D01*
X22000502Y67464631D02*
X21946627Y67464631D01*
X21946627Y67464631D02*
X21865815Y67437694D01*
X21865815Y67437694D02*
X21731128Y67303007D01*
X21731128Y67303007D02*
X21704191Y67222194D01*
X21704191Y67222194D02*
X21704191Y67168320D01*
X21704191Y67168320D02*
X21731128Y67087507D01*
X21731128Y67087507D02*
X21838878Y66979758D01*
X21838878Y66979758D02*
X21919690Y66952820D01*
X21919690Y66952820D02*
X21973565Y66952820D01*
X21973565Y66952820D02*
X22054377Y66979758D01*
X43971568Y68353565D02*
X43944631Y68434377D01*
X43944631Y68434377D02*
X43863819Y68515189D01*
X43863819Y68515189D02*
X43756069Y68569064D01*
X43756069Y68569064D02*
X43648319Y68569064D01*
X43648319Y68569064D02*
X43567507Y68542127D01*
X43567507Y68542127D02*
X43432820Y68461315D01*
X43432820Y68461315D02*
X43352008Y68380502D01*
X43352008Y68380502D02*
X43271196Y68245815D01*
X43271196Y68245815D02*
X43244258Y68165003D01*
X43244258Y68165003D02*
X43244258Y68057254D01*
X43244258Y68057254D02*
X43298133Y67949504D01*
X43298133Y67949504D02*
X43352008Y67895629D01*
X43352008Y67895629D02*
X43459758Y67841754D01*
X43459758Y67841754D02*
X43513632Y67841754D01*
X43513632Y67841754D02*
X43702194Y68030316D01*
X43702194Y68030316D02*
X43594445Y68138066D01*
X43702194Y67545443D02*
X44267880Y68111128D01*
X44267880Y68111128D02*
X44025443Y67222194D01*
X44025443Y67222194D02*
X44591128Y67787880D01*
X44294817Y66952820D02*
X44860502Y67518506D01*
X44860502Y67518506D02*
X44995189Y67383819D01*
X44995189Y67383819D02*
X45049064Y67276069D01*
X45049064Y67276069D02*
X45049064Y67168320D01*
X45049064Y67168320D02*
X45022127Y67087507D01*
X45022127Y67087507D02*
X44941314Y66952820D01*
X44941314Y66952820D02*
X44860502Y66872008D01*
X44860502Y66872008D02*
X44725815Y66791196D01*
X44725815Y66791196D02*
X44645003Y66764259D01*
X44645003Y66764259D02*
X44537253Y66764259D01*
X44537253Y66764259D02*
X44429504Y66818133D01*
X44429504Y66818133D02*
X44294817Y66952820D01*
X28758505Y68326628D02*
X28731568Y68407440D01*
X28731568Y68407440D02*
X28650756Y68488252D01*
X28650756Y68488252D02*
X28543006Y68542127D01*
X28543006Y68542127D02*
X28435257Y68542127D01*
X28435257Y68542127D02*
X28354444Y68515190D01*
X28354444Y68515190D02*
X28219757Y68434377D01*
X28219757Y68434377D02*
X28138945Y68353565D01*
X28138945Y68353565D02*
X28058133Y68218878D01*
X28058133Y68218878D02*
X28031196Y68138066D01*
X28031196Y68138066D02*
X28031196Y68030316D01*
X28031196Y68030316D02*
X28085070Y67922567D01*
X28085070Y67922567D02*
X28138945Y67868692D01*
X28138945Y67868692D02*
X28246695Y67814817D01*
X28246695Y67814817D02*
X28300570Y67814817D01*
X28300570Y67814817D02*
X28489131Y68003379D01*
X28489131Y68003379D02*
X28381382Y68111129D01*
X28489131Y67518506D02*
X29054817Y68084191D01*
X29054817Y68084191D02*
X29270316Y67868692D01*
X29270316Y67868692D02*
X29297253Y67787880D01*
X29297253Y67787880D02*
X29297253Y67734005D01*
X29297253Y67734005D02*
X29270316Y67653193D01*
X29270316Y67653193D02*
X29189504Y67572381D01*
X29189504Y67572381D02*
X29108692Y67545443D01*
X29108692Y67545443D02*
X29054817Y67545443D01*
X29054817Y67545443D02*
X28974005Y67572381D01*
X28974005Y67572381D02*
X28758505Y67787880D01*
X29862939Y67276069D02*
X29755189Y67383819D01*
X29755189Y67383819D02*
X29674377Y67410756D01*
X29674377Y67410756D02*
X29620502Y67410756D01*
X29620502Y67410756D02*
X29485815Y67383819D01*
X29485815Y67383819D02*
X29351128Y67303007D01*
X29351128Y67303007D02*
X29135629Y67087507D01*
X29135629Y67087507D02*
X29108692Y67006695D01*
X29108692Y67006695D02*
X29108692Y66952820D01*
X29108692Y66952820D02*
X29135629Y66872008D01*
X29135629Y66872008D02*
X29243379Y66764259D01*
X29243379Y66764259D02*
X29324191Y66737321D01*
X29324191Y66737321D02*
X29378066Y66737321D01*
X29378066Y66737321D02*
X29458878Y66764259D01*
X29458878Y66764259D02*
X29593565Y66898946D01*
X29593565Y66898946D02*
X29620502Y66979758D01*
X29620502Y66979758D02*
X29620502Y67033633D01*
X29620502Y67033633D02*
X29593565Y67114445D01*
X29593565Y67114445D02*
X29485815Y67222194D01*
X29485815Y67222194D02*
X29405003Y67249132D01*
X29405003Y67249132D02*
X29351128Y67249132D01*
X29351128Y67249132D02*
X29270316Y67222194D01*
X38918505Y68326628D02*
X38891568Y68407440D01*
X38891568Y68407440D02*
X38810756Y68488252D01*
X38810756Y68488252D02*
X38703006Y68542127D01*
X38703006Y68542127D02*
X38595257Y68542127D01*
X38595257Y68542127D02*
X38514444Y68515190D01*
X38514444Y68515190D02*
X38379757Y68434377D01*
X38379757Y68434377D02*
X38298945Y68353565D01*
X38298945Y68353565D02*
X38218133Y68218878D01*
X38218133Y68218878D02*
X38191196Y68138066D01*
X38191196Y68138066D02*
X38191196Y68030316D01*
X38191196Y68030316D02*
X38245070Y67922567D01*
X38245070Y67922567D02*
X38298945Y67868692D01*
X38298945Y67868692D02*
X38406695Y67814817D01*
X38406695Y67814817D02*
X38460570Y67814817D01*
X38460570Y67814817D02*
X38649131Y68003379D01*
X38649131Y68003379D02*
X38541382Y68111129D01*
X38649131Y67518506D02*
X39214817Y68084191D01*
X39214817Y68084191D02*
X39430316Y67868692D01*
X39430316Y67868692D02*
X39457253Y67787880D01*
X39457253Y67787880D02*
X39457253Y67734005D01*
X39457253Y67734005D02*
X39430316Y67653193D01*
X39430316Y67653193D02*
X39349504Y67572381D01*
X39349504Y67572381D02*
X39268692Y67545443D01*
X39268692Y67545443D02*
X39214817Y67545443D01*
X39214817Y67545443D02*
X39134005Y67572381D01*
X39134005Y67572381D02*
X38918505Y67787880D01*
X39726627Y67572381D02*
X40076814Y67222194D01*
X40076814Y67222194D02*
X39672753Y67195257D01*
X39672753Y67195257D02*
X39753565Y67114445D01*
X39753565Y67114445D02*
X39780502Y67033633D01*
X39780502Y67033633D02*
X39780502Y66979758D01*
X39780502Y66979758D02*
X39753565Y66898946D01*
X39753565Y66898946D02*
X39618878Y66764259D01*
X39618878Y66764259D02*
X39538066Y66737321D01*
X39538066Y66737321D02*
X39484191Y66737321D01*
X39484191Y66737321D02*
X39403379Y66764259D01*
X39403379Y66764259D02*
X39241754Y66925883D01*
X39241754Y66925883D02*
X39214817Y67006695D01*
X39214817Y67006695D02*
X39214817Y67060570D01*
X10709131Y68596002D02*
X10682194Y68676815D01*
X10682194Y68676815D02*
X10601381Y68757627D01*
X10601381Y68757627D02*
X10493632Y68811502D01*
X10493632Y68811502D02*
X10385882Y68811502D01*
X10385882Y68811502D02*
X10305070Y68784564D01*
X10305070Y68784564D02*
X10170383Y68703752D01*
X10170383Y68703752D02*
X10089571Y68622940D01*
X10089571Y68622940D02*
X10008758Y68488253D01*
X10008758Y68488253D02*
X9981821Y68407440D01*
X9981821Y68407440D02*
X9981821Y68299691D01*
X9981821Y68299691D02*
X10035696Y68191941D01*
X10035696Y68191941D02*
X10089571Y68138066D01*
X10089571Y68138066D02*
X10197320Y68084192D01*
X10197320Y68084192D02*
X10251195Y68084192D01*
X10251195Y68084192D02*
X10439757Y68272753D01*
X10439757Y68272753D02*
X10332007Y68380503D01*
X10439757Y67787880D02*
X11005442Y68353566D01*
X11005442Y68353566D02*
X11220942Y68138066D01*
X11220942Y68138066D02*
X11247879Y68057254D01*
X11247879Y68057254D02*
X11247879Y68003379D01*
X11247879Y68003379D02*
X11220942Y67922567D01*
X11220942Y67922567D02*
X11140129Y67841755D01*
X11140129Y67841755D02*
X11059317Y67814818D01*
X11059317Y67814818D02*
X11005442Y67814818D01*
X11005442Y67814818D02*
X10924630Y67841755D01*
X10924630Y67841755D02*
X10709131Y68057254D01*
X11301754Y66925883D02*
X10978505Y67249132D01*
X11140129Y67087508D02*
X11705815Y67653193D01*
X11705815Y67653193D02*
X11571128Y67626256D01*
X11571128Y67626256D02*
X11463378Y67626256D01*
X11463378Y67626256D02*
X11382566Y67653193D01*
X12029064Y67222195D02*
X12082939Y67222195D01*
X12082939Y67222195D02*
X12163751Y67195257D01*
X12163751Y67195257D02*
X12298438Y67060570D01*
X12298438Y67060570D02*
X12325375Y66979758D01*
X12325375Y66979758D02*
X12325375Y66925883D01*
X12325375Y66925883D02*
X12298438Y66845071D01*
X12298438Y66845071D02*
X12244563Y66791196D01*
X12244563Y66791196D02*
X12136813Y66737321D01*
X12136813Y66737321D02*
X11490316Y66737321D01*
X11490316Y66737321D02*
X11840502Y66387135D01*
X47202414Y57556594D02*
X46825290Y56802347D01*
X46825290Y56802347D02*
X47579537Y57179471D01*
X47687287Y56532973D02*
X47741161Y56425224D01*
X47741161Y56425224D02*
X47741161Y56371349D01*
X47741161Y56371349D02*
X47714224Y56290537D01*
X47714224Y56290537D02*
X47633412Y56209724D01*
X47633412Y56209724D02*
X47552600Y56182787D01*
X47552600Y56182787D02*
X47498725Y56182787D01*
X47498725Y56182787D02*
X47417913Y56209724D01*
X47417913Y56209724D02*
X47202413Y56425224D01*
X47202413Y56425224D02*
X47768099Y56990909D01*
X47768099Y56990909D02*
X47956661Y56802347D01*
X47956661Y56802347D02*
X47983598Y56721535D01*
X47983598Y56721535D02*
X47983598Y56667660D01*
X47983598Y56667660D02*
X47956661Y56586848D01*
X47956661Y56586848D02*
X47902786Y56532973D01*
X47902786Y56532973D02*
X47821974Y56506036D01*
X47821974Y56506036D02*
X47768099Y56506036D01*
X47768099Y56506036D02*
X47687287Y56532973D01*
X47687287Y56532973D02*
X47498725Y56721535D01*
X48333784Y56425224D02*
X47875848Y55967288D01*
X47875848Y55967288D02*
X47848911Y55886476D01*
X47848911Y55886476D02*
X47848911Y55832601D01*
X47848911Y55832601D02*
X47875848Y55751789D01*
X47875848Y55751789D02*
X47983598Y55644039D01*
X47983598Y55644039D02*
X48064410Y55617102D01*
X48064410Y55617102D02*
X48118285Y55617102D01*
X48118285Y55617102D02*
X48199097Y55644039D01*
X48199097Y55644039D02*
X48657033Y56101975D01*
X48360722Y55320790D02*
X48414596Y55213041D01*
X48414596Y55213041D02*
X48549283Y55078354D01*
X48549283Y55078354D02*
X48630096Y55051416D01*
X48630096Y55051416D02*
X48683970Y55051416D01*
X48683970Y55051416D02*
X48764783Y55078354D01*
X48764783Y55078354D02*
X48818657Y55132229D01*
X48818657Y55132229D02*
X48845595Y55213041D01*
X48845595Y55213041D02*
X48845595Y55266916D01*
X48845595Y55266916D02*
X48818657Y55347728D01*
X48818657Y55347728D02*
X48737845Y55482415D01*
X48737845Y55482415D02*
X48710908Y55563227D01*
X48710908Y55563227D02*
X48710908Y55617102D01*
X48710908Y55617102D02*
X48737845Y55697914D01*
X48737845Y55697914D02*
X48791720Y55751789D01*
X48791720Y55751789D02*
X48872532Y55778726D01*
X48872532Y55778726D02*
X48926407Y55778726D01*
X48926407Y55778726D02*
X49007219Y55751789D01*
X49007219Y55751789D02*
X49141906Y55617102D01*
X49141906Y55617102D02*
X49195781Y55509352D01*
X2523998Y67249132D02*
X2443185Y67222195D01*
X2443185Y67222195D02*
X2362373Y67141382D01*
X2362373Y67141382D02*
X2308498Y67033633D01*
X2308498Y67033633D02*
X2308498Y66925883D01*
X2308498Y66925883D02*
X2335436Y66845071D01*
X2335436Y66845071D02*
X2416248Y66710384D01*
X2416248Y66710384D02*
X2497060Y66629572D01*
X2497060Y66629572D02*
X2631747Y66548759D01*
X2631747Y66548759D02*
X2712560Y66521822D01*
X2712560Y66521822D02*
X2820309Y66521822D01*
X2820309Y66521822D02*
X2928059Y66575697D01*
X2928059Y66575697D02*
X2981934Y66629572D01*
X2981934Y66629572D02*
X3035808Y66737321D01*
X3035808Y66737321D02*
X3035808Y66791196D01*
X3035808Y66791196D02*
X2847247Y66979758D01*
X2847247Y66979758D02*
X2739497Y66872008D01*
X3332120Y66979758D02*
X2766434Y67545443D01*
X2766434Y67545443D02*
X2981934Y67760943D01*
X2981934Y67760943D02*
X3062746Y67787880D01*
X3062746Y67787880D02*
X3116621Y67787880D01*
X3116621Y67787880D02*
X3197433Y67760943D01*
X3197433Y67760943D02*
X3278245Y67680130D01*
X3278245Y67680130D02*
X3305182Y67599318D01*
X3305182Y67599318D02*
X3305182Y67545443D01*
X3305182Y67545443D02*
X3278245Y67464631D01*
X3278245Y67464631D02*
X3062746Y67249132D01*
X4194117Y67841755D02*
X3870868Y67518506D01*
X4032492Y67680130D02*
X3466807Y68245816D01*
X3466807Y68245816D02*
X3493744Y68111129D01*
X3493744Y68111129D02*
X3493744Y68003379D01*
X3493744Y68003379D02*
X3466807Y67922567D01*
X4301866Y68703752D02*
X4678990Y68326628D01*
X3951680Y68784564D02*
X4221054Y68245816D01*
X4221054Y68245816D02*
X4571240Y68596002D01*
X13249131Y55896002D02*
X13222194Y55976815D01*
X13222194Y55976815D02*
X13141381Y56057627D01*
X13141381Y56057627D02*
X13033632Y56111502D01*
X13033632Y56111502D02*
X12925882Y56111502D01*
X12925882Y56111502D02*
X12845070Y56084564D01*
X12845070Y56084564D02*
X12710383Y56003752D01*
X12710383Y56003752D02*
X12629571Y55922940D01*
X12629571Y55922940D02*
X12548758Y55788253D01*
X12548758Y55788253D02*
X12521821Y55707440D01*
X12521821Y55707440D02*
X12521821Y55599691D01*
X12521821Y55599691D02*
X12575696Y55491941D01*
X12575696Y55491941D02*
X12629571Y55438066D01*
X12629571Y55438066D02*
X12737320Y55384192D01*
X12737320Y55384192D02*
X12791195Y55384192D01*
X12791195Y55384192D02*
X12979757Y55572753D01*
X12979757Y55572753D02*
X12872007Y55680503D01*
X12979757Y55087880D02*
X13545442Y55653566D01*
X13545442Y55653566D02*
X13760942Y55438066D01*
X13760942Y55438066D02*
X13787879Y55357254D01*
X13787879Y55357254D02*
X13787879Y55303379D01*
X13787879Y55303379D02*
X13760942Y55222567D01*
X13760942Y55222567D02*
X13680129Y55141755D01*
X13680129Y55141755D02*
X13599317Y55114818D01*
X13599317Y55114818D02*
X13545442Y55114818D01*
X13545442Y55114818D02*
X13464630Y55141755D01*
X13464630Y55141755D02*
X13249131Y55357254D01*
X14030316Y55060943D02*
X14084190Y55060943D01*
X14084190Y55060943D02*
X14165003Y55034005D01*
X14165003Y55034005D02*
X14299690Y54899318D01*
X14299690Y54899318D02*
X14326627Y54818506D01*
X14326627Y54818506D02*
X14326627Y54764631D01*
X14326627Y54764631D02*
X14299690Y54683819D01*
X14299690Y54683819D02*
X14245815Y54629944D01*
X14245815Y54629944D02*
X14138065Y54576070D01*
X14138065Y54576070D02*
X13491568Y54576070D01*
X13491568Y54576070D02*
X13841754Y54225883D01*
X14757626Y54441382D02*
X14811500Y54387508D01*
X14811500Y54387508D02*
X14838438Y54306695D01*
X14838438Y54306695D02*
X14838438Y54252821D01*
X14838438Y54252821D02*
X14811500Y54172008D01*
X14811500Y54172008D02*
X14730688Y54037321D01*
X14730688Y54037321D02*
X14596001Y53902634D01*
X14596001Y53902634D02*
X14461314Y53821822D01*
X14461314Y53821822D02*
X14380502Y53794885D01*
X14380502Y53794885D02*
X14326627Y53794885D01*
X14326627Y53794885D02*
X14245815Y53821822D01*
X14245815Y53821822D02*
X14191940Y53875697D01*
X14191940Y53875697D02*
X14165003Y53956509D01*
X14165003Y53956509D02*
X14165003Y54010384D01*
X14165003Y54010384D02*
X14191940Y54091196D01*
X14191940Y54091196D02*
X14272752Y54225883D01*
X14272752Y54225883D02*
X14407439Y54360570D01*
X14407439Y54360570D02*
X14542126Y54441382D01*
X14542126Y54441382D02*
X14622939Y54468320D01*
X14622939Y54468320D02*
X14676813Y54468320D01*
X14676813Y54468320D02*
X14757626Y54441382D01*
X8169131Y68596002D02*
X8142194Y68676815D01*
X8142194Y68676815D02*
X8061381Y68757627D01*
X8061381Y68757627D02*
X7953632Y68811502D01*
X7953632Y68811502D02*
X7845882Y68811502D01*
X7845882Y68811502D02*
X7765070Y68784564D01*
X7765070Y68784564D02*
X7630383Y68703752D01*
X7630383Y68703752D02*
X7549571Y68622940D01*
X7549571Y68622940D02*
X7468758Y68488253D01*
X7468758Y68488253D02*
X7441821Y68407440D01*
X7441821Y68407440D02*
X7441821Y68299691D01*
X7441821Y68299691D02*
X7495696Y68191941D01*
X7495696Y68191941D02*
X7549571Y68138066D01*
X7549571Y68138066D02*
X7657320Y68084192D01*
X7657320Y68084192D02*
X7711195Y68084192D01*
X7711195Y68084192D02*
X7899757Y68272753D01*
X7899757Y68272753D02*
X7792007Y68380503D01*
X7899757Y67787880D02*
X8465442Y68353566D01*
X8465442Y68353566D02*
X8680942Y68138066D01*
X8680942Y68138066D02*
X8707879Y68057254D01*
X8707879Y68057254D02*
X8707879Y68003379D01*
X8707879Y68003379D02*
X8680942Y67922567D01*
X8680942Y67922567D02*
X8600129Y67841755D01*
X8600129Y67841755D02*
X8519317Y67814818D01*
X8519317Y67814818D02*
X8465442Y67814818D01*
X8465442Y67814818D02*
X8384630Y67841755D01*
X8384630Y67841755D02*
X8169131Y68057254D01*
X8761754Y66925883D02*
X8438505Y67249132D01*
X8600129Y67087508D02*
X9165815Y67653193D01*
X9165815Y67653193D02*
X9031128Y67626256D01*
X9031128Y67626256D02*
X8923378Y67626256D01*
X8923378Y67626256D02*
X8842566Y67653193D01*
X9516001Y67303007D02*
X9866187Y66952821D01*
X9866187Y66952821D02*
X9462126Y66925883D01*
X9462126Y66925883D02*
X9542939Y66845071D01*
X9542939Y66845071D02*
X9569876Y66764259D01*
X9569876Y66764259D02*
X9569876Y66710384D01*
X9569876Y66710384D02*
X9542939Y66629572D01*
X9542939Y66629572D02*
X9408252Y66494885D01*
X9408252Y66494885D02*
X9327439Y66467947D01*
X9327439Y66467947D02*
X9273565Y66467947D01*
X9273565Y66467947D02*
X9192752Y66494885D01*
X9192752Y66494885D02*
X9031128Y66656509D01*
X9031128Y66656509D02*
X9004191Y66737321D01*
X9004191Y66737321D02*
X9004191Y66791196D01*
X33988458Y34165181D02*
X33655125Y34641372D01*
X33417030Y34165181D02*
X33417030Y35165181D01*
X33417030Y35165181D02*
X33797982Y35165181D01*
X33797982Y35165181D02*
X33893220Y35117562D01*
X33893220Y35117562D02*
X33940839Y35069943D01*
X33940839Y35069943D02*
X33988458Y34974705D01*
X33988458Y34974705D02*
X33988458Y34831848D01*
X33988458Y34831848D02*
X33940839Y34736610D01*
X33940839Y34736610D02*
X33893220Y34688991D01*
X33893220Y34688991D02*
X33797982Y34641372D01*
X33797982Y34641372D02*
X33417030Y34641372D01*
X34845601Y35165181D02*
X34655125Y35165181D01*
X34655125Y35165181D02*
X34559887Y35117562D01*
X34559887Y35117562D02*
X34512268Y35069943D01*
X34512268Y35069943D02*
X34417030Y34927086D01*
X34417030Y34927086D02*
X34369411Y34736610D01*
X34369411Y34736610D02*
X34369411Y34355658D01*
X34369411Y34355658D02*
X34417030Y34260420D01*
X34417030Y34260420D02*
X34464649Y34212800D01*
X34464649Y34212800D02*
X34559887Y34165181D01*
X34559887Y34165181D02*
X34750363Y34165181D01*
X34750363Y34165181D02*
X34845601Y34212800D01*
X34845601Y34212800D02*
X34893220Y34260420D01*
X34893220Y34260420D02*
X34940839Y34355658D01*
X34940839Y34355658D02*
X34940839Y34593753D01*
X34940839Y34593753D02*
X34893220Y34688991D01*
X34893220Y34688991D02*
X34845601Y34736610D01*
X34845601Y34736610D02*
X34750363Y34784229D01*
X34750363Y34784229D02*
X34559887Y34784229D01*
X34559887Y34784229D02*
X34464649Y34736610D01*
X34464649Y34736610D02*
X34417030Y34688991D01*
X34417030Y34688991D02*
X34369411Y34593753D01*
X7123333Y79295420D02*
X7075714Y79247800D01*
X7075714Y79247800D02*
X6932857Y79200181D01*
X6932857Y79200181D02*
X6837619Y79200181D01*
X6837619Y79200181D02*
X6694762Y79247800D01*
X6694762Y79247800D02*
X6599524Y79343039D01*
X6599524Y79343039D02*
X6551905Y79438277D01*
X6551905Y79438277D02*
X6504286Y79628753D01*
X6504286Y79628753D02*
X6504286Y79771610D01*
X6504286Y79771610D02*
X6551905Y79962086D01*
X6551905Y79962086D02*
X6599524Y80057324D01*
X6599524Y80057324D02*
X6694762Y80152562D01*
X6694762Y80152562D02*
X6837619Y80200181D01*
X6837619Y80200181D02*
X6932857Y80200181D01*
X6932857Y80200181D02*
X7075714Y80152562D01*
X7075714Y80152562D02*
X7123333Y80104943D01*
X8028095Y80200181D02*
X7551905Y80200181D01*
X7551905Y80200181D02*
X7504286Y79723991D01*
X7504286Y79723991D02*
X7551905Y79771610D01*
X7551905Y79771610D02*
X7647143Y79819229D01*
X7647143Y79819229D02*
X7885238Y79819229D01*
X7885238Y79819229D02*
X7980476Y79771610D01*
X7980476Y79771610D02*
X8028095Y79723991D01*
X8028095Y79723991D02*
X8075714Y79628753D01*
X8075714Y79628753D02*
X8075714Y79390658D01*
X8075714Y79390658D02*
X8028095Y79295420D01*
X8028095Y79295420D02*
X7980476Y79247800D01*
X7980476Y79247800D02*
X7885238Y79200181D01*
X7885238Y79200181D02*
X7647143Y79200181D01*
X7647143Y79200181D02*
X7551905Y79247800D01*
X7551905Y79247800D02*
X7504286Y79295420D01*
X49228458Y47545420D02*
X49180839Y47497800D01*
X49180839Y47497800D02*
X49037982Y47450181D01*
X49037982Y47450181D02*
X48942744Y47450181D01*
X48942744Y47450181D02*
X48799887Y47497800D01*
X48799887Y47497800D02*
X48704649Y47593039D01*
X48704649Y47593039D02*
X48657030Y47688277D01*
X48657030Y47688277D02*
X48609411Y47878753D01*
X48609411Y47878753D02*
X48609411Y48021610D01*
X48609411Y48021610D02*
X48657030Y48212086D01*
X48657030Y48212086D02*
X48704649Y48307324D01*
X48704649Y48307324D02*
X48799887Y48402562D01*
X48799887Y48402562D02*
X48942744Y48450181D01*
X48942744Y48450181D02*
X49037982Y48450181D01*
X49037982Y48450181D02*
X49180839Y48402562D01*
X49180839Y48402562D02*
X49228458Y48354943D01*
X49561792Y48450181D02*
X50228458Y48450181D01*
X50228458Y48450181D02*
X49799887Y47450181D01*
X43477142Y42470181D02*
X43143809Y42946372D01*
X42905714Y42470181D02*
X42905714Y43470181D01*
X42905714Y43470181D02*
X43286666Y43470181D01*
X43286666Y43470181D02*
X43381904Y43422562D01*
X43381904Y43422562D02*
X43429523Y43374943D01*
X43429523Y43374943D02*
X43477142Y43279705D01*
X43477142Y43279705D02*
X43477142Y43136848D01*
X43477142Y43136848D02*
X43429523Y43041610D01*
X43429523Y43041610D02*
X43381904Y42993991D01*
X43381904Y42993991D02*
X43286666Y42946372D01*
X43286666Y42946372D02*
X42905714Y42946372D01*
X44429523Y42470181D02*
X43858095Y42470181D01*
X44143809Y42470181D02*
X44143809Y43470181D01*
X44143809Y43470181D02*
X44048571Y43327324D01*
X44048571Y43327324D02*
X43953333Y43232086D01*
X43953333Y43232086D02*
X43858095Y43184467D01*
X45000952Y43041610D02*
X44905714Y43089229D01*
X44905714Y43089229D02*
X44858095Y43136848D01*
X44858095Y43136848D02*
X44810476Y43232086D01*
X44810476Y43232086D02*
X44810476Y43279705D01*
X44810476Y43279705D02*
X44858095Y43374943D01*
X44858095Y43374943D02*
X44905714Y43422562D01*
X44905714Y43422562D02*
X45000952Y43470181D01*
X45000952Y43470181D02*
X45191428Y43470181D01*
X45191428Y43470181D02*
X45286666Y43422562D01*
X45286666Y43422562D02*
X45334285Y43374943D01*
X45334285Y43374943D02*
X45381904Y43279705D01*
X45381904Y43279705D02*
X45381904Y43232086D01*
X45381904Y43232086D02*
X45334285Y43136848D01*
X45334285Y43136848D02*
X45286666Y43089229D01*
X45286666Y43089229D02*
X45191428Y43041610D01*
X45191428Y43041610D02*
X45000952Y43041610D01*
X45000952Y43041610D02*
X44905714Y42993991D01*
X44905714Y42993991D02*
X44858095Y42946372D01*
X44858095Y42946372D02*
X44810476Y42851134D01*
X44810476Y42851134D02*
X44810476Y42660658D01*
X44810476Y42660658D02*
X44858095Y42565420D01*
X44858095Y42565420D02*
X44905714Y42517800D01*
X44905714Y42517800D02*
X45000952Y42470181D01*
X45000952Y42470181D02*
X45191428Y42470181D01*
X45191428Y42470181D02*
X45286666Y42517800D01*
X45286666Y42517800D02*
X45334285Y42565420D01*
X45334285Y42565420D02*
X45381904Y42660658D01*
X45381904Y42660658D02*
X45381904Y42851134D01*
X45381904Y42851134D02*
X45334285Y42946372D01*
X45334285Y42946372D02*
X45286666Y42993991D01*
X45286666Y42993991D02*
X45191428Y43041610D01*
X-8116667Y77930181D02*
X-8450000Y78406372D01*
X-8688095Y77930181D02*
X-8688095Y78930181D01*
X-8688095Y78930181D02*
X-8307143Y78930181D01*
X-8307143Y78930181D02*
X-8211905Y78882562D01*
X-8211905Y78882562D02*
X-8164286Y78834943D01*
X-8164286Y78834943D02*
X-8116667Y78739705D01*
X-8116667Y78739705D02*
X-8116667Y78596848D01*
X-8116667Y78596848D02*
X-8164286Y78501610D01*
X-8164286Y78501610D02*
X-8211905Y78453991D01*
X-8211905Y78453991D02*
X-8307143Y78406372D01*
X-8307143Y78406372D02*
X-8688095Y78406372D01*
X-7164286Y77930181D02*
X-7735714Y77930181D01*
X-7450000Y77930181D02*
X-7450000Y78930181D01*
X-7450000Y78930181D02*
X-7545238Y78787324D01*
X-7545238Y78787324D02*
X-7640476Y78692086D01*
X-7640476Y78692086D02*
X-7735714Y78644467D01*
X-972858Y43740181D02*
X-1306191Y44216372D01*
X-1544286Y43740181D02*
X-1544286Y44740181D01*
X-1544286Y44740181D02*
X-1163334Y44740181D01*
X-1163334Y44740181D02*
X-1068096Y44692562D01*
X-1068096Y44692562D02*
X-1020477Y44644943D01*
X-1020477Y44644943D02*
X-972858Y44549705D01*
X-972858Y44549705D02*
X-972858Y44406848D01*
X-972858Y44406848D02*
X-1020477Y44311610D01*
X-1020477Y44311610D02*
X-1068096Y44263991D01*
X-1068096Y44263991D02*
X-1163334Y44216372D01*
X-1163334Y44216372D02*
X-1544286Y44216372D01*
X-20477Y43740181D02*
X-591905Y43740181D01*
X-306191Y43740181D02*
X-306191Y44740181D01*
X-306191Y44740181D02*
X-401429Y44597324D01*
X-401429Y44597324D02*
X-496667Y44502086D01*
X-496667Y44502086D02*
X-591905Y44454467D01*
X836666Y44406848D02*
X836666Y43740181D01*
X598571Y44787800D02*
X360476Y44073515D01*
X360476Y44073515D02*
X979523Y44073515D01*
X21984819Y41478096D02*
X22794342Y41478096D01*
X22794342Y41478096D02*
X22889580Y41525715D01*
X22889580Y41525715D02*
X22937200Y41573334D01*
X22937200Y41573334D02*
X22984819Y41668572D01*
X22984819Y41668572D02*
X22984819Y41859048D01*
X22984819Y41859048D02*
X22937200Y41954286D01*
X22937200Y41954286D02*
X22889580Y42001905D01*
X22889580Y42001905D02*
X22794342Y42049524D01*
X22794342Y42049524D02*
X21984819Y42049524D01*
X22984819Y43049524D02*
X22984819Y42478096D01*
X22984819Y42763810D02*
X21984819Y42763810D01*
X21984819Y42763810D02*
X22127676Y42668572D01*
X22127676Y42668572D02*
X22222914Y42573334D01*
X22222914Y42573334D02*
X22270533Y42478096D01*
X40764819Y39279524D02*
X40764819Y38803334D01*
X40764819Y38803334D02*
X39764819Y38803334D01*
X40764819Y39612858D02*
X39764819Y39612858D01*
X39764819Y39612858D02*
X40479104Y39946191D01*
X40479104Y39946191D02*
X39764819Y40279524D01*
X39764819Y40279524D02*
X40764819Y40279524D01*
X39764819Y40660477D02*
X39764819Y41279524D01*
X39764819Y41279524D02*
X40145771Y40946191D01*
X40145771Y40946191D02*
X40145771Y41089048D01*
X40145771Y41089048D02*
X40193390Y41184286D01*
X40193390Y41184286D02*
X40241009Y41231905D01*
X40241009Y41231905D02*
X40336247Y41279524D01*
X40336247Y41279524D02*
X40574342Y41279524D01*
X40574342Y41279524D02*
X40669580Y41231905D01*
X40669580Y41231905D02*
X40717200Y41184286D01*
X40717200Y41184286D02*
X40764819Y41089048D01*
X40764819Y41089048D02*
X40764819Y40803334D01*
X40764819Y40803334D02*
X40717200Y40708096D01*
X40717200Y40708096D02*
X40669580Y40660477D01*
X39860057Y41660477D02*
X39812438Y41708096D01*
X39812438Y41708096D02*
X39764819Y41803334D01*
X39764819Y41803334D02*
X39764819Y42041429D01*
X39764819Y42041429D02*
X39812438Y42136667D01*
X39812438Y42136667D02*
X39860057Y42184286D01*
X39860057Y42184286D02*
X39955295Y42231905D01*
X39955295Y42231905D02*
X40050533Y42231905D01*
X40050533Y42231905D02*
X40193390Y42184286D01*
X40193390Y42184286D02*
X40764819Y41612858D01*
X40764819Y41612858D02*
X40764819Y42231905D01*
X40098152Y43089048D02*
X40764819Y43089048D01*
X39717200Y42850953D02*
X40431485Y42612858D01*
X40431485Y42612858D02*
X40431485Y43231905D01*
X-21292858Y57710181D02*
X-21626191Y58186372D01*
X-21864286Y57710181D02*
X-21864286Y58710181D01*
X-21864286Y58710181D02*
X-21483334Y58710181D01*
X-21483334Y58710181D02*
X-21388096Y58662562D01*
X-21388096Y58662562D02*
X-21340477Y58614943D01*
X-21340477Y58614943D02*
X-21292858Y58519705D01*
X-21292858Y58519705D02*
X-21292858Y58376848D01*
X-21292858Y58376848D02*
X-21340477Y58281610D01*
X-21340477Y58281610D02*
X-21388096Y58233991D01*
X-21388096Y58233991D02*
X-21483334Y58186372D01*
X-21483334Y58186372D02*
X-21864286Y58186372D01*
X-20340477Y57710181D02*
X-20911905Y57710181D01*
X-20626191Y57710181D02*
X-20626191Y58710181D01*
X-20626191Y58710181D02*
X-20721429Y58567324D01*
X-20721429Y58567324D02*
X-20816667Y58472086D01*
X-20816667Y58472086D02*
X-20911905Y58424467D01*
X-19721429Y58710181D02*
X-19626191Y58710181D01*
X-19626191Y58710181D02*
X-19530953Y58662562D01*
X-19530953Y58662562D02*
X-19483334Y58614943D01*
X-19483334Y58614943D02*
X-19435715Y58519705D01*
X-19435715Y58519705D02*
X-19388096Y58329229D01*
X-19388096Y58329229D02*
X-19388096Y58091134D01*
X-19388096Y58091134D02*
X-19435715Y57900658D01*
X-19435715Y57900658D02*
X-19483334Y57805420D01*
X-19483334Y57805420D02*
X-19530953Y57757800D01*
X-19530953Y57757800D02*
X-19626191Y57710181D01*
X-19626191Y57710181D02*
X-19721429Y57710181D01*
X-19721429Y57710181D02*
X-19816667Y57757800D01*
X-19816667Y57757800D02*
X-19864286Y57805420D01*
X-19864286Y57805420D02*
X-19911905Y57900658D01*
X-19911905Y57900658D02*
X-19959524Y58091134D01*
X-19959524Y58091134D02*
X-19959524Y58329229D01*
X-19959524Y58329229D02*
X-19911905Y58519705D01*
X-19911905Y58519705D02*
X-19864286Y58614943D01*
X-19864286Y58614943D02*
X-19816667Y58662562D01*
X-19816667Y58662562D02*
X-19721429Y58710181D01*
X-16212858Y42470181D02*
X-16546191Y42946372D01*
X-16784286Y42470181D02*
X-16784286Y43470181D01*
X-16784286Y43470181D02*
X-16403334Y43470181D01*
X-16403334Y43470181D02*
X-16308096Y43422562D01*
X-16308096Y43422562D02*
X-16260477Y43374943D01*
X-16260477Y43374943D02*
X-16212858Y43279705D01*
X-16212858Y43279705D02*
X-16212858Y43136848D01*
X-16212858Y43136848D02*
X-16260477Y43041610D01*
X-16260477Y43041610D02*
X-16308096Y42993991D01*
X-16308096Y42993991D02*
X-16403334Y42946372D01*
X-16403334Y42946372D02*
X-16784286Y42946372D01*
X-15260477Y42470181D02*
X-15831905Y42470181D01*
X-15546191Y42470181D02*
X-15546191Y43470181D01*
X-15546191Y43470181D02*
X-15641429Y43327324D01*
X-15641429Y43327324D02*
X-15736667Y43232086D01*
X-15736667Y43232086D02*
X-15831905Y43184467D01*
X-14879524Y43374943D02*
X-14831905Y43422562D01*
X-14831905Y43422562D02*
X-14736667Y43470181D01*
X-14736667Y43470181D02*
X-14498572Y43470181D01*
X-14498572Y43470181D02*
X-14403334Y43422562D01*
X-14403334Y43422562D02*
X-14355715Y43374943D01*
X-14355715Y43374943D02*
X-14308096Y43279705D01*
X-14308096Y43279705D02*
X-14308096Y43184467D01*
X-14308096Y43184467D02*
X-14355715Y43041610D01*
X-14355715Y43041610D02*
X-14927143Y42470181D01*
X-14927143Y42470181D02*
X-14308096Y42470181D01*
X42096190Y77205181D02*
X41762857Y77681372D01*
X41524762Y77205181D02*
X41524762Y78205181D01*
X41524762Y78205181D02*
X41905714Y78205181D01*
X41905714Y78205181D02*
X42000952Y78157562D01*
X42000952Y78157562D02*
X42048571Y78109943D01*
X42048571Y78109943D02*
X42096190Y78014705D01*
X42096190Y78014705D02*
X42096190Y77871848D01*
X42096190Y77871848D02*
X42048571Y77776610D01*
X42048571Y77776610D02*
X42000952Y77728991D01*
X42000952Y77728991D02*
X41905714Y77681372D01*
X41905714Y77681372D02*
X41524762Y77681372D01*
X42524762Y77205181D02*
X42524762Y78205181D01*
X42524762Y78205181D02*
X42762857Y78205181D01*
X42762857Y78205181D02*
X42905714Y78157562D01*
X42905714Y78157562D02*
X43000952Y78062324D01*
X43000952Y78062324D02*
X43048571Y77967086D01*
X43048571Y77967086D02*
X43096190Y77776610D01*
X43096190Y77776610D02*
X43096190Y77633753D01*
X43096190Y77633753D02*
X43048571Y77443277D01*
X43048571Y77443277D02*
X43000952Y77348039D01*
X43000952Y77348039D02*
X42905714Y77252800D01*
X42905714Y77252800D02*
X42762857Y77205181D01*
X42762857Y77205181D02*
X42524762Y77205181D01*
X43477143Y77490896D02*
X43953333Y77490896D01*
X43381905Y77205181D02*
X43715238Y78205181D01*
X43715238Y78205181D02*
X44048571Y77205181D01*
X44953333Y77300420D02*
X44905714Y77252800D01*
X44905714Y77252800D02*
X44762857Y77205181D01*
X44762857Y77205181D02*
X44667619Y77205181D01*
X44667619Y77205181D02*
X44524762Y77252800D01*
X44524762Y77252800D02*
X44429524Y77348039D01*
X44429524Y77348039D02*
X44381905Y77443277D01*
X44381905Y77443277D02*
X44334286Y77633753D01*
X44334286Y77633753D02*
X44334286Y77776610D01*
X44334286Y77776610D02*
X44381905Y77967086D01*
X44381905Y77967086D02*
X44429524Y78062324D01*
X44429524Y78062324D02*
X44524762Y78157562D01*
X44524762Y78157562D02*
X44667619Y78205181D01*
X44667619Y78205181D02*
X44762857Y78205181D01*
X44762857Y78205181D02*
X44905714Y78157562D01*
X44905714Y78157562D02*
X44953333Y78109943D01*
X45334286Y77490896D02*
X45810476Y77490896D01*
X45239048Y77205181D02*
X45572381Y78205181D01*
X45572381Y78205181D02*
X45905714Y77205181D01*
X46762857Y77205181D02*
X46191429Y77205181D01*
X46477143Y77205181D02*
X46477143Y78205181D01*
X46477143Y78205181D02*
X46381905Y78062324D01*
X46381905Y78062324D02*
X46286667Y77967086D01*
X46286667Y77967086D02*
X46191429Y77919467D01*
X-9862858Y43820181D02*
X-10196191Y44296372D01*
X-10434286Y43820181D02*
X-10434286Y44820181D01*
X-10434286Y44820181D02*
X-10053334Y44820181D01*
X-10053334Y44820181D02*
X-9958096Y44772562D01*
X-9958096Y44772562D02*
X-9910477Y44724943D01*
X-9910477Y44724943D02*
X-9862858Y44629705D01*
X-9862858Y44629705D02*
X-9862858Y44486848D01*
X-9862858Y44486848D02*
X-9910477Y44391610D01*
X-9910477Y44391610D02*
X-9958096Y44343991D01*
X-9958096Y44343991D02*
X-10053334Y44296372D01*
X-10053334Y44296372D02*
X-10434286Y44296372D01*
X-8910477Y43820181D02*
X-9481905Y43820181D01*
X-9196191Y43820181D02*
X-9196191Y44820181D01*
X-9196191Y44820181D02*
X-9291429Y44677324D01*
X-9291429Y44677324D02*
X-9386667Y44582086D01*
X-9386667Y44582086D02*
X-9481905Y44534467D01*
X-8577143Y44820181D02*
X-7958096Y44820181D01*
X-7958096Y44820181D02*
X-8291429Y44439229D01*
X-8291429Y44439229D02*
X-8148572Y44439229D01*
X-8148572Y44439229D02*
X-8053334Y44391610D01*
X-8053334Y44391610D02*
X-8005715Y44343991D01*
X-8005715Y44343991D02*
X-7958096Y44248753D01*
X-7958096Y44248753D02*
X-7958096Y44010658D01*
X-7958096Y44010658D02*
X-8005715Y43915420D01*
X-8005715Y43915420D02*
X-8053334Y43867800D01*
X-8053334Y43867800D02*
X-8148572Y43820181D01*
X-8148572Y43820181D02*
X-8434286Y43820181D01*
X-8434286Y43820181D02*
X-8529524Y43867800D01*
X-8529524Y43867800D02*
X-8577143Y43915420D01*
X2837142Y43640181D02*
X2503809Y44116372D01*
X2265714Y43640181D02*
X2265714Y44640181D01*
X2265714Y44640181D02*
X2646666Y44640181D01*
X2646666Y44640181D02*
X2741904Y44592562D01*
X2741904Y44592562D02*
X2789523Y44544943D01*
X2789523Y44544943D02*
X2837142Y44449705D01*
X2837142Y44449705D02*
X2837142Y44306848D01*
X2837142Y44306848D02*
X2789523Y44211610D01*
X2789523Y44211610D02*
X2741904Y44163991D01*
X2741904Y44163991D02*
X2646666Y44116372D01*
X2646666Y44116372D02*
X2265714Y44116372D01*
X3789523Y43640181D02*
X3218095Y43640181D01*
X3503809Y43640181D02*
X3503809Y44640181D01*
X3503809Y44640181D02*
X3408571Y44497324D01*
X3408571Y44497324D02*
X3313333Y44402086D01*
X3313333Y44402086D02*
X3218095Y44354467D01*
X4694285Y44640181D02*
X4218095Y44640181D01*
X4218095Y44640181D02*
X4170476Y44163991D01*
X4170476Y44163991D02*
X4218095Y44211610D01*
X4218095Y44211610D02*
X4313333Y44259229D01*
X4313333Y44259229D02*
X4551428Y44259229D01*
X4551428Y44259229D02*
X4646666Y44211610D01*
X4646666Y44211610D02*
X4694285Y44163991D01*
X4694285Y44163991D02*
X4741904Y44068753D01*
X4741904Y44068753D02*
X4741904Y43830658D01*
X4741904Y43830658D02*
X4694285Y43735420D01*
X4694285Y43735420D02*
X4646666Y43687800D01*
X4646666Y43687800D02*
X4551428Y43640181D01*
X4551428Y43640181D02*
X4313333Y43640181D01*
X4313333Y43640181D02*
X4218095Y43687800D01*
X4218095Y43687800D02*
X4170476Y43735420D01*
X-15931793Y56340181D02*
X-16265126Y56816372D01*
X-16503221Y56340181D02*
X-16503221Y57340181D01*
X-16503221Y57340181D02*
X-16122269Y57340181D01*
X-16122269Y57340181D02*
X-16027031Y57292562D01*
X-16027031Y57292562D02*
X-15979412Y57244943D01*
X-15979412Y57244943D02*
X-15931793Y57149705D01*
X-15931793Y57149705D02*
X-15931793Y57006848D01*
X-15931793Y57006848D02*
X-15979412Y56911610D01*
X-15979412Y56911610D02*
X-16027031Y56863991D01*
X-16027031Y56863991D02*
X-16122269Y56816372D01*
X-16122269Y56816372D02*
X-16503221Y56816372D01*
X-15598459Y57340181D02*
X-14979412Y57340181D01*
X-14979412Y57340181D02*
X-15312745Y56959229D01*
X-15312745Y56959229D02*
X-15169888Y56959229D01*
X-15169888Y56959229D02*
X-15074650Y56911610D01*
X-15074650Y56911610D02*
X-15027031Y56863991D01*
X-15027031Y56863991D02*
X-14979412Y56768753D01*
X-14979412Y56768753D02*
X-14979412Y56530658D01*
X-14979412Y56530658D02*
X-15027031Y56435420D01*
X-15027031Y56435420D02*
X-15074650Y56387800D01*
X-15074650Y56387800D02*
X-15169888Y56340181D01*
X-15169888Y56340181D02*
X-15455602Y56340181D01*
X-15455602Y56340181D02*
X-15550840Y56387800D01*
X-15550840Y56387800D02*
X-15598459Y56435420D01*
X32718458Y46280181D02*
X32385125Y46756372D01*
X32147030Y46280181D02*
X32147030Y47280181D01*
X32147030Y47280181D02*
X32527982Y47280181D01*
X32527982Y47280181D02*
X32623220Y47232562D01*
X32623220Y47232562D02*
X32670839Y47184943D01*
X32670839Y47184943D02*
X32718458Y47089705D01*
X32718458Y47089705D02*
X32718458Y46946848D01*
X32718458Y46946848D02*
X32670839Y46851610D01*
X32670839Y46851610D02*
X32623220Y46803991D01*
X32623220Y46803991D02*
X32527982Y46756372D01*
X32527982Y46756372D02*
X32147030Y46756372D01*
X33051792Y47280181D02*
X33718458Y47280181D01*
X33718458Y47280181D02*
X33289887Y46280181D01*
X9286666Y30085181D02*
X9286666Y29370896D01*
X9286666Y29370896D02*
X9239047Y29228039D01*
X9239047Y29228039D02*
X9143809Y29132800D01*
X9143809Y29132800D02*
X9000952Y29085181D01*
X9000952Y29085181D02*
X8905714Y29085181D01*
X9715238Y29989943D02*
X9762857Y30037562D01*
X9762857Y30037562D02*
X9858095Y30085181D01*
X9858095Y30085181D02*
X10096190Y30085181D01*
X10096190Y30085181D02*
X10191428Y30037562D01*
X10191428Y30037562D02*
X10239047Y29989943D01*
X10239047Y29989943D02*
X10286666Y29894705D01*
X10286666Y29894705D02*
X10286666Y29799467D01*
X10286666Y29799467D02*
X10239047Y29656610D01*
X10239047Y29656610D02*
X9667619Y29085181D01*
X9667619Y29085181D02*
X10286666Y29085181D01*
X-2949161Y47200181D02*
X-2949161Y46485896D01*
X-2949161Y46485896D02*
X-2996780Y46343039D01*
X-2996780Y46343039D02*
X-3092018Y46247800D01*
X-3092018Y46247800D02*
X-3234875Y46200181D01*
X-3234875Y46200181D02*
X-3330113Y46200181D01*
X-2044399Y46866848D02*
X-2044399Y46200181D01*
X-2282494Y47247800D02*
X-2520589Y46533515D01*
X-2520589Y46533515D02*
X-1901542Y46533515D01*
X15354761Y77345181D02*
X15021428Y77821372D01*
X14783333Y77345181D02*
X14783333Y78345181D01*
X14783333Y78345181D02*
X15164285Y78345181D01*
X15164285Y78345181D02*
X15259523Y78297562D01*
X15259523Y78297562D02*
X15307142Y78249943D01*
X15307142Y78249943D02*
X15354761Y78154705D01*
X15354761Y78154705D02*
X15354761Y78011848D01*
X15354761Y78011848D02*
X15307142Y77916610D01*
X15307142Y77916610D02*
X15259523Y77868991D01*
X15259523Y77868991D02*
X15164285Y77821372D01*
X15164285Y77821372D02*
X14783333Y77821372D01*
X15783333Y77345181D02*
X15783333Y78345181D01*
X15783333Y78345181D02*
X16021428Y78345181D01*
X16021428Y78345181D02*
X16164285Y78297562D01*
X16164285Y78297562D02*
X16259523Y78202324D01*
X16259523Y78202324D02*
X16307142Y78107086D01*
X16307142Y78107086D02*
X16354761Y77916610D01*
X16354761Y77916610D02*
X16354761Y77773753D01*
X16354761Y77773753D02*
X16307142Y77583277D01*
X16307142Y77583277D02*
X16259523Y77488039D01*
X16259523Y77488039D02*
X16164285Y77392800D01*
X16164285Y77392800D02*
X16021428Y77345181D01*
X16021428Y77345181D02*
X15783333Y77345181D01*
X16735714Y77630896D02*
X17211904Y77630896D01*
X16640476Y77345181D02*
X16973809Y78345181D01*
X16973809Y78345181D02*
X17307142Y77345181D01*
X18211904Y77440420D02*
X18164285Y77392800D01*
X18164285Y77392800D02*
X18021428Y77345181D01*
X18021428Y77345181D02*
X17926190Y77345181D01*
X17926190Y77345181D02*
X17783333Y77392800D01*
X17783333Y77392800D02*
X17688095Y77488039D01*
X17688095Y77488039D02*
X17640476Y77583277D01*
X17640476Y77583277D02*
X17592857Y77773753D01*
X17592857Y77773753D02*
X17592857Y77916610D01*
X17592857Y77916610D02*
X17640476Y78107086D01*
X17640476Y78107086D02*
X17688095Y78202324D01*
X17688095Y78202324D02*
X17783333Y78297562D01*
X17783333Y78297562D02*
X17926190Y78345181D01*
X17926190Y78345181D02*
X18021428Y78345181D01*
X18021428Y78345181D02*
X18164285Y78297562D01*
X18164285Y78297562D02*
X18211904Y78249943D01*
X18973809Y77868991D02*
X19116666Y77821372D01*
X19116666Y77821372D02*
X19164285Y77773753D01*
X19164285Y77773753D02*
X19211904Y77678515D01*
X19211904Y77678515D02*
X19211904Y77535658D01*
X19211904Y77535658D02*
X19164285Y77440420D01*
X19164285Y77440420D02*
X19116666Y77392800D01*
X19116666Y77392800D02*
X19021428Y77345181D01*
X19021428Y77345181D02*
X18640476Y77345181D01*
X18640476Y77345181D02*
X18640476Y78345181D01*
X18640476Y78345181D02*
X18973809Y78345181D01*
X18973809Y78345181D02*
X19069047Y78297562D01*
X19069047Y78297562D02*
X19116666Y78249943D01*
X19116666Y78249943D02*
X19164285Y78154705D01*
X19164285Y78154705D02*
X19164285Y78059467D01*
X19164285Y78059467D02*
X19116666Y77964229D01*
X19116666Y77964229D02*
X19069047Y77916610D01*
X19069047Y77916610D02*
X18973809Y77868991D01*
X18973809Y77868991D02*
X18640476Y77868991D01*
X20164285Y77345181D02*
X19592857Y77345181D01*
X19878571Y77345181D02*
X19878571Y78345181D01*
X19878571Y78345181D02*
X19783333Y78202324D01*
X19783333Y78202324D02*
X19688095Y78107086D01*
X19688095Y78107086D02*
X19592857Y78059467D01*
D13*
%TO.C,C4*%
X46060000Y32230000D02*
X49800000Y32230000D01*
X46060000Y32230000D02*
X46060000Y39470000D01*
X49800000Y32230000D02*
X49800000Y39470000D01*
X46060000Y39470000D02*
X49800000Y39470000D01*
%TO.C,C6*%
X25220000Y80940000D02*
X25220000Y77200000D01*
X25220000Y80940000D02*
X32460000Y80940000D01*
X25220000Y77200000D02*
X32460000Y77200000D01*
X32460000Y80940000D02*
X32460000Y77200000D01*
%TO.C,R5*%
X27940000Y47320000D02*
X26990000Y47320000D01*
X26990000Y46400000D02*
X26990000Y48240000D01*
X26990000Y48240000D02*
X23150000Y48240000D01*
X23150000Y46400000D02*
X26990000Y46400000D01*
X23150000Y48240000D02*
X23150000Y46400000D01*
X22200000Y47320000D02*
X23150000Y47320000D01*
%TO.C,R9*%
X-10820000Y48590000D02*
X-9870000Y48590000D01*
X-9870000Y49510000D02*
X-9870000Y47670000D01*
X-9870000Y47670000D02*
X-6030000Y47670000D01*
X-6030000Y49510000D02*
X-9870000Y49510000D01*
X-6030000Y47670000D02*
X-6030000Y49510000D01*
X-5080000Y48590000D02*
X-6030000Y48590000D01*
%TO.C,R16*%
X12370000Y42570000D02*
X12370000Y41620000D01*
X13290000Y41620000D02*
X11450000Y41620000D01*
X11450000Y41620000D02*
X11450000Y37780000D01*
X13290000Y37780000D02*
X13290000Y41620000D01*
X11450000Y37780000D02*
X13290000Y37780000D01*
X12370000Y36830000D02*
X12370000Y37780000D01*
%TO.C,U2*%
X-11870000Y68970000D02*
X-11870000Y51070000D01*
X-11870000Y51070000D02*
X-6570000Y51070000D01*
X-10220000Y68970000D02*
X-11870000Y68970000D01*
X-6570000Y68970000D02*
X-8220000Y68970000D01*
X-6570000Y51070000D02*
X-6570000Y68970000D01*
X-10220000Y68970000D02*
G75*
G03*
X-8220000Y68970000I1000000J0D01*
G01*
%TO.C,J1*%
X26400000Y30870000D02*
X26400000Y29540000D01*
X25070000Y30870000D02*
X26400000Y30870000D01*
X23800000Y30870000D02*
X11040000Y30870000D01*
X23800000Y30870000D02*
X23800000Y28210000D01*
X11040000Y30870000D02*
X11040000Y28210000D01*
X23800000Y28210000D02*
X11040000Y28210000D01*
%TO.C,R19*%
X41250000Y30810000D02*
X42200000Y30810000D01*
X42200000Y31730000D02*
X42200000Y29890000D01*
X42200000Y29890000D02*
X46040000Y29890000D01*
X46040000Y31730000D02*
X42200000Y31730000D01*
X46040000Y29890000D02*
X46040000Y31730000D01*
X46990000Y30810000D02*
X46040000Y30810000D01*
%TO.C,J3*%
X-25790000Y80400000D02*
X-24460000Y80400000D01*
X-25790000Y79070000D02*
X-25790000Y80400000D01*
X-25790000Y77800000D02*
X-25790000Y59960000D01*
X-25790000Y77800000D02*
X-23130000Y77800000D01*
X-25790000Y59960000D02*
X-23130000Y59960000D01*
X-23130000Y77800000D02*
X-23130000Y59960000D01*
%TO.C,R8*%
X-2870000Y59080000D02*
X-2870000Y58130000D01*
X-1950000Y58130000D02*
X-3790000Y58130000D01*
X-3790000Y58130000D02*
X-3790000Y54290000D01*
X-1950000Y54290000D02*
X-1950000Y58130000D01*
X-3790000Y54290000D02*
X-1950000Y54290000D01*
X-2870000Y53340000D02*
X-2870000Y54290000D01*
%TO.C,R2*%
X-17780000Y52400000D02*
X-18730000Y52400000D01*
X-18730000Y51480000D02*
X-18730000Y53320000D01*
X-18730000Y53320000D02*
X-22570000Y53320000D01*
X-22570000Y51480000D02*
X-18730000Y51480000D01*
X-22570000Y53320000D02*
X-22570000Y51480000D01*
X-23520000Y52400000D02*
X-22570000Y52400000D01*
%TO.C,R4*%
X-18110000Y68580000D02*
X-18110000Y69530000D01*
X-19030000Y69530000D02*
X-17190000Y69530000D01*
X-17190000Y69530000D02*
X-17190000Y73370000D01*
X-19030000Y73370000D02*
X-19030000Y69530000D01*
X-17190000Y73370000D02*
X-19030000Y73370000D01*
X-18110000Y74320000D02*
X-18110000Y73370000D01*
%TO.C,C3*%
X-7280000Y33580000D02*
X-3540000Y33580000D01*
X-7280000Y33580000D02*
X-7280000Y40820000D01*
X-3540000Y33580000D02*
X-3540000Y40820000D01*
X-7280000Y40820000D02*
X-3540000Y40820000D01*
%TO.C,R17*%
X16180000Y42570000D02*
X16180000Y41620000D01*
X17100000Y41620000D02*
X15260000Y41620000D01*
X15260000Y41620000D02*
X15260000Y37780000D01*
X17100000Y37780000D02*
X17100000Y41620000D01*
X15260000Y37780000D02*
X17100000Y37780000D01*
X16180000Y36830000D02*
X16180000Y37780000D01*
%TO.C,J5*%
X-9160000Y30870000D02*
X-9160000Y29540000D01*
X-10490000Y30870000D02*
X-9160000Y30870000D01*
X-11760000Y30870000D02*
X-24520000Y30870000D01*
X-11760000Y30870000D02*
X-11760000Y28210000D01*
X-24520000Y30870000D02*
X-24520000Y28210000D01*
X-11760000Y28210000D02*
X-24520000Y28210000D01*
%TO.C,C2*%
X5420000Y33500000D02*
X9160000Y33500000D01*
X5420000Y33500000D02*
X5420000Y40740000D01*
X9160000Y33500000D02*
X9160000Y40740000D01*
X5420000Y40740000D02*
X9160000Y40740000D01*
%TO.C,R11*%
X-15570000Y66700000D02*
X-15570000Y65750000D01*
X-14650000Y65750000D02*
X-16490000Y65750000D01*
X-16490000Y65750000D02*
X-16490000Y61910000D01*
X-14650000Y61910000D02*
X-14650000Y65750000D01*
X-16490000Y61910000D02*
X-14650000Y61910000D01*
X-15570000Y60960000D02*
X-15570000Y61910000D01*
%TO.C,C1*%
X18120000Y33580000D02*
X21860000Y33580000D01*
X18120000Y33580000D02*
X18120000Y40820000D01*
X21860000Y33580000D02*
X21860000Y40820000D01*
X18120000Y40820000D02*
X21860000Y40820000D01*
%TO.C,U3*%
X50570000Y71790000D02*
X50270000Y71790000D01*
X50570000Y71790000D02*
X50570000Y50790000D01*
X48170000Y71790000D02*
X47770000Y71790000D01*
X47903000Y71790000D02*
X47903000Y68783000D01*
X45570000Y71790000D02*
X45170000Y71790000D01*
X43070000Y71790000D02*
X42670000Y71790000D01*
X40470000Y71790000D02*
X40070000Y71790000D01*
X37970000Y71790000D02*
X37570000Y71790000D01*
X35470000Y71790000D02*
X35070000Y71790000D01*
X32870000Y71790000D02*
X32470000Y71790000D01*
X30370000Y71790000D02*
X29970000Y71790000D01*
X27770000Y71790000D02*
X27370000Y71790000D01*
X25270000Y71790000D02*
X24870000Y71790000D01*
X22770000Y71790000D02*
X22370000Y71790000D01*
X20170000Y71790000D02*
X19770000Y71790000D01*
X17670000Y71790000D02*
X17270000Y71790000D01*
X15070000Y71790000D02*
X14670000Y71790000D01*
X12570000Y71790000D02*
X12170000Y71790000D01*
X9970000Y71790000D02*
X9570000Y71790000D01*
X7470000Y71790000D02*
X7070000Y71790000D01*
X4970000Y71790000D02*
X4570000Y71790000D01*
X2370000Y71790000D02*
X1970000Y71790000D01*
X47903000Y68783000D02*
X50570000Y68783000D01*
X-430000Y64990000D02*
X-430000Y71790000D01*
X-430000Y62790000D02*
X-430000Y62390000D01*
X-430000Y60190000D02*
X-430000Y59790000D01*
X50570000Y50790000D02*
X50270000Y50790000D01*
X48170000Y50790000D02*
X47770000Y50790000D01*
X45570000Y50790000D02*
X45170000Y50790000D01*
X43070000Y50790000D02*
X42670000Y50790000D01*
X40470000Y50790000D02*
X40070000Y50790000D01*
X37970000Y50790000D02*
X37570000Y50790000D01*
X35470000Y50790000D02*
X35070000Y50790000D01*
X32870000Y50790000D02*
X32470000Y50790000D01*
X30370000Y50790000D02*
X29970000Y50790000D01*
X27770000Y50790000D02*
X27370000Y50790000D01*
X25270000Y50790000D02*
X24870000Y50790000D01*
X22770000Y50790000D02*
X22370000Y50790000D01*
X20170000Y50790000D02*
X19770000Y50790000D01*
X17670000Y50790000D02*
X17270000Y50790000D01*
X15070000Y50790000D02*
X14670000Y50790000D01*
X12570000Y50790000D02*
X12170000Y50790000D01*
X9970000Y50790000D02*
X9570000Y50790000D01*
X7470000Y50790000D02*
X7070000Y50790000D01*
X4970000Y50790000D02*
X4570000Y50790000D01*
X2370000Y50790000D02*
X1970000Y50790000D01*
X-430000Y50790000D02*
X-430000Y57590000D01*
%TO.C,R6*%
X24740000Y34620000D02*
X25690000Y34620000D01*
X25690000Y35540000D02*
X25690000Y33700000D01*
X25690000Y33700000D02*
X29530000Y33700000D01*
X29530000Y35540000D02*
X25690000Y35540000D01*
X29530000Y33700000D02*
X29530000Y35540000D01*
X30480000Y34620000D02*
X29530000Y34620000D01*
%TO.C,C5*%
X-1410000Y80940000D02*
X-1410000Y77200000D01*
X-1410000Y80940000D02*
X5830000Y80940000D01*
X-1410000Y77200000D02*
X5830000Y77200000D01*
X5830000Y80940000D02*
X5830000Y77200000D01*
%TO.C,C7*%
X46060000Y39850000D02*
X49800000Y39850000D01*
X46060000Y39850000D02*
X46060000Y47090000D01*
X49800000Y39850000D02*
X49800000Y47090000D01*
X46060000Y47090000D02*
X49800000Y47090000D01*
%TO.C,R18*%
X44120000Y40030000D02*
X44120000Y39080000D01*
X45040000Y39080000D02*
X43200000Y39080000D01*
X43200000Y39080000D02*
X43200000Y35240000D01*
X45040000Y35240000D02*
X45040000Y39080000D01*
X43200000Y35240000D02*
X45040000Y35240000D01*
X44120000Y34290000D02*
X44120000Y35240000D01*
%TO.C,R1*%
X-5410000Y72390000D02*
X-5410000Y73340000D01*
X-6330000Y73340000D02*
X-4490000Y73340000D01*
X-4490000Y73340000D02*
X-4490000Y77180000D01*
X-6330000Y77180000D02*
X-6330000Y73340000D01*
X-4490000Y77180000D02*
X-6330000Y77180000D01*
X-5410000Y78130000D02*
X-5410000Y77180000D01*
%TO.C,R14*%
X-330000Y41300000D02*
X-330000Y40350000D01*
X590000Y40350000D02*
X-1250000Y40350000D01*
X-1250000Y40350000D02*
X-1250000Y36510000D01*
X590000Y36510000D02*
X590000Y40350000D01*
X-1250000Y36510000D02*
X590000Y36510000D01*
X-330000Y35560000D02*
X-330000Y36510000D01*
%TO.C,U1*%
X23740000Y38320000D02*
X41640000Y38320000D01*
X41640000Y38320000D02*
X41640000Y43620000D01*
X23740000Y39970000D02*
X23740000Y38320000D01*
X23740000Y43620000D02*
X23740000Y41970000D01*
X41640000Y43620000D02*
X23740000Y43620000D01*
X23740000Y39970000D02*
G75*
G03*
X23740000Y41970000I0J1000000D01*
G01*
%TO.C,R10*%
X-18110000Y58420000D02*
X-18110000Y59370000D01*
X-19030000Y59370000D02*
X-17190000Y59370000D01*
X-17190000Y59370000D02*
X-17190000Y63210000D01*
X-19030000Y63210000D02*
X-19030000Y59370000D01*
X-17190000Y63210000D02*
X-19030000Y63210000D01*
X-18110000Y64160000D02*
X-18110000Y63210000D01*
%TO.C,R12*%
X-13030000Y41380000D02*
X-13030000Y40430000D01*
X-12110000Y40430000D02*
X-13950000Y40430000D01*
X-13950000Y40430000D02*
X-13950000Y36590000D01*
X-12110000Y36590000D02*
X-12110000Y40430000D01*
X-13950000Y36590000D02*
X-12110000Y36590000D01*
X-13030000Y35640000D02*
X-13030000Y36590000D01*
%TO.C,RDACA1*%
X24900000Y76660000D02*
X24900000Y73860000D01*
X24900000Y73860000D02*
X50640000Y73860000D01*
X27610000Y76660000D02*
X27610000Y73860000D01*
X50640000Y76660000D02*
X24900000Y76660000D01*
X50640000Y73860000D02*
X50640000Y76660000D01*
%TO.C,R13*%
X-9220000Y41380000D02*
X-9220000Y40430000D01*
X-8300000Y40430000D02*
X-10140000Y40430000D01*
X-10140000Y40430000D02*
X-10140000Y36590000D01*
X-8300000Y36590000D02*
X-8300000Y40430000D01*
X-10140000Y36590000D02*
X-8300000Y36590000D01*
X-9220000Y35640000D02*
X-9220000Y36590000D01*
%TO.C,R15*%
X3480000Y41300000D02*
X3480000Y40350000D01*
X4400000Y40350000D02*
X2560000Y40350000D01*
X2560000Y40350000D02*
X2560000Y36510000D01*
X4400000Y36510000D02*
X4400000Y40350000D01*
X2560000Y36510000D02*
X4400000Y36510000D01*
X3480000Y35560000D02*
X3480000Y36510000D01*
%TO.C,R3*%
X-17780000Y54940000D02*
X-18730000Y54940000D01*
X-18730000Y54020000D02*
X-18730000Y55860000D01*
X-18730000Y55860000D02*
X-22570000Y55860000D01*
X-22570000Y54020000D02*
X-18730000Y54020000D01*
X-22570000Y55860000D02*
X-22570000Y54020000D01*
X-23520000Y54940000D02*
X-22570000Y54940000D01*
%TO.C,R7*%
X36170000Y47320000D02*
X37120000Y47320000D01*
X37120000Y48240000D02*
X37120000Y46400000D01*
X37120000Y46400000D02*
X40960000Y46400000D01*
X40960000Y48240000D02*
X37120000Y48240000D01*
X40960000Y46400000D02*
X40960000Y48240000D01*
X41910000Y47320000D02*
X40960000Y47320000D01*
%TO.C,J2*%
X8620000Y30870000D02*
X8620000Y29540000D01*
X7290000Y30870000D02*
X8620000Y30870000D01*
X6020000Y30870000D02*
X-6740000Y30870000D01*
X6020000Y30870000D02*
X6020000Y28210000D01*
X-6740000Y30870000D02*
X-6740000Y28210000D01*
X6020000Y28210000D02*
X-6740000Y28210000D01*
%TO.C,J4*%
X-1660000Y45990000D02*
X-1660000Y47320000D01*
X-330000Y45990000D02*
X-1660000Y45990000D01*
X940000Y45990000D02*
X18780000Y45990000D01*
X940000Y45990000D02*
X940000Y48650000D01*
X18780000Y45990000D02*
X18780000Y48650000D01*
X940000Y48650000D02*
X18780000Y48650000D01*
%TO.C,RDACB1*%
X-1770000Y76660000D02*
X-1770000Y73860000D01*
X-1770000Y73860000D02*
X23970000Y73860000D01*
X940000Y76660000D02*
X940000Y73860000D01*
X23970000Y76660000D02*
X-1770000Y76660000D01*
X23970000Y73860000D02*
X23970000Y76660000D01*
%TD*%
M02*
