M48
; DRILL file {KiCad 7.0.7} date Fri May 24 10:33:24 2024
; FORMAT={-:-/ absolute / inch / decimal}
; #@! TF.CreationDate,2024-05-24T10:33:24-04:00
; #@! TF.GenerationSoftware,Kicad,Pcbnew,7.0.7
; #@! TF.FileFunction,Plated,1,2,PTH
FMAT,2
INCH
; #@! TA.AperFunction,Plated,PTH,ViaDrill
T1C0.0157
; #@! TA.AperFunction,Plated,PTH,ComponentDrill
T2C0.0276
; #@! TA.AperFunction,Plated,PTH,ComponentDrill
T3C0.0315
; #@! TA.AperFunction,Plated,PTH,ComponentDrill
T4C0.0394
; #@! TA.AperFunction,Plated,PTH,ComponentDrill
T5C0.0402
%
G90
G05
T1
X-0.413Y2.863
X-0.413Y2.763
X-0.263Y1.663
X-0.113Y3.063
X-0.113Y1.763
X-0.113Y1.563
X0.387Y1.763
X0.387Y1.563
T2
X-0.963Y2.163
X-0.963Y2.063
X-0.713Y2.963
X-0.713Y2.663
X-0.713Y2.563
X-0.713Y2.263
X-0.663Y2.163
X-0.663Y2.063
X-0.613Y2.663
X-0.613Y2.363
X-0.513Y1.6661
X-0.513Y1.3661
X-0.463Y1.913
X-0.363Y1.6661
X-0.363Y1.3661
X-0.213Y3.113
X-0.213Y2.813
X-0.163Y1.913
X-0.113Y2.363
X-0.113Y2.063
X-0.013Y1.663
X-0.013Y1.363
X0.137Y1.663
X0.137Y1.363
X0.487Y1.713
X0.487Y1.413
X0.637Y1.713
X0.637Y1.413
X0.837Y1.863
X0.937Y1.363
X1.137Y1.863
X1.237Y1.363
X1.387Y1.863
X1.587Y1.213
X1.687Y1.863
X1.737Y1.613
X1.737Y1.313
X1.887Y1.213
T3
X-0.513Y2.663
X-0.513Y2.563
X-0.513Y2.463
X-0.513Y2.363
X-0.513Y2.263
X-0.513Y2.163
X-0.513Y2.063
X-0.213Y2.663
X-0.213Y2.563
X-0.213Y2.463
X-0.213Y2.363
X-0.213Y2.263
X-0.213Y2.163
X-0.213Y2.063
X-0.213Y1.563
X-0.213Y1.5138
X-0.213Y1.4154
X-0.213Y1.3661
X-0.013Y2.963
X-0.0114Y3.113
X0.0378Y3.113
X0.087Y2.963
X0.1362Y3.113
X0.1854Y3.113
X0.187Y2.963
X0.287Y2.963
X0.287Y1.5598
X0.287Y1.5106
X0.287Y1.4122
X0.287Y1.363
X0.387Y2.963
X0.487Y2.963
X0.587Y2.963
X0.687Y2.963
X0.787Y2.963
X0.787Y1.563
X0.787Y1.5138
X0.787Y1.4154
X0.787Y1.3661
X0.887Y2.963
X0.987Y1.763
X0.987Y1.463
X1.037Y3.113
X1.037Y2.963
X1.0862Y3.113
X1.087Y1.763
X1.087Y1.463
X1.137Y2.963
X1.1846Y3.113
X1.187Y1.763
X1.187Y1.463
X1.2339Y3.113
X1.237Y2.963
X1.287Y1.763
X1.287Y1.463
X1.337Y2.963
X1.387Y1.763
X1.387Y1.463
X1.437Y2.963
X1.487Y1.763
X1.487Y1.463
X1.537Y2.963
X1.587Y1.763
X1.587Y1.463
X1.637Y2.963
X1.737Y2.963
X1.837Y2.963
X1.887Y1.8098
X1.887Y1.7606
X1.887Y1.6622
X1.887Y1.613
X1.887Y1.5098
X1.887Y1.4606
X1.887Y1.3622
X1.887Y1.313
X1.937Y2.963
T4
X-0.963Y3.113
X-0.963Y3.013
X-0.963Y2.913
X-0.963Y2.813
X-0.963Y2.713
X-0.963Y2.613
X-0.963Y2.513
X-0.963Y2.413
X-0.913Y1.163
X-0.813Y1.163
X-0.713Y1.163
X-0.613Y1.163
X-0.513Y1.163
X-0.413Y1.163
X-0.213Y1.163
X-0.113Y1.163
X-0.013Y1.863
X-0.013Y1.163
X0.087Y1.863
X0.087Y1.163
X0.187Y1.863
X0.187Y1.163
X0.287Y1.863
X0.287Y1.163
X0.387Y1.863
X0.487Y1.863
X0.487Y1.163
X0.587Y1.863
X0.587Y1.163
X0.687Y1.863
X0.687Y1.163
X0.787Y1.163
X0.887Y1.163
X0.987Y1.163
T5
X0.037Y2.763
X0.037Y2.063
X0.0461Y2.513
X0.0461Y2.413
X0.0461Y2.313
X0.137Y2.763
X0.137Y2.063
X0.237Y2.763
X0.237Y2.063
X0.337Y2.763
X0.337Y2.063
X0.437Y2.763
X0.437Y2.063
X0.537Y2.763
X0.537Y2.063
X0.637Y2.763
X0.637Y2.063
X0.737Y2.763
X0.737Y2.063
X0.837Y2.763
X0.837Y2.063
X0.937Y2.763
X0.937Y2.063
X1.037Y2.763
X1.037Y2.063
X1.137Y2.763
X1.137Y2.063
X1.237Y2.763
X1.237Y2.063
X1.337Y2.763
X1.337Y2.063
X1.437Y2.763
X1.437Y2.063
X1.537Y2.763
X1.537Y2.063
X1.637Y2.763
X1.637Y2.063
X1.737Y2.763
X1.737Y2.063
X1.837Y2.763
X1.837Y2.063
X1.937Y2.763
X1.937Y2.063
T0
M30
