%TF.GenerationSoftware,KiCad,Pcbnew,7.0.7*%
%TF.CreationDate,2024-05-24T10:33:18-04:00*%
%TF.ProjectId,pi-pico-adapter3,70692d70-6963-46f2-9d61-646170746572,rev?*%
%TF.SameCoordinates,PX791ddc0PY791ddc0*%
%TF.FileFunction,Soldermask,Bot*%
%TF.FilePolarity,Negative*%
%FSLAX46Y46*%
G04 Gerber Fmt 4.6, Leading zero omitted, Abs format (unit mm)*
G04 Created by KiCad (PCBNEW 7.0.7) date 2024-05-24 10:33:18*
%MOMM*%
%LPD*%
G01*
G04 APERTURE LIST*
%ADD10C,1.600000*%
%ADD11C,1.400000*%
%ADD12O,1.400000X1.400000*%
%ADD13R,1.600000X1.600000*%
%ADD14O,1.600000X1.600000*%
%ADD15R,1.700000X1.700000*%
%ADD16O,1.700000X1.700000*%
%ADD17C,3.200000*%
%ADD18O,1.800000X1.800000*%
%ADD19O,1.500000X1.500000*%
G04 APERTURE END LIST*
D10*
%TO.C,C4*%
X47930000Y33350000D03*
X47930000Y34600000D03*
X47930000Y37100000D03*
X47930000Y38350000D03*
%TD*%
%TO.C,C6*%
X26340000Y79070000D03*
X27590000Y79070000D03*
X30090000Y79070000D03*
X31340000Y79070000D03*
%TD*%
D11*
%TO.C,R5*%
X28880000Y47320000D03*
D12*
X21260000Y47320000D03*
%TD*%
D11*
%TO.C,R9*%
X-11760000Y48590000D03*
D12*
X-4140000Y48590000D03*
%TD*%
D11*
%TO.C,R16*%
X12370000Y43510000D03*
D12*
X12370000Y35890000D03*
%TD*%
D13*
%TO.C,U2*%
X-13030000Y67640000D03*
D14*
X-13030000Y65100000D03*
X-13030000Y62560000D03*
X-13030000Y60020000D03*
X-13030000Y57480000D03*
X-13030000Y54940000D03*
X-13030000Y52400000D03*
X-5410000Y52400000D03*
X-5410000Y54940000D03*
X-5410000Y57480000D03*
X-5410000Y60020000D03*
X-5410000Y62560000D03*
X-5410000Y65100000D03*
X-5410000Y67640000D03*
%TD*%
D15*
%TO.C,J1*%
X25070000Y29540000D03*
D16*
X22530000Y29540000D03*
X19990000Y29540000D03*
X17450000Y29540000D03*
X14910000Y29540000D03*
X12370000Y29540000D03*
%TD*%
D11*
%TO.C,R19*%
X40310000Y30810000D03*
D12*
X47930000Y30810000D03*
%TD*%
D15*
%TO.C,J3*%
X-24460000Y79070000D03*
D16*
X-24460000Y76530000D03*
X-24460000Y73990000D03*
X-24460000Y71450000D03*
X-24460000Y68910000D03*
X-24460000Y66370000D03*
X-24460000Y63830000D03*
X-24460000Y61290000D03*
%TD*%
D11*
%TO.C,R8*%
X-2870000Y60020000D03*
D12*
X-2870000Y52400000D03*
%TD*%
D11*
%TO.C,R2*%
X-16840000Y52400000D03*
D12*
X-24460000Y52400000D03*
%TD*%
D11*
%TO.C,R4*%
X-18110000Y67640000D03*
D12*
X-18110000Y75260000D03*
%TD*%
D10*
%TO.C,C3*%
X-5410000Y34700000D03*
X-5410000Y35950000D03*
X-5410000Y38450000D03*
X-5410000Y39700000D03*
%TD*%
D11*
%TO.C,R17*%
X16180000Y43510000D03*
D12*
X16180000Y35890000D03*
%TD*%
D15*
%TO.C,J5*%
X-10490000Y29540000D03*
D16*
X-13030000Y29540000D03*
X-15570000Y29540000D03*
X-18110000Y29540000D03*
X-20650000Y29540000D03*
X-23190000Y29540000D03*
%TD*%
D17*
%TO.C,MH1*%
X36500000Y30810000D03*
%TD*%
D10*
%TO.C,C2*%
X7290000Y34620000D03*
X7290000Y35870000D03*
X7290000Y38370000D03*
X7290000Y39620000D03*
%TD*%
D11*
%TO.C,R11*%
X-15570000Y67640000D03*
D12*
X-15570000Y60020000D03*
%TD*%
D10*
%TO.C,C1*%
X19990000Y34700000D03*
X19990000Y35950000D03*
X19990000Y38450000D03*
X19990000Y39700000D03*
%TD*%
D18*
%TO.C,U3*%
X49070000Y64015000D03*
D19*
X46040000Y63715000D03*
X46040000Y58865000D03*
D18*
X49070000Y58565000D03*
D16*
X49200000Y70180000D03*
X46660000Y70180000D03*
D15*
X44120000Y70180000D03*
D16*
X41580000Y70180000D03*
X39040000Y70180000D03*
X36500000Y70180000D03*
X33960000Y70180000D03*
D15*
X31420000Y70180000D03*
D16*
X28880000Y70180000D03*
X26340000Y70180000D03*
X23800000Y70180000D03*
X21260000Y70180000D03*
D15*
X18720000Y70180000D03*
D16*
X16180000Y70180000D03*
X13640000Y70180000D03*
X11100000Y70180000D03*
X8560000Y70180000D03*
D15*
X6020000Y70180000D03*
D16*
X3480000Y70180000D03*
X940000Y70180000D03*
X940000Y52400000D03*
X3480000Y52400000D03*
D15*
X6020000Y52400000D03*
D16*
X8560000Y52400000D03*
X11100000Y52400000D03*
X13640000Y52400000D03*
X16180000Y52400000D03*
D15*
X18720000Y52400000D03*
D16*
X21260000Y52400000D03*
X23800000Y52400000D03*
X26340000Y52400000D03*
X28880000Y52400000D03*
D15*
X31420000Y52400000D03*
D16*
X33960000Y52400000D03*
X36500000Y52400000D03*
X39040000Y52400000D03*
X41580000Y52400000D03*
D15*
X44120000Y52400000D03*
D16*
X46660000Y52400000D03*
X49200000Y52400000D03*
X1170000Y63830000D03*
D15*
X1170000Y61290000D03*
D16*
X1170000Y58750000D03*
%TD*%
D11*
%TO.C,R6*%
X23800000Y34620000D03*
D12*
X31420000Y34620000D03*
%TD*%
D10*
%TO.C,C5*%
X-290000Y79070000D03*
X960000Y79070000D03*
X3460000Y79070000D03*
X4710000Y79070000D03*
%TD*%
%TO.C,C7*%
X47930000Y40970000D03*
X47930000Y42220000D03*
X47930000Y44720000D03*
X47930000Y45970000D03*
%TD*%
D11*
%TO.C,R18*%
X44120000Y40970000D03*
D12*
X44120000Y33350000D03*
%TD*%
D11*
%TO.C,R1*%
X-5410000Y71450000D03*
D12*
X-5410000Y79070000D03*
%TD*%
D11*
%TO.C,R14*%
X-330000Y42240000D03*
D12*
X-330000Y34620000D03*
%TD*%
D13*
%TO.C,U1*%
X25070000Y37160000D03*
D14*
X27610000Y37160000D03*
X30150000Y37160000D03*
X32690000Y37160000D03*
X35230000Y37160000D03*
X37770000Y37160000D03*
X40310000Y37160000D03*
X40310000Y44780000D03*
X37770000Y44780000D03*
X35230000Y44780000D03*
X32690000Y44780000D03*
X30150000Y44780000D03*
X27610000Y44780000D03*
X25070000Y44780000D03*
%TD*%
D11*
%TO.C,R10*%
X-18110000Y57480000D03*
D12*
X-18110000Y65100000D03*
%TD*%
D17*
%TO.C,MH2*%
X37770000Y79070000D03*
%TD*%
D11*
%TO.C,R12*%
X-13030000Y42320000D03*
D12*
X-13030000Y34700000D03*
%TD*%
D13*
%TO.C,RDACA1*%
X26340000Y75260000D03*
D14*
X28880000Y75260000D03*
X31420000Y75260000D03*
X33960000Y75260000D03*
X36500000Y75260000D03*
X39040000Y75260000D03*
X41580000Y75260000D03*
X44120000Y75260000D03*
X46660000Y75260000D03*
X49200000Y75260000D03*
%TD*%
D11*
%TO.C,R13*%
X-9220000Y42320000D03*
D12*
X-9220000Y34700000D03*
%TD*%
D11*
%TO.C,R15*%
X3480000Y42240000D03*
D12*
X3480000Y34620000D03*
%TD*%
D17*
%TO.C,MH3*%
X-14300000Y46050000D03*
%TD*%
D11*
%TO.C,R3*%
X-16840000Y54940000D03*
D12*
X-24460000Y54940000D03*
%TD*%
D17*
%TO.C,MH4*%
X-14300000Y73990000D03*
%TD*%
D11*
%TO.C,R7*%
X35230000Y47320000D03*
D12*
X42850000Y47320000D03*
%TD*%
D15*
%TO.C,J2*%
X7290000Y29540000D03*
D16*
X4750000Y29540000D03*
X2210000Y29540000D03*
X-330000Y29540000D03*
X-2870000Y29540000D03*
X-5410000Y29540000D03*
%TD*%
D15*
%TO.C,J4*%
X-330000Y47320000D03*
D16*
X2210000Y47320000D03*
X4750000Y47320000D03*
X7290000Y47320000D03*
X9830000Y47320000D03*
X12370000Y47320000D03*
X14910000Y47320000D03*
X17450000Y47320000D03*
%TD*%
D13*
%TO.C,RDACB1*%
X-330000Y75260000D03*
D14*
X2210000Y75260000D03*
X4750000Y75260000D03*
X7290000Y75260000D03*
X9830000Y75260000D03*
X12370000Y75260000D03*
X14910000Y75260000D03*
X17450000Y75260000D03*
X19990000Y75260000D03*
X22530000Y75260000D03*
%TD*%
M02*
