%TF.GenerationSoftware,KiCad,Pcbnew,7.0.7*%
%TF.CreationDate,2024-05-24T10:23:49-04:00*%
%TF.ProjectId,xiao_Breadboard_r1,7869616f-5f42-4726-9561-64626f617264,rev?*%
%TF.SameCoordinates,Original*%
%TF.FileFunction,Soldermask,Top*%
%TF.FilePolarity,Negative*%
%FSLAX46Y46*%
G04 Gerber Fmt 4.6, Leading zero omitted, Abs format (unit mm)*
G04 Created by KiCad (PCBNEW 7.0.7) date 2024-05-24 10:23:49*
%MOMM*%
%LPD*%
G01*
G04 APERTURE LIST*
G04 Aperture macros list*
%AMRoundRect*
0 Rectangle with rounded corners*
0 $1 Rounding radius*
0 $2 $3 $4 $5 $6 $7 $8 $9 X,Y pos of 4 corners*
0 Add a 4 corners polygon primitive as box body*
4,1,4,$2,$3,$4,$5,$6,$7,$8,$9,$2,$3,0*
0 Add four circle primitives for the rounded corners*
1,1,$1+$1,$2,$3*
1,1,$1+$1,$4,$5*
1,1,$1+$1,$6,$7*
1,1,$1+$1,$8,$9*
0 Add four rect primitives between the rounded corners*
20,1,$1+$1,$2,$3,$4,$5,0*
20,1,$1+$1,$4,$5,$6,$7,0*
20,1,$1+$1,$6,$7,$8,$9,0*
20,1,$1+$1,$8,$9,$2,$3,0*%
G04 Aperture macros list end*
%ADD10C,1.500000*%
%ADD11C,1.440000*%
%ADD12C,1.400000*%
%ADD13O,1.400000X1.400000*%
%ADD14RoundRect,0.101600X0.939800X0.939800X-0.939800X0.939800X-0.939800X-0.939800X0.939800X-0.939800X0*%
%ADD15C,2.082800*%
%ADD16R,1.600000X1.600000*%
%ADD17O,1.600000X1.600000*%
%ADD18RoundRect,0.425000X0.425000X-0.925000X0.425000X0.925000X-0.425000X0.925000X-0.425000X-0.925000X0*%
%ADD19RoundRect,0.400000X0.400000X-0.950000X0.400000X0.950000X-0.400000X0.950000X-0.400000X-0.950000X0*%
%ADD20O,2.032000X1.016000*%
%ADD21C,1.143000*%
%ADD22C,1.600000*%
%ADD23R,1.700000X1.700000*%
%ADD24O,1.700000X1.700000*%
G04 APERTURE END LIST*
D10*
%TO.C,TP393*%
X172720000Y-140970000D03*
%TD*%
%TO.C,TP392*%
X175260000Y-140970000D03*
%TD*%
%TO.C,TP391*%
X177800000Y-140970000D03*
%TD*%
%TO.C,TP390*%
X177800000Y-138430000D03*
%TD*%
%TO.C,TP389*%
X175260000Y-138430000D03*
%TD*%
%TO.C,TP388*%
X172720000Y-138430000D03*
%TD*%
%TO.C,TP387*%
X177800000Y-135890000D03*
%TD*%
%TO.C,TP386*%
X175260000Y-135890000D03*
%TD*%
%TO.C,TP385*%
X172720000Y-135890000D03*
%TD*%
%TO.C,TP384*%
X177800000Y-133350000D03*
%TD*%
%TO.C,TP383*%
X175260000Y-133350000D03*
%TD*%
%TO.C,TP382*%
X172720000Y-133350000D03*
%TD*%
%TO.C,TP381*%
X177800000Y-130810000D03*
%TD*%
%TO.C,TP380*%
X175260000Y-130810000D03*
%TD*%
%TO.C,TP379*%
X172720000Y-130810000D03*
%TD*%
%TO.C,TP378*%
X177800000Y-128270000D03*
%TD*%
%TO.C,TP377*%
X175260000Y-128270000D03*
%TD*%
%TO.C,TP376*%
X172720000Y-128270000D03*
%TD*%
%TO.C,TP375*%
X177800000Y-125730000D03*
%TD*%
%TO.C,TP374*%
X175260000Y-125730000D03*
%TD*%
%TO.C,TP373*%
X172720000Y-125730000D03*
%TD*%
%TO.C,TP372*%
X177800000Y-123190000D03*
%TD*%
%TO.C,TP371*%
X175260000Y-123190000D03*
%TD*%
%TO.C,TP370*%
X172720000Y-123190000D03*
%TD*%
%TO.C,TP369*%
X177800000Y-120650000D03*
%TD*%
%TO.C,TP368*%
X175260000Y-120650000D03*
%TD*%
%TO.C,TP367*%
X172720000Y-120650000D03*
%TD*%
%TO.C,TP366*%
X177800000Y-118110000D03*
%TD*%
%TO.C,TP365*%
X175260000Y-118110000D03*
%TD*%
%TO.C,TP364*%
X172720000Y-118110000D03*
%TD*%
%TO.C,TP363*%
X177800000Y-115570000D03*
%TD*%
%TO.C,TP362*%
X175260000Y-115570000D03*
%TD*%
%TO.C,TP361*%
X172720000Y-115570000D03*
%TD*%
%TO.C,TP360*%
X177800000Y-113030000D03*
%TD*%
%TO.C,TP359*%
X175260000Y-113030000D03*
%TD*%
%TO.C,TP358*%
X172720000Y-113030000D03*
%TD*%
%TO.C,TP357*%
X177800000Y-110490000D03*
%TD*%
%TO.C,TP356*%
X175260000Y-110490000D03*
%TD*%
%TO.C,TP355*%
X172720000Y-110490000D03*
%TD*%
%TO.C,TP354*%
X177800000Y-107950000D03*
%TD*%
%TO.C,TP353*%
X175260000Y-107950000D03*
%TD*%
%TO.C,TP352*%
X172720000Y-107950000D03*
%TD*%
%TO.C,TP351*%
X177800000Y-105410000D03*
%TD*%
%TO.C,TP350*%
X175260000Y-105410000D03*
%TD*%
%TO.C,TP349*%
X172720000Y-105410000D03*
%TD*%
%TO.C,TP348*%
X175260000Y-80010000D03*
%TD*%
%TO.C,TP347*%
X177800000Y-80010000D03*
%TD*%
%TO.C,TP346*%
X177800000Y-102870000D03*
%TD*%
%TO.C,TP345*%
X175260000Y-102870000D03*
%TD*%
%TO.C,TP344*%
X172720000Y-102870000D03*
%TD*%
%TO.C,TP343*%
X177800000Y-100330000D03*
%TD*%
%TO.C,TP342*%
X175260000Y-100330000D03*
%TD*%
%TO.C,TP341*%
X172720000Y-100330000D03*
%TD*%
%TO.C,TP340*%
X177800000Y-97790000D03*
%TD*%
%TO.C,TP339*%
X175260000Y-97790000D03*
%TD*%
%TO.C,TP338*%
X172720000Y-97790000D03*
%TD*%
%TO.C,TP337*%
X177800000Y-95250000D03*
%TD*%
%TO.C,TP336*%
X175260000Y-95250000D03*
%TD*%
%TO.C,TP335*%
X172720000Y-95250000D03*
%TD*%
%TO.C,TP334*%
X177800000Y-69850000D03*
%TD*%
%TO.C,TP333*%
X175260000Y-69850000D03*
%TD*%
%TO.C,TP332*%
X177800000Y-92710000D03*
%TD*%
%TO.C,TP331*%
X175260000Y-92710000D03*
%TD*%
%TO.C,TP330*%
X172720000Y-92710000D03*
%TD*%
%TO.C,TP329*%
X177800000Y-90170000D03*
%TD*%
%TO.C,TP328*%
X175260000Y-90170000D03*
%TD*%
%TO.C,TP327*%
X172720000Y-90170000D03*
%TD*%
%TO.C,TP326*%
X177800000Y-87630000D03*
%TD*%
%TO.C,TP325*%
X175260000Y-87630000D03*
%TD*%
%TO.C,TP324*%
X172720000Y-87630000D03*
%TD*%
%TO.C,TP323*%
X177800000Y-85090000D03*
%TD*%
%TO.C,TP322*%
X175260000Y-85090000D03*
%TD*%
%TO.C,TP321*%
X172720000Y-85090000D03*
%TD*%
%TO.C,TP320*%
X177800000Y-82550000D03*
%TD*%
%TO.C,TP319*%
X175260000Y-82550000D03*
%TD*%
%TO.C,TP318*%
X172720000Y-82550000D03*
%TD*%
%TO.C,TP317*%
X172720000Y-80010000D03*
%TD*%
%TO.C,TP316*%
X177800000Y-77470000D03*
%TD*%
%TO.C,TP315*%
X175260000Y-77470000D03*
%TD*%
%TO.C,TP314*%
X172720000Y-77470000D03*
%TD*%
%TO.C,TP313*%
X177800000Y-74930000D03*
%TD*%
%TO.C,TP312*%
X175260000Y-74930000D03*
%TD*%
%TO.C,TP311*%
X172720000Y-74930000D03*
%TD*%
%TO.C,TP310*%
X177800000Y-72390000D03*
%TD*%
%TO.C,TP309*%
X175260000Y-72390000D03*
%TD*%
%TO.C,TP308*%
X172720000Y-72390000D03*
%TD*%
%TO.C,TP307*%
X172720000Y-69850000D03*
%TD*%
%TO.C,TP306*%
X177800000Y-67310000D03*
%TD*%
%TO.C,TP305*%
X175260000Y-67310000D03*
%TD*%
%TO.C,TP304*%
X172720000Y-67310000D03*
%TD*%
%TO.C,TP204*%
X160020000Y-92710000D03*
%TD*%
%TO.C,TP31*%
X147320000Y-80010000D03*
%TD*%
%TO.C,TP53*%
X152400000Y-90170000D03*
%TD*%
%TO.C,TP104*%
X142240000Y-118110000D03*
%TD*%
%TO.C,TP195*%
X162560000Y-87630000D03*
%TD*%
%TO.C,TP93*%
X152400000Y-105410000D03*
%TD*%
%TO.C,TP106*%
X147320000Y-118110000D03*
%TD*%
%TO.C,TP259*%
X160020000Y-120650000D03*
%TD*%
%TO.C,TP152*%
X149860000Y-140970000D03*
%TD*%
%TO.C,TP27*%
X149860000Y-77470000D03*
%TD*%
D11*
%TO.C,RV1*%
X121920000Y-105410000D03*
X127000000Y-102870000D03*
X121920000Y-100330000D03*
%TD*%
D10*
%TO.C,TP214*%
X160020000Y-97790000D03*
%TD*%
%TO.C,TP276*%
X165100000Y-128270000D03*
%TD*%
%TO.C,TP130*%
X144780000Y-133350000D03*
%TD*%
%TO.C,TP52*%
X149860000Y-90170000D03*
%TD*%
%TO.C,TP279*%
X160020000Y-130810000D03*
%TD*%
%TO.C,TP12*%
X149860000Y-69850000D03*
%TD*%
%TO.C,TP236*%
X165100000Y-107950000D03*
%TD*%
%TO.C,TP292*%
X167640000Y-135890000D03*
%TD*%
%TO.C,TP47*%
X149860000Y-87630000D03*
%TD*%
%TO.C,TP123*%
X152400000Y-125730000D03*
%TD*%
%TO.C,TP240*%
X162560000Y-110490000D03*
%TD*%
%TO.C,TP61*%
X147320000Y-95250000D03*
%TD*%
%TO.C,TP145*%
X144780000Y-138430000D03*
%TD*%
%TO.C,TP58*%
X152400000Y-92710000D03*
%TD*%
%TO.C,TP175*%
X162560000Y-77470000D03*
%TD*%
%TO.C,TP264*%
X167640000Y-123190000D03*
%TD*%
%TO.C,TP54*%
X142240000Y-92710000D03*
%TD*%
%TO.C,TP246*%
X165100000Y-113030000D03*
%TD*%
%TO.C,TP261*%
X165100000Y-120650000D03*
%TD*%
%TO.C,TP44*%
X142240000Y-87630000D03*
%TD*%
%TO.C,TP86*%
X147320000Y-107950000D03*
%TD*%
%TO.C,TP111*%
X147320000Y-120650000D03*
%TD*%
%TO.C,TP129*%
X142240000Y-133350000D03*
%TD*%
%TO.C,TP97*%
X149860000Y-113030000D03*
%TD*%
%TO.C,TP80*%
X149860000Y-110490000D03*
%TD*%
%TO.C,TP281*%
X165100000Y-130810000D03*
%TD*%
%TO.C,TP65*%
X144780000Y-97790000D03*
%TD*%
%TO.C,TP174*%
X160020000Y-77470000D03*
%TD*%
%TO.C,TP45*%
X144780000Y-87630000D03*
%TD*%
%TO.C,TP199*%
X160020000Y-90170000D03*
%TD*%
%TO.C,TP134*%
X142240000Y-135890000D03*
%TD*%
%TO.C,TP62*%
X149860000Y-95250000D03*
%TD*%
D12*
%TO.C,R21*%
X104140000Y-107950000D03*
D13*
X104140000Y-115570000D03*
%TD*%
D10*
%TO.C,TP159*%
X160020000Y-69850000D03*
%TD*%
%TO.C,TP158*%
X170180000Y-67310000D03*
%TD*%
%TO.C,TP202*%
X167640000Y-90170000D03*
%TD*%
%TO.C,TP283*%
X170180000Y-130810000D03*
%TD*%
%TO.C,TP209*%
X160020000Y-95250000D03*
%TD*%
%TO.C,TP238*%
X160020000Y-107950000D03*
%TD*%
%TO.C,TP256*%
X165100000Y-118110000D03*
%TD*%
%TO.C,TP293*%
X170180000Y-135890000D03*
%TD*%
%TO.C,TP116*%
X147320000Y-123190000D03*
%TD*%
%TO.C,TP228*%
X170180000Y-102870000D03*
%TD*%
%TO.C,TP81*%
X147320000Y-110490000D03*
%TD*%
D14*
%TO.C,JP8*%
X185331100Y-140970000D03*
D15*
X185331100Y-138430000D03*
X185331100Y-135890000D03*
X185331100Y-133350000D03*
X185331100Y-130810000D03*
X185331100Y-128270000D03*
X185331100Y-125730000D03*
X185331100Y-123190000D03*
X185331100Y-120650000D03*
X185331100Y-118110000D03*
X185331100Y-115570000D03*
X185331100Y-113030000D03*
X185331100Y-110490000D03*
X185331100Y-107950000D03*
X185331100Y-105410000D03*
X185331100Y-102870000D03*
X185331100Y-100330000D03*
X185331100Y-97790000D03*
X185331100Y-95250000D03*
X185331100Y-92710000D03*
X185331100Y-90170000D03*
X185331100Y-87630000D03*
X185331100Y-85090000D03*
X185331100Y-82550000D03*
X185331100Y-80010000D03*
X185331100Y-77470000D03*
X185331100Y-74930000D03*
X185331100Y-72390000D03*
X185331100Y-69850000D03*
X185331100Y-67310000D03*
%TD*%
D10*
%TO.C,TP118*%
X152400000Y-123190000D03*
%TD*%
D16*
%TO.C,U1*%
X104140000Y-127000000D03*
D17*
X104140000Y-129540000D03*
X104140000Y-132080000D03*
X104140000Y-134620000D03*
X104140000Y-137160000D03*
X104140000Y-139700000D03*
X104140000Y-142240000D03*
X111760000Y-142240000D03*
X111760000Y-139700000D03*
X111760000Y-137160000D03*
X111760000Y-134620000D03*
X111760000Y-132080000D03*
X111760000Y-129540000D03*
X111760000Y-127000000D03*
%TD*%
D10*
%TO.C,TP84*%
X142240000Y-107950000D03*
%TD*%
%TO.C,TP288*%
X170180000Y-133350000D03*
%TD*%
%TO.C,TP249*%
X160020000Y-115570000D03*
%TD*%
%TO.C,TP272*%
X167640000Y-125730000D03*
%TD*%
%TO.C,TP99*%
X142240000Y-115570000D03*
%TD*%
%TO.C,TP192*%
X167640000Y-85090000D03*
%TD*%
%TO.C,TP22*%
X149860000Y-74930000D03*
%TD*%
%TO.C,TP75*%
X144780000Y-102870000D03*
%TD*%
%TO.C,TP168*%
X170180000Y-72390000D03*
%TD*%
%TO.C,TP198*%
X170180000Y-87630000D03*
%TD*%
%TO.C,TP155*%
X162560000Y-67310000D03*
%TD*%
D18*
%TO.C,U3*%
X99060000Y-103448803D03*
X101600000Y-103448803D03*
X104140000Y-103448803D03*
X106680000Y-103448803D03*
X109220000Y-103448803D03*
X111760000Y-103448803D03*
D19*
X114300000Y-103448803D03*
D18*
X114300000Y-87208803D03*
X111760000Y-87208803D03*
X109220000Y-87208803D03*
X106680000Y-87208803D03*
X104140000Y-87208803D03*
X101600000Y-87208803D03*
X99060000Y-87208803D03*
D20*
X115377820Y-96518803D03*
X115377820Y-93968803D03*
D21*
X98373633Y-96520000D03*
X98373633Y-93980000D03*
X100913633Y-96520000D03*
X100913633Y-93980000D03*
%TD*%
D10*
%TO.C,TP30*%
X144780000Y-80010000D03*
%TD*%
%TO.C,TP215*%
X162560000Y-97790000D03*
%TD*%
%TO.C,TP242*%
X167640000Y-110490000D03*
%TD*%
%TO.C,TP49*%
X142240000Y-90170000D03*
%TD*%
%TO.C,TP82*%
X144780000Y-110490000D03*
%TD*%
D12*
%TO.C,R7*%
X119380000Y-128270000D03*
D13*
X127000000Y-128270000D03*
%TD*%
D10*
%TO.C,TP162*%
X167640000Y-69850000D03*
%TD*%
D22*
%TO.C,C2*%
X125730000Y-80010000D03*
X125730000Y-85010000D03*
%TD*%
D10*
%TO.C,TP26*%
X147320000Y-77470000D03*
%TD*%
%TO.C,TP88*%
X152400000Y-107950000D03*
%TD*%
%TO.C,TP5*%
X144780000Y-67310000D03*
%TD*%
%TO.C,TP18*%
X152400000Y-72390000D03*
%TD*%
%TO.C,TP36*%
X147320000Y-82550000D03*
%TD*%
%TO.C,TP171*%
X165100000Y-74930000D03*
%TD*%
%TO.C,TP76*%
X147320000Y-102870000D03*
%TD*%
%TO.C,TP156*%
X165100000Y-67310000D03*
%TD*%
%TO.C,TP252*%
X167640000Y-115570000D03*
%TD*%
%TO.C,TP185*%
X162560000Y-82550000D03*
%TD*%
%TO.C,TP234*%
X170180000Y-107950000D03*
%TD*%
%TO.C,TP229*%
X160020000Y-105399600D03*
%TD*%
%TO.C,TP184*%
X160020000Y-82550000D03*
%TD*%
%TO.C,TP1*%
X109220000Y-107950000D03*
%TD*%
D14*
%TO.C,JP5*%
X137071100Y-140970000D03*
D15*
X137071100Y-138430000D03*
X137071100Y-135890000D03*
X137071100Y-133350000D03*
X137071100Y-130810000D03*
X137071100Y-128270000D03*
X137071100Y-125730000D03*
X137071100Y-123190000D03*
X137071100Y-120650000D03*
X137071100Y-118110000D03*
X137071100Y-115570000D03*
X137071100Y-113030000D03*
X137071100Y-110490000D03*
X137071100Y-107950000D03*
X137071100Y-105410000D03*
X137071100Y-102870000D03*
X137071100Y-100330000D03*
X137071100Y-97790000D03*
X137071100Y-95250000D03*
X137071100Y-92710000D03*
X137071100Y-90170000D03*
X137071100Y-87630000D03*
X137071100Y-85090000D03*
X137071100Y-82550000D03*
X137071100Y-80010000D03*
X137071100Y-77470000D03*
X137071100Y-74930000D03*
X137071100Y-72390000D03*
X137071100Y-69850000D03*
X137071100Y-67310000D03*
%TD*%
D10*
%TO.C,TP183*%
X170180000Y-80010000D03*
%TD*%
%TO.C,TP7*%
X149860000Y-67310000D03*
%TD*%
%TO.C,TP39*%
X142240000Y-85090000D03*
%TD*%
%TO.C,TP278*%
X170180000Y-128270000D03*
%TD*%
%TO.C,TP262*%
X167640000Y-120650000D03*
%TD*%
%TO.C,TP42*%
X149860000Y-85090000D03*
%TD*%
%TO.C,TP91*%
X147320000Y-105410000D03*
%TD*%
%TO.C,TP220*%
X162560000Y-100330000D03*
%TD*%
D23*
%TO.C,J4*%
X130810000Y-82550000D03*
D24*
X130810000Y-80010000D03*
X130810000Y-77470000D03*
X130810000Y-74930000D03*
X130810000Y-72390000D03*
X130810000Y-69850000D03*
X130810000Y-67310000D03*
%TD*%
D10*
%TO.C,TP133*%
X152400000Y-133350000D03*
%TD*%
%TO.C,TP251*%
X165100000Y-115570000D03*
%TD*%
D22*
%TO.C,C1*%
X124460000Y-68580000D03*
X119460000Y-68580000D03*
%TD*%
D10*
%TO.C,TP188*%
X170180000Y-82550000D03*
%TD*%
%TO.C,TP143*%
X152400000Y-130810000D03*
%TD*%
%TO.C,TP224*%
X160020000Y-102870000D03*
%TD*%
D12*
%TO.C,R15*%
X119380000Y-140970000D03*
D13*
X127000000Y-140970000D03*
%TD*%
D10*
%TO.C,TP161*%
X165100000Y-69850000D03*
%TD*%
%TO.C,TP16*%
X144780000Y-72390000D03*
%TD*%
%TO.C,TP67*%
X149860000Y-97790000D03*
%TD*%
D16*
%TO.C,U2*%
X104140000Y-80010000D03*
D17*
X106680000Y-80010000D03*
X109220000Y-80010000D03*
X111760000Y-80010000D03*
X114300000Y-80010000D03*
X116840000Y-80010000D03*
X119380000Y-80010000D03*
X119380000Y-72390000D03*
X116840000Y-72390000D03*
X114300000Y-72390000D03*
X111760000Y-72390000D03*
X109220000Y-72390000D03*
X106680000Y-72390000D03*
X104140000Y-72390000D03*
%TD*%
D10*
%TO.C,TP231*%
X165100000Y-105399600D03*
%TD*%
%TO.C,TP181*%
X162560000Y-80010000D03*
%TD*%
%TO.C,TP275*%
X162560000Y-128270000D03*
%TD*%
%TO.C,TP254*%
X160020000Y-118110000D03*
%TD*%
%TO.C,TP73*%
X152400000Y-100330000D03*
%TD*%
%TO.C,TP257*%
X167640000Y-118110000D03*
%TD*%
%TO.C,TP218*%
X170180000Y-97790000D03*
%TD*%
%TO.C,TP196*%
X165100000Y-87630000D03*
%TD*%
%TO.C,TP96*%
X147320000Y-113030000D03*
%TD*%
%TO.C,TP253*%
X170180000Y-115570000D03*
%TD*%
%TO.C,TP33*%
X152400000Y-80010000D03*
%TD*%
%TO.C,TP124*%
X144780000Y-128270000D03*
%TD*%
%TO.C,TP233*%
X170180000Y-105399600D03*
%TD*%
D12*
%TO.C,R22*%
X106680000Y-107950000D03*
D13*
X106680000Y-115570000D03*
%TD*%
D10*
%TO.C,TP83*%
X142240000Y-110490000D03*
%TD*%
%TO.C,TP151*%
X147320000Y-140970000D03*
%TD*%
%TO.C,TP285*%
X162560000Y-133350000D03*
%TD*%
%TO.C,TP90*%
X144780000Y-105410000D03*
%TD*%
%TO.C,TP59*%
X142240000Y-95250000D03*
%TD*%
D12*
%TO.C,R14*%
X119380000Y-123190000D03*
D13*
X127000000Y-123190000D03*
%TD*%
D10*
%TO.C,TP208*%
X170180000Y-92710000D03*
%TD*%
D12*
%TO.C,R28*%
X127000000Y-77470000D03*
D13*
X127000000Y-72390000D03*
%TD*%
D10*
%TO.C,TP101*%
X147320000Y-115570000D03*
%TD*%
%TO.C,TP127*%
X149860000Y-128270000D03*
%TD*%
%TO.C,TP190*%
X162560000Y-85090000D03*
%TD*%
%TO.C,TP294*%
X160020000Y-138430000D03*
%TD*%
%TO.C,TP265*%
X170180000Y-123190000D03*
%TD*%
%TO.C,TP105*%
X144780000Y-118110000D03*
%TD*%
%TO.C,TP112*%
X149860000Y-120650000D03*
%TD*%
%TO.C,TP241*%
X165100000Y-110490000D03*
%TD*%
%TO.C,TP77*%
X149860000Y-102870000D03*
%TD*%
%TO.C,TP126*%
X147320000Y-128270000D03*
%TD*%
D12*
%TO.C,R26*%
X105410000Y-121920000D03*
D13*
X97790000Y-121920000D03*
%TD*%
D10*
%TO.C,TP11*%
X147320000Y-69850000D03*
%TD*%
%TO.C,TP235*%
X167640000Y-107950000D03*
%TD*%
%TO.C,TP268*%
X165100000Y-123190000D03*
%TD*%
%TO.C,TP135*%
X144780000Y-135890000D03*
%TD*%
%TO.C,TP32*%
X149860000Y-80010000D03*
%TD*%
%TO.C,TP108*%
X152400000Y-118110000D03*
%TD*%
%TO.C,TP255*%
X162560000Y-118110000D03*
%TD*%
%TO.C,TP138*%
X152400000Y-135890000D03*
%TD*%
%TO.C,TP244*%
X160020000Y-113030000D03*
%TD*%
%TO.C,TP139*%
X142240000Y-130810000D03*
%TD*%
%TO.C,TP206*%
X165100000Y-92710000D03*
%TD*%
%TO.C,TP15*%
X147320000Y-72390000D03*
%TD*%
D12*
%TO.C,R16*%
X119380000Y-133350000D03*
D13*
X127000000Y-133350000D03*
%TD*%
D10*
%TO.C,TP146*%
X147320000Y-138430000D03*
%TD*%
%TO.C,TP223*%
X170180000Y-100330000D03*
%TD*%
D12*
%TO.C,R5*%
X119380000Y-135890000D03*
D13*
X127000000Y-135890000D03*
%TD*%
D10*
%TO.C,TP6*%
X147320000Y-67310000D03*
%TD*%
%TO.C,TP217*%
X167640000Y-97790000D03*
%TD*%
%TO.C,TP25*%
X144780000Y-77470000D03*
%TD*%
%TO.C,TP248*%
X170180000Y-113030000D03*
%TD*%
%TO.C,TP211*%
X165100000Y-95250000D03*
%TD*%
%TO.C,TP46*%
X147320000Y-87630000D03*
%TD*%
%TO.C,TP302*%
X167640000Y-141000000D03*
%TD*%
%TO.C,TP289*%
X160020000Y-135890000D03*
%TD*%
%TO.C,TP230*%
X162560000Y-105399600D03*
%TD*%
%TO.C,TP79*%
X152400000Y-110490000D03*
%TD*%
%TO.C,TP8*%
X152400000Y-67310000D03*
%TD*%
%TO.C,TP137*%
X149860000Y-135890000D03*
%TD*%
%TO.C,TP144*%
X142240000Y-138430000D03*
%TD*%
%TO.C,TP287*%
X167640000Y-133350000D03*
%TD*%
%TO.C,TP160*%
X162560000Y-69850000D03*
%TD*%
%TO.C,TP296*%
X165100000Y-138430000D03*
%TD*%
%TO.C,TP164*%
X160020000Y-72390000D03*
%TD*%
%TO.C,TP286*%
X165100000Y-133350000D03*
%TD*%
%TO.C,TP24*%
X142240000Y-77470000D03*
%TD*%
%TO.C,TP37*%
X149860000Y-82550000D03*
%TD*%
%TO.C,TP48*%
X152400000Y-87630000D03*
%TD*%
%TO.C,TP210*%
X162560000Y-95250000D03*
%TD*%
%TO.C,TP125*%
X142240000Y-128270000D03*
%TD*%
%TO.C,TP232*%
X167640000Y-105399600D03*
%TD*%
%TO.C,TP19*%
X142240000Y-74930000D03*
%TD*%
D23*
%TO.C,J1*%
X130810000Y-123190000D03*
D24*
X130810000Y-120650000D03*
X130810000Y-118110000D03*
X130810000Y-115570000D03*
X130810000Y-113030000D03*
X130810000Y-110490000D03*
%TD*%
D10*
%TO.C,TP176*%
X165100000Y-77470000D03*
%TD*%
%TO.C,TP55*%
X144780000Y-92710000D03*
%TD*%
%TO.C,TP87*%
X149860000Y-107950000D03*
%TD*%
%TO.C,TP115*%
X144780000Y-123190000D03*
%TD*%
%TO.C,TP167*%
X167640000Y-72390000D03*
%TD*%
%TO.C,TP140*%
X144780000Y-130810000D03*
%TD*%
%TO.C,TP17*%
X149860000Y-72390000D03*
%TD*%
%TO.C,TP149*%
X142240000Y-140970000D03*
%TD*%
%TO.C,TP226*%
X165100000Y-102870000D03*
%TD*%
%TO.C,TP201*%
X165100000Y-90170000D03*
%TD*%
%TO.C,TP191*%
X165100000Y-85090000D03*
%TD*%
%TO.C,TP178*%
X170180000Y-77470000D03*
%TD*%
%TO.C,TP78*%
X152400000Y-102870000D03*
%TD*%
%TO.C,TP260*%
X162560000Y-120650000D03*
%TD*%
%TO.C,TP267*%
X162560000Y-123190000D03*
%TD*%
%TO.C,TP193*%
X170180000Y-85090000D03*
%TD*%
%TO.C,TP284*%
X160020000Y-133350000D03*
%TD*%
%TO.C,TP142*%
X149860000Y-130810000D03*
%TD*%
%TO.C,TP10*%
X144780000Y-69850000D03*
%TD*%
%TO.C,TP270*%
X162560000Y-125730000D03*
%TD*%
%TO.C,TP222*%
X167640000Y-100330000D03*
%TD*%
%TO.C,TP35*%
X144780000Y-82550000D03*
%TD*%
%TO.C,TP34*%
X142240000Y-82550000D03*
%TD*%
%TO.C,TP120*%
X144780000Y-125730000D03*
%TD*%
D12*
%TO.C,R20*%
X101600000Y-107950000D03*
D13*
X101600000Y-115570000D03*
%TD*%
D10*
%TO.C,TP103*%
X152400000Y-115570000D03*
%TD*%
%TO.C,TP186*%
X165100000Y-82550000D03*
%TD*%
%TO.C,TP122*%
X149860000Y-125730000D03*
%TD*%
%TO.C,TP173*%
X170180000Y-74930000D03*
%TD*%
%TO.C,TP200*%
X162560000Y-90170000D03*
%TD*%
%TO.C,TP68*%
X152400000Y-97790000D03*
%TD*%
D12*
%TO.C,R10*%
X100330000Y-143510000D03*
D13*
X100330000Y-135890000D03*
%TD*%
D10*
%TO.C,TP117*%
X149860000Y-123190000D03*
%TD*%
%TO.C,TP250*%
X162560000Y-115570000D03*
%TD*%
%TO.C,TP132*%
X149860000Y-133350000D03*
%TD*%
%TO.C,TP107*%
X149860000Y-118110000D03*
%TD*%
%TO.C,TP273*%
X170180000Y-125730000D03*
%TD*%
%TO.C,TP100*%
X144780000Y-115570000D03*
%TD*%
%TO.C,TP9*%
X142240000Y-69850000D03*
%TD*%
%TO.C,TP271*%
X165100000Y-125730000D03*
%TD*%
%TO.C,TP147*%
X149860000Y-138430000D03*
%TD*%
%TO.C,TP148*%
X152400000Y-138430000D03*
%TD*%
D12*
%TO.C,R13*%
X119380000Y-115570000D03*
D13*
X127000000Y-115570000D03*
%TD*%
D10*
%TO.C,TP187*%
X167640000Y-82550000D03*
%TD*%
%TO.C,TP157*%
X167640000Y-67310000D03*
%TD*%
%TO.C,TP205*%
X162560000Y-92710000D03*
%TD*%
%TO.C,TP72*%
X149860000Y-100330000D03*
%TD*%
%TO.C,TP64*%
X142240000Y-97790000D03*
%TD*%
%TO.C,TP297*%
X167640000Y-138430000D03*
%TD*%
%TO.C,TP56*%
X147320000Y-92710000D03*
%TD*%
%TO.C,TP29*%
X142240000Y-80010000D03*
%TD*%
D14*
%TO.C,JP6*%
X134531100Y-140970000D03*
D15*
X134531100Y-138430000D03*
X134531100Y-135890000D03*
X134531100Y-133350000D03*
X134531100Y-130810000D03*
X134531100Y-128270000D03*
X134531100Y-125730000D03*
X134531100Y-123190000D03*
X134531100Y-120650000D03*
X134531100Y-118110000D03*
X134531100Y-115570000D03*
X134531100Y-113030000D03*
X134531100Y-110490000D03*
X134531100Y-107950000D03*
X134531100Y-105410000D03*
X134531100Y-102870000D03*
X134531100Y-100330000D03*
X134531100Y-97790000D03*
X134531100Y-95250000D03*
X134531100Y-92710000D03*
X134531100Y-90170000D03*
X134531100Y-87630000D03*
X134531100Y-85090000D03*
X134531100Y-82550000D03*
X134531100Y-80010000D03*
X134531100Y-77470000D03*
X134531100Y-74930000D03*
X134531100Y-72390000D03*
X134531100Y-69850000D03*
X134531100Y-67310000D03*
%TD*%
D10*
%TO.C,TP291*%
X165100000Y-135890000D03*
%TD*%
%TO.C,TP170*%
X162560000Y-74930000D03*
%TD*%
%TO.C,TP150*%
X144780000Y-140970000D03*
%TD*%
%TO.C,TP71*%
X147320000Y-100330000D03*
%TD*%
D12*
%TO.C,R19*%
X99060000Y-107950000D03*
D13*
X99060000Y-115570000D03*
%TD*%
D12*
%TO.C,R3*%
X119380000Y-119380000D03*
D13*
X127000000Y-119380000D03*
%TD*%
D10*
%TO.C,TP85*%
X144780000Y-107950000D03*
%TD*%
%TO.C,TP221*%
X165100000Y-100330000D03*
%TD*%
%TO.C,TP163*%
X170180000Y-69850000D03*
%TD*%
D14*
%TO.C,JP2*%
X180251100Y-140970000D03*
D15*
X180251100Y-138430000D03*
X180251100Y-135890000D03*
X180251100Y-133350000D03*
X180251100Y-130810000D03*
X180251100Y-128270000D03*
X180251100Y-125730000D03*
X180251100Y-123190000D03*
X180251100Y-120650000D03*
X180251100Y-118110000D03*
X180251100Y-115570000D03*
X180251100Y-113030000D03*
X180251100Y-110490000D03*
X180251100Y-107950000D03*
X180251100Y-105410000D03*
X180251100Y-102870000D03*
X180251100Y-100330000D03*
X180251100Y-97790000D03*
X180251100Y-95250000D03*
X180251100Y-92710000D03*
X180251100Y-90170000D03*
X180251100Y-87630000D03*
X180251100Y-85090000D03*
X180251100Y-82550000D03*
X180251100Y-80010000D03*
X180251100Y-77470000D03*
X180251100Y-74930000D03*
X180251100Y-72390000D03*
X180251100Y-69850000D03*
X180251100Y-67310000D03*
%TD*%
D10*
%TO.C,TP3*%
X114300000Y-107950000D03*
%TD*%
%TO.C,TP131*%
X147320000Y-133350000D03*
%TD*%
%TO.C,TP51*%
X147320000Y-90170000D03*
%TD*%
%TO.C,TP197*%
X167640000Y-87630000D03*
%TD*%
D12*
%TO.C,R18*%
X128270000Y-96520000D03*
D13*
X120650000Y-96520000D03*
%TD*%
D10*
%TO.C,TP212*%
X167640000Y-95250000D03*
%TD*%
%TO.C,TP298*%
X170180000Y-138430000D03*
%TD*%
%TO.C,TP227*%
X167640000Y-102870000D03*
%TD*%
%TO.C,TP274*%
X160020000Y-128270000D03*
%TD*%
%TO.C,TP280*%
X162560000Y-130810000D03*
%TD*%
%TO.C,TP290*%
X162560000Y-135890000D03*
%TD*%
%TO.C,TP237*%
X162560000Y-107950000D03*
%TD*%
D12*
%TO.C,R12*%
X115570000Y-125730000D03*
D13*
X115570000Y-133350000D03*
%TD*%
D10*
%TO.C,TP154*%
X160020000Y-67310000D03*
%TD*%
%TO.C,TP14*%
X142240000Y-72390000D03*
%TD*%
D14*
%TO.C,JP7*%
X182791100Y-140970000D03*
D15*
X182791100Y-138430000D03*
X182791100Y-135890000D03*
X182791100Y-133350000D03*
X182791100Y-130810000D03*
X182791100Y-128270000D03*
X182791100Y-125730000D03*
X182791100Y-123190000D03*
X182791100Y-120650000D03*
X182791100Y-118110000D03*
X182791100Y-115570000D03*
X182791100Y-113030000D03*
X182791100Y-110490000D03*
X182791100Y-107950000D03*
X182791100Y-105410000D03*
X182791100Y-102870000D03*
X182791100Y-100330000D03*
X182791100Y-97790000D03*
X182791100Y-95250000D03*
X182791100Y-92710000D03*
X182791100Y-90170000D03*
X182791100Y-87630000D03*
X182791100Y-85090000D03*
X182791100Y-82550000D03*
X182791100Y-80010000D03*
X182791100Y-77470000D03*
X182791100Y-74930000D03*
X182791100Y-72390000D03*
X182791100Y-69850000D03*
X182791100Y-67310000D03*
%TD*%
D10*
%TO.C,TP92*%
X149860000Y-105410000D03*
%TD*%
%TO.C,TP303*%
X170180000Y-140970000D03*
%TD*%
%TO.C,TP23*%
X152400000Y-74930000D03*
%TD*%
%TO.C,TP166*%
X165100000Y-72390000D03*
%TD*%
%TO.C,TP43*%
X152400000Y-85090000D03*
%TD*%
D23*
%TO.C,J2*%
X130810000Y-140970000D03*
D24*
X130810000Y-138430000D03*
X130810000Y-135890000D03*
X130810000Y-133350000D03*
X130810000Y-130810000D03*
X130810000Y-128270000D03*
%TD*%
D10*
%TO.C,TP121*%
X147320000Y-125730000D03*
%TD*%
%TO.C,TP180*%
X160020000Y-80010000D03*
%TD*%
%TO.C,TP295*%
X162560000Y-138430000D03*
%TD*%
%TO.C,TP13*%
X152400000Y-69850000D03*
%TD*%
%TO.C,TP258*%
X170180000Y-118110000D03*
%TD*%
%TO.C,TP50*%
X144780000Y-90170000D03*
%TD*%
%TO.C,TP38*%
X152400000Y-82550000D03*
%TD*%
%TO.C,TP109*%
X142240000Y-120650000D03*
%TD*%
%TO.C,TP247*%
X167640000Y-113030000D03*
%TD*%
%TO.C,TP74*%
X142240000Y-102870000D03*
%TD*%
%TO.C,TP119*%
X142240000Y-125730000D03*
%TD*%
%TO.C,TP21*%
X147320000Y-74930000D03*
%TD*%
%TO.C,TP245*%
X162560000Y-113030000D03*
%TD*%
%TO.C,TP2*%
X111760000Y-107950000D03*
%TD*%
D12*
%TO.C,R24*%
X115570000Y-146050000D03*
D13*
X123190000Y-146050000D03*
%TD*%
D12*
%TO.C,R23*%
X111760000Y-121920000D03*
D13*
X111760000Y-114300000D03*
%TD*%
D10*
%TO.C,TP169*%
X160020000Y-74930000D03*
%TD*%
%TO.C,TP66*%
X147320000Y-97790000D03*
%TD*%
%TO.C,TP301*%
X165100000Y-140970000D03*
%TD*%
%TO.C,TP94*%
X142240000Y-113030000D03*
%TD*%
%TO.C,TP102*%
X149860000Y-115570000D03*
%TD*%
%TO.C,TP95*%
X144780000Y-113030000D03*
%TD*%
%TO.C,TP4*%
X142240000Y-67310000D03*
%TD*%
%TO.C,TP69*%
X142240000Y-100330000D03*
%TD*%
%TO.C,TP57*%
X149860000Y-92710000D03*
%TD*%
%TO.C,TP266*%
X160020000Y-123190000D03*
%TD*%
%TO.C,TP225*%
X162560000Y-102870000D03*
%TD*%
D14*
%TO.C,JP9*%
X139611100Y-140970000D03*
D15*
X139611100Y-138430000D03*
X139611100Y-135890000D03*
X139611100Y-133350000D03*
X139611100Y-130810000D03*
X139611100Y-128270000D03*
X139611100Y-125730000D03*
X139611100Y-123190000D03*
X139611100Y-120650000D03*
X139611100Y-118110000D03*
X139611100Y-115570000D03*
X139611100Y-113030000D03*
X139611100Y-110490000D03*
X139611100Y-107950000D03*
X139611100Y-105410000D03*
X139611100Y-102870000D03*
X139611100Y-100330000D03*
X139611100Y-97790000D03*
X139611100Y-95250000D03*
X139611100Y-92710000D03*
X139611100Y-90170000D03*
X139611100Y-87630000D03*
X139611100Y-85090000D03*
X139611100Y-82550000D03*
X139611100Y-80010000D03*
X139611100Y-77470000D03*
X139611100Y-74930000D03*
X139611100Y-72390000D03*
X139611100Y-69850000D03*
X139611100Y-67310000D03*
%TD*%
D10*
%TO.C,TP172*%
X167640000Y-74930000D03*
%TD*%
%TO.C,TP282*%
X167640000Y-130810000D03*
%TD*%
%TO.C,TP136*%
X147320000Y-135890000D03*
%TD*%
%TO.C,TP28*%
X152400000Y-77470000D03*
%TD*%
%TO.C,TP110*%
X144780000Y-120650000D03*
%TD*%
D12*
%TO.C,R25*%
X101600000Y-146050000D03*
D13*
X109220000Y-146050000D03*
%TD*%
D12*
%TO.C,R9*%
X100330000Y-125730000D03*
D13*
X100330000Y-133350000D03*
%TD*%
D10*
%TO.C,TP300*%
X162560000Y-140970000D03*
%TD*%
%TO.C,TP20*%
X144780000Y-74930000D03*
%TD*%
%TO.C,TP207*%
X167640000Y-92710000D03*
%TD*%
%TO.C,TP277*%
X167640000Y-128270000D03*
%TD*%
%TO.C,TP239*%
X160020000Y-110490000D03*
%TD*%
%TO.C,TP203*%
X170180000Y-90170000D03*
%TD*%
%TO.C,TP219*%
X160020000Y-100330000D03*
%TD*%
D12*
%TO.C,R11*%
X115570000Y-143510000D03*
D13*
X115570000Y-135890000D03*
%TD*%
D10*
%TO.C,TP177*%
X167640000Y-77470000D03*
%TD*%
%TO.C,TP182*%
X167640000Y-80010000D03*
%TD*%
%TO.C,TP299*%
X160020000Y-140970000D03*
%TD*%
%TO.C,TP114*%
X142240000Y-123190000D03*
%TD*%
%TO.C,TP89*%
X142240000Y-105410000D03*
%TD*%
D12*
%TO.C,R17*%
X119380000Y-109220000D03*
D13*
X127000000Y-109220000D03*
%TD*%
D10*
%TO.C,TP153*%
X152400000Y-140970000D03*
%TD*%
%TO.C,TP216*%
X165100000Y-97790000D03*
%TD*%
%TO.C,TP141*%
X147320000Y-130810000D03*
%TD*%
%TO.C,TP213*%
X170180000Y-95250000D03*
%TD*%
%TO.C,TP63*%
X152400000Y-95250000D03*
%TD*%
%TO.C,TP113*%
X152400000Y-120650000D03*
%TD*%
%TO.C,TP128*%
X152400000Y-128270000D03*
%TD*%
%TO.C,TP40*%
X144780000Y-85090000D03*
%TD*%
%TO.C,TP269*%
X160020000Y-125730000D03*
%TD*%
D12*
%TO.C,R27*%
X127000000Y-69850000D03*
D13*
X127000000Y-64770000D03*
%TD*%
D10*
%TO.C,TP60*%
X144780000Y-95250000D03*
%TD*%
D12*
%TO.C,R1*%
X119380000Y-111760000D03*
D13*
X127000000Y-111760000D03*
%TD*%
D10*
%TO.C,TP70*%
X144780000Y-100330000D03*
%TD*%
%TO.C,TP165*%
X162560000Y-72390000D03*
%TD*%
%TO.C,TP243*%
X170180000Y-110490000D03*
%TD*%
%TO.C,TP194*%
X160020000Y-87630000D03*
%TD*%
%TO.C,TP179*%
X165100000Y-80010000D03*
%TD*%
%TO.C,TP189*%
X160020000Y-85090000D03*
%TD*%
%TO.C,TP98*%
X152400000Y-113030000D03*
%TD*%
%TO.C,TP41*%
X147320000Y-85090000D03*
%TD*%
%TO.C,TP263*%
X170180000Y-120650000D03*
%TD*%
M02*
