%TF.GenerationSoftware,KiCad,Pcbnew,7.0.7*%
%TF.CreationDate,2024-05-24T10:23:49-04:00*%
%TF.ProjectId,xiao_Breadboard_r1,7869616f-5f42-4726-9561-64626f617264,rev?*%
%TF.SameCoordinates,Original*%
%TF.FileFunction,Copper,L1,Top*%
%TF.FilePolarity,Positive*%
%FSLAX46Y46*%
G04 Gerber Fmt 4.6, Leading zero omitted, Abs format (unit mm)*
G04 Created by KiCad (PCBNEW 7.0.7) date 2024-05-24 10:23:49*
%MOMM*%
%LPD*%
G01*
G04 APERTURE LIST*
G04 Aperture macros list*
%AMRoundRect*
0 Rectangle with rounded corners*
0 $1 Rounding radius*
0 $2 $3 $4 $5 $6 $7 $8 $9 X,Y pos of 4 corners*
0 Add a 4 corners polygon primitive as box body*
4,1,4,$2,$3,$4,$5,$6,$7,$8,$9,$2,$3,0*
0 Add four circle primitives for the rounded corners*
1,1,$1+$1,$2,$3*
1,1,$1+$1,$4,$5*
1,1,$1+$1,$6,$7*
1,1,$1+$1,$8,$9*
0 Add four rect primitives between the rounded corners*
20,1,$1+$1,$2,$3,$4,$5,0*
20,1,$1+$1,$4,$5,$6,$7,0*
20,1,$1+$1,$6,$7,$8,$9,0*
20,1,$1+$1,$8,$9,$2,$3,0*%
G04 Aperture macros list end*
%TA.AperFunction,ComponentPad*%
%ADD10C,1.500000*%
%TD*%
%TA.AperFunction,ComponentPad*%
%ADD11C,1.440000*%
%TD*%
%TA.AperFunction,ComponentPad*%
%ADD12C,1.400000*%
%TD*%
%TA.AperFunction,ComponentPad*%
%ADD13O,1.400000X1.400000*%
%TD*%
%TA.AperFunction,ComponentPad*%
%ADD14R,1.879600X1.879600*%
%TD*%
%TA.AperFunction,ComponentPad*%
%ADD15C,1.879600*%
%TD*%
%TA.AperFunction,ComponentPad*%
%ADD16R,1.600000X1.600000*%
%TD*%
%TA.AperFunction,ComponentPad*%
%ADD17O,1.600000X1.600000*%
%TD*%
%TA.AperFunction,ComponentPad*%
%ADD18RoundRect,0.425000X0.425000X-0.925000X0.425000X0.925000X-0.425000X0.925000X-0.425000X-0.925000X0*%
%TD*%
%TA.AperFunction,ComponentPad*%
%ADD19RoundRect,0.400000X0.400000X-0.950000X0.400000X0.950000X-0.400000X0.950000X-0.400000X-0.950000X0*%
%TD*%
%TA.AperFunction,SMDPad,CuDef*%
%ADD20O,2.032000X1.016000*%
%TD*%
%TA.AperFunction,SMDPad,CuDef*%
%ADD21C,1.143000*%
%TD*%
%TA.AperFunction,ComponentPad*%
%ADD22C,1.600000*%
%TD*%
%TA.AperFunction,ComponentPad*%
%ADD23R,1.700000X1.700000*%
%TD*%
%TA.AperFunction,ComponentPad*%
%ADD24O,1.700000X1.700000*%
%TD*%
%TA.AperFunction,ViaPad*%
%ADD25C,1.879600*%
%TD*%
%TA.AperFunction,Conductor*%
%ADD26C,0.812800*%
%TD*%
%TA.AperFunction,Conductor*%
%ADD27C,0.406400*%
%TD*%
%TA.AperFunction,Conductor*%
%ADD28C,0.203200*%
%TD*%
%TA.AperFunction,Conductor*%
%ADD29C,0.609600*%
%TD*%
G04 APERTURE END LIST*
D10*
%TO.P,TP393,1,1*%
%TO.N,Net-(TP391-Pad1)*%
X172720000Y-140970000D03*
%TD*%
%TO.P,TP392,1,1*%
%TO.N,Net-(TP391-Pad1)*%
X175260000Y-140970000D03*
%TD*%
%TO.P,TP391,1,1*%
%TO.N,Net-(TP391-Pad1)*%
X177800000Y-140970000D03*
%TD*%
%TO.P,TP390,1,1*%
%TO.N,Net-(TP388-Pad1)*%
X177800000Y-138430000D03*
%TD*%
%TO.P,TP389,1,1*%
%TO.N,Net-(TP388-Pad1)*%
X175260000Y-138430000D03*
%TD*%
%TO.P,TP388,1,1*%
%TO.N,Net-(TP388-Pad1)*%
X172720000Y-138430000D03*
%TD*%
%TO.P,TP387,1,1*%
%TO.N,Net-(TP385-Pad1)*%
X177800000Y-135890000D03*
%TD*%
%TO.P,TP386,1,1*%
%TO.N,Net-(TP385-Pad1)*%
X175260000Y-135890000D03*
%TD*%
%TO.P,TP385,1,1*%
%TO.N,Net-(TP385-Pad1)*%
X172720000Y-135890000D03*
%TD*%
%TO.P,TP384,1,1*%
%TO.N,Net-(TP382-Pad1)*%
X177800000Y-133350000D03*
%TD*%
%TO.P,TP383,1,1*%
%TO.N,Net-(TP382-Pad1)*%
X175260000Y-133350000D03*
%TD*%
%TO.P,TP382,1,1*%
%TO.N,Net-(TP382-Pad1)*%
X172720000Y-133350000D03*
%TD*%
%TO.P,TP381,1,1*%
%TO.N,Net-(TP379-Pad1)*%
X177800000Y-130810000D03*
%TD*%
%TO.P,TP380,1,1*%
%TO.N,Net-(TP379-Pad1)*%
X175260000Y-130810000D03*
%TD*%
%TO.P,TP379,1,1*%
%TO.N,Net-(TP379-Pad1)*%
X172720000Y-130810000D03*
%TD*%
%TO.P,TP378,1,1*%
%TO.N,Net-(TP376-Pad1)*%
X177800000Y-128270000D03*
%TD*%
%TO.P,TP377,1,1*%
%TO.N,Net-(TP376-Pad1)*%
X175260000Y-128270000D03*
%TD*%
%TO.P,TP376,1,1*%
%TO.N,Net-(TP376-Pad1)*%
X172720000Y-128270000D03*
%TD*%
%TO.P,TP375,1,1*%
%TO.N,Net-(TP373-Pad1)*%
X177800000Y-125730000D03*
%TD*%
%TO.P,TP374,1,1*%
%TO.N,Net-(TP373-Pad1)*%
X175260000Y-125730000D03*
%TD*%
%TO.P,TP373,1,1*%
%TO.N,Net-(TP373-Pad1)*%
X172720000Y-125730000D03*
%TD*%
%TO.P,TP372,1,1*%
%TO.N,Net-(TP370-Pad1)*%
X177800000Y-123190000D03*
%TD*%
%TO.P,TP371,1,1*%
%TO.N,Net-(TP370-Pad1)*%
X175260000Y-123190000D03*
%TD*%
%TO.P,TP370,1,1*%
%TO.N,Net-(TP370-Pad1)*%
X172720000Y-123190000D03*
%TD*%
%TO.P,TP369,1,1*%
%TO.N,Net-(TP367-Pad1)*%
X177800000Y-120650000D03*
%TD*%
%TO.P,TP368,1,1*%
%TO.N,Net-(TP367-Pad1)*%
X175260000Y-120650000D03*
%TD*%
%TO.P,TP367,1,1*%
%TO.N,Net-(TP367-Pad1)*%
X172720000Y-120650000D03*
%TD*%
%TO.P,TP366,1,1*%
%TO.N,Net-(TP364-Pad1)*%
X177800000Y-118110000D03*
%TD*%
%TO.P,TP365,1,1*%
%TO.N,Net-(TP364-Pad1)*%
X175260000Y-118110000D03*
%TD*%
%TO.P,TP364,1,1*%
%TO.N,Net-(TP364-Pad1)*%
X172720000Y-118110000D03*
%TD*%
%TO.P,TP363,1,1*%
%TO.N,Net-(TP361-Pad1)*%
X177800000Y-115570000D03*
%TD*%
%TO.P,TP362,1,1*%
%TO.N,Net-(TP361-Pad1)*%
X175260000Y-115570000D03*
%TD*%
%TO.P,TP361,1,1*%
%TO.N,Net-(TP361-Pad1)*%
X172720000Y-115570000D03*
%TD*%
%TO.P,TP360,1,1*%
%TO.N,Net-(TP358-Pad1)*%
X177800000Y-113030000D03*
%TD*%
%TO.P,TP359,1,1*%
%TO.N,Net-(TP358-Pad1)*%
X175260000Y-113030000D03*
%TD*%
%TO.P,TP358,1,1*%
%TO.N,Net-(TP358-Pad1)*%
X172720000Y-113030000D03*
%TD*%
%TO.P,TP357,1,1*%
%TO.N,Net-(TP355-Pad1)*%
X177800000Y-110490000D03*
%TD*%
%TO.P,TP356,1,1*%
%TO.N,Net-(TP355-Pad1)*%
X175260000Y-110490000D03*
%TD*%
%TO.P,TP355,1,1*%
%TO.N,Net-(TP355-Pad1)*%
X172720000Y-110490000D03*
%TD*%
%TO.P,TP354,1,1*%
%TO.N,Net-(TP352-Pad1)*%
X177800000Y-107950000D03*
%TD*%
%TO.P,TP353,1,1*%
%TO.N,Net-(TP352-Pad1)*%
X175260000Y-107950000D03*
%TD*%
%TO.P,TP352,1,1*%
%TO.N,Net-(TP352-Pad1)*%
X172720000Y-107950000D03*
%TD*%
%TO.P,TP351,1,1*%
%TO.N,Net-(TP349-Pad1)*%
X177800000Y-105410000D03*
%TD*%
%TO.P,TP350,1,1*%
%TO.N,Net-(TP349-Pad1)*%
X175260000Y-105410000D03*
%TD*%
%TO.P,TP349,1,1*%
%TO.N,Net-(TP349-Pad1)*%
X172720000Y-105410000D03*
%TD*%
%TO.P,TP348,1,1*%
%TO.N,Net-(TP317-Pad1)*%
X175260000Y-80010000D03*
%TD*%
%TO.P,TP347,1,1*%
%TO.N,Net-(TP317-Pad1)*%
X177800000Y-80010000D03*
%TD*%
%TO.P,TP346,1,1*%
%TO.N,Net-(TP344-Pad1)*%
X177800000Y-102870000D03*
%TD*%
%TO.P,TP345,1,1*%
%TO.N,Net-(TP344-Pad1)*%
X175260000Y-102870000D03*
%TD*%
%TO.P,TP344,1,1*%
%TO.N,Net-(TP344-Pad1)*%
X172720000Y-102870000D03*
%TD*%
%TO.P,TP343,1,1*%
%TO.N,Net-(TP341-Pad1)*%
X177800000Y-100330000D03*
%TD*%
%TO.P,TP342,1,1*%
%TO.N,Net-(TP341-Pad1)*%
X175260000Y-100330000D03*
%TD*%
%TO.P,TP341,1,1*%
%TO.N,Net-(TP341-Pad1)*%
X172720000Y-100330000D03*
%TD*%
%TO.P,TP340,1,1*%
%TO.N,Net-(TP338-Pad1)*%
X177800000Y-97790000D03*
%TD*%
%TO.P,TP339,1,1*%
%TO.N,Net-(TP338-Pad1)*%
X175260000Y-97790000D03*
%TD*%
%TO.P,TP338,1,1*%
%TO.N,Net-(TP338-Pad1)*%
X172720000Y-97790000D03*
%TD*%
%TO.P,TP337,1,1*%
%TO.N,Net-(TP335-Pad1)*%
X177800000Y-95250000D03*
%TD*%
%TO.P,TP336,1,1*%
%TO.N,Net-(TP335-Pad1)*%
X175260000Y-95250000D03*
%TD*%
%TO.P,TP335,1,1*%
%TO.N,Net-(TP335-Pad1)*%
X172720000Y-95250000D03*
%TD*%
%TO.P,TP334,1,1*%
%TO.N,Net-(TP307-Pad1)*%
X177800000Y-69850000D03*
%TD*%
%TO.P,TP333,1,1*%
%TO.N,Net-(TP307-Pad1)*%
X175260000Y-69850000D03*
%TD*%
%TO.P,TP332,1,1*%
%TO.N,Net-(TP330-Pad1)*%
X177800000Y-92710000D03*
%TD*%
%TO.P,TP331,1,1*%
%TO.N,Net-(TP330-Pad1)*%
X175260000Y-92710000D03*
%TD*%
%TO.P,TP330,1,1*%
%TO.N,Net-(TP330-Pad1)*%
X172720000Y-92710000D03*
%TD*%
%TO.P,TP329,1,1*%
%TO.N,Net-(TP327-Pad1)*%
X177800000Y-90170000D03*
%TD*%
%TO.P,TP328,1,1*%
%TO.N,Net-(TP327-Pad1)*%
X175260000Y-90170000D03*
%TD*%
%TO.P,TP327,1,1*%
%TO.N,Net-(TP327-Pad1)*%
X172720000Y-90170000D03*
%TD*%
%TO.P,TP326,1,1*%
%TO.N,Net-(TP324-Pad1)*%
X177800000Y-87630000D03*
%TD*%
%TO.P,TP325,1,1*%
%TO.N,Net-(TP324-Pad1)*%
X175260000Y-87630000D03*
%TD*%
%TO.P,TP324,1,1*%
%TO.N,Net-(TP324-Pad1)*%
X172720000Y-87630000D03*
%TD*%
%TO.P,TP323,1,1*%
%TO.N,Net-(TP321-Pad1)*%
X177800000Y-85090000D03*
%TD*%
%TO.P,TP322,1,1*%
%TO.N,Net-(TP321-Pad1)*%
X175260000Y-85090000D03*
%TD*%
%TO.P,TP321,1,1*%
%TO.N,Net-(TP321-Pad1)*%
X172720000Y-85090000D03*
%TD*%
%TO.P,TP320,1,1*%
%TO.N,Net-(TP318-Pad1)*%
X177800000Y-82550000D03*
%TD*%
%TO.P,TP319,1,1*%
%TO.N,Net-(TP318-Pad1)*%
X175260000Y-82550000D03*
%TD*%
%TO.P,TP318,1,1*%
%TO.N,Net-(TP318-Pad1)*%
X172720000Y-82550000D03*
%TD*%
%TO.P,TP317,1,1*%
%TO.N,Net-(TP317-Pad1)*%
X172720000Y-80010000D03*
%TD*%
%TO.P,TP316,1,1*%
%TO.N,Net-(TP314-Pad1)*%
X177800000Y-77470000D03*
%TD*%
%TO.P,TP315,1,1*%
%TO.N,Net-(TP314-Pad1)*%
X175260000Y-77470000D03*
%TD*%
%TO.P,TP314,1,1*%
%TO.N,Net-(TP314-Pad1)*%
X172720000Y-77470000D03*
%TD*%
%TO.P,TP313,1,1*%
%TO.N,Net-(TP311-Pad1)*%
X177800000Y-74930000D03*
%TD*%
%TO.P,TP312,1,1*%
%TO.N,Net-(TP311-Pad1)*%
X175260000Y-74930000D03*
%TD*%
%TO.P,TP311,1,1*%
%TO.N,Net-(TP311-Pad1)*%
X172720000Y-74930000D03*
%TD*%
%TO.P,TP310,1,1*%
%TO.N,Net-(TP308-Pad1)*%
X177800000Y-72390000D03*
%TD*%
%TO.P,TP309,1,1*%
%TO.N,Net-(TP308-Pad1)*%
X175260000Y-72390000D03*
%TD*%
%TO.P,TP308,1,1*%
%TO.N,Net-(TP308-Pad1)*%
X172720000Y-72390000D03*
%TD*%
%TO.P,TP307,1,1*%
%TO.N,Net-(TP307-Pad1)*%
X172720000Y-69850000D03*
%TD*%
%TO.P,TP306,1,1*%
%TO.N,Net-(TP304-Pad1)*%
X177800000Y-67310000D03*
%TD*%
%TO.P,TP305,1,1*%
%TO.N,Net-(TP304-Pad1)*%
X175260000Y-67310000D03*
%TD*%
%TO.P,TP304,1,1*%
%TO.N,Net-(TP304-Pad1)*%
X172720000Y-67310000D03*
%TD*%
%TO.P,TP204,1,1*%
%TO.N,Net-(TP204-Pad1)*%
X160020000Y-92710000D03*
%TD*%
%TO.P,TP31,1,1*%
%TO.N,Net-(TP29-Pad1)*%
X147320000Y-80010000D03*
%TD*%
%TO.P,TP53,1,1*%
%TO.N,Net-(TP49-Pad1)*%
X152400000Y-90170000D03*
%TD*%
%TO.P,TP104,1,1*%
%TO.N,Net-(TP104-Pad1)*%
X142240000Y-118110000D03*
%TD*%
%TO.P,TP195,1,1*%
%TO.N,Net-(TP194-Pad1)*%
X162560000Y-87630000D03*
%TD*%
%TO.P,TP93,1,1*%
%TO.N,Net-(TP89-Pad1)*%
X152400000Y-105410000D03*
%TD*%
%TO.P,TP106,1,1*%
%TO.N,Net-(TP104-Pad1)*%
X147320000Y-118110000D03*
%TD*%
%TO.P,TP259,1,1*%
%TO.N,Net-(TP259-Pad1)*%
X160020000Y-120650000D03*
%TD*%
%TO.P,TP152,1,1*%
%TO.N,Net-(TP149-Pad1)*%
X149860000Y-140970000D03*
%TD*%
%TO.P,TP27,1,1*%
%TO.N,Net-(TP24-Pad1)*%
X149860000Y-77470000D03*
%TD*%
D11*
%TO.P,RV1,1,1*%
%TO.N,/3.3V*%
X121920000Y-105410000D03*
%TO.P,RV1,2,2*%
%TO.N,/VCM*%
X127000000Y-102870000D03*
%TO.P,RV1,3,3*%
%TO.N,GND*%
X121920000Y-100330000D03*
%TD*%
D10*
%TO.P,TP214,1,1*%
%TO.N,Net-(TP214-Pad1)*%
X160020000Y-97790000D03*
%TD*%
%TO.P,TP276,1,1*%
%TO.N,Net-(TP274-Pad1)*%
X165100000Y-128270000D03*
%TD*%
%TO.P,TP130,1,1*%
%TO.N,Net-(TP129-Pad1)*%
X144780000Y-133350000D03*
%TD*%
%TO.P,TP52,1,1*%
%TO.N,Net-(TP49-Pad1)*%
X149860000Y-90170000D03*
%TD*%
%TO.P,TP279,1,1*%
%TO.N,Net-(TP279-Pad1)*%
X160020000Y-130810000D03*
%TD*%
%TO.P,TP12,1,1*%
%TO.N,Net-(TP10-Pad1)*%
X149860000Y-69850000D03*
%TD*%
%TO.P,TP236,1,1*%
%TO.N,Net-(TP234-Pad1)*%
X165100000Y-107950000D03*
%TD*%
%TO.P,TP292,1,1*%
%TO.N,Net-(TP289-Pad1)*%
X167640000Y-135890000D03*
%TD*%
%TO.P,TP47,1,1*%
%TO.N,Net-(TP44-Pad1)*%
X149860000Y-87630000D03*
%TD*%
%TO.P,TP123,1,1*%
%TO.N,Net-(TP119-Pad1)*%
X152400000Y-125730000D03*
%TD*%
%TO.P,TP240,1,1*%
%TO.N,Net-(TP239-Pad1)*%
X162560000Y-110490000D03*
%TD*%
%TO.P,TP61,1,1*%
%TO.N,Net-(TP59-Pad1)*%
X147320000Y-95250000D03*
%TD*%
%TO.P,TP145,1,1*%
%TO.N,Net-(TP144-Pad1)*%
X144780000Y-138430000D03*
%TD*%
%TO.P,TP58,1,1*%
%TO.N,Net-(TP54-Pad1)*%
X152400000Y-92710000D03*
%TD*%
%TO.P,TP175,1,1*%
%TO.N,Net-(TP174-Pad1)*%
X162560000Y-77470000D03*
%TD*%
%TO.P,TP264,1,1*%
%TO.N,Net-(TP264-Pad1)*%
X167640000Y-123190000D03*
%TD*%
%TO.P,TP54,1,1*%
%TO.N,Net-(TP54-Pad1)*%
X142240000Y-92710000D03*
%TD*%
%TO.P,TP246,1,1*%
%TO.N,Net-(TP244-Pad1)*%
X165100000Y-113030000D03*
%TD*%
%TO.P,TP261,1,1*%
%TO.N,Net-(TP259-Pad1)*%
X165100000Y-120650000D03*
%TD*%
%TO.P,TP44,1,1*%
%TO.N,Net-(TP44-Pad1)*%
X142240000Y-87630000D03*
%TD*%
%TO.P,TP86,1,1*%
%TO.N,Net-(TP84-Pad1)*%
X147320000Y-107950000D03*
%TD*%
%TO.P,TP111,1,1*%
%TO.N,Net-(TP109-Pad1)*%
X147320000Y-120650000D03*
%TD*%
%TO.P,TP129,1,1*%
%TO.N,Net-(TP129-Pad1)*%
X142240000Y-133350000D03*
%TD*%
%TO.P,TP97,1,1*%
%TO.N,Net-(TP94-Pad1)*%
X149860000Y-113030000D03*
%TD*%
%TO.P,TP80,1,1*%
%TO.N,Net-(TP79-Pad1)*%
X149860000Y-110490000D03*
%TD*%
%TO.P,TP281,1,1*%
%TO.N,Net-(TP279-Pad1)*%
X165100000Y-130810000D03*
%TD*%
%TO.P,TP65,1,1*%
%TO.N,Net-(TP64-Pad1)*%
X144780000Y-97790000D03*
%TD*%
%TO.P,TP174,1,1*%
%TO.N,Net-(TP174-Pad1)*%
X160020000Y-77470000D03*
%TD*%
%TO.P,TP45,1,1*%
%TO.N,Net-(TP44-Pad1)*%
X144780000Y-87630000D03*
%TD*%
%TO.P,TP199,1,1*%
%TO.N,Net-(TP199-Pad1)*%
X160020000Y-90170000D03*
%TD*%
%TO.P,TP134,1,1*%
%TO.N,Net-(TP134-Pad1)*%
X142240000Y-135890000D03*
%TD*%
%TO.P,TP62,1,1*%
%TO.N,Net-(TP59-Pad1)*%
X149860000Y-95250000D03*
%TD*%
D12*
%TO.P,R21,1*%
%TO.N,Net-(U3-PA10_A2_D2)*%
X104140000Y-107950000D03*
D13*
%TO.P,R21,2*%
%TO.N,Net-(R11-Pad1)*%
X104140000Y-115570000D03*
%TD*%
D10*
%TO.P,TP159,1,1*%
%TO.N,Net-(TP159-Pad1)*%
X160020000Y-69850000D03*
%TD*%
%TO.P,TP158,1,1*%
%TO.N,Net-(TP154-Pad1)*%
X170180000Y-67310000D03*
%TD*%
%TO.P,TP202,1,1*%
%TO.N,Net-(TP199-Pad1)*%
X167640000Y-90170000D03*
%TD*%
%TO.P,TP283,1,1*%
%TO.N,Net-(TP279-Pad1)*%
X170180000Y-130810000D03*
%TD*%
%TO.P,TP209,1,1*%
%TO.N,Net-(TP209-Pad1)*%
X160020000Y-95250000D03*
%TD*%
%TO.P,TP238,1,1*%
%TO.N,Net-(TP234-Pad1)*%
X160020000Y-107950000D03*
%TD*%
%TO.P,TP256,1,1*%
%TO.N,Net-(TP254-Pad1)*%
X165100000Y-118110000D03*
%TD*%
%TO.P,TP293,1,1*%
%TO.N,Net-(TP289-Pad1)*%
X170180000Y-135890000D03*
%TD*%
%TO.P,TP116,1,1*%
%TO.N,Net-(TP114-Pad1)*%
X147320000Y-123190000D03*
%TD*%
%TO.P,TP228,1,1*%
%TO.N,Net-(TP224-Pad1)*%
X170180000Y-102870000D03*
%TD*%
%TO.P,TP81,1,1*%
%TO.N,Net-(TP79-Pad1)*%
X147320000Y-110490000D03*
%TD*%
D14*
%TO.P,JP8,1,1*%
%TO.N,5V*%
X185331100Y-140970000D03*
D15*
%TO.P,JP8,2,2*%
X185331100Y-138430000D03*
%TO.P,JP8,3,3*%
X185331100Y-135890000D03*
%TO.P,JP8,4,4*%
X185331100Y-133350000D03*
%TO.P,JP8,5,5*%
X185331100Y-130810000D03*
%TO.P,JP8,6,6*%
X185331100Y-128270000D03*
%TO.P,JP8,7,7*%
X185331100Y-125730000D03*
%TO.P,JP8,8,8*%
X185331100Y-123190000D03*
%TO.P,JP8,9,9*%
X185331100Y-120650000D03*
%TO.P,JP8,10,10*%
X185331100Y-118110000D03*
%TO.P,JP8,11,11*%
X185331100Y-115570000D03*
%TO.P,JP8,12,12*%
X185331100Y-113030000D03*
%TO.P,JP8,13,13*%
X185331100Y-110490000D03*
%TO.P,JP8,14,14*%
X185331100Y-107950000D03*
%TO.P,JP8,15,15*%
X185331100Y-105410000D03*
%TO.P,JP8,16,16*%
X185331100Y-102870000D03*
%TO.P,JP8,17,17*%
X185331100Y-100330000D03*
%TO.P,JP8,18,18*%
X185331100Y-97790000D03*
%TO.P,JP8,19,19*%
X185331100Y-95250000D03*
%TO.P,JP8,20,20*%
X185331100Y-92710000D03*
%TO.P,JP8,21,21*%
X185331100Y-90170000D03*
%TO.P,JP8,22,22*%
X185331100Y-87630000D03*
%TO.P,JP8,23,23*%
X185331100Y-85090000D03*
%TO.P,JP8,24,24*%
X185331100Y-82550000D03*
%TO.P,JP8,25,25*%
X185331100Y-80010000D03*
%TO.P,JP8,26,26*%
X185331100Y-77470000D03*
%TO.P,JP8,27,27*%
X185331100Y-74930000D03*
%TO.P,JP8,28,28*%
X185331100Y-72390000D03*
%TO.P,JP8,29,29*%
X185331100Y-69850000D03*
%TO.P,JP8,30,30*%
X185331100Y-67310000D03*
%TD*%
D10*
%TO.P,TP118,1,1*%
%TO.N,Net-(TP114-Pad1)*%
X152400000Y-123190000D03*
%TD*%
D16*
%TO.P,U1,1*%
%TO.N,Net-(R19-Pad2)*%
X104140000Y-127000000D03*
D17*
%TO.P,U1,2,-*%
%TO.N,Net-(U1A--)*%
X104140000Y-129540000D03*
%TO.P,U1,3,+*%
%TO.N,Net-(U1A-+)*%
X104140000Y-132080000D03*
%TO.P,U1,4,V+*%
%TO.N,5V*%
X104140000Y-134620000D03*
%TO.P,U1,5,+*%
%TO.N,Net-(U1B-+)*%
X104140000Y-137160000D03*
%TO.P,U1,6,-*%
%TO.N,Net-(U1B--)*%
X104140000Y-139700000D03*
%TO.P,U1,7*%
%TO.N,Net-(R10-Pad1)*%
X104140000Y-142240000D03*
%TO.P,U1,8*%
%TO.N,Net-(R11-Pad1)*%
X111760000Y-142240000D03*
%TO.P,U1,9,-*%
%TO.N,Net-(U1C--)*%
X111760000Y-139700000D03*
%TO.P,U1,10,+*%
%TO.N,Net-(U1C-+)*%
X111760000Y-137160000D03*
%TO.P,U1,11,V-*%
%TO.N,GND*%
X111760000Y-134620000D03*
%TO.P,U1,12,+*%
%TO.N,Net-(U1D-+)*%
X111760000Y-132080000D03*
%TO.P,U1,13,-*%
%TO.N,Net-(U1D--)*%
X111760000Y-129540000D03*
%TO.P,U1,14*%
%TO.N,Net-(R12-Pad1)*%
X111760000Y-127000000D03*
%TD*%
D10*
%TO.P,TP84,1,1*%
%TO.N,Net-(TP84-Pad1)*%
X142240000Y-107950000D03*
%TD*%
%TO.P,TP288,1,1*%
%TO.N,Net-(TP284-Pad1)*%
X170180000Y-133350000D03*
%TD*%
%TO.P,TP249,1,1*%
%TO.N,Net-(TP249-Pad1)*%
X160020000Y-115570000D03*
%TD*%
%TO.P,TP272,1,1*%
%TO.N,Net-(TP269-Pad1)*%
X167640000Y-125730000D03*
%TD*%
%TO.P,TP99,1,1*%
%TO.N,Net-(TP100-Pad1)*%
X142240000Y-115570000D03*
%TD*%
%TO.P,TP192,1,1*%
%TO.N,Net-(TP189-Pad1)*%
X167640000Y-85090000D03*
%TD*%
%TO.P,TP22,1,1*%
%TO.N,Net-(TP19-Pad1)*%
X149860000Y-74930000D03*
%TD*%
%TO.P,TP75,1,1*%
%TO.N,Net-(TP74-Pad1)*%
X144780000Y-102870000D03*
%TD*%
%TO.P,TP168,1,1*%
%TO.N,Net-(TP164-Pad1)*%
X170180000Y-72390000D03*
%TD*%
%TO.P,TP198,1,1*%
%TO.N,Net-(TP194-Pad1)*%
X170180000Y-87630000D03*
%TD*%
%TO.P,TP155,1,1*%
%TO.N,Net-(TP154-Pad1)*%
X162560000Y-67310000D03*
%TD*%
D18*
%TO.P,U3,1,PA02_A0_D0*%
%TO.N,Net-(U3-PA02_A0_D0)*%
X99060000Y-103448803D03*
%TO.P,U3,2,PA4_A1_D1*%
%TO.N,Net-(U3-PA4_A1_D1)*%
X101600000Y-103448803D03*
%TO.P,U3,3,PA10_A2_D2*%
%TO.N,Net-(U3-PA10_A2_D2)*%
X104140000Y-103448803D03*
%TO.P,U3,4,PA11_A3_D3*%
%TO.N,Net-(U3-PA11_A3_D3)*%
X106680000Y-103448803D03*
%TO.P,U3,5,PA8_A4_D4_SDA*%
%TO.N,/x5*%
X109220000Y-103448803D03*
%TO.P,U3,6,PA9_A5_D5_SCL*%
%TO.N,/x6*%
X111760000Y-103448803D03*
D19*
%TO.P,U3,7,PB08_A6_D6_TX*%
%TO.N,/x7*%
X114300000Y-103448803D03*
D18*
%TO.P,U3,8,PB09_A7_D7_RX*%
%TO.N,Net-(U2-~{CS})*%
X114300000Y-87208803D03*
%TO.P,U3,9,PA7_A8_D8_SCK*%
%TO.N,Net-(U2-SCK)*%
X111760000Y-87208803D03*
%TO.P,U3,10,PA5_A9_D9_MISO*%
%TO.N,unconnected-(U3-PA5_A9_D9_MISO-Pad10)*%
X109220000Y-87208803D03*
%TO.P,U3,11,PA6_A10_D10_MOSI*%
%TO.N,Net-(U2-SDI)*%
X106680000Y-87208803D03*
%TO.P,U3,12,3V3*%
%TO.N,/3.3V*%
X104140000Y-87208803D03*
%TO.P,U3,13,GND*%
%TO.N,GND*%
X101600000Y-87208803D03*
%TO.P,U3,14,5V*%
%TO.N,5V*%
X99060000Y-87208803D03*
D20*
%TO.P,U3,15,5V*%
%TO.N,unconnected-(U3-5V-Pad15)*%
X115377820Y-96518803D03*
%TO.P,U3,16,GND*%
%TO.N,unconnected-(U3-GND-Pad16)*%
X115377820Y-93968803D03*
D21*
%TO.P,U3,17,PA31_SWDIO*%
%TO.N,unconnected-(U3-PA31_SWDIO-Pad17)*%
X98373633Y-96520000D03*
%TO.P,U3,18,PA30_SWCLK*%
%TO.N,unconnected-(U3-PA30_SWCLK-Pad18)*%
X98373633Y-93980000D03*
%TO.P,U3,19,RESET*%
%TO.N,unconnected-(U3-RESET-Pad19)*%
X100913633Y-96520000D03*
%TO.P,U3,20,GND*%
%TO.N,unconnected-(U3-GND-Pad20)*%
X100913633Y-93980000D03*
%TD*%
D10*
%TO.P,TP30,1,1*%
%TO.N,Net-(TP29-Pad1)*%
X144780000Y-80010000D03*
%TD*%
%TO.P,TP215,1,1*%
%TO.N,Net-(TP214-Pad1)*%
X162560000Y-97790000D03*
%TD*%
%TO.P,TP242,1,1*%
%TO.N,Net-(TP239-Pad1)*%
X167640000Y-110490000D03*
%TD*%
%TO.P,TP49,1,1*%
%TO.N,Net-(TP49-Pad1)*%
X142240000Y-90170000D03*
%TD*%
%TO.P,TP82,1,1*%
%TO.N,Net-(TP79-Pad1)*%
X144780000Y-110490000D03*
%TD*%
D12*
%TO.P,R7,1*%
%TO.N,Net-(U1D-+)*%
X119380000Y-128270000D03*
D13*
%TO.P,R7,2*%
%TO.N,/D*%
X127000000Y-128270000D03*
%TD*%
D10*
%TO.P,TP162,1,1*%
%TO.N,Net-(TP159-Pad1)*%
X167640000Y-69850000D03*
%TD*%
D22*
%TO.P,C2,1*%
%TO.N,Net-(J4-Pin_4)*%
X125730000Y-80010000D03*
%TO.P,C2,2*%
%TO.N,GND*%
X125730000Y-85010000D03*
%TD*%
D10*
%TO.P,TP26,1,1*%
%TO.N,Net-(TP24-Pad1)*%
X147320000Y-77470000D03*
%TD*%
%TO.P,TP88,1,1*%
%TO.N,Net-(TP84-Pad1)*%
X152400000Y-107950000D03*
%TD*%
%TO.P,TP5,1,1*%
%TO.N,Net-(TP4-Pad1)*%
X144780000Y-67310000D03*
%TD*%
%TO.P,TP18,1,1*%
%TO.N,Net-(TP14-Pad1)*%
X152400000Y-72390000D03*
%TD*%
%TO.P,TP36,1,1*%
%TO.N,Net-(TP34-Pad1)*%
X147320000Y-82550000D03*
%TD*%
%TO.P,TP171,1,1*%
%TO.N,Net-(TP169-Pad1)*%
X165100000Y-74930000D03*
%TD*%
%TO.P,TP76,1,1*%
%TO.N,Net-(TP74-Pad1)*%
X147320000Y-102870000D03*
%TD*%
%TO.P,TP156,1,1*%
%TO.N,Net-(TP154-Pad1)*%
X165100000Y-67310000D03*
%TD*%
%TO.P,TP252,1,1*%
%TO.N,Net-(TP249-Pad1)*%
X167640000Y-115570000D03*
%TD*%
%TO.P,TP185,1,1*%
%TO.N,Net-(TP184-Pad1)*%
X162560000Y-82550000D03*
%TD*%
%TO.P,TP234,1,1*%
%TO.N,Net-(TP234-Pad1)*%
X170180000Y-107950000D03*
%TD*%
%TO.P,TP229,1,1*%
%TO.N,Net-(TP229-Pad1)*%
X160020000Y-105399600D03*
%TD*%
%TO.P,TP184,1,1*%
%TO.N,Net-(TP184-Pad1)*%
X160020000Y-82550000D03*
%TD*%
%TO.P,TP1,1,1*%
%TO.N,/x5*%
X109220000Y-107950000D03*
%TD*%
D14*
%TO.P,JP5,1,1*%
%TO.N,GND*%
X137071100Y-140970000D03*
D15*
%TO.P,JP5,2,2*%
X137071100Y-138430000D03*
%TO.P,JP5,3,3*%
X137071100Y-135890000D03*
%TO.P,JP5,4,4*%
X137071100Y-133350000D03*
%TO.P,JP5,5,5*%
X137071100Y-130810000D03*
%TO.P,JP5,6,6*%
X137071100Y-128270000D03*
%TO.P,JP5,7,7*%
X137071100Y-125730000D03*
%TO.P,JP5,8,8*%
X137071100Y-123190000D03*
%TO.P,JP5,9,9*%
X137071100Y-120650000D03*
%TO.P,JP5,10,10*%
X137071100Y-118110000D03*
%TO.P,JP5,11,11*%
X137071100Y-115570000D03*
%TO.P,JP5,12,12*%
X137071100Y-113030000D03*
%TO.P,JP5,13,13*%
X137071100Y-110490000D03*
%TO.P,JP5,14,14*%
X137071100Y-107950000D03*
%TO.P,JP5,15,15*%
X137071100Y-105410000D03*
%TO.P,JP5,16,16*%
X137071100Y-102870000D03*
%TO.P,JP5,17,17*%
X137071100Y-100330000D03*
%TO.P,JP5,18,18*%
X137071100Y-97790000D03*
%TO.P,JP5,19,19*%
X137071100Y-95250000D03*
%TO.P,JP5,20,20*%
X137071100Y-92710000D03*
%TO.P,JP5,21,21*%
X137071100Y-90170000D03*
%TO.P,JP5,22,22*%
X137071100Y-87630000D03*
%TO.P,JP5,23,23*%
X137071100Y-85090000D03*
%TO.P,JP5,24,24*%
X137071100Y-82550000D03*
%TO.P,JP5,25,25*%
X137071100Y-80010000D03*
%TO.P,JP5,26,26*%
X137071100Y-77470000D03*
%TO.P,JP5,27,27*%
X137071100Y-74930000D03*
%TO.P,JP5,28,28*%
X137071100Y-72390000D03*
%TO.P,JP5,29,29*%
X137071100Y-69850000D03*
%TO.P,JP5,30,30*%
X137071100Y-67310000D03*
%TD*%
D10*
%TO.P,TP183,1,1*%
%TO.N,Net-(TP179-Pad1)*%
X170180000Y-80010000D03*
%TD*%
%TO.P,TP7,1,1*%
%TO.N,Net-(TP4-Pad1)*%
X149860000Y-67310000D03*
%TD*%
%TO.P,TP39,1,1*%
%TO.N,Net-(TP39-Pad1)*%
X142240000Y-85090000D03*
%TD*%
%TO.P,TP278,1,1*%
%TO.N,Net-(TP274-Pad1)*%
X170180000Y-128270000D03*
%TD*%
%TO.P,TP262,1,1*%
%TO.N,Net-(TP259-Pad1)*%
X167640000Y-120650000D03*
%TD*%
%TO.P,TP42,1,1*%
%TO.N,Net-(TP39-Pad1)*%
X149860000Y-85090000D03*
%TD*%
%TO.P,TP91,1,1*%
%TO.N,Net-(TP89-Pad1)*%
X147320000Y-105410000D03*
%TD*%
%TO.P,TP220,1,1*%
%TO.N,Net-(TP219-Pad1)*%
X162560000Y-100330000D03*
%TD*%
D23*
%TO.P,J4,1,Pin_1*%
%TO.N,5V*%
X130810000Y-82550000D03*
D24*
%TO.P,J4,2,Pin_2*%
%TO.N,GND*%
X130810000Y-80010000D03*
%TO.P,J4,3,Pin_3*%
%TO.N,/3.3V*%
X130810000Y-77470000D03*
%TO.P,J4,4,Pin_4*%
%TO.N,Net-(J4-Pin_4)*%
X130810000Y-74930000D03*
%TO.P,J4,5,Pin_5*%
%TO.N,Net-(J4-Pin_5)*%
X130810000Y-72390000D03*
%TO.P,J4,6,Pin_6*%
%TO.N,Net-(J4-Pin_6)*%
X130810000Y-69850000D03*
%TO.P,J4,7,Pin_7*%
%TO.N,Net-(J4-Pin_7)*%
X130810000Y-67310000D03*
%TD*%
D10*
%TO.P,TP133,1,1*%
%TO.N,Net-(TP129-Pad1)*%
X152400000Y-133350000D03*
%TD*%
%TO.P,TP251,1,1*%
%TO.N,Net-(TP249-Pad1)*%
X165100000Y-115570000D03*
%TD*%
D22*
%TO.P,C1,1*%
%TO.N,Net-(J4-Pin_6)*%
X124460000Y-68580000D03*
%TO.P,C1,2*%
%TO.N,GND*%
X119460000Y-68580000D03*
%TD*%
D10*
%TO.P,TP188,1,1*%
%TO.N,Net-(TP184-Pad1)*%
X170180000Y-82550000D03*
%TD*%
%TO.P,TP143,1,1*%
%TO.N,Net-(TP139-Pad1)*%
X152400000Y-130810000D03*
%TD*%
%TO.P,TP224,1,1*%
%TO.N,Net-(TP224-Pad1)*%
X160020000Y-102870000D03*
%TD*%
D12*
%TO.P,R15,1*%
%TO.N,Net-(U1C-+)*%
X119380000Y-140970000D03*
D13*
%TO.P,R15,2*%
%TO.N,Net-(J2-Pin_1)*%
X127000000Y-140970000D03*
%TD*%
D10*
%TO.P,TP161,1,1*%
%TO.N,Net-(TP159-Pad1)*%
X165100000Y-69850000D03*
%TD*%
%TO.P,TP16,1,1*%
%TO.N,Net-(TP14-Pad1)*%
X144780000Y-72390000D03*
%TD*%
%TO.P,TP67,1,1*%
%TO.N,Net-(TP64-Pad1)*%
X149860000Y-97790000D03*
%TD*%
D16*
%TO.P,U2,1,VDD*%
%TO.N,/3.3V*%
X104140000Y-80010000D03*
D17*
%TO.P,U2,2,NC*%
%TO.N,unconnected-(U2-NC-Pad2)*%
X106680000Y-80010000D03*
%TO.P,U2,3,~{CS}*%
%TO.N,Net-(U2-~{CS})*%
X109220000Y-80010000D03*
%TO.P,U2,4,SCK*%
%TO.N,Net-(U2-SCK)*%
X111760000Y-80010000D03*
%TO.P,U2,5,SDI*%
%TO.N,Net-(U2-SDI)*%
X114300000Y-80010000D03*
%TO.P,U2,6,NC*%
%TO.N,unconnected-(U2-NC-Pad6)*%
X116840000Y-80010000D03*
%TO.P,U2,7,NC*%
%TO.N,unconnected-(U2-NC-Pad7)*%
X119380000Y-80010000D03*
%TO.P,U2,8,~{LDAC}*%
%TO.N,GND*%
X119380000Y-72390000D03*
%TO.P,U2,9,~{SHDN}*%
%TO.N,/3.3V*%
X116840000Y-72390000D03*
%TO.P,U2,10,VoutB*%
%TO.N,Net-(J4-Pin_5)*%
X114300000Y-72390000D03*
%TO.P,U2,11,VrefB*%
%TO.N,/3.3V*%
X111760000Y-72390000D03*
%TO.P,U2,12,AVSS*%
%TO.N,GND*%
X109220000Y-72390000D03*
%TO.P,U2,13,VrefA*%
%TO.N,/3.3V*%
X106680000Y-72390000D03*
%TO.P,U2,14,VoutA*%
%TO.N,Net-(J4-Pin_7)*%
X104140000Y-72390000D03*
%TD*%
D10*
%TO.P,TP231,1,1*%
%TO.N,Net-(TP229-Pad1)*%
X165100000Y-105399600D03*
%TD*%
%TO.P,TP181,1,1*%
%TO.N,Net-(TP179-Pad1)*%
X162560000Y-80010000D03*
%TD*%
%TO.P,TP275,1,1*%
%TO.N,Net-(TP274-Pad1)*%
X162560000Y-128270000D03*
%TD*%
%TO.P,TP254,1,1*%
%TO.N,Net-(TP254-Pad1)*%
X160020000Y-118110000D03*
%TD*%
%TO.P,TP73,1,1*%
%TO.N,Net-(TP69-Pad1)*%
X152400000Y-100330000D03*
%TD*%
%TO.P,TP257,1,1*%
%TO.N,Net-(TP254-Pad1)*%
X167640000Y-118110000D03*
%TD*%
%TO.P,TP218,1,1*%
%TO.N,Net-(TP214-Pad1)*%
X170180000Y-97790000D03*
%TD*%
%TO.P,TP196,1,1*%
%TO.N,Net-(TP194-Pad1)*%
X165100000Y-87630000D03*
%TD*%
%TO.P,TP96,1,1*%
%TO.N,Net-(TP94-Pad1)*%
X147320000Y-113030000D03*
%TD*%
%TO.P,TP253,1,1*%
%TO.N,Net-(TP249-Pad1)*%
X170180000Y-115570000D03*
%TD*%
%TO.P,TP33,1,1*%
%TO.N,Net-(TP29-Pad1)*%
X152400000Y-80010000D03*
%TD*%
%TO.P,TP124,1,1*%
%TO.N,Net-(TP124-Pad1)*%
X144780000Y-128270000D03*
%TD*%
%TO.P,TP233,1,1*%
%TO.N,Net-(TP229-Pad1)*%
X170180000Y-105399600D03*
%TD*%
D12*
%TO.P,R22,1*%
%TO.N,Net-(U3-PA11_A3_D3)*%
X106680000Y-107950000D03*
D13*
%TO.P,R22,2*%
%TO.N,Net-(R12-Pad1)*%
X106680000Y-115570000D03*
%TD*%
D10*
%TO.P,TP83,1,1*%
%TO.N,Net-(TP79-Pad1)*%
X142240000Y-110490000D03*
%TD*%
%TO.P,TP151,1,1*%
%TO.N,Net-(TP149-Pad1)*%
X147320000Y-140970000D03*
%TD*%
%TO.P,TP285,1,1*%
%TO.N,Net-(TP284-Pad1)*%
X162560000Y-133350000D03*
%TD*%
%TO.P,TP90,1,1*%
%TO.N,Net-(TP89-Pad1)*%
X144780000Y-105410000D03*
%TD*%
%TO.P,TP59,1,1*%
%TO.N,Net-(TP59-Pad1)*%
X142240000Y-95250000D03*
%TD*%
D12*
%TO.P,R14,1*%
%TO.N,Net-(U1B-+)*%
X119380000Y-123190000D03*
D13*
%TO.P,R14,2*%
%TO.N,Net-(J1-Pin_1)*%
X127000000Y-123190000D03*
%TD*%
D10*
%TO.P,TP208,1,1*%
%TO.N,Net-(TP204-Pad1)*%
X170180000Y-92710000D03*
%TD*%
D12*
%TO.P,R28,1*%
%TO.N,Net-(J4-Pin_4)*%
X127000000Y-77470000D03*
D13*
%TO.P,R28,2*%
%TO.N,Net-(J4-Pin_5)*%
X127000000Y-72390000D03*
%TD*%
D10*
%TO.P,TP101,1,1*%
%TO.N,Net-(TP100-Pad1)*%
X147320000Y-115570000D03*
%TD*%
%TO.P,TP127,1,1*%
%TO.N,Net-(TP124-Pad1)*%
X149860000Y-128270000D03*
%TD*%
%TO.P,TP190,1,1*%
%TO.N,Net-(TP189-Pad1)*%
X162560000Y-85090000D03*
%TD*%
%TO.P,TP294,1,1*%
%TO.N,Net-(TP294-Pad1)*%
X160020000Y-138430000D03*
%TD*%
%TO.P,TP265,1,1*%
%TO.N,Net-(TP264-Pad1)*%
X170180000Y-123190000D03*
%TD*%
%TO.P,TP105,1,1*%
%TO.N,Net-(TP104-Pad1)*%
X144780000Y-118110000D03*
%TD*%
%TO.P,TP112,1,1*%
%TO.N,Net-(TP109-Pad1)*%
X149860000Y-120650000D03*
%TD*%
%TO.P,TP241,1,1*%
%TO.N,Net-(TP239-Pad1)*%
X165100000Y-110490000D03*
%TD*%
%TO.P,TP77,1,1*%
%TO.N,Net-(TP74-Pad1)*%
X149860000Y-102870000D03*
%TD*%
%TO.P,TP126,1,1*%
%TO.N,Net-(TP124-Pad1)*%
X147320000Y-128270000D03*
%TD*%
D12*
%TO.P,R26,1*%
%TO.N,Net-(R19-Pad2)*%
X105410000Y-121920000D03*
D13*
%TO.P,R26,2*%
%TO.N,GND*%
X97790000Y-121920000D03*
%TD*%
D10*
%TO.P,TP11,1,1*%
%TO.N,Net-(TP10-Pad1)*%
X147320000Y-69850000D03*
%TD*%
%TO.P,TP235,1,1*%
%TO.N,Net-(TP234-Pad1)*%
X167640000Y-107950000D03*
%TD*%
%TO.P,TP268,1,1*%
%TO.N,Net-(TP264-Pad1)*%
X165100000Y-123190000D03*
%TD*%
%TO.P,TP135,1,1*%
%TO.N,Net-(TP134-Pad1)*%
X144780000Y-135890000D03*
%TD*%
%TO.P,TP32,1,1*%
%TO.N,Net-(TP29-Pad1)*%
X149860000Y-80010000D03*
%TD*%
%TO.P,TP108,1,1*%
%TO.N,Net-(TP104-Pad1)*%
X152400000Y-118110000D03*
%TD*%
%TO.P,TP255,1,1*%
%TO.N,Net-(TP254-Pad1)*%
X162560000Y-118110000D03*
%TD*%
%TO.P,TP138,1,1*%
%TO.N,Net-(TP134-Pad1)*%
X152400000Y-135890000D03*
%TD*%
%TO.P,TP244,1,1*%
%TO.N,Net-(TP244-Pad1)*%
X160020000Y-113030000D03*
%TD*%
%TO.P,TP139,1,1*%
%TO.N,Net-(TP139-Pad1)*%
X142240000Y-130810000D03*
%TD*%
%TO.P,TP206,1,1*%
%TO.N,Net-(TP204-Pad1)*%
X165100000Y-92710000D03*
%TD*%
%TO.P,TP15,1,1*%
%TO.N,Net-(TP14-Pad1)*%
X147320000Y-72390000D03*
%TD*%
D12*
%TO.P,R16,1*%
%TO.N,Net-(U1D-+)*%
X119380000Y-133350000D03*
D13*
%TO.P,R16,2*%
%TO.N,Net-(J2-Pin_4)*%
X127000000Y-133350000D03*
%TD*%
D10*
%TO.P,TP146,1,1*%
%TO.N,Net-(TP144-Pad1)*%
X147320000Y-138430000D03*
%TD*%
%TO.P,TP223,1,1*%
%TO.N,Net-(TP219-Pad1)*%
X170180000Y-100330000D03*
%TD*%
D12*
%TO.P,R5,1*%
%TO.N,Net-(U1C-+)*%
X119380000Y-135890000D03*
D13*
%TO.P,R5,2*%
%TO.N,/C*%
X127000000Y-135890000D03*
%TD*%
D10*
%TO.P,TP6,1,1*%
%TO.N,Net-(TP4-Pad1)*%
X147320000Y-67310000D03*
%TD*%
%TO.P,TP217,1,1*%
%TO.N,Net-(TP214-Pad1)*%
X167640000Y-97790000D03*
%TD*%
%TO.P,TP25,1,1*%
%TO.N,Net-(TP24-Pad1)*%
X144780000Y-77470000D03*
%TD*%
%TO.P,TP248,1,1*%
%TO.N,Net-(TP244-Pad1)*%
X170180000Y-113030000D03*
%TD*%
%TO.P,TP211,1,1*%
%TO.N,Net-(TP209-Pad1)*%
X165100000Y-95250000D03*
%TD*%
%TO.P,TP46,1,1*%
%TO.N,Net-(TP44-Pad1)*%
X147320000Y-87630000D03*
%TD*%
%TO.P,TP302,1,1*%
%TO.N,Net-(TP299-Pad1)*%
X167640000Y-141000000D03*
%TD*%
%TO.P,TP289,1,1*%
%TO.N,Net-(TP289-Pad1)*%
X160020000Y-135890000D03*
%TD*%
%TO.P,TP230,1,1*%
%TO.N,Net-(TP229-Pad1)*%
X162560000Y-105399600D03*
%TD*%
%TO.P,TP79,1,1*%
%TO.N,Net-(TP79-Pad1)*%
X152400000Y-110490000D03*
%TD*%
%TO.P,TP8,1,1*%
%TO.N,Net-(TP4-Pad1)*%
X152400000Y-67310000D03*
%TD*%
%TO.P,TP137,1,1*%
%TO.N,Net-(TP134-Pad1)*%
X149860000Y-135890000D03*
%TD*%
%TO.P,TP144,1,1*%
%TO.N,Net-(TP144-Pad1)*%
X142240000Y-138430000D03*
%TD*%
%TO.P,TP287,1,1*%
%TO.N,Net-(TP284-Pad1)*%
X167640000Y-133350000D03*
%TD*%
%TO.P,TP160,1,1*%
%TO.N,Net-(TP159-Pad1)*%
X162560000Y-69850000D03*
%TD*%
%TO.P,TP296,1,1*%
%TO.N,Net-(TP294-Pad1)*%
X165100000Y-138430000D03*
%TD*%
%TO.P,TP164,1,1*%
%TO.N,Net-(TP164-Pad1)*%
X160020000Y-72390000D03*
%TD*%
%TO.P,TP286,1,1*%
%TO.N,Net-(TP284-Pad1)*%
X165100000Y-133350000D03*
%TD*%
%TO.P,TP24,1,1*%
%TO.N,Net-(TP24-Pad1)*%
X142240000Y-77470000D03*
%TD*%
%TO.P,TP37,1,1*%
%TO.N,Net-(TP34-Pad1)*%
X149860000Y-82550000D03*
%TD*%
%TO.P,TP48,1,1*%
%TO.N,Net-(TP44-Pad1)*%
X152400000Y-87630000D03*
%TD*%
%TO.P,TP210,1,1*%
%TO.N,Net-(TP209-Pad1)*%
X162560000Y-95250000D03*
%TD*%
%TO.P,TP125,1,1*%
%TO.N,Net-(TP124-Pad1)*%
X142240000Y-128270000D03*
%TD*%
%TO.P,TP232,1,1*%
%TO.N,Net-(TP229-Pad1)*%
X167640000Y-105399600D03*
%TD*%
%TO.P,TP19,1,1*%
%TO.N,Net-(TP19-Pad1)*%
X142240000Y-74930000D03*
%TD*%
D23*
%TO.P,J1,1,Pin_1*%
%TO.N,Net-(J1-Pin_1)*%
X130810000Y-123190000D03*
D24*
%TO.P,J1,2,Pin_2*%
%TO.N,/VCM*%
X130810000Y-120650000D03*
%TO.P,J1,3,Pin_3*%
%TO.N,/B*%
X130810000Y-118110000D03*
%TO.P,J1,4,Pin_4*%
%TO.N,Net-(J1-Pin_4)*%
X130810000Y-115570000D03*
%TO.P,J1,5,Pin_5*%
%TO.N,/VCM*%
X130810000Y-113030000D03*
%TO.P,J1,6,Pin_6*%
%TO.N,/A*%
X130810000Y-110490000D03*
%TD*%
D10*
%TO.P,TP176,1,1*%
%TO.N,Net-(TP174-Pad1)*%
X165100000Y-77470000D03*
%TD*%
%TO.P,TP55,1,1*%
%TO.N,Net-(TP54-Pad1)*%
X144780000Y-92710000D03*
%TD*%
%TO.P,TP87,1,1*%
%TO.N,Net-(TP84-Pad1)*%
X149860000Y-107950000D03*
%TD*%
%TO.P,TP115,1,1*%
%TO.N,Net-(TP114-Pad1)*%
X144780000Y-123190000D03*
%TD*%
%TO.P,TP167,1,1*%
%TO.N,Net-(TP164-Pad1)*%
X167640000Y-72390000D03*
%TD*%
%TO.P,TP140,1,1*%
%TO.N,Net-(TP139-Pad1)*%
X144780000Y-130810000D03*
%TD*%
%TO.P,TP17,1,1*%
%TO.N,Net-(TP14-Pad1)*%
X149860000Y-72390000D03*
%TD*%
%TO.P,TP149,1,1*%
%TO.N,Net-(TP149-Pad1)*%
X142240000Y-140970000D03*
%TD*%
%TO.P,TP226,1,1*%
%TO.N,Net-(TP224-Pad1)*%
X165100000Y-102870000D03*
%TD*%
%TO.P,TP201,1,1*%
%TO.N,Net-(TP199-Pad1)*%
X165100000Y-90170000D03*
%TD*%
%TO.P,TP191,1,1*%
%TO.N,Net-(TP189-Pad1)*%
X165100000Y-85090000D03*
%TD*%
%TO.P,TP178,1,1*%
%TO.N,Net-(TP174-Pad1)*%
X170180000Y-77470000D03*
%TD*%
%TO.P,TP78,1,1*%
%TO.N,Net-(TP74-Pad1)*%
X152400000Y-102870000D03*
%TD*%
%TO.P,TP260,1,1*%
%TO.N,Net-(TP259-Pad1)*%
X162560000Y-120650000D03*
%TD*%
%TO.P,TP267,1,1*%
%TO.N,Net-(TP264-Pad1)*%
X162560000Y-123190000D03*
%TD*%
%TO.P,TP193,1,1*%
%TO.N,Net-(TP189-Pad1)*%
X170180000Y-85090000D03*
%TD*%
%TO.P,TP284,1,1*%
%TO.N,Net-(TP284-Pad1)*%
X160020000Y-133350000D03*
%TD*%
%TO.P,TP142,1,1*%
%TO.N,Net-(TP139-Pad1)*%
X149860000Y-130810000D03*
%TD*%
%TO.P,TP10,1,1*%
%TO.N,Net-(TP10-Pad1)*%
X144780000Y-69850000D03*
%TD*%
%TO.P,TP270,1,1*%
%TO.N,Net-(TP269-Pad1)*%
X162560000Y-125730000D03*
%TD*%
%TO.P,TP222,1,1*%
%TO.N,Net-(TP219-Pad1)*%
X167640000Y-100330000D03*
%TD*%
%TO.P,TP35,1,1*%
%TO.N,Net-(TP34-Pad1)*%
X144780000Y-82550000D03*
%TD*%
%TO.P,TP34,1,1*%
%TO.N,Net-(TP34-Pad1)*%
X142240000Y-82550000D03*
%TD*%
%TO.P,TP120,1,1*%
%TO.N,Net-(TP119-Pad1)*%
X144780000Y-125730000D03*
%TD*%
D12*
%TO.P,R20,1*%
%TO.N,Net-(U3-PA4_A1_D1)*%
X101600000Y-107950000D03*
D13*
%TO.P,R20,2*%
%TO.N,Net-(R10-Pad1)*%
X101600000Y-115570000D03*
%TD*%
D10*
%TO.P,TP103,1,1*%
%TO.N,Net-(TP100-Pad1)*%
X152400000Y-115570000D03*
%TD*%
%TO.P,TP186,1,1*%
%TO.N,Net-(TP184-Pad1)*%
X165100000Y-82550000D03*
%TD*%
%TO.P,TP122,1,1*%
%TO.N,Net-(TP119-Pad1)*%
X149860000Y-125730000D03*
%TD*%
%TO.P,TP173,1,1*%
%TO.N,Net-(TP169-Pad1)*%
X170180000Y-74930000D03*
%TD*%
%TO.P,TP200,1,1*%
%TO.N,Net-(TP199-Pad1)*%
X162560000Y-90170000D03*
%TD*%
%TO.P,TP68,1,1*%
%TO.N,Net-(TP64-Pad1)*%
X152400000Y-97790000D03*
%TD*%
D12*
%TO.P,R10,1*%
%TO.N,Net-(R10-Pad1)*%
X100330000Y-143510000D03*
D13*
%TO.P,R10,2*%
%TO.N,Net-(U1B--)*%
X100330000Y-135890000D03*
%TD*%
D10*
%TO.P,TP117,1,1*%
%TO.N,Net-(TP114-Pad1)*%
X149860000Y-123190000D03*
%TD*%
%TO.P,TP250,1,1*%
%TO.N,Net-(TP249-Pad1)*%
X162560000Y-115570000D03*
%TD*%
%TO.P,TP132,1,1*%
%TO.N,Net-(TP129-Pad1)*%
X149860000Y-133350000D03*
%TD*%
%TO.P,TP107,1,1*%
%TO.N,Net-(TP104-Pad1)*%
X149860000Y-118110000D03*
%TD*%
%TO.P,TP273,1,1*%
%TO.N,Net-(TP269-Pad1)*%
X170180000Y-125730000D03*
%TD*%
%TO.P,TP100,1,1*%
%TO.N,Net-(TP100-Pad1)*%
X144780000Y-115570000D03*
%TD*%
%TO.P,TP9,1,1*%
%TO.N,Net-(TP10-Pad1)*%
X142240000Y-69850000D03*
%TD*%
%TO.P,TP271,1,1*%
%TO.N,Net-(TP269-Pad1)*%
X165100000Y-125730000D03*
%TD*%
%TO.P,TP147,1,1*%
%TO.N,Net-(TP144-Pad1)*%
X149860000Y-138430000D03*
%TD*%
%TO.P,TP148,1,1*%
%TO.N,Net-(TP144-Pad1)*%
X152400000Y-138430000D03*
%TD*%
D12*
%TO.P,R13,1*%
%TO.N,Net-(U1A-+)*%
X119380000Y-115570000D03*
D13*
%TO.P,R13,2*%
%TO.N,Net-(J1-Pin_4)*%
X127000000Y-115570000D03*
%TD*%
D10*
%TO.P,TP187,1,1*%
%TO.N,Net-(TP184-Pad1)*%
X167640000Y-82550000D03*
%TD*%
%TO.P,TP157,1,1*%
%TO.N,Net-(TP154-Pad1)*%
X167640000Y-67310000D03*
%TD*%
%TO.P,TP205,1,1*%
%TO.N,Net-(TP204-Pad1)*%
X162560000Y-92710000D03*
%TD*%
%TO.P,TP72,1,1*%
%TO.N,Net-(TP69-Pad1)*%
X149860000Y-100330000D03*
%TD*%
%TO.P,TP64,1,1*%
%TO.N,Net-(TP64-Pad1)*%
X142240000Y-97790000D03*
%TD*%
%TO.P,TP297,1,1*%
%TO.N,Net-(TP294-Pad1)*%
X167640000Y-138430000D03*
%TD*%
%TO.P,TP56,1,1*%
%TO.N,Net-(TP54-Pad1)*%
X147320000Y-92710000D03*
%TD*%
%TO.P,TP29,1,1*%
%TO.N,Net-(TP29-Pad1)*%
X142240000Y-80010000D03*
%TD*%
D14*
%TO.P,JP6,1,1*%
%TO.N,5V*%
X134531100Y-140970000D03*
D15*
%TO.P,JP6,2,2*%
X134531100Y-138430000D03*
%TO.P,JP6,3,3*%
X134531100Y-135890000D03*
%TO.P,JP6,4,4*%
X134531100Y-133350000D03*
%TO.P,JP6,5,5*%
X134531100Y-130810000D03*
%TO.P,JP6,6,6*%
X134531100Y-128270000D03*
%TO.P,JP6,7,7*%
X134531100Y-125730000D03*
%TO.P,JP6,8,8*%
X134531100Y-123190000D03*
%TO.P,JP6,9,9*%
X134531100Y-120650000D03*
%TO.P,JP6,10,10*%
X134531100Y-118110000D03*
%TO.P,JP6,11,11*%
X134531100Y-115570000D03*
%TO.P,JP6,12,12*%
X134531100Y-113030000D03*
%TO.P,JP6,13,13*%
X134531100Y-110490000D03*
%TO.P,JP6,14,14*%
X134531100Y-107950000D03*
%TO.P,JP6,15,15*%
X134531100Y-105410000D03*
%TO.P,JP6,16,16*%
X134531100Y-102870000D03*
%TO.P,JP6,17,17*%
X134531100Y-100330000D03*
%TO.P,JP6,18,18*%
X134531100Y-97790000D03*
%TO.P,JP6,19,19*%
X134531100Y-95250000D03*
%TO.P,JP6,20,20*%
X134531100Y-92710000D03*
%TO.P,JP6,21,21*%
X134531100Y-90170000D03*
%TO.P,JP6,22,22*%
X134531100Y-87630000D03*
%TO.P,JP6,23,23*%
X134531100Y-85090000D03*
%TO.P,JP6,24,24*%
X134531100Y-82550000D03*
%TO.P,JP6,25,25*%
X134531100Y-80010000D03*
%TO.P,JP6,26,26*%
X134531100Y-77470000D03*
%TO.P,JP6,27,27*%
X134531100Y-74930000D03*
%TO.P,JP6,28,28*%
X134531100Y-72390000D03*
%TO.P,JP6,29,29*%
X134531100Y-69850000D03*
%TO.P,JP6,30,30*%
X134531100Y-67310000D03*
%TD*%
D10*
%TO.P,TP291,1,1*%
%TO.N,Net-(TP289-Pad1)*%
X165100000Y-135890000D03*
%TD*%
%TO.P,TP170,1,1*%
%TO.N,Net-(TP169-Pad1)*%
X162560000Y-74930000D03*
%TD*%
%TO.P,TP150,1,1*%
%TO.N,Net-(TP149-Pad1)*%
X144780000Y-140970000D03*
%TD*%
%TO.P,TP71,1,1*%
%TO.N,Net-(TP69-Pad1)*%
X147320000Y-100330000D03*
%TD*%
D12*
%TO.P,R19,1*%
%TO.N,Net-(U3-PA02_A0_D0)*%
X99060000Y-107950000D03*
D13*
%TO.P,R19,2*%
%TO.N,Net-(R19-Pad2)*%
X99060000Y-115570000D03*
%TD*%
D12*
%TO.P,R3,1*%
%TO.N,Net-(U1B-+)*%
X119380000Y-119380000D03*
D13*
%TO.P,R3,2*%
%TO.N,/B*%
X127000000Y-119380000D03*
%TD*%
D10*
%TO.P,TP85,1,1*%
%TO.N,Net-(TP84-Pad1)*%
X144780000Y-107950000D03*
%TD*%
%TO.P,TP221,1,1*%
%TO.N,Net-(TP219-Pad1)*%
X165100000Y-100330000D03*
%TD*%
%TO.P,TP163,1,1*%
%TO.N,Net-(TP159-Pad1)*%
X170180000Y-69850000D03*
%TD*%
D14*
%TO.P,JP2,1,1*%
%TO.N,/3.3V*%
X180251100Y-140970000D03*
D15*
%TO.P,JP2,2,2*%
X180251100Y-138430000D03*
%TO.P,JP2,3,3*%
X180251100Y-135890000D03*
%TO.P,JP2,4,4*%
X180251100Y-133350000D03*
%TO.P,JP2,5,5*%
X180251100Y-130810000D03*
%TO.P,JP2,6,6*%
X180251100Y-128270000D03*
%TO.P,JP2,7,7*%
X180251100Y-125730000D03*
%TO.P,JP2,8,8*%
X180251100Y-123190000D03*
%TO.P,JP2,9,9*%
X180251100Y-120650000D03*
%TO.P,JP2,10,10*%
X180251100Y-118110000D03*
%TO.P,JP2,11,11*%
X180251100Y-115570000D03*
%TO.P,JP2,12,12*%
X180251100Y-113030000D03*
%TO.P,JP2,13,13*%
X180251100Y-110490000D03*
%TO.P,JP2,14,14*%
X180251100Y-107950000D03*
%TO.P,JP2,15,15*%
X180251100Y-105410000D03*
%TO.P,JP2,16,16*%
X180251100Y-102870000D03*
%TO.P,JP2,17,17*%
X180251100Y-100330000D03*
%TO.P,JP2,18,18*%
X180251100Y-97790000D03*
%TO.P,JP2,19,19*%
X180251100Y-95250000D03*
%TO.P,JP2,20,20*%
X180251100Y-92710000D03*
%TO.P,JP2,21,21*%
X180251100Y-90170000D03*
%TO.P,JP2,22,22*%
X180251100Y-87630000D03*
%TO.P,JP2,23,23*%
X180251100Y-85090000D03*
%TO.P,JP2,24,24*%
X180251100Y-82550000D03*
%TO.P,JP2,25,25*%
X180251100Y-80010000D03*
%TO.P,JP2,26,26*%
X180251100Y-77470000D03*
%TO.P,JP2,27,27*%
X180251100Y-74930000D03*
%TO.P,JP2,28,28*%
X180251100Y-72390000D03*
%TO.P,JP2,29,29*%
X180251100Y-69850000D03*
%TO.P,JP2,30,30*%
X180251100Y-67310000D03*
%TD*%
D10*
%TO.P,TP3,1,1*%
%TO.N,/x7*%
X114300000Y-107950000D03*
%TD*%
%TO.P,TP131,1,1*%
%TO.N,Net-(TP129-Pad1)*%
X147320000Y-133350000D03*
%TD*%
%TO.P,TP51,1,1*%
%TO.N,Net-(TP49-Pad1)*%
X147320000Y-90170000D03*
%TD*%
%TO.P,TP197,1,1*%
%TO.N,Net-(TP194-Pad1)*%
X167640000Y-87630000D03*
%TD*%
D12*
%TO.P,R18,1*%
%TO.N,/VCM*%
X128270000Y-96520000D03*
D13*
%TO.P,R18,2*%
%TO.N,GND*%
X120650000Y-96520000D03*
%TD*%
D10*
%TO.P,TP212,1,1*%
%TO.N,Net-(TP209-Pad1)*%
X167640000Y-95250000D03*
%TD*%
%TO.P,TP298,1,1*%
%TO.N,Net-(TP294-Pad1)*%
X170180000Y-138430000D03*
%TD*%
%TO.P,TP227,1,1*%
%TO.N,Net-(TP224-Pad1)*%
X167640000Y-102870000D03*
%TD*%
%TO.P,TP274,1,1*%
%TO.N,Net-(TP274-Pad1)*%
X160020000Y-128270000D03*
%TD*%
%TO.P,TP280,1,1*%
%TO.N,Net-(TP279-Pad1)*%
X162560000Y-130810000D03*
%TD*%
%TO.P,TP290,1,1*%
%TO.N,Net-(TP289-Pad1)*%
X162560000Y-135890000D03*
%TD*%
%TO.P,TP237,1,1*%
%TO.N,Net-(TP234-Pad1)*%
X162560000Y-107950000D03*
%TD*%
D12*
%TO.P,R12,1*%
%TO.N,Net-(R12-Pad1)*%
X115570000Y-125730000D03*
D13*
%TO.P,R12,2*%
%TO.N,Net-(U1D--)*%
X115570000Y-133350000D03*
%TD*%
D10*
%TO.P,TP154,1,1*%
%TO.N,Net-(TP154-Pad1)*%
X160020000Y-67310000D03*
%TD*%
%TO.P,TP14,1,1*%
%TO.N,Net-(TP14-Pad1)*%
X142240000Y-72390000D03*
%TD*%
D14*
%TO.P,JP7,1,1*%
%TO.N,GND*%
X182791100Y-140970000D03*
D15*
%TO.P,JP7,2,2*%
X182791100Y-138430000D03*
%TO.P,JP7,3,3*%
X182791100Y-135890000D03*
%TO.P,JP7,4,4*%
X182791100Y-133350000D03*
%TO.P,JP7,5,5*%
X182791100Y-130810000D03*
%TO.P,JP7,6,6*%
X182791100Y-128270000D03*
%TO.P,JP7,7,7*%
X182791100Y-125730000D03*
%TO.P,JP7,8,8*%
X182791100Y-123190000D03*
%TO.P,JP7,9,9*%
X182791100Y-120650000D03*
%TO.P,JP7,10,10*%
X182791100Y-118110000D03*
%TO.P,JP7,11,11*%
X182791100Y-115570000D03*
%TO.P,JP7,12,12*%
X182791100Y-113030000D03*
%TO.P,JP7,13,13*%
X182791100Y-110490000D03*
%TO.P,JP7,14,14*%
X182791100Y-107950000D03*
%TO.P,JP7,15,15*%
X182791100Y-105410000D03*
%TO.P,JP7,16,16*%
X182791100Y-102870000D03*
%TO.P,JP7,17,17*%
X182791100Y-100330000D03*
%TO.P,JP7,18,18*%
X182791100Y-97790000D03*
%TO.P,JP7,19,19*%
X182791100Y-95250000D03*
%TO.P,JP7,20,20*%
X182791100Y-92710000D03*
%TO.P,JP7,21,21*%
X182791100Y-90170000D03*
%TO.P,JP7,22,22*%
X182791100Y-87630000D03*
%TO.P,JP7,23,23*%
X182791100Y-85090000D03*
%TO.P,JP7,24,24*%
X182791100Y-82550000D03*
%TO.P,JP7,25,25*%
X182791100Y-80010000D03*
%TO.P,JP7,26,26*%
X182791100Y-77470000D03*
%TO.P,JP7,27,27*%
X182791100Y-74930000D03*
%TO.P,JP7,28,28*%
X182791100Y-72390000D03*
%TO.P,JP7,29,29*%
X182791100Y-69850000D03*
%TO.P,JP7,30,30*%
X182791100Y-67310000D03*
%TD*%
D10*
%TO.P,TP92,1,1*%
%TO.N,Net-(TP89-Pad1)*%
X149860000Y-105410000D03*
%TD*%
%TO.P,TP303,1,1*%
%TO.N,Net-(TP299-Pad1)*%
X170180000Y-140970000D03*
%TD*%
%TO.P,TP23,1,1*%
%TO.N,Net-(TP19-Pad1)*%
X152400000Y-74930000D03*
%TD*%
%TO.P,TP166,1,1*%
%TO.N,Net-(TP164-Pad1)*%
X165100000Y-72390000D03*
%TD*%
%TO.P,TP43,1,1*%
%TO.N,Net-(TP39-Pad1)*%
X152400000Y-85090000D03*
%TD*%
D23*
%TO.P,J2,1,Pin_1*%
%TO.N,Net-(J2-Pin_1)*%
X130810000Y-140970000D03*
D24*
%TO.P,J2,2,Pin_2*%
%TO.N,/VCM*%
X130810000Y-138430000D03*
%TO.P,J2,3,Pin_3*%
%TO.N,/C*%
X130810000Y-135890000D03*
%TO.P,J2,4,Pin_4*%
%TO.N,Net-(J2-Pin_4)*%
X130810000Y-133350000D03*
%TO.P,J2,5,Pin_5*%
%TO.N,/VCM*%
X130810000Y-130810000D03*
%TO.P,J2,6,Pin_6*%
%TO.N,/D*%
X130810000Y-128270000D03*
%TD*%
D10*
%TO.P,TP121,1,1*%
%TO.N,Net-(TP119-Pad1)*%
X147320000Y-125730000D03*
%TD*%
%TO.P,TP180,1,1*%
%TO.N,Net-(TP179-Pad1)*%
X160020000Y-80010000D03*
%TD*%
%TO.P,TP295,1,1*%
%TO.N,Net-(TP294-Pad1)*%
X162560000Y-138430000D03*
%TD*%
%TO.P,TP13,1,1*%
%TO.N,Net-(TP10-Pad1)*%
X152400000Y-69850000D03*
%TD*%
%TO.P,TP258,1,1*%
%TO.N,Net-(TP254-Pad1)*%
X170180000Y-118110000D03*
%TD*%
%TO.P,TP50,1,1*%
%TO.N,Net-(TP49-Pad1)*%
X144780000Y-90170000D03*
%TD*%
%TO.P,TP38,1,1*%
%TO.N,Net-(TP34-Pad1)*%
X152400000Y-82550000D03*
%TD*%
%TO.P,TP109,1,1*%
%TO.N,Net-(TP109-Pad1)*%
X142240000Y-120650000D03*
%TD*%
%TO.P,TP247,1,1*%
%TO.N,Net-(TP244-Pad1)*%
X167640000Y-113030000D03*
%TD*%
%TO.P,TP74,1,1*%
%TO.N,Net-(TP74-Pad1)*%
X142240000Y-102870000D03*
%TD*%
%TO.P,TP119,1,1*%
%TO.N,Net-(TP119-Pad1)*%
X142240000Y-125730000D03*
%TD*%
%TO.P,TP21,1,1*%
%TO.N,Net-(TP19-Pad1)*%
X147320000Y-74930000D03*
%TD*%
%TO.P,TP245,1,1*%
%TO.N,Net-(TP244-Pad1)*%
X162560000Y-113030000D03*
%TD*%
%TO.P,TP2,1,1*%
%TO.N,/x6*%
X111760000Y-107950000D03*
%TD*%
D12*
%TO.P,R24,1*%
%TO.N,Net-(R11-Pad1)*%
X115570000Y-146050000D03*
D13*
%TO.P,R24,2*%
%TO.N,GND*%
X123190000Y-146050000D03*
%TD*%
D12*
%TO.P,R23,1*%
%TO.N,Net-(R12-Pad1)*%
X111760000Y-121920000D03*
D13*
%TO.P,R23,2*%
%TO.N,GND*%
X111760000Y-114300000D03*
%TD*%
D10*
%TO.P,TP169,1,1*%
%TO.N,Net-(TP169-Pad1)*%
X160020000Y-74930000D03*
%TD*%
%TO.P,TP66,1,1*%
%TO.N,Net-(TP64-Pad1)*%
X147320000Y-97790000D03*
%TD*%
%TO.P,TP301,1,1*%
%TO.N,Net-(TP299-Pad1)*%
X165100000Y-140970000D03*
%TD*%
%TO.P,TP94,1,1*%
%TO.N,Net-(TP94-Pad1)*%
X142240000Y-113030000D03*
%TD*%
%TO.P,TP102,1,1*%
%TO.N,Net-(TP100-Pad1)*%
X149860000Y-115570000D03*
%TD*%
%TO.P,TP95,1,1*%
%TO.N,Net-(TP94-Pad1)*%
X144780000Y-113030000D03*
%TD*%
%TO.P,TP4,1,1*%
%TO.N,Net-(TP4-Pad1)*%
X142240000Y-67310000D03*
%TD*%
%TO.P,TP69,1,1*%
%TO.N,Net-(TP69-Pad1)*%
X142240000Y-100330000D03*
%TD*%
%TO.P,TP57,1,1*%
%TO.N,Net-(TP54-Pad1)*%
X149860000Y-92710000D03*
%TD*%
%TO.P,TP266,1,1*%
%TO.N,Net-(TP264-Pad1)*%
X160020000Y-123190000D03*
%TD*%
%TO.P,TP225,1,1*%
%TO.N,Net-(TP224-Pad1)*%
X162560000Y-102870000D03*
%TD*%
D14*
%TO.P,JP9,1,1*%
%TO.N,/VCM*%
X139611100Y-140970000D03*
D15*
%TO.P,JP9,2,2*%
X139611100Y-138430000D03*
%TO.P,JP9,3,3*%
X139611100Y-135890000D03*
%TO.P,JP9,4,4*%
X139611100Y-133350000D03*
%TO.P,JP9,5,5*%
X139611100Y-130810000D03*
%TO.P,JP9,6,6*%
X139611100Y-128270000D03*
%TO.P,JP9,7,7*%
X139611100Y-125730000D03*
%TO.P,JP9,8,8*%
X139611100Y-123190000D03*
%TO.P,JP9,9,9*%
X139611100Y-120650000D03*
%TO.P,JP9,10,10*%
X139611100Y-118110000D03*
%TO.P,JP9,11,11*%
X139611100Y-115570000D03*
%TO.P,JP9,12,12*%
X139611100Y-113030000D03*
%TO.P,JP9,13,13*%
X139611100Y-110490000D03*
%TO.P,JP9,14,14*%
X139611100Y-107950000D03*
%TO.P,JP9,15,15*%
X139611100Y-105410000D03*
%TO.P,JP9,16,16*%
X139611100Y-102870000D03*
%TO.P,JP9,17,17*%
X139611100Y-100330000D03*
%TO.P,JP9,18,18*%
X139611100Y-97790000D03*
%TO.P,JP9,19,19*%
X139611100Y-95250000D03*
%TO.P,JP9,20,20*%
X139611100Y-92710000D03*
%TO.P,JP9,21,21*%
X139611100Y-90170000D03*
%TO.P,JP9,22,22*%
X139611100Y-87630000D03*
%TO.P,JP9,23,23*%
X139611100Y-85090000D03*
%TO.P,JP9,24,24*%
X139611100Y-82550000D03*
%TO.P,JP9,25,25*%
X139611100Y-80010000D03*
%TO.P,JP9,26,26*%
X139611100Y-77470000D03*
%TO.P,JP9,27,27*%
X139611100Y-74930000D03*
%TO.P,JP9,28,28*%
X139611100Y-72390000D03*
%TO.P,JP9,29,29*%
X139611100Y-69850000D03*
%TO.P,JP9,30,30*%
X139611100Y-67310000D03*
%TD*%
D10*
%TO.P,TP172,1,1*%
%TO.N,Net-(TP169-Pad1)*%
X167640000Y-74930000D03*
%TD*%
%TO.P,TP282,1,1*%
%TO.N,Net-(TP279-Pad1)*%
X167640000Y-130810000D03*
%TD*%
%TO.P,TP136,1,1*%
%TO.N,Net-(TP134-Pad1)*%
X147320000Y-135890000D03*
%TD*%
%TO.P,TP28,1,1*%
%TO.N,Net-(TP24-Pad1)*%
X152400000Y-77470000D03*
%TD*%
%TO.P,TP110,1,1*%
%TO.N,Net-(TP109-Pad1)*%
X144780000Y-120650000D03*
%TD*%
D12*
%TO.P,R25,1*%
%TO.N,Net-(R10-Pad1)*%
X101600000Y-146050000D03*
D13*
%TO.P,R25,2*%
%TO.N,GND*%
X109220000Y-146050000D03*
%TD*%
D12*
%TO.P,R9,1*%
%TO.N,Net-(R19-Pad2)*%
X100330000Y-125730000D03*
D13*
%TO.P,R9,2*%
%TO.N,Net-(U1A--)*%
X100330000Y-133350000D03*
%TD*%
D10*
%TO.P,TP300,1,1*%
%TO.N,Net-(TP299-Pad1)*%
X162560000Y-140970000D03*
%TD*%
%TO.P,TP20,1,1*%
%TO.N,Net-(TP19-Pad1)*%
X144780000Y-74930000D03*
%TD*%
%TO.P,TP207,1,1*%
%TO.N,Net-(TP204-Pad1)*%
X167640000Y-92710000D03*
%TD*%
%TO.P,TP277,1,1*%
%TO.N,Net-(TP274-Pad1)*%
X167640000Y-128270000D03*
%TD*%
%TO.P,TP239,1,1*%
%TO.N,Net-(TP239-Pad1)*%
X160020000Y-110490000D03*
%TD*%
%TO.P,TP203,1,1*%
%TO.N,Net-(TP199-Pad1)*%
X170180000Y-90170000D03*
%TD*%
%TO.P,TP219,1,1*%
%TO.N,Net-(TP219-Pad1)*%
X160020000Y-100330000D03*
%TD*%
D12*
%TO.P,R11,1*%
%TO.N,Net-(R11-Pad1)*%
X115570000Y-143510000D03*
D13*
%TO.P,R11,2*%
%TO.N,Net-(U1C--)*%
X115570000Y-135890000D03*
%TD*%
D10*
%TO.P,TP177,1,1*%
%TO.N,Net-(TP174-Pad1)*%
X167640000Y-77470000D03*
%TD*%
%TO.P,TP182,1,1*%
%TO.N,Net-(TP179-Pad1)*%
X167640000Y-80010000D03*
%TD*%
%TO.P,TP299,1,1*%
%TO.N,Net-(TP299-Pad1)*%
X160020000Y-140970000D03*
%TD*%
%TO.P,TP114,1,1*%
%TO.N,Net-(TP114-Pad1)*%
X142240000Y-123190000D03*
%TD*%
%TO.P,TP89,1,1*%
%TO.N,Net-(TP89-Pad1)*%
X142240000Y-105410000D03*
%TD*%
D12*
%TO.P,R17,1*%
%TO.N,/3.3V*%
X119380000Y-109220000D03*
D13*
%TO.P,R17,2*%
%TO.N,/VCM*%
X127000000Y-109220000D03*
%TD*%
D10*
%TO.P,TP153,1,1*%
%TO.N,Net-(TP149-Pad1)*%
X152400000Y-140970000D03*
%TD*%
%TO.P,TP216,1,1*%
%TO.N,Net-(TP214-Pad1)*%
X165100000Y-97790000D03*
%TD*%
%TO.P,TP141,1,1*%
%TO.N,Net-(TP139-Pad1)*%
X147320000Y-130810000D03*
%TD*%
%TO.P,TP213,1,1*%
%TO.N,Net-(TP209-Pad1)*%
X170180000Y-95250000D03*
%TD*%
%TO.P,TP63,1,1*%
%TO.N,Net-(TP59-Pad1)*%
X152400000Y-95250000D03*
%TD*%
%TO.P,TP113,1,1*%
%TO.N,Net-(TP109-Pad1)*%
X152400000Y-120650000D03*
%TD*%
%TO.P,TP128,1,1*%
%TO.N,Net-(TP124-Pad1)*%
X152400000Y-128270000D03*
%TD*%
%TO.P,TP40,1,1*%
%TO.N,Net-(TP39-Pad1)*%
X144780000Y-85090000D03*
%TD*%
%TO.P,TP269,1,1*%
%TO.N,Net-(TP269-Pad1)*%
X160020000Y-125730000D03*
%TD*%
D12*
%TO.P,R27,1*%
%TO.N,Net-(J4-Pin_6)*%
X127000000Y-69850000D03*
D13*
%TO.P,R27,2*%
%TO.N,Net-(J4-Pin_7)*%
X127000000Y-64770000D03*
%TD*%
D10*
%TO.P,TP60,1,1*%
%TO.N,Net-(TP59-Pad1)*%
X144780000Y-95250000D03*
%TD*%
D12*
%TO.P,R1,1*%
%TO.N,Net-(U1A-+)*%
X119380000Y-111760000D03*
D13*
%TO.P,R1,2*%
%TO.N,/A*%
X127000000Y-111760000D03*
%TD*%
D10*
%TO.P,TP70,1,1*%
%TO.N,Net-(TP69-Pad1)*%
X144780000Y-100330000D03*
%TD*%
%TO.P,TP165,1,1*%
%TO.N,Net-(TP164-Pad1)*%
X162560000Y-72390000D03*
%TD*%
%TO.P,TP243,1,1*%
%TO.N,Net-(TP239-Pad1)*%
X170180000Y-110490000D03*
%TD*%
%TO.P,TP194,1,1*%
%TO.N,Net-(TP194-Pad1)*%
X160020000Y-87630000D03*
%TD*%
%TO.P,TP179,1,1*%
%TO.N,Net-(TP179-Pad1)*%
X165100000Y-80010000D03*
%TD*%
%TO.P,TP189,1,1*%
%TO.N,Net-(TP189-Pad1)*%
X160020000Y-85090000D03*
%TD*%
%TO.P,TP98,1,1*%
%TO.N,Net-(TP94-Pad1)*%
X152400000Y-113030000D03*
%TD*%
%TO.P,TP41,1,1*%
%TO.N,Net-(TP39-Pad1)*%
X147320000Y-85090000D03*
%TD*%
%TO.P,TP263,1,1*%
%TO.N,Net-(TP259-Pad1)*%
X170180000Y-120650000D03*
%TD*%
D25*
%TO.N,/3.3V*%
X104140000Y-92710000D03*
%TO.N,GND*%
X130810000Y-64363600D03*
%TD*%
D26*
%TO.N,5V*%
X185331100Y-66903600D02*
X185331100Y-140970000D01*
D27*
%TO.N,Net-(J4-Pin_6)*%
X125730000Y-68580000D02*
X127000000Y-69850000D01*
X124460000Y-68580000D02*
X125730000Y-68580000D01*
X130810000Y-69850000D02*
X127000000Y-69850000D01*
%TO.N,Net-(J4-Pin_5)*%
X130810000Y-72390000D02*
X127000000Y-72390000D01*
X121920000Y-71120000D02*
X123190000Y-72390000D01*
X123190000Y-72390000D02*
X127000000Y-72390000D01*
X115570000Y-71120000D02*
X121920000Y-71120000D01*
X114300000Y-72390000D02*
X115570000Y-71120000D01*
%TO.N,Net-(J1-Pin_1)*%
X130810000Y-123190000D02*
X127000000Y-123190000D01*
%TO.N,/VCM*%
X130810000Y-138430000D02*
X125730000Y-138430000D01*
X130810000Y-120650000D02*
X129540000Y-120650000D01*
X125730000Y-109220000D02*
X124460000Y-110490000D01*
D26*
X139611100Y-140563600D02*
X139611100Y-99923600D01*
X139611100Y-71983600D02*
X139611100Y-69443600D01*
D27*
X129540000Y-120650000D02*
X128270000Y-121920000D01*
X129540000Y-114300000D02*
X124460000Y-114300000D01*
X127000000Y-102870000D02*
X127000000Y-109220000D01*
D26*
X139611100Y-99923600D02*
X139611100Y-71983600D01*
D27*
X138430000Y-143510000D02*
X125730000Y-143510000D01*
X127000000Y-109220000D02*
X125730000Y-109220000D01*
X124460000Y-130810000D02*
X130810000Y-130810000D01*
X124460000Y-110490000D02*
X124460000Y-114300000D01*
X125730000Y-143510000D02*
X124460000Y-142240000D01*
X124460000Y-139700000D02*
X125730000Y-138430000D01*
X139611100Y-142328900D02*
X138430000Y-143510000D01*
X124460000Y-142240000D02*
X124460000Y-139700000D01*
X127000000Y-97790000D02*
X127000000Y-102870000D01*
X124460000Y-121920000D02*
X124460000Y-130810000D01*
X128270000Y-96520000D02*
X127000000Y-97790000D01*
X128270000Y-121920000D02*
X124460000Y-121920000D01*
X139611100Y-140970000D02*
X139611100Y-142328900D01*
D26*
X139611100Y-69443600D02*
X139611100Y-66903600D01*
D27*
X124460000Y-137160000D02*
X124460000Y-130810000D01*
X125730000Y-138430000D02*
X124460000Y-137160000D01*
X124460000Y-114300000D02*
X124460000Y-121920000D01*
X130810000Y-113030000D02*
X129540000Y-114300000D01*
%TO.N,Net-(J1-Pin_4)*%
X130810000Y-115570000D02*
X127000000Y-115570000D01*
%TO.N,Net-(J2-Pin_1)*%
X130810000Y-140970000D02*
X127000000Y-140970000D01*
%TO.N,Net-(J2-Pin_4)*%
X130810000Y-133350000D02*
X127000000Y-133350000D01*
D26*
%TO.N,/3.3V*%
X121920000Y-105410000D02*
X119380000Y-105410000D01*
D27*
X116840000Y-76200000D02*
X111760000Y-76200000D01*
X123190000Y-80010000D02*
X123190000Y-78740000D01*
X123190000Y-78740000D02*
X120650000Y-76200000D01*
X116840000Y-72390000D02*
X116840000Y-76200000D01*
X105410000Y-76200000D02*
X104140000Y-77470000D01*
D26*
X104140000Y-95250000D02*
X104140000Y-92710000D01*
D27*
X106680000Y-76200000D02*
X105410000Y-76200000D01*
D26*
X118110000Y-101600000D02*
X115570000Y-99060000D01*
D27*
X104140000Y-87708803D02*
X104140000Y-80010000D01*
X119380000Y-109220000D02*
X119380000Y-107950000D01*
D26*
X118110000Y-104140000D02*
X118110000Y-101600000D01*
X123190000Y-143510000D02*
X123190000Y-106680000D01*
X124053600Y-144373600D02*
X123190000Y-143510000D01*
X180251100Y-66903600D02*
X180251100Y-105003600D01*
D27*
X120650000Y-76200000D02*
X116840000Y-76200000D01*
X111760000Y-72390000D02*
X111760000Y-76200000D01*
X124460000Y-81280000D02*
X123190000Y-80010000D01*
D26*
X119380000Y-105410000D02*
X118110000Y-104140000D01*
X123190000Y-106680000D02*
X121920000Y-105410000D01*
D27*
X130810000Y-77470000D02*
X127000000Y-81280000D01*
D28*
X180251100Y-140563600D02*
X180251100Y-138023600D01*
D27*
X127000000Y-81280000D02*
X124460000Y-81280000D01*
X111760000Y-76200000D02*
X106680000Y-76200000D01*
D26*
X180251100Y-105003600D02*
X180251100Y-138023600D01*
X180251100Y-144373600D02*
X124053600Y-144373600D01*
D27*
X106680000Y-72390000D02*
X106680000Y-76200000D01*
D26*
X180251100Y-138023600D02*
X180251100Y-144373600D01*
X107950000Y-99060000D02*
X104140000Y-95250000D01*
D27*
X104140000Y-77470000D02*
X104140000Y-80010000D01*
X119380000Y-107950000D02*
X121920000Y-105410000D01*
D26*
X115570000Y-99060000D02*
X107950000Y-99060000D01*
D27*
%TO.N,Net-(J4-Pin_4)*%
X130810000Y-74930000D02*
X128270000Y-74930000D01*
X125730000Y-80010000D02*
X125730000Y-78740000D01*
X127000000Y-76200000D02*
X127000000Y-77470000D01*
X125730000Y-78740000D02*
X127000000Y-77470000D01*
X128270000Y-74930000D02*
X127000000Y-76200000D01*
%TO.N,Net-(J4-Pin_7)*%
X107950000Y-64770000D02*
X127000000Y-64770000D01*
X130810000Y-67310000D02*
X128270000Y-67310000D01*
X128270000Y-67310000D02*
X127000000Y-66040000D01*
X127000000Y-66040000D02*
X127000000Y-64770000D01*
X104140000Y-72390000D02*
X104140000Y-68580000D01*
X104140000Y-68580000D02*
X107950000Y-64770000D01*
%TO.N,/B*%
X128270000Y-119380000D02*
X127000000Y-119380000D01*
X130810000Y-118110000D02*
X129540000Y-118110000D01*
X129540000Y-118110000D02*
X128270000Y-119380000D01*
%TO.N,Net-(U1A-+)*%
X119380000Y-111760000D02*
X119380000Y-115570000D01*
%TO.N,Net-(U1B-+)*%
X119380000Y-123190000D02*
X119380000Y-119380000D01*
%TO.N,Net-(U1C-+)*%
X119380000Y-140970000D02*
X119380000Y-135890000D01*
%TO.N,Net-(U1D-+)*%
X119380000Y-128270000D02*
X119380000Y-133350000D01*
%TO.N,Net-(R19-Pad2)*%
X104140000Y-125730000D02*
X104140000Y-127000000D01*
X99060000Y-115570000D02*
X99060000Y-118110000D01*
X105410000Y-121920000D02*
X104140000Y-123190000D01*
X99060000Y-118110000D02*
X102870000Y-121920000D01*
X101600000Y-127000000D02*
X104140000Y-127000000D01*
X102870000Y-121920000D02*
X105410000Y-121920000D01*
X104140000Y-123190000D02*
X104140000Y-125730000D01*
X100330000Y-125730000D02*
X101600000Y-127000000D01*
%TO.N,Net-(U1A--)*%
X100330000Y-130810000D02*
X101600000Y-129540000D01*
X101600000Y-129540000D02*
X104140000Y-129540000D01*
X100330000Y-133350000D02*
X100330000Y-130810000D01*
%TO.N,Net-(R10-Pad1)*%
X105410000Y-142240000D02*
X104140000Y-142240000D01*
X106513200Y-141136800D02*
X105410000Y-142240000D01*
X101600000Y-144780000D02*
X100330000Y-143510000D01*
X104140000Y-142240000D02*
X101600000Y-142240000D01*
X106513200Y-120483200D02*
X106513200Y-141136800D01*
X101600000Y-142240000D02*
X100330000Y-143510000D01*
X101600000Y-115570000D02*
X106513200Y-120483200D01*
X101600000Y-146050000D02*
X101600000Y-144780000D01*
%TO.N,Net-(U1B--)*%
X104140000Y-139700000D02*
X102870000Y-139700000D01*
X100330000Y-137160000D02*
X100330000Y-135890000D01*
X102870000Y-139700000D02*
X100330000Y-137160000D01*
%TO.N,Net-(R11-Pad1)*%
X114300000Y-142240000D02*
X115570000Y-143510000D01*
X104140000Y-115570000D02*
X109220000Y-120650000D01*
X115570000Y-146050000D02*
X115570000Y-143510000D01*
X109220000Y-140970000D02*
X110490000Y-142240000D01*
X111760000Y-142240000D02*
X114300000Y-142240000D01*
X110490000Y-142240000D02*
X111760000Y-142240000D01*
X109220000Y-120650000D02*
X109220000Y-140970000D01*
%TO.N,Net-(U1C--)*%
X114300000Y-139700000D02*
X115570000Y-138430000D01*
X115570000Y-138430000D02*
X115570000Y-135890000D01*
X111760000Y-139700000D02*
X114300000Y-139700000D01*
%TO.N,Net-(R12-Pad1)*%
X111760000Y-120650000D02*
X111760000Y-121920000D01*
X114300000Y-127000000D02*
X111760000Y-127000000D01*
X115570000Y-125730000D02*
X114300000Y-127000000D01*
X106680000Y-115570000D02*
X111760000Y-120650000D01*
X111760000Y-121920000D02*
X111760000Y-127000000D01*
%TO.N,Net-(U1D--)*%
X115570000Y-130810000D02*
X114300000Y-129540000D01*
X114300000Y-129540000D02*
X111760000Y-129540000D01*
X115570000Y-133350000D02*
X115570000Y-130810000D01*
%TO.N,Net-(U3-PA02_A0_D0)*%
X99060000Y-107950000D02*
X99060000Y-102948803D01*
%TO.N,Net-(U3-PA4_A1_D1)*%
X101600000Y-107950000D02*
X101600000Y-102948803D01*
%TO.N,Net-(U3-PA10_A2_D2)*%
X104140000Y-107950000D02*
X104140000Y-102948803D01*
%TO.N,Net-(U3-PA11_A3_D3)*%
X106680000Y-107950000D02*
X106680000Y-102948803D01*
%TO.N,Net-(U2-~{CS})*%
X115570000Y-79578418D02*
X115570000Y-83820000D01*
X115570000Y-83820000D02*
X114300000Y-85090000D01*
X114731582Y-78740000D02*
X115570000Y-79578418D01*
X114300000Y-85090000D02*
X114300000Y-87708803D01*
X110490000Y-78740000D02*
X114731582Y-78740000D01*
X109220000Y-80010000D02*
X110490000Y-78740000D01*
%TO.N,Net-(U2-SCK)*%
X111760000Y-87708803D02*
X111760000Y-80010000D01*
%TO.N,Net-(U2-SDI)*%
X113030000Y-88900000D02*
X111760000Y-90170000D01*
X106680000Y-88900000D02*
X106680000Y-87708803D01*
X113030000Y-81280000D02*
X113030000Y-88900000D01*
X107950000Y-90170000D02*
X106680000Y-88900000D01*
X111760000Y-90170000D02*
X107950000Y-90170000D01*
X114300000Y-80010000D02*
X113030000Y-81280000D01*
D26*
%TO.N,GND*%
X137071100Y-64363600D02*
X137071100Y-66903600D01*
X137071100Y-66903600D02*
X137071100Y-105003600D01*
X182791100Y-140563600D02*
X182791100Y-105003600D01*
X182791100Y-66903600D02*
X182791100Y-64363600D01*
X182791100Y-64363600D02*
X137071100Y-64363600D01*
X130810000Y-64363600D02*
X137071100Y-64363600D01*
X137071100Y-105003600D02*
X137071100Y-140563600D01*
X182791100Y-66903600D02*
X182791100Y-105003600D01*
%TO.N,5V*%
X134531100Y-102463600D02*
X134531100Y-110083600D01*
X124460000Y-90170000D02*
X134531100Y-90170000D01*
X134531100Y-110083600D02*
X134531100Y-140563600D01*
X123190000Y-91440000D02*
X124460000Y-90170000D01*
X105410000Y-90170000D02*
X106680000Y-91440000D01*
X134531100Y-66903600D02*
X134531100Y-69443600D01*
X134531100Y-69443600D02*
X134531100Y-71983600D01*
X106680000Y-91440000D02*
X123190000Y-91440000D01*
X130810000Y-82550000D02*
X134531100Y-82550000D01*
X134531100Y-94843600D02*
X134531100Y-92303600D01*
X134531100Y-74523600D02*
X134531100Y-94843600D01*
X134531100Y-71983600D02*
X134531100Y-74523600D01*
X100330000Y-90170000D02*
X105410000Y-90170000D01*
X99060000Y-88900000D02*
X100330000Y-90170000D01*
X134531100Y-94843600D02*
X134531100Y-102463600D01*
X99060000Y-87708803D02*
X99060000Y-88900000D01*
D27*
%TO.N,/A*%
X128270000Y-111760000D02*
X127000000Y-111760000D01*
X129540000Y-110490000D02*
X128270000Y-111760000D01*
X130810000Y-110490000D02*
X129540000Y-110490000D01*
%TO.N,/C*%
X130810000Y-135890000D02*
X127000000Y-135890000D01*
%TO.N,/D*%
X130810000Y-128270000D02*
X127000000Y-128270000D01*
D29*
%TO.N,/x5*%
X109220000Y-102948803D02*
X109220000Y-107950000D01*
%TO.N,/x6*%
X111760000Y-105410000D02*
X111760000Y-107950000D01*
X111760000Y-102948803D02*
X111760000Y-105410000D01*
%TO.N,/x7*%
X114300000Y-102948803D02*
X114300000Y-107950000D01*
%TD*%
M02*
