M48
; DRILL file {KiCad 7.0.7} date Fri May 24 10:23:56 2024
; FORMAT={-:-/ absolute / inch / decimal}
; #@! TF.CreationDate,2024-05-24T10:23:56-04:00
; #@! TF.GenerationSoftware,Kicad,Pcbnew,7.0.7
; #@! TF.FileFunction,Plated,1,2,PTH
FMAT,2
INCH
; #@! TA.AperFunction,Plated,PTH,ComponentDrill
T1C0.0276
; #@! TA.AperFunction,Plated,PTH,ComponentDrill
T2C0.0315
; #@! TA.AperFunction,Plated,PTH,ComponentDrill
T3C0.0394
; #@! TA.AperFunction,Plated,PTH,ViaDrill
T4C0.0400
; #@! TA.AperFunction,Plated,PTH,ComponentDrill
T5C0.0400
%
G90
G05
T1
X3.85Y-4.8
X3.9Y-4.25
X3.9Y-4.55
X3.95Y-4.95
X3.95Y-5.25
X3.95Y-5.35
X3.95Y-5.65
X4.0Y-4.25
X4.0Y-4.55
X4.0Y-5.75
X4.1Y-4.25
X4.1Y-4.55
X4.15Y-4.8
X4.2Y-4.25
X4.2Y-4.55
X4.3Y-4.25
X4.3Y-5.75
X4.4Y-4.25
X4.4Y-4.5
X4.4Y-4.8
X4.5Y-4.25
X4.55Y-4.95
X4.55Y-5.25
X4.55Y-5.35
X4.55Y-5.65
X4.55Y-5.75
X4.7Y-4.3
X4.7Y-4.4
X4.7Y-4.55
X4.7Y-4.7
X4.7Y-4.85
X4.7Y-5.05
X4.7Y-5.25
X4.7Y-5.35
X4.7Y-5.55
X4.75Y-3.8
X4.85Y-5.75
X5.0Y-2.55
X5.0Y-2.75
X5.0Y-2.85
X5.0Y-3.05
X5.0Y-4.3
X5.0Y-4.4
X5.0Y-4.55
X5.0Y-4.7
X5.0Y-4.85
X5.0Y-5.05
X5.0Y-5.25
X5.0Y-5.35
X5.0Y-5.55
X5.05Y-3.8
X5.6Y-2.65
X5.6Y-2.75
X5.6Y-2.85
X5.6Y-2.95
X5.6Y-3.05
X5.6Y-3.15
X5.6Y-3.25
X5.6Y-3.35
X5.6Y-3.45
X5.6Y-3.55
X5.6Y-3.65
X5.6Y-3.75
X5.6Y-3.85
X5.6Y-3.95
X5.6Y-4.05
X5.6Y-4.15
X5.6Y-4.25
X5.6Y-4.35
X5.6Y-4.45
X5.6Y-4.55
X5.6Y-4.65
X5.6Y-4.75
X5.6Y-4.85
X5.6Y-4.95
X5.6Y-5.05
X5.6Y-5.15
X5.6Y-5.25
X5.6Y-5.35
X5.6Y-5.45
X5.6Y-5.55
X5.7Y-2.65
X5.7Y-2.75
X5.7Y-2.85
X5.7Y-2.95
X5.7Y-3.05
X5.7Y-3.15
X5.7Y-3.25
X5.7Y-3.35
X5.7Y-3.45
X5.7Y-3.55
X5.7Y-3.65
X5.7Y-3.75
X5.7Y-3.85
X5.7Y-3.95
X5.7Y-4.05
X5.7Y-4.15
X5.7Y-4.25
X5.7Y-4.35
X5.7Y-4.45
X5.7Y-4.55
X5.7Y-4.65
X5.7Y-4.75
X5.7Y-4.85
X5.7Y-4.95
X5.7Y-5.05
X5.7Y-5.15
X5.7Y-5.25
X5.7Y-5.35
X5.7Y-5.45
X5.7Y-5.55
X5.8Y-2.65
X5.8Y-2.75
X5.8Y-2.85
X5.8Y-2.95
X5.8Y-3.05
X5.8Y-3.15
X5.8Y-3.25
X5.8Y-3.35
X5.8Y-3.45
X5.8Y-3.55
X5.8Y-3.65
X5.8Y-3.75
X5.8Y-3.85
X5.8Y-3.95
X5.8Y-4.05
X5.8Y-4.15
X5.8Y-4.25
X5.8Y-4.35
X5.8Y-4.45
X5.8Y-4.55
X5.8Y-4.65
X5.8Y-4.75
X5.8Y-4.85
X5.8Y-4.95
X5.8Y-5.05
X5.8Y-5.15
X5.8Y-5.25
X5.8Y-5.35
X5.8Y-5.45
X5.8Y-5.55
X5.9Y-2.65
X5.9Y-2.75
X5.9Y-2.85
X5.9Y-2.95
X5.9Y-3.05
X5.9Y-3.15
X5.9Y-3.25
X5.9Y-3.35
X5.9Y-3.45
X5.9Y-3.55
X5.9Y-3.65
X5.9Y-3.75
X5.9Y-3.85
X5.9Y-3.95
X5.9Y-4.05
X5.9Y-4.15
X5.9Y-4.25
X5.9Y-4.35
X5.9Y-4.45
X5.9Y-4.55
X5.9Y-4.65
X5.9Y-4.75
X5.9Y-4.85
X5.9Y-4.95
X5.9Y-5.05
X5.9Y-5.15
X5.9Y-5.25
X5.9Y-5.35
X5.9Y-5.45
X5.9Y-5.55
X6.0Y-2.65
X6.0Y-2.75
X6.0Y-2.85
X6.0Y-2.95
X6.0Y-3.05
X6.0Y-3.15
X6.0Y-3.25
X6.0Y-3.35
X6.0Y-3.45
X6.0Y-3.55
X6.0Y-3.65
X6.0Y-3.75
X6.0Y-3.85
X6.0Y-3.95
X6.0Y-4.05
X6.0Y-4.15
X6.0Y-4.25
X6.0Y-4.35
X6.0Y-4.45
X6.0Y-4.55
X6.0Y-4.65
X6.0Y-4.75
X6.0Y-4.85
X6.0Y-4.95
X6.0Y-5.05
X6.0Y-5.15
X6.0Y-5.25
X6.0Y-5.35
X6.0Y-5.45
X6.0Y-5.55
X6.3Y-2.65
X6.3Y-2.75
X6.3Y-2.85
X6.3Y-2.95
X6.3Y-3.05
X6.3Y-3.15
X6.3Y-3.25
X6.3Y-3.35
X6.3Y-3.45
X6.3Y-3.55
X6.3Y-3.65
X6.3Y-3.75
X6.3Y-3.85
X6.3Y-3.95
X6.3Y-4.05
X6.3Y-4.1496
X6.3Y-4.25
X6.3Y-4.35
X6.3Y-4.45
X6.3Y-4.55
X6.3Y-4.65
X6.3Y-4.75
X6.3Y-4.85
X6.3Y-4.95
X6.3Y-5.05
X6.3Y-5.15
X6.3Y-5.25
X6.3Y-5.35
X6.3Y-5.45
X6.3Y-5.55
X6.4Y-2.65
X6.4Y-2.75
X6.4Y-2.85
X6.4Y-2.95
X6.4Y-3.05
X6.4Y-3.15
X6.4Y-3.25
X6.4Y-3.35
X6.4Y-3.45
X6.4Y-3.55
X6.4Y-3.65
X6.4Y-3.75
X6.4Y-3.85
X6.4Y-3.95
X6.4Y-4.05
X6.4Y-4.1496
X6.4Y-4.25
X6.4Y-4.35
X6.4Y-4.45
X6.4Y-4.55
X6.4Y-4.65
X6.4Y-4.75
X6.4Y-4.85
X6.4Y-4.95
X6.4Y-5.05
X6.4Y-5.15
X6.4Y-5.25
X6.4Y-5.35
X6.4Y-5.45
X6.4Y-5.55
X6.5Y-2.65
X6.5Y-2.75
X6.5Y-2.85
X6.5Y-2.95
X6.5Y-3.05
X6.5Y-3.15
X6.5Y-3.25
X6.5Y-3.35
X6.5Y-3.45
X6.5Y-3.55
X6.5Y-3.65
X6.5Y-3.75
X6.5Y-3.85
X6.5Y-3.95
X6.5Y-4.05
X6.5Y-4.1496
X6.5Y-4.25
X6.5Y-4.35
X6.5Y-4.45
X6.5Y-4.55
X6.5Y-4.65
X6.5Y-4.75
X6.5Y-4.85
X6.5Y-4.95
X6.5Y-5.05
X6.5Y-5.15
X6.5Y-5.25
X6.5Y-5.35
X6.5Y-5.45
X6.5Y-5.55
X6.6Y-2.65
X6.6Y-2.75
X6.6Y-2.85
X6.6Y-2.95
X6.6Y-3.05
X6.6Y-3.15
X6.6Y-3.25
X6.6Y-3.35
X6.6Y-3.45
X6.6Y-3.55
X6.6Y-3.65
X6.6Y-3.75
X6.6Y-3.85
X6.6Y-3.95
X6.6Y-4.05
X6.6Y-4.1496
X6.6Y-4.25
X6.6Y-4.35
X6.6Y-4.45
X6.6Y-4.55
X6.6Y-4.65
X6.6Y-4.75
X6.6Y-4.85
X6.6Y-4.95
X6.6Y-5.05
X6.6Y-5.15
X6.6Y-5.25
X6.6Y-5.35
X6.6Y-5.45
X6.6Y-5.5512
X6.7Y-2.65
X6.7Y-2.75
X6.7Y-2.85
X6.7Y-2.95
X6.7Y-3.05
X6.7Y-3.15
X6.7Y-3.25
X6.7Y-3.35
X6.7Y-3.45
X6.7Y-3.55
X6.7Y-3.65
X6.7Y-3.75
X6.7Y-3.85
X6.7Y-3.95
X6.7Y-4.05
X6.7Y-4.1496
X6.7Y-4.25
X6.7Y-4.35
X6.7Y-4.45
X6.7Y-4.55
X6.7Y-4.65
X6.7Y-4.75
X6.7Y-4.85
X6.7Y-4.95
X6.7Y-5.05
X6.7Y-5.15
X6.7Y-5.25
X6.7Y-5.35
X6.7Y-5.45
X6.7Y-5.55
X6.8Y-2.65
X6.8Y-2.75
X6.8Y-2.85
X6.8Y-2.95
X6.8Y-3.05
X6.8Y-3.15
X6.8Y-3.25
X6.8Y-3.35
X6.8Y-3.45
X6.8Y-3.55
X6.8Y-3.65
X6.8Y-3.75
X6.8Y-3.85
X6.8Y-3.95
X6.8Y-4.05
X6.8Y-4.15
X6.8Y-4.25
X6.8Y-4.35
X6.8Y-4.45
X6.8Y-4.55
X6.8Y-4.65
X6.8Y-4.75
X6.8Y-4.85
X6.8Y-4.95
X6.8Y-5.05
X6.8Y-5.15
X6.8Y-5.25
X6.8Y-5.35
X6.8Y-5.45
X6.8Y-5.55
X6.9Y-2.65
X6.9Y-2.75
X6.9Y-2.85
X6.9Y-2.95
X6.9Y-3.05
X6.9Y-3.15
X6.9Y-3.25
X6.9Y-3.35
X6.9Y-3.45
X6.9Y-3.55
X6.9Y-3.65
X6.9Y-3.75
X6.9Y-3.85
X6.9Y-3.95
X6.9Y-4.05
X6.9Y-4.15
X6.9Y-4.25
X6.9Y-4.35
X6.9Y-4.45
X6.9Y-4.55
X6.9Y-4.65
X6.9Y-4.75
X6.9Y-4.85
X6.9Y-4.95
X6.9Y-5.05
X6.9Y-5.15
X6.9Y-5.25
X6.9Y-5.35
X6.9Y-5.45
X6.9Y-5.55
X7.0Y-2.65
X7.0Y-2.75
X7.0Y-2.85
X7.0Y-2.95
X7.0Y-3.05
X7.0Y-3.15
X7.0Y-3.25
X7.0Y-3.35
X7.0Y-3.45
X7.0Y-3.55
X7.0Y-3.65
X7.0Y-3.75
X7.0Y-3.85
X7.0Y-3.95
X7.0Y-4.05
X7.0Y-4.15
X7.0Y-4.25
X7.0Y-4.35
X7.0Y-4.45
X7.0Y-4.55
X7.0Y-4.65
X7.0Y-4.75
X7.0Y-4.85
X7.0Y-4.95
X7.0Y-5.05
X7.0Y-5.15
X7.0Y-5.25
X7.0Y-5.35
X7.0Y-5.45
X7.0Y-5.55
T2
X4.1Y-2.85
X4.1Y-3.15
X4.1Y-5.0
X4.1Y-5.1
X4.1Y-5.2
X4.1Y-5.3
X4.1Y-5.4
X4.1Y-5.5
X4.1Y-5.6
X4.2Y-2.85
X4.2Y-3.15
X4.3Y-2.85
X4.3Y-3.15
X4.4Y-2.85
X4.4Y-3.15
X4.4Y-5.0
X4.4Y-5.1
X4.4Y-5.2
X4.4Y-5.3
X4.4Y-5.4
X4.4Y-5.5
X4.4Y-5.6
X4.5Y-2.85
X4.5Y-3.15
X4.6Y-2.85
X4.6Y-3.15
X4.7Y-2.85
X4.7Y-3.15
X4.7031Y-2.7
X4.8Y-3.95
X4.8Y-4.15
X4.9Y-2.7
X4.95Y-3.15
X4.95Y-3.3469
X5.0Y-4.05
T3
X3.9Y-3.4531
X3.9Y-4.0531
X4.0Y-3.4531
X4.0Y-4.0531
X4.1Y-3.4531
X4.1Y-4.0531
X4.2Y-3.4531
X4.2Y-4.0531
X4.3Y-3.4531
X4.3Y-4.0531
X4.4Y-3.4531
X4.4Y-4.0531
X4.5Y-3.4531
X4.5Y-4.0531
X5.15Y-2.65
X5.15Y-2.75
X5.15Y-2.85
X5.15Y-2.95
X5.15Y-3.05
X5.15Y-3.15
X5.15Y-3.25
X5.15Y-4.35
X5.15Y-4.45
X5.15Y-4.55
X5.15Y-4.65
X5.15Y-4.75
X5.15Y-4.85
X5.15Y-5.05
X5.15Y-5.15
X5.15Y-5.25
X5.15Y-5.35
X5.15Y-5.45
X5.15Y-5.55
T4
X4.1Y-3.65
X5.15Y-2.534
T5
X5.2965Y-2.65
X5.2965Y-2.75
X5.2965Y-2.85
X5.2965Y-2.95
X5.2965Y-3.05
X5.2965Y-3.15
X5.2965Y-3.25
X5.2965Y-3.35
X5.2965Y-3.45
X5.2965Y-3.55
X5.2965Y-3.65
X5.2965Y-3.75
X5.2965Y-3.85
X5.2965Y-3.95
X5.2965Y-4.05
X5.2965Y-4.15
X5.2965Y-4.25
X5.2965Y-4.35
X5.2965Y-4.45
X5.2965Y-4.55
X5.2965Y-4.65
X5.2965Y-4.75
X5.2965Y-4.85
X5.2965Y-4.95
X5.2965Y-5.05
X5.2965Y-5.15
X5.2965Y-5.25
X5.2965Y-5.35
X5.2965Y-5.45
X5.2965Y-5.55
X5.3965Y-2.65
X5.3965Y-2.75
X5.3965Y-2.85
X5.3965Y-2.95
X5.3965Y-3.05
X5.3965Y-3.15
X5.3965Y-3.25
X5.3965Y-3.35
X5.3965Y-3.45
X5.3965Y-3.55
X5.3965Y-3.65
X5.3965Y-3.75
X5.3965Y-3.85
X5.3965Y-3.95
X5.3965Y-4.05
X5.3965Y-4.15
X5.3965Y-4.25
X5.3965Y-4.35
X5.3965Y-4.45
X5.3965Y-4.55
X5.3965Y-4.65
X5.3965Y-4.75
X5.3965Y-4.85
X5.3965Y-4.95
X5.3965Y-5.05
X5.3965Y-5.15
X5.3965Y-5.25
X5.3965Y-5.35
X5.3965Y-5.45
X5.3965Y-5.55
X5.4965Y-2.65
X5.4965Y-2.75
X5.4965Y-2.85
X5.4965Y-2.95
X5.4965Y-3.05
X5.4965Y-3.15
X5.4965Y-3.25
X5.4965Y-3.35
X5.4965Y-3.45
X5.4965Y-3.55
X5.4965Y-3.65
X5.4965Y-3.75
X5.4965Y-3.85
X5.4965Y-3.95
X5.4965Y-4.05
X5.4965Y-4.15
X5.4965Y-4.25
X5.4965Y-4.35
X5.4965Y-4.45
X5.4965Y-4.55
X5.4965Y-4.65
X5.4965Y-4.75
X5.4965Y-4.85
X5.4965Y-4.95
X5.4965Y-5.05
X5.4965Y-5.15
X5.4965Y-5.25
X5.4965Y-5.35
X5.4965Y-5.45
X5.4965Y-5.55
X7.0965Y-2.65
X7.0965Y-2.75
X7.0965Y-2.85
X7.0965Y-2.95
X7.0965Y-3.05
X7.0965Y-3.15
X7.0965Y-3.25
X7.0965Y-3.35
X7.0965Y-3.45
X7.0965Y-3.55
X7.0965Y-3.65
X7.0965Y-3.75
X7.0965Y-3.85
X7.0965Y-3.95
X7.0965Y-4.05
X7.0965Y-4.15
X7.0965Y-4.25
X7.0965Y-4.35
X7.0965Y-4.45
X7.0965Y-4.55
X7.0965Y-4.65
X7.0965Y-4.75
X7.0965Y-4.85
X7.0965Y-4.95
X7.0965Y-5.05
X7.0965Y-5.15
X7.0965Y-5.25
X7.0965Y-5.35
X7.0965Y-5.45
X7.0965Y-5.55
X7.1965Y-2.65
X7.1965Y-2.75
X7.1965Y-2.85
X7.1965Y-2.95
X7.1965Y-3.05
X7.1965Y-3.15
X7.1965Y-3.25
X7.1965Y-3.35
X7.1965Y-3.45
X7.1965Y-3.55
X7.1965Y-3.65
X7.1965Y-3.75
X7.1965Y-3.85
X7.1965Y-3.95
X7.1965Y-4.05
X7.1965Y-4.15
X7.1965Y-4.25
X7.1965Y-4.35
X7.1965Y-4.45
X7.1965Y-4.55
X7.1965Y-4.65
X7.1965Y-4.75
X7.1965Y-4.85
X7.1965Y-4.95
X7.1965Y-5.05
X7.1965Y-5.15
X7.1965Y-5.25
X7.1965Y-5.35
X7.1965Y-5.45
X7.1965Y-5.55
X7.2965Y-2.65
X7.2965Y-2.75
X7.2965Y-2.85
X7.2965Y-2.95
X7.2965Y-3.05
X7.2965Y-3.15
X7.2965Y-3.25
X7.2965Y-3.35
X7.2965Y-3.45
X7.2965Y-3.55
X7.2965Y-3.65
X7.2965Y-3.75
X7.2965Y-3.85
X7.2965Y-3.95
X7.2965Y-4.05
X7.2965Y-4.15
X7.2965Y-4.25
X7.2965Y-4.35
X7.2965Y-4.45
X7.2965Y-4.55
X7.2965Y-4.65
X7.2965Y-4.75
X7.2965Y-4.85
X7.2965Y-4.95
X7.2965Y-5.05
X7.2965Y-5.15
X7.2965Y-5.25
X7.2965Y-5.35
X7.2965Y-5.45
X7.2965Y-5.55
T0
M30
