%TF.GenerationSoftware,KiCad,Pcbnew,7.0.7*%
%TF.CreationDate,2024-04-26T13:10:04-04:00*%
%TF.ProjectId,xiao-rp2040-uno,7869616f-2d72-4703-9230-34302d756e6f,rev?*%
%TF.SameCoordinates,Original*%
%TF.FileFunction,Legend,Top*%
%TF.FilePolarity,Positive*%
%FSLAX46Y46*%
G04 Gerber Fmt 4.6, Leading zero omitted, Abs format (unit mm)*
G04 Created by KiCad (PCBNEW 7.0.7) date 2024-04-26 13:10:04*
%MOMM*%
%LPD*%
G01*
G04 APERTURE LIST*
%ADD10C,0.152400*%
%ADD11C,0.150000*%
%ADD12C,0.120000*%
G04 APERTURE END LIST*
D10*
X156460571Y-96906095D02*
X156557333Y-96906095D01*
X156557333Y-96906095D02*
X156654095Y-96954476D01*
X156654095Y-96954476D02*
X156702476Y-97002857D01*
X156702476Y-97002857D02*
X156750857Y-97099619D01*
X156750857Y-97099619D02*
X156799238Y-97293143D01*
X156799238Y-97293143D02*
X156799238Y-97535048D01*
X156799238Y-97535048D02*
X156750857Y-97728572D01*
X156750857Y-97728572D02*
X156702476Y-97825334D01*
X156702476Y-97825334D02*
X156654095Y-97873715D01*
X156654095Y-97873715D02*
X156557333Y-97922095D01*
X156557333Y-97922095D02*
X156460571Y-97922095D01*
X156460571Y-97922095D02*
X156363809Y-97873715D01*
X156363809Y-97873715D02*
X156315428Y-97825334D01*
X156315428Y-97825334D02*
X156267047Y-97728572D01*
X156267047Y-97728572D02*
X156218666Y-97535048D01*
X156218666Y-97535048D02*
X156218666Y-97293143D01*
X156218666Y-97293143D02*
X156267047Y-97099619D01*
X156267047Y-97099619D02*
X156315428Y-97002857D01*
X156315428Y-97002857D02*
X156363809Y-96954476D01*
X156363809Y-96954476D02*
X156460571Y-96906095D01*
X157670095Y-97244762D02*
X157670095Y-97922095D01*
X157428190Y-96857715D02*
X157186285Y-97583429D01*
X157186285Y-97583429D02*
X157815238Y-97583429D01*
X158928000Y-96857715D02*
X158057142Y-98164000D01*
X159218285Y-97002857D02*
X159266666Y-96954476D01*
X159266666Y-96954476D02*
X159363428Y-96906095D01*
X159363428Y-96906095D02*
X159605333Y-96906095D01*
X159605333Y-96906095D02*
X159702095Y-96954476D01*
X159702095Y-96954476D02*
X159750476Y-97002857D01*
X159750476Y-97002857D02*
X159798857Y-97099619D01*
X159798857Y-97099619D02*
X159798857Y-97196381D01*
X159798857Y-97196381D02*
X159750476Y-97341524D01*
X159750476Y-97341524D02*
X159169904Y-97922095D01*
X159169904Y-97922095D02*
X159798857Y-97922095D01*
X160669714Y-96906095D02*
X160476190Y-96906095D01*
X160476190Y-96906095D02*
X160379428Y-96954476D01*
X160379428Y-96954476D02*
X160331047Y-97002857D01*
X160331047Y-97002857D02*
X160234285Y-97148000D01*
X160234285Y-97148000D02*
X160185904Y-97341524D01*
X160185904Y-97341524D02*
X160185904Y-97728572D01*
X160185904Y-97728572D02*
X160234285Y-97825334D01*
X160234285Y-97825334D02*
X160282666Y-97873715D01*
X160282666Y-97873715D02*
X160379428Y-97922095D01*
X160379428Y-97922095D02*
X160572952Y-97922095D01*
X160572952Y-97922095D02*
X160669714Y-97873715D01*
X160669714Y-97873715D02*
X160718095Y-97825334D01*
X160718095Y-97825334D02*
X160766476Y-97728572D01*
X160766476Y-97728572D02*
X160766476Y-97486667D01*
X160766476Y-97486667D02*
X160718095Y-97389905D01*
X160718095Y-97389905D02*
X160669714Y-97341524D01*
X160669714Y-97341524D02*
X160572952Y-97293143D01*
X160572952Y-97293143D02*
X160379428Y-97293143D01*
X160379428Y-97293143D02*
X160282666Y-97341524D01*
X160282666Y-97341524D02*
X160234285Y-97389905D01*
X160234285Y-97389905D02*
X160185904Y-97486667D01*
X161927619Y-96857715D02*
X161056761Y-98164000D01*
X162217904Y-97002857D02*
X162266285Y-96954476D01*
X162266285Y-96954476D02*
X162363047Y-96906095D01*
X162363047Y-96906095D02*
X162604952Y-96906095D01*
X162604952Y-96906095D02*
X162701714Y-96954476D01*
X162701714Y-96954476D02*
X162750095Y-97002857D01*
X162750095Y-97002857D02*
X162798476Y-97099619D01*
X162798476Y-97099619D02*
X162798476Y-97196381D01*
X162798476Y-97196381D02*
X162750095Y-97341524D01*
X162750095Y-97341524D02*
X162169523Y-97922095D01*
X162169523Y-97922095D02*
X162798476Y-97922095D01*
X163427428Y-96906095D02*
X163524190Y-96906095D01*
X163524190Y-96906095D02*
X163620952Y-96954476D01*
X163620952Y-96954476D02*
X163669333Y-97002857D01*
X163669333Y-97002857D02*
X163717714Y-97099619D01*
X163717714Y-97099619D02*
X163766095Y-97293143D01*
X163766095Y-97293143D02*
X163766095Y-97535048D01*
X163766095Y-97535048D02*
X163717714Y-97728572D01*
X163717714Y-97728572D02*
X163669333Y-97825334D01*
X163669333Y-97825334D02*
X163620952Y-97873715D01*
X163620952Y-97873715D02*
X163524190Y-97922095D01*
X163524190Y-97922095D02*
X163427428Y-97922095D01*
X163427428Y-97922095D02*
X163330666Y-97873715D01*
X163330666Y-97873715D02*
X163282285Y-97825334D01*
X163282285Y-97825334D02*
X163233904Y-97728572D01*
X163233904Y-97728572D02*
X163185523Y-97535048D01*
X163185523Y-97535048D02*
X163185523Y-97293143D01*
X163185523Y-97293143D02*
X163233904Y-97099619D01*
X163233904Y-97099619D02*
X163282285Y-97002857D01*
X163282285Y-97002857D02*
X163330666Y-96954476D01*
X163330666Y-96954476D02*
X163427428Y-96906095D01*
X164153142Y-97002857D02*
X164201523Y-96954476D01*
X164201523Y-96954476D02*
X164298285Y-96906095D01*
X164298285Y-96906095D02*
X164540190Y-96906095D01*
X164540190Y-96906095D02*
X164636952Y-96954476D01*
X164636952Y-96954476D02*
X164685333Y-97002857D01*
X164685333Y-97002857D02*
X164733714Y-97099619D01*
X164733714Y-97099619D02*
X164733714Y-97196381D01*
X164733714Y-97196381D02*
X164685333Y-97341524D01*
X164685333Y-97341524D02*
X164104761Y-97922095D01*
X164104761Y-97922095D02*
X164733714Y-97922095D01*
X165604571Y-97244762D02*
X165604571Y-97922095D01*
X165362666Y-96857715D02*
X165120761Y-97583429D01*
X165120761Y-97583429D02*
X165749714Y-97583429D01*
D11*
X148200000Y-56760000D02*
X166040000Y-56760000D01*
X166040000Y-67040000D01*
X148200000Y-67040000D01*
X148200000Y-56760000D01*
D10*
X134781963Y-92731713D02*
X134854535Y-92804285D01*
X134854535Y-92804285D02*
X134927106Y-93021999D01*
X134927106Y-93021999D02*
X134927106Y-93167142D01*
X134927106Y-93167142D02*
X134854535Y-93384856D01*
X134854535Y-93384856D02*
X134709392Y-93529999D01*
X134709392Y-93529999D02*
X134564249Y-93602570D01*
X134564249Y-93602570D02*
X134273963Y-93675142D01*
X134273963Y-93675142D02*
X134056249Y-93675142D01*
X134056249Y-93675142D02*
X133765963Y-93602570D01*
X133765963Y-93602570D02*
X133620820Y-93529999D01*
X133620820Y-93529999D02*
X133475677Y-93384856D01*
X133475677Y-93384856D02*
X133403106Y-93167142D01*
X133403106Y-93167142D02*
X133403106Y-93021999D01*
X133403106Y-93021999D02*
X133475677Y-92804285D01*
X133475677Y-92804285D02*
X133548249Y-92731713D01*
X134346535Y-92078570D02*
X134346535Y-90917428D01*
X104394072Y-49766356D02*
X104394072Y-47734356D01*
X104394072Y-47734356D02*
X104877882Y-47734356D01*
X104877882Y-47734356D02*
X105168167Y-47831118D01*
X105168167Y-47831118D02*
X105361691Y-48024642D01*
X105361691Y-48024642D02*
X105458453Y-48218166D01*
X105458453Y-48218166D02*
X105555215Y-48605214D01*
X105555215Y-48605214D02*
X105555215Y-48895499D01*
X105555215Y-48895499D02*
X105458453Y-49282547D01*
X105458453Y-49282547D02*
X105361691Y-49476071D01*
X105361691Y-49476071D02*
X105168167Y-49669595D01*
X105168167Y-49669595D02*
X104877882Y-49766356D01*
X104877882Y-49766356D02*
X104394072Y-49766356D01*
X106426072Y-49766356D02*
X106426072Y-48411690D01*
X106426072Y-47734356D02*
X106329310Y-47831118D01*
X106329310Y-47831118D02*
X106426072Y-47927880D01*
X106426072Y-47927880D02*
X106522834Y-47831118D01*
X106522834Y-47831118D02*
X106426072Y-47734356D01*
X106426072Y-47734356D02*
X106426072Y-47927880D01*
X107103405Y-48411690D02*
X107877501Y-48411690D01*
X107393691Y-49766356D02*
X107393691Y-48024642D01*
X107393691Y-48024642D02*
X107490453Y-47831118D01*
X107490453Y-47831118D02*
X107683977Y-47734356D01*
X107683977Y-47734356D02*
X107877501Y-47734356D01*
X108264548Y-48411690D02*
X109038644Y-48411690D01*
X108554834Y-49766356D02*
X108554834Y-48024642D01*
X108554834Y-48024642D02*
X108651596Y-47831118D01*
X108651596Y-47831118D02*
X108845120Y-47734356D01*
X108845120Y-47734356D02*
X109038644Y-47734356D01*
X112328548Y-49766356D02*
X111167405Y-49766356D01*
X111747977Y-49766356D02*
X111747977Y-47734356D01*
X111747977Y-47734356D02*
X111554453Y-48024642D01*
X111554453Y-48024642D02*
X111360929Y-48218166D01*
X111360929Y-48218166D02*
X111167405Y-48314928D01*
X113586453Y-47734356D02*
X113779976Y-47734356D01*
X113779976Y-47734356D02*
X113973500Y-47831118D01*
X113973500Y-47831118D02*
X114070262Y-47927880D01*
X114070262Y-47927880D02*
X114167024Y-48121404D01*
X114167024Y-48121404D02*
X114263786Y-48508452D01*
X114263786Y-48508452D02*
X114263786Y-48992261D01*
X114263786Y-48992261D02*
X114167024Y-49379309D01*
X114167024Y-49379309D02*
X114070262Y-49572833D01*
X114070262Y-49572833D02*
X113973500Y-49669595D01*
X113973500Y-49669595D02*
X113779976Y-49766356D01*
X113779976Y-49766356D02*
X113586453Y-49766356D01*
X113586453Y-49766356D02*
X113392929Y-49669595D01*
X113392929Y-49669595D02*
X113296167Y-49572833D01*
X113296167Y-49572833D02*
X113199405Y-49379309D01*
X113199405Y-49379309D02*
X113102643Y-48992261D01*
X113102643Y-48992261D02*
X113102643Y-48508452D01*
X113102643Y-48508452D02*
X113199405Y-48121404D01*
X113199405Y-48121404D02*
X113296167Y-47927880D01*
X113296167Y-47927880D02*
X113392929Y-47831118D01*
X113392929Y-47831118D02*
X113586453Y-47734356D01*
X114941119Y-47734356D02*
X116295786Y-49766356D01*
X116295786Y-47734356D02*
X114941119Y-49766356D01*
X104394072Y-53037876D02*
X104394072Y-51005876D01*
X104394072Y-51005876D02*
X105168167Y-51005876D01*
X105168167Y-51005876D02*
X105361691Y-51102638D01*
X105361691Y-51102638D02*
X105458453Y-51199400D01*
X105458453Y-51199400D02*
X105555215Y-51392924D01*
X105555215Y-51392924D02*
X105555215Y-51683210D01*
X105555215Y-51683210D02*
X105458453Y-51876734D01*
X105458453Y-51876734D02*
X105361691Y-51973495D01*
X105361691Y-51973495D02*
X105168167Y-52070257D01*
X105168167Y-52070257D02*
X104394072Y-52070257D01*
X106426072Y-53037876D02*
X106426072Y-51683210D01*
X106426072Y-52070257D02*
X106522834Y-51876734D01*
X106522834Y-51876734D02*
X106619596Y-51779972D01*
X106619596Y-51779972D02*
X106813120Y-51683210D01*
X106813120Y-51683210D02*
X107006643Y-51683210D01*
X107974263Y-53037876D02*
X107780739Y-52941115D01*
X107780739Y-52941115D02*
X107683977Y-52844353D01*
X107683977Y-52844353D02*
X107587215Y-52650829D01*
X107587215Y-52650829D02*
X107587215Y-52070257D01*
X107587215Y-52070257D02*
X107683977Y-51876734D01*
X107683977Y-51876734D02*
X107780739Y-51779972D01*
X107780739Y-51779972D02*
X107974263Y-51683210D01*
X107974263Y-51683210D02*
X108264548Y-51683210D01*
X108264548Y-51683210D02*
X108458072Y-51779972D01*
X108458072Y-51779972D02*
X108554834Y-51876734D01*
X108554834Y-51876734D02*
X108651596Y-52070257D01*
X108651596Y-52070257D02*
X108651596Y-52650829D01*
X108651596Y-52650829D02*
X108554834Y-52844353D01*
X108554834Y-52844353D02*
X108458072Y-52941115D01*
X108458072Y-52941115D02*
X108264548Y-53037876D01*
X108264548Y-53037876D02*
X107974263Y-53037876D01*
X109522453Y-53037876D02*
X109522453Y-51005876D01*
X109522453Y-51779972D02*
X109715977Y-51683210D01*
X109715977Y-51683210D02*
X110103024Y-51683210D01*
X110103024Y-51683210D02*
X110296548Y-51779972D01*
X110296548Y-51779972D02*
X110393310Y-51876734D01*
X110393310Y-51876734D02*
X110490072Y-52070257D01*
X110490072Y-52070257D02*
X110490072Y-52650829D01*
X110490072Y-52650829D02*
X110393310Y-52844353D01*
X110393310Y-52844353D02*
X110296548Y-52941115D01*
X110296548Y-52941115D02*
X110103024Y-53037876D01*
X110103024Y-53037876D02*
X109715977Y-53037876D01*
X109715977Y-53037876D02*
X109522453Y-52941115D01*
X112135024Y-52941115D02*
X111941500Y-53037876D01*
X111941500Y-53037876D02*
X111554453Y-53037876D01*
X111554453Y-53037876D02*
X111360929Y-52941115D01*
X111360929Y-52941115D02*
X111264167Y-52747591D01*
X111264167Y-52747591D02*
X111264167Y-51973495D01*
X111264167Y-51973495D02*
X111360929Y-51779972D01*
X111360929Y-51779972D02*
X111554453Y-51683210D01*
X111554453Y-51683210D02*
X111941500Y-51683210D01*
X111941500Y-51683210D02*
X112135024Y-51779972D01*
X112135024Y-51779972D02*
X112231786Y-51973495D01*
X112231786Y-51973495D02*
X112231786Y-52167019D01*
X112231786Y-52167019D02*
X111264167Y-52360543D01*
X137467106Y-93602570D02*
X135943106Y-93602570D01*
X135943106Y-93602570D02*
X135943106Y-93239713D01*
X135943106Y-93239713D02*
X136015677Y-93021999D01*
X136015677Y-93021999D02*
X136160820Y-92876856D01*
X136160820Y-92876856D02*
X136305963Y-92804285D01*
X136305963Y-92804285D02*
X136596249Y-92731713D01*
X136596249Y-92731713D02*
X136813963Y-92731713D01*
X136813963Y-92731713D02*
X137104249Y-92804285D01*
X137104249Y-92804285D02*
X137249392Y-92876856D01*
X137249392Y-92876856D02*
X137394535Y-93021999D01*
X137394535Y-93021999D02*
X137467106Y-93239713D01*
X137467106Y-93239713D02*
X137467106Y-93602570D01*
X136886535Y-92078570D02*
X136886535Y-90917428D01*
X137467106Y-91497999D02*
X136305963Y-91497999D01*
X113280077Y-93034094D02*
X113219601Y-93130856D01*
X113219601Y-93130856D02*
X113219601Y-93275999D01*
X113219601Y-93275999D02*
X113280077Y-93421142D01*
X113280077Y-93421142D02*
X113401029Y-93517904D01*
X113401029Y-93517904D02*
X113521982Y-93566285D01*
X113521982Y-93566285D02*
X113763886Y-93614666D01*
X113763886Y-93614666D02*
X113945315Y-93614666D01*
X113945315Y-93614666D02*
X114187220Y-93566285D01*
X114187220Y-93566285D02*
X114308172Y-93517904D01*
X114308172Y-93517904D02*
X114429125Y-93421142D01*
X114429125Y-93421142D02*
X114489601Y-93275999D01*
X114489601Y-93275999D02*
X114489601Y-93179237D01*
X114489601Y-93179237D02*
X114429125Y-93034094D01*
X114429125Y-93034094D02*
X114368648Y-92985713D01*
X114368648Y-92985713D02*
X113945315Y-92985713D01*
X113945315Y-92985713D02*
X113945315Y-93179237D01*
X114489601Y-92550285D02*
X113219601Y-92550285D01*
X113219601Y-92550285D02*
X114489601Y-91969713D01*
X114489601Y-91969713D02*
X113219601Y-91969713D01*
X114489601Y-91485904D02*
X113219601Y-91485904D01*
X113219601Y-91485904D02*
X113219601Y-91243999D01*
X113219601Y-91243999D02*
X113280077Y-91098856D01*
X113280077Y-91098856D02*
X113401029Y-91002094D01*
X113401029Y-91002094D02*
X113521982Y-90953713D01*
X113521982Y-90953713D02*
X113763886Y-90905332D01*
X113763886Y-90905332D02*
X113945315Y-90905332D01*
X113945315Y-90905332D02*
X114187220Y-90953713D01*
X114187220Y-90953713D02*
X114308172Y-91002094D01*
X114308172Y-91002094D02*
X114429125Y-91098856D01*
X114429125Y-91098856D02*
X114489601Y-91243999D01*
X114489601Y-91243999D02*
X114489601Y-91485904D01*
X116711677Y-93566285D02*
X116711677Y-92840571D01*
X117147106Y-93711428D02*
X115623106Y-93203428D01*
X115623106Y-93203428D02*
X117147106Y-92695428D01*
X116566535Y-92187427D02*
X116566535Y-91026285D01*
X118888820Y-93094570D02*
X118961392Y-92876856D01*
X118961392Y-92876856D02*
X119033963Y-92804285D01*
X119033963Y-92804285D02*
X119179106Y-92731713D01*
X119179106Y-92731713D02*
X119396820Y-92731713D01*
X119396820Y-92731713D02*
X119541963Y-92804285D01*
X119541963Y-92804285D02*
X119614535Y-92876856D01*
X119614535Y-92876856D02*
X119687106Y-93021999D01*
X119687106Y-93021999D02*
X119687106Y-93602570D01*
X119687106Y-93602570D02*
X118163106Y-93602570D01*
X118163106Y-93602570D02*
X118163106Y-93094570D01*
X118163106Y-93094570D02*
X118235677Y-92949428D01*
X118235677Y-92949428D02*
X118308249Y-92876856D01*
X118308249Y-92876856D02*
X118453392Y-92804285D01*
X118453392Y-92804285D02*
X118598535Y-92804285D01*
X118598535Y-92804285D02*
X118743677Y-92876856D01*
X118743677Y-92876856D02*
X118816249Y-92949428D01*
X118816249Y-92949428D02*
X118888820Y-93094570D01*
X118888820Y-93094570D02*
X118888820Y-93602570D01*
X119106535Y-92078570D02*
X119106535Y-90917428D01*
X119687106Y-91497999D02*
X118525963Y-91497999D01*
X111631677Y-93566285D02*
X111631677Y-92840571D01*
X112067106Y-93711428D02*
X110543106Y-93203428D01*
X110543106Y-93203428D02*
X112067106Y-92695428D01*
X111486535Y-92187427D02*
X111486535Y-91026285D01*
X112067106Y-91606856D02*
X110905963Y-91606856D01*
X152795714Y-51049601D02*
X153642381Y-52319601D01*
X153642381Y-51049601D02*
X152795714Y-52319601D01*
X154126190Y-52319601D02*
X154126190Y-51049601D01*
X154670476Y-51956744D02*
X155275238Y-51956744D01*
X154549524Y-52319601D02*
X154972857Y-51049601D01*
X154972857Y-51049601D02*
X155396191Y-52319601D01*
X156061428Y-51049601D02*
X156303333Y-51049601D01*
X156303333Y-51049601D02*
X156424285Y-51110077D01*
X156424285Y-51110077D02*
X156545238Y-51231029D01*
X156545238Y-51231029D02*
X156605714Y-51472934D01*
X156605714Y-51472934D02*
X156605714Y-51896267D01*
X156605714Y-51896267D02*
X156545238Y-52138172D01*
X156545238Y-52138172D02*
X156424285Y-52259125D01*
X156424285Y-52259125D02*
X156303333Y-52319601D01*
X156303333Y-52319601D02*
X156061428Y-52319601D01*
X156061428Y-52319601D02*
X155940476Y-52259125D01*
X155940476Y-52259125D02*
X155819523Y-52138172D01*
X155819523Y-52138172D02*
X155759047Y-51896267D01*
X155759047Y-51896267D02*
X155759047Y-51472934D01*
X155759047Y-51472934D02*
X155819523Y-51231029D01*
X155819523Y-51231029D02*
X155940476Y-51110077D01*
X155940476Y-51110077D02*
X156061428Y-51049601D01*
X158843333Y-52319601D02*
X158419999Y-51714839D01*
X158117618Y-52319601D02*
X158117618Y-51049601D01*
X158117618Y-51049601D02*
X158601428Y-51049601D01*
X158601428Y-51049601D02*
X158722380Y-51110077D01*
X158722380Y-51110077D02*
X158782857Y-51170553D01*
X158782857Y-51170553D02*
X158843333Y-51291505D01*
X158843333Y-51291505D02*
X158843333Y-51472934D01*
X158843333Y-51472934D02*
X158782857Y-51593886D01*
X158782857Y-51593886D02*
X158722380Y-51654363D01*
X158722380Y-51654363D02*
X158601428Y-51714839D01*
X158601428Y-51714839D02*
X158117618Y-51714839D01*
X159387618Y-52319601D02*
X159387618Y-51049601D01*
X159387618Y-51049601D02*
X159871428Y-51049601D01*
X159871428Y-51049601D02*
X159992380Y-51110077D01*
X159992380Y-51110077D02*
X160052857Y-51170553D01*
X160052857Y-51170553D02*
X160113333Y-51291505D01*
X160113333Y-51291505D02*
X160113333Y-51472934D01*
X160113333Y-51472934D02*
X160052857Y-51593886D01*
X160052857Y-51593886D02*
X159992380Y-51654363D01*
X159992380Y-51654363D02*
X159871428Y-51714839D01*
X159871428Y-51714839D02*
X159387618Y-51714839D01*
X160657618Y-51835791D02*
X161625238Y-51835791D01*
X162169523Y-51170553D02*
X162229999Y-51110077D01*
X162229999Y-51110077D02*
X162350952Y-51049601D01*
X162350952Y-51049601D02*
X162653333Y-51049601D01*
X162653333Y-51049601D02*
X162774285Y-51110077D01*
X162774285Y-51110077D02*
X162834761Y-51170553D01*
X162834761Y-51170553D02*
X162895238Y-51291505D01*
X162895238Y-51291505D02*
X162895238Y-51412458D01*
X162895238Y-51412458D02*
X162834761Y-51593886D01*
X162834761Y-51593886D02*
X162109047Y-52319601D01*
X162109047Y-52319601D02*
X162895238Y-52319601D01*
X163681428Y-51049601D02*
X163802381Y-51049601D01*
X163802381Y-51049601D02*
X163923333Y-51110077D01*
X163923333Y-51110077D02*
X163983809Y-51170553D01*
X163983809Y-51170553D02*
X164044285Y-51291505D01*
X164044285Y-51291505D02*
X164104762Y-51533410D01*
X164104762Y-51533410D02*
X164104762Y-51835791D01*
X164104762Y-51835791D02*
X164044285Y-52077696D01*
X164044285Y-52077696D02*
X163983809Y-52198648D01*
X163983809Y-52198648D02*
X163923333Y-52259125D01*
X163923333Y-52259125D02*
X163802381Y-52319601D01*
X163802381Y-52319601D02*
X163681428Y-52319601D01*
X163681428Y-52319601D02*
X163560476Y-52259125D01*
X163560476Y-52259125D02*
X163500000Y-52198648D01*
X163500000Y-52198648D02*
X163439523Y-52077696D01*
X163439523Y-52077696D02*
X163379047Y-51835791D01*
X163379047Y-51835791D02*
X163379047Y-51533410D01*
X163379047Y-51533410D02*
X163439523Y-51291505D01*
X163439523Y-51291505D02*
X163500000Y-51170553D01*
X163500000Y-51170553D02*
X163560476Y-51110077D01*
X163560476Y-51110077D02*
X163681428Y-51049601D01*
X165193333Y-51472934D02*
X165193333Y-52319601D01*
X164890952Y-50989125D02*
X164588571Y-51896267D01*
X164588571Y-51896267D02*
X165374762Y-51896267D01*
X166100476Y-51049601D02*
X166221429Y-51049601D01*
X166221429Y-51049601D02*
X166342381Y-51110077D01*
X166342381Y-51110077D02*
X166402857Y-51170553D01*
X166402857Y-51170553D02*
X166463333Y-51291505D01*
X166463333Y-51291505D02*
X166523810Y-51533410D01*
X166523810Y-51533410D02*
X166523810Y-51835791D01*
X166523810Y-51835791D02*
X166463333Y-52077696D01*
X166463333Y-52077696D02*
X166402857Y-52198648D01*
X166402857Y-52198648D02*
X166342381Y-52259125D01*
X166342381Y-52259125D02*
X166221429Y-52319601D01*
X166221429Y-52319601D02*
X166100476Y-52319601D01*
X166100476Y-52319601D02*
X165979524Y-52259125D01*
X165979524Y-52259125D02*
X165919048Y-52198648D01*
X165919048Y-52198648D02*
X165858571Y-52077696D01*
X165858571Y-52077696D02*
X165798095Y-51835791D01*
X165798095Y-51835791D02*
X165798095Y-51533410D01*
X165798095Y-51533410D02*
X165858571Y-51291505D01*
X165858571Y-51291505D02*
X165919048Y-51170553D01*
X165919048Y-51170553D02*
X165979524Y-51110077D01*
X165979524Y-51110077D02*
X166100476Y-51049601D01*
X123968820Y-93094570D02*
X124041392Y-92876856D01*
X124041392Y-92876856D02*
X124113963Y-92804285D01*
X124113963Y-92804285D02*
X124259106Y-92731713D01*
X124259106Y-92731713D02*
X124476820Y-92731713D01*
X124476820Y-92731713D02*
X124621963Y-92804285D01*
X124621963Y-92804285D02*
X124694535Y-92876856D01*
X124694535Y-92876856D02*
X124767106Y-93021999D01*
X124767106Y-93021999D02*
X124767106Y-93602570D01*
X124767106Y-93602570D02*
X123243106Y-93602570D01*
X123243106Y-93602570D02*
X123243106Y-93094570D01*
X123243106Y-93094570D02*
X123315677Y-92949428D01*
X123315677Y-92949428D02*
X123388249Y-92876856D01*
X123388249Y-92876856D02*
X123533392Y-92804285D01*
X123533392Y-92804285D02*
X123678535Y-92804285D01*
X123678535Y-92804285D02*
X123823677Y-92876856D01*
X123823677Y-92876856D02*
X123896249Y-92949428D01*
X123896249Y-92949428D02*
X123968820Y-93094570D01*
X123968820Y-93094570D02*
X123968820Y-93602570D01*
X124186535Y-92078570D02*
X124186535Y-90917428D01*
X129701963Y-92731713D02*
X129774535Y-92804285D01*
X129774535Y-92804285D02*
X129847106Y-93021999D01*
X129847106Y-93021999D02*
X129847106Y-93167142D01*
X129847106Y-93167142D02*
X129774535Y-93384856D01*
X129774535Y-93384856D02*
X129629392Y-93529999D01*
X129629392Y-93529999D02*
X129484249Y-93602570D01*
X129484249Y-93602570D02*
X129193963Y-93675142D01*
X129193963Y-93675142D02*
X128976249Y-93675142D01*
X128976249Y-93675142D02*
X128685963Y-93602570D01*
X128685963Y-93602570D02*
X128540820Y-93529999D01*
X128540820Y-93529999D02*
X128395677Y-93384856D01*
X128395677Y-93384856D02*
X128323106Y-93167142D01*
X128323106Y-93167142D02*
X128323106Y-93021999D01*
X128323106Y-93021999D02*
X128395677Y-92804285D01*
X128395677Y-92804285D02*
X128468249Y-92731713D01*
X129266535Y-92078570D02*
X129266535Y-90917428D01*
X129847106Y-91497999D02*
X128685963Y-91497999D01*
X142547106Y-93602570D02*
X141023106Y-93602570D01*
X141023106Y-93602570D02*
X141023106Y-93239713D01*
X141023106Y-93239713D02*
X141095677Y-93021999D01*
X141095677Y-93021999D02*
X141240820Y-92876856D01*
X141240820Y-92876856D02*
X141385963Y-92804285D01*
X141385963Y-92804285D02*
X141676249Y-92731713D01*
X141676249Y-92731713D02*
X141893963Y-92731713D01*
X141893963Y-92731713D02*
X142184249Y-92804285D01*
X142184249Y-92804285D02*
X142329392Y-92876856D01*
X142329392Y-92876856D02*
X142474535Y-93021999D01*
X142474535Y-93021999D02*
X142547106Y-93239713D01*
X142547106Y-93239713D02*
X142547106Y-93602570D01*
X141966535Y-92078570D02*
X141966535Y-90917428D01*
X149187832Y-96769601D02*
X148462117Y-96769601D01*
X148824974Y-96769601D02*
X148824974Y-95499601D01*
X148824974Y-95499601D02*
X148704022Y-95681029D01*
X148704022Y-95681029D02*
X148583070Y-95801982D01*
X148583070Y-95801982D02*
X148462117Y-95862458D01*
X156096744Y-80248476D02*
X156096744Y-79764666D01*
X156459601Y-80345238D02*
X155189601Y-80006571D01*
X155189601Y-80006571D02*
X156459601Y-79667904D01*
X155189601Y-79426000D02*
X156459601Y-79184095D01*
X156459601Y-79184095D02*
X155552458Y-78990571D01*
X155552458Y-78990571D02*
X156459601Y-78797047D01*
X156459601Y-78797047D02*
X155189601Y-78555143D01*
X155250077Y-77635904D02*
X155189601Y-77732666D01*
X155189601Y-77732666D02*
X155189601Y-77877809D01*
X155189601Y-77877809D02*
X155250077Y-78022952D01*
X155250077Y-78022952D02*
X155371029Y-78119714D01*
X155371029Y-78119714D02*
X155491982Y-78168095D01*
X155491982Y-78168095D02*
X155733886Y-78216476D01*
X155733886Y-78216476D02*
X155915315Y-78216476D01*
X155915315Y-78216476D02*
X156157220Y-78168095D01*
X156157220Y-78168095D02*
X156278172Y-78119714D01*
X156278172Y-78119714D02*
X156399125Y-78022952D01*
X156399125Y-78022952D02*
X156459601Y-77877809D01*
X156459601Y-77877809D02*
X156459601Y-77781047D01*
X156459601Y-77781047D02*
X156399125Y-77635904D01*
X156399125Y-77635904D02*
X156338648Y-77587523D01*
X156338648Y-77587523D02*
X155915315Y-77587523D01*
X155915315Y-77587523D02*
X155915315Y-77781047D01*
X155794363Y-76813428D02*
X155854839Y-76668285D01*
X155854839Y-76668285D02*
X155915315Y-76619904D01*
X155915315Y-76619904D02*
X156036267Y-76571523D01*
X156036267Y-76571523D02*
X156217696Y-76571523D01*
X156217696Y-76571523D02*
X156338648Y-76619904D01*
X156338648Y-76619904D02*
X156399125Y-76668285D01*
X156399125Y-76668285D02*
X156459601Y-76765047D01*
X156459601Y-76765047D02*
X156459601Y-77152095D01*
X156459601Y-77152095D02*
X155189601Y-77152095D01*
X155189601Y-77152095D02*
X155189601Y-76813428D01*
X155189601Y-76813428D02*
X155250077Y-76716666D01*
X155250077Y-76716666D02*
X155310553Y-76668285D01*
X155310553Y-76668285D02*
X155431505Y-76619904D01*
X155431505Y-76619904D02*
X155552458Y-76619904D01*
X155552458Y-76619904D02*
X155673410Y-76668285D01*
X155673410Y-76668285D02*
X155733886Y-76716666D01*
X155733886Y-76716666D02*
X155794363Y-76813428D01*
X155794363Y-76813428D02*
X155794363Y-77152095D01*
X125057832Y-57399601D02*
X124332117Y-57399601D01*
X124694974Y-57399601D02*
X124694974Y-56129601D01*
X124694974Y-56129601D02*
X124574022Y-56311029D01*
X124574022Y-56311029D02*
X124453070Y-56431982D01*
X124453070Y-56431982D02*
X124332117Y-56492458D01*
X164443428Y-72135048D02*
X165217524Y-72135048D01*
X164830476Y-72522095D02*
X164830476Y-71748000D01*
X166136762Y-71844762D02*
X166136762Y-72522095D01*
X165894857Y-71457715D02*
X165652952Y-72183429D01*
X165652952Y-72183429D02*
X166281905Y-72183429D01*
X166668952Y-72425334D02*
X166717333Y-72473715D01*
X166717333Y-72473715D02*
X166668952Y-72522095D01*
X166668952Y-72522095D02*
X166620571Y-72473715D01*
X166620571Y-72473715D02*
X166668952Y-72425334D01*
X166668952Y-72425334D02*
X166668952Y-72522095D01*
X167056000Y-71506095D02*
X167733334Y-71506095D01*
X167733334Y-71506095D02*
X167297905Y-72522095D01*
X161455905Y-71554476D02*
X161359143Y-71506095D01*
X161359143Y-71506095D02*
X161214000Y-71506095D01*
X161214000Y-71506095D02*
X161068857Y-71554476D01*
X161068857Y-71554476D02*
X160972095Y-71651238D01*
X160972095Y-71651238D02*
X160923714Y-71748000D01*
X160923714Y-71748000D02*
X160875333Y-71941524D01*
X160875333Y-71941524D02*
X160875333Y-72086667D01*
X160875333Y-72086667D02*
X160923714Y-72280191D01*
X160923714Y-72280191D02*
X160972095Y-72376953D01*
X160972095Y-72376953D02*
X161068857Y-72473715D01*
X161068857Y-72473715D02*
X161214000Y-72522095D01*
X161214000Y-72522095D02*
X161310762Y-72522095D01*
X161310762Y-72522095D02*
X161455905Y-72473715D01*
X161455905Y-72473715D02*
X161504286Y-72425334D01*
X161504286Y-72425334D02*
X161504286Y-72086667D01*
X161504286Y-72086667D02*
X161310762Y-72086667D01*
X161939714Y-72522095D02*
X161939714Y-71506095D01*
X161939714Y-71506095D02*
X162520286Y-72522095D01*
X162520286Y-72522095D02*
X162520286Y-71506095D01*
X163004095Y-72522095D02*
X163004095Y-71506095D01*
X163004095Y-71506095D02*
X163246000Y-71506095D01*
X163246000Y-71506095D02*
X163391143Y-71554476D01*
X163391143Y-71554476D02*
X163487905Y-71651238D01*
X163487905Y-71651238D02*
X163536286Y-71748000D01*
X163536286Y-71748000D02*
X163584667Y-71941524D01*
X163584667Y-71941524D02*
X163584667Y-72086667D01*
X163584667Y-72086667D02*
X163536286Y-72280191D01*
X163536286Y-72280191D02*
X163487905Y-72376953D01*
X163487905Y-72376953D02*
X163391143Y-72473715D01*
X163391143Y-72473715D02*
X163246000Y-72522095D01*
X163246000Y-72522095D02*
X163004095Y-72522095D01*
X150220398Y-57575951D02*
X151490398Y-57575951D01*
X151490398Y-57575951D02*
X151490398Y-58059761D01*
X151490398Y-58059761D02*
X151429922Y-58180713D01*
X151429922Y-58180713D02*
X151369446Y-58241190D01*
X151369446Y-58241190D02*
X151248494Y-58301666D01*
X151248494Y-58301666D02*
X151067065Y-58301666D01*
X151067065Y-58301666D02*
X150946113Y-58241190D01*
X150946113Y-58241190D02*
X150885636Y-58180713D01*
X150885636Y-58180713D02*
X150825160Y-58059761D01*
X150825160Y-58059761D02*
X150825160Y-57575951D01*
X151490398Y-58724999D02*
X150220398Y-59027380D01*
X150220398Y-59027380D02*
X151127541Y-59269285D01*
X151127541Y-59269285D02*
X150220398Y-59511190D01*
X150220398Y-59511190D02*
X151490398Y-59813571D01*
X150220398Y-60297380D02*
X151490398Y-60297380D01*
X151490398Y-60297380D02*
X150583255Y-60720714D01*
X150583255Y-60720714D02*
X151490398Y-61144047D01*
X151490398Y-61144047D02*
X150220398Y-61144047D01*
X131060077Y-93034094D02*
X130999601Y-93130856D01*
X130999601Y-93130856D02*
X130999601Y-93275999D01*
X130999601Y-93275999D02*
X131060077Y-93421142D01*
X131060077Y-93421142D02*
X131181029Y-93517904D01*
X131181029Y-93517904D02*
X131301982Y-93566285D01*
X131301982Y-93566285D02*
X131543886Y-93614666D01*
X131543886Y-93614666D02*
X131725315Y-93614666D01*
X131725315Y-93614666D02*
X131967220Y-93566285D01*
X131967220Y-93566285D02*
X132088172Y-93517904D01*
X132088172Y-93517904D02*
X132209125Y-93421142D01*
X132209125Y-93421142D02*
X132269601Y-93275999D01*
X132269601Y-93275999D02*
X132269601Y-93179237D01*
X132269601Y-93179237D02*
X132209125Y-93034094D01*
X132209125Y-93034094D02*
X132148648Y-92985713D01*
X132148648Y-92985713D02*
X131725315Y-92985713D01*
X131725315Y-92985713D02*
X131725315Y-93179237D01*
X132269601Y-92550285D02*
X130999601Y-92550285D01*
X130999601Y-92550285D02*
X132269601Y-91969713D01*
X132269601Y-91969713D02*
X130999601Y-91969713D01*
X132269601Y-91485904D02*
X130999601Y-91485904D01*
X130999601Y-91485904D02*
X130999601Y-91243999D01*
X130999601Y-91243999D02*
X131060077Y-91098856D01*
X131060077Y-91098856D02*
X131181029Y-91002094D01*
X131181029Y-91002094D02*
X131301982Y-90953713D01*
X131301982Y-90953713D02*
X131543886Y-90905332D01*
X131543886Y-90905332D02*
X131725315Y-90905332D01*
X131725315Y-90905332D02*
X131967220Y-90953713D01*
X131967220Y-90953713D02*
X132088172Y-91002094D01*
X132088172Y-91002094D02*
X132209125Y-91098856D01*
X132209125Y-91098856D02*
X132269601Y-91243999D01*
X132269601Y-91243999D02*
X132269601Y-91485904D01*
X156823428Y-72135048D02*
X157597524Y-72135048D01*
X157210476Y-72522095D02*
X157210476Y-71748000D01*
X157984571Y-71506095D02*
X158613524Y-71506095D01*
X158613524Y-71506095D02*
X158274857Y-71893143D01*
X158274857Y-71893143D02*
X158420000Y-71893143D01*
X158420000Y-71893143D02*
X158516762Y-71941524D01*
X158516762Y-71941524D02*
X158565143Y-71989905D01*
X158565143Y-71989905D02*
X158613524Y-72086667D01*
X158613524Y-72086667D02*
X158613524Y-72328572D01*
X158613524Y-72328572D02*
X158565143Y-72425334D01*
X158565143Y-72425334D02*
X158516762Y-72473715D01*
X158516762Y-72473715D02*
X158420000Y-72522095D01*
X158420000Y-72522095D02*
X158129714Y-72522095D01*
X158129714Y-72522095D02*
X158032952Y-72473715D01*
X158032952Y-72473715D02*
X157984571Y-72425334D01*
X159048952Y-72425334D02*
X159097333Y-72473715D01*
X159097333Y-72473715D02*
X159048952Y-72522095D01*
X159048952Y-72522095D02*
X159000571Y-72473715D01*
X159000571Y-72473715D02*
X159048952Y-72425334D01*
X159048952Y-72425334D02*
X159048952Y-72522095D01*
X159436000Y-71506095D02*
X160064953Y-71506095D01*
X160064953Y-71506095D02*
X159726286Y-71893143D01*
X159726286Y-71893143D02*
X159871429Y-71893143D01*
X159871429Y-71893143D02*
X159968191Y-71941524D01*
X159968191Y-71941524D02*
X160016572Y-71989905D01*
X160016572Y-71989905D02*
X160064953Y-72086667D01*
X160064953Y-72086667D02*
X160064953Y-72328572D01*
X160064953Y-72328572D02*
X160016572Y-72425334D01*
X160016572Y-72425334D02*
X159968191Y-72473715D01*
X159968191Y-72473715D02*
X159871429Y-72522095D01*
X159871429Y-72522095D02*
X159581143Y-72522095D01*
X159581143Y-72522095D02*
X159484381Y-72473715D01*
X159484381Y-72473715D02*
X159436000Y-72425334D01*
X112367381Y-67559601D02*
X112609286Y-67559601D01*
X112609286Y-67559601D02*
X112730238Y-67620077D01*
X112730238Y-67620077D02*
X112851191Y-67741029D01*
X112851191Y-67741029D02*
X112911667Y-67982934D01*
X112911667Y-67982934D02*
X112911667Y-68406267D01*
X112911667Y-68406267D02*
X112851191Y-68648172D01*
X112851191Y-68648172D02*
X112730238Y-68769125D01*
X112730238Y-68769125D02*
X112609286Y-68829601D01*
X112609286Y-68829601D02*
X112367381Y-68829601D01*
X112367381Y-68829601D02*
X112246429Y-68769125D01*
X112246429Y-68769125D02*
X112125476Y-68648172D01*
X112125476Y-68648172D02*
X112065000Y-68406267D01*
X112065000Y-68406267D02*
X112065000Y-67982934D01*
X112065000Y-67982934D02*
X112125476Y-67741029D01*
X112125476Y-67741029D02*
X112246429Y-67620077D01*
X112246429Y-67620077D02*
X112367381Y-67559601D01*
X113879286Y-68164363D02*
X113455952Y-68164363D01*
X113455952Y-68829601D02*
X113455952Y-67559601D01*
X113455952Y-67559601D02*
X114060714Y-67559601D01*
X114967857Y-68164363D02*
X114544523Y-68164363D01*
X114544523Y-68829601D02*
X114544523Y-67559601D01*
X114544523Y-67559601D02*
X115149285Y-67559601D01*
X115572618Y-68769125D02*
X115754047Y-68829601D01*
X115754047Y-68829601D02*
X116056428Y-68829601D01*
X116056428Y-68829601D02*
X116177380Y-68769125D01*
X116177380Y-68769125D02*
X116237856Y-68708648D01*
X116237856Y-68708648D02*
X116298333Y-68587696D01*
X116298333Y-68587696D02*
X116298333Y-68466744D01*
X116298333Y-68466744D02*
X116237856Y-68345791D01*
X116237856Y-68345791D02*
X116177380Y-68285315D01*
X116177380Y-68285315D02*
X116056428Y-68224839D01*
X116056428Y-68224839D02*
X115814523Y-68164363D01*
X115814523Y-68164363D02*
X115693571Y-68103886D01*
X115693571Y-68103886D02*
X115633094Y-68043410D01*
X115633094Y-68043410D02*
X115572618Y-67922458D01*
X115572618Y-67922458D02*
X115572618Y-67801505D01*
X115572618Y-67801505D02*
X115633094Y-67680553D01*
X115633094Y-67680553D02*
X115693571Y-67620077D01*
X115693571Y-67620077D02*
X115814523Y-67559601D01*
X115814523Y-67559601D02*
X116116904Y-67559601D01*
X116116904Y-67559601D02*
X116298333Y-67620077D01*
X116842618Y-68164363D02*
X117265952Y-68164363D01*
X117447380Y-68829601D02*
X116842618Y-68829601D01*
X116842618Y-68829601D02*
X116842618Y-67559601D01*
X116842618Y-67559601D02*
X117447380Y-67559601D01*
X117810238Y-67559601D02*
X118535952Y-67559601D01*
X118173095Y-68829601D02*
X118173095Y-67559601D01*
X147206744Y-76365904D02*
X147206744Y-75882094D01*
X147569601Y-76462666D02*
X146299601Y-76123999D01*
X146299601Y-76123999D02*
X147569601Y-75785332D01*
X146299601Y-75543428D02*
X147569601Y-75301523D01*
X147569601Y-75301523D02*
X146662458Y-75107999D01*
X146662458Y-75107999D02*
X147569601Y-74914475D01*
X147569601Y-74914475D02*
X146299601Y-74672571D01*
X146360077Y-73753332D02*
X146299601Y-73850094D01*
X146299601Y-73850094D02*
X146299601Y-73995237D01*
X146299601Y-73995237D02*
X146360077Y-74140380D01*
X146360077Y-74140380D02*
X146481029Y-74237142D01*
X146481029Y-74237142D02*
X146601982Y-74285523D01*
X146601982Y-74285523D02*
X146843886Y-74333904D01*
X146843886Y-74333904D02*
X147025315Y-74333904D01*
X147025315Y-74333904D02*
X147267220Y-74285523D01*
X147267220Y-74285523D02*
X147388172Y-74237142D01*
X147388172Y-74237142D02*
X147509125Y-74140380D01*
X147509125Y-74140380D02*
X147569601Y-73995237D01*
X147569601Y-73995237D02*
X147569601Y-73898475D01*
X147569601Y-73898475D02*
X147509125Y-73753332D01*
X147509125Y-73753332D02*
X147448648Y-73704951D01*
X147448648Y-73704951D02*
X147025315Y-73704951D01*
X147025315Y-73704951D02*
X147025315Y-73898475D01*
X147206744Y-73317904D02*
X147206744Y-72834094D01*
X147569601Y-73414666D02*
X146299601Y-73075999D01*
X146299601Y-73075999D02*
X147569601Y-72737332D01*
X120900077Y-93034094D02*
X120839601Y-93130856D01*
X120839601Y-93130856D02*
X120839601Y-93275999D01*
X120839601Y-93275999D02*
X120900077Y-93421142D01*
X120900077Y-93421142D02*
X121021029Y-93517904D01*
X121021029Y-93517904D02*
X121141982Y-93566285D01*
X121141982Y-93566285D02*
X121383886Y-93614666D01*
X121383886Y-93614666D02*
X121565315Y-93614666D01*
X121565315Y-93614666D02*
X121807220Y-93566285D01*
X121807220Y-93566285D02*
X121928172Y-93517904D01*
X121928172Y-93517904D02*
X122049125Y-93421142D01*
X122049125Y-93421142D02*
X122109601Y-93275999D01*
X122109601Y-93275999D02*
X122109601Y-93179237D01*
X122109601Y-93179237D02*
X122049125Y-93034094D01*
X122049125Y-93034094D02*
X121988648Y-92985713D01*
X121988648Y-92985713D02*
X121565315Y-92985713D01*
X121565315Y-92985713D02*
X121565315Y-93179237D01*
X122109601Y-92550285D02*
X120839601Y-92550285D01*
X120839601Y-92550285D02*
X122109601Y-91969713D01*
X122109601Y-91969713D02*
X120839601Y-91969713D01*
X122109601Y-91485904D02*
X120839601Y-91485904D01*
X120839601Y-91485904D02*
X120839601Y-91243999D01*
X120839601Y-91243999D02*
X120900077Y-91098856D01*
X120900077Y-91098856D02*
X121021029Y-91002094D01*
X121021029Y-91002094D02*
X121141982Y-90953713D01*
X121141982Y-90953713D02*
X121383886Y-90905332D01*
X121383886Y-90905332D02*
X121565315Y-90905332D01*
X121565315Y-90905332D02*
X121807220Y-90953713D01*
X121807220Y-90953713D02*
X121928172Y-91002094D01*
X121928172Y-91002094D02*
X122049125Y-91098856D01*
X122049125Y-91098856D02*
X122109601Y-91243999D01*
X122109601Y-91243999D02*
X122109601Y-91485904D01*
X138680077Y-93034094D02*
X138619601Y-93130856D01*
X138619601Y-93130856D02*
X138619601Y-93275999D01*
X138619601Y-93275999D02*
X138680077Y-93421142D01*
X138680077Y-93421142D02*
X138801029Y-93517904D01*
X138801029Y-93517904D02*
X138921982Y-93566285D01*
X138921982Y-93566285D02*
X139163886Y-93614666D01*
X139163886Y-93614666D02*
X139345315Y-93614666D01*
X139345315Y-93614666D02*
X139587220Y-93566285D01*
X139587220Y-93566285D02*
X139708172Y-93517904D01*
X139708172Y-93517904D02*
X139829125Y-93421142D01*
X139829125Y-93421142D02*
X139889601Y-93275999D01*
X139889601Y-93275999D02*
X139889601Y-93179237D01*
X139889601Y-93179237D02*
X139829125Y-93034094D01*
X139829125Y-93034094D02*
X139768648Y-92985713D01*
X139768648Y-92985713D02*
X139345315Y-92985713D01*
X139345315Y-92985713D02*
X139345315Y-93179237D01*
X139889601Y-92550285D02*
X138619601Y-92550285D01*
X138619601Y-92550285D02*
X139889601Y-91969713D01*
X139889601Y-91969713D02*
X138619601Y-91969713D01*
X139889601Y-91485904D02*
X138619601Y-91485904D01*
X138619601Y-91485904D02*
X138619601Y-91243999D01*
X138619601Y-91243999D02*
X138680077Y-91098856D01*
X138680077Y-91098856D02*
X138801029Y-91002094D01*
X138801029Y-91002094D02*
X138921982Y-90953713D01*
X138921982Y-90953713D02*
X139163886Y-90905332D01*
X139163886Y-90905332D02*
X139345315Y-90905332D01*
X139345315Y-90905332D02*
X139587220Y-90953713D01*
X139587220Y-90953713D02*
X139708172Y-91002094D01*
X139708172Y-91002094D02*
X139829125Y-91098856D01*
X139829125Y-91098856D02*
X139889601Y-91243999D01*
X139889601Y-91243999D02*
X139889601Y-91485904D01*
D11*
X116964819Y-79966666D02*
X116488628Y-80299999D01*
X116964819Y-80538094D02*
X115964819Y-80538094D01*
X115964819Y-80538094D02*
X115964819Y-80157142D01*
X115964819Y-80157142D02*
X116012438Y-80061904D01*
X116012438Y-80061904D02*
X116060057Y-80014285D01*
X116060057Y-80014285D02*
X116155295Y-79966666D01*
X116155295Y-79966666D02*
X116298152Y-79966666D01*
X116298152Y-79966666D02*
X116393390Y-80014285D01*
X116393390Y-80014285D02*
X116441009Y-80061904D01*
X116441009Y-80061904D02*
X116488628Y-80157142D01*
X116488628Y-80157142D02*
X116488628Y-80538094D01*
X116060057Y-79585713D02*
X116012438Y-79538094D01*
X116012438Y-79538094D02*
X115964819Y-79442856D01*
X115964819Y-79442856D02*
X115964819Y-79204761D01*
X115964819Y-79204761D02*
X116012438Y-79109523D01*
X116012438Y-79109523D02*
X116060057Y-79061904D01*
X116060057Y-79061904D02*
X116155295Y-79014285D01*
X116155295Y-79014285D02*
X116250533Y-79014285D01*
X116250533Y-79014285D02*
X116393390Y-79061904D01*
X116393390Y-79061904D02*
X116964819Y-79633332D01*
X116964819Y-79633332D02*
X116964819Y-79014285D01*
X161587142Y-82674819D02*
X161253809Y-82198628D01*
X161015714Y-82674819D02*
X161015714Y-81674819D01*
X161015714Y-81674819D02*
X161396666Y-81674819D01*
X161396666Y-81674819D02*
X161491904Y-81722438D01*
X161491904Y-81722438D02*
X161539523Y-81770057D01*
X161539523Y-81770057D02*
X161587142Y-81865295D01*
X161587142Y-81865295D02*
X161587142Y-82008152D01*
X161587142Y-82008152D02*
X161539523Y-82103390D01*
X161539523Y-82103390D02*
X161491904Y-82151009D01*
X161491904Y-82151009D02*
X161396666Y-82198628D01*
X161396666Y-82198628D02*
X161015714Y-82198628D01*
X161968095Y-81770057D02*
X162015714Y-81722438D01*
X162015714Y-81722438D02*
X162110952Y-81674819D01*
X162110952Y-81674819D02*
X162349047Y-81674819D01*
X162349047Y-81674819D02*
X162444285Y-81722438D01*
X162444285Y-81722438D02*
X162491904Y-81770057D01*
X162491904Y-81770057D02*
X162539523Y-81865295D01*
X162539523Y-81865295D02*
X162539523Y-81960533D01*
X162539523Y-81960533D02*
X162491904Y-82103390D01*
X162491904Y-82103390D02*
X161920476Y-82674819D01*
X161920476Y-82674819D02*
X162539523Y-82674819D01*
X163110952Y-82103390D02*
X163015714Y-82055771D01*
X163015714Y-82055771D02*
X162968095Y-82008152D01*
X162968095Y-82008152D02*
X162920476Y-81912914D01*
X162920476Y-81912914D02*
X162920476Y-81865295D01*
X162920476Y-81865295D02*
X162968095Y-81770057D01*
X162968095Y-81770057D02*
X163015714Y-81722438D01*
X163015714Y-81722438D02*
X163110952Y-81674819D01*
X163110952Y-81674819D02*
X163301428Y-81674819D01*
X163301428Y-81674819D02*
X163396666Y-81722438D01*
X163396666Y-81722438D02*
X163444285Y-81770057D01*
X163444285Y-81770057D02*
X163491904Y-81865295D01*
X163491904Y-81865295D02*
X163491904Y-81912914D01*
X163491904Y-81912914D02*
X163444285Y-82008152D01*
X163444285Y-82008152D02*
X163396666Y-82055771D01*
X163396666Y-82055771D02*
X163301428Y-82103390D01*
X163301428Y-82103390D02*
X163110952Y-82103390D01*
X163110952Y-82103390D02*
X163015714Y-82151009D01*
X163015714Y-82151009D02*
X162968095Y-82198628D01*
X162968095Y-82198628D02*
X162920476Y-82293866D01*
X162920476Y-82293866D02*
X162920476Y-82484342D01*
X162920476Y-82484342D02*
X162968095Y-82579580D01*
X162968095Y-82579580D02*
X163015714Y-82627200D01*
X163015714Y-82627200D02*
X163110952Y-82674819D01*
X163110952Y-82674819D02*
X163301428Y-82674819D01*
X163301428Y-82674819D02*
X163396666Y-82627200D01*
X163396666Y-82627200D02*
X163444285Y-82579580D01*
X163444285Y-82579580D02*
X163491904Y-82484342D01*
X163491904Y-82484342D02*
X163491904Y-82293866D01*
X163491904Y-82293866D02*
X163444285Y-82198628D01*
X163444285Y-82198628D02*
X163396666Y-82151009D01*
X163396666Y-82151009D02*
X163301428Y-82103390D01*
X146347142Y-84529819D02*
X146013809Y-84053628D01*
X145775714Y-84529819D02*
X145775714Y-83529819D01*
X145775714Y-83529819D02*
X146156666Y-83529819D01*
X146156666Y-83529819D02*
X146251904Y-83577438D01*
X146251904Y-83577438D02*
X146299523Y-83625057D01*
X146299523Y-83625057D02*
X146347142Y-83720295D01*
X146347142Y-83720295D02*
X146347142Y-83863152D01*
X146347142Y-83863152D02*
X146299523Y-83958390D01*
X146299523Y-83958390D02*
X146251904Y-84006009D01*
X146251904Y-84006009D02*
X146156666Y-84053628D01*
X146156666Y-84053628D02*
X145775714Y-84053628D01*
X146728095Y-83625057D02*
X146775714Y-83577438D01*
X146775714Y-83577438D02*
X146870952Y-83529819D01*
X146870952Y-83529819D02*
X147109047Y-83529819D01*
X147109047Y-83529819D02*
X147204285Y-83577438D01*
X147204285Y-83577438D02*
X147251904Y-83625057D01*
X147251904Y-83625057D02*
X147299523Y-83720295D01*
X147299523Y-83720295D02*
X147299523Y-83815533D01*
X147299523Y-83815533D02*
X147251904Y-83958390D01*
X147251904Y-83958390D02*
X146680476Y-84529819D01*
X146680476Y-84529819D02*
X147299523Y-84529819D01*
X147632857Y-83529819D02*
X148299523Y-83529819D01*
X148299523Y-83529819D02*
X147870952Y-84529819D01*
X166764819Y-69853333D02*
X167479104Y-69853333D01*
X167479104Y-69853333D02*
X167621961Y-69900952D01*
X167621961Y-69900952D02*
X167717200Y-69996190D01*
X167717200Y-69996190D02*
X167764819Y-70139047D01*
X167764819Y-70139047D02*
X167764819Y-70234285D01*
X166764819Y-68948571D02*
X166764819Y-69139047D01*
X166764819Y-69139047D02*
X166812438Y-69234285D01*
X166812438Y-69234285D02*
X166860057Y-69281904D01*
X166860057Y-69281904D02*
X167002914Y-69377142D01*
X167002914Y-69377142D02*
X167193390Y-69424761D01*
X167193390Y-69424761D02*
X167574342Y-69424761D01*
X167574342Y-69424761D02*
X167669580Y-69377142D01*
X167669580Y-69377142D02*
X167717200Y-69329523D01*
X167717200Y-69329523D02*
X167764819Y-69234285D01*
X167764819Y-69234285D02*
X167764819Y-69043809D01*
X167764819Y-69043809D02*
X167717200Y-68948571D01*
X167717200Y-68948571D02*
X167669580Y-68900952D01*
X167669580Y-68900952D02*
X167574342Y-68853333D01*
X167574342Y-68853333D02*
X167336247Y-68853333D01*
X167336247Y-68853333D02*
X167241009Y-68900952D01*
X167241009Y-68900952D02*
X167193390Y-68948571D01*
X167193390Y-68948571D02*
X167145771Y-69043809D01*
X167145771Y-69043809D02*
X167145771Y-69234285D01*
X167145771Y-69234285D02*
X167193390Y-69329523D01*
X167193390Y-69329523D02*
X167241009Y-69377142D01*
X167241009Y-69377142D02*
X167336247Y-69424761D01*
X129664819Y-79966666D02*
X129188628Y-80299999D01*
X129664819Y-80538094D02*
X128664819Y-80538094D01*
X128664819Y-80538094D02*
X128664819Y-80157142D01*
X128664819Y-80157142D02*
X128712438Y-80061904D01*
X128712438Y-80061904D02*
X128760057Y-80014285D01*
X128760057Y-80014285D02*
X128855295Y-79966666D01*
X128855295Y-79966666D02*
X128998152Y-79966666D01*
X128998152Y-79966666D02*
X129093390Y-80014285D01*
X129093390Y-80014285D02*
X129141009Y-80061904D01*
X129141009Y-80061904D02*
X129188628Y-80157142D01*
X129188628Y-80157142D02*
X129188628Y-80538094D01*
X128664819Y-79061904D02*
X128664819Y-79538094D01*
X128664819Y-79538094D02*
X129141009Y-79585713D01*
X129141009Y-79585713D02*
X129093390Y-79538094D01*
X129093390Y-79538094D02*
X129045771Y-79442856D01*
X129045771Y-79442856D02*
X129045771Y-79204761D01*
X129045771Y-79204761D02*
X129093390Y-79109523D01*
X129093390Y-79109523D02*
X129141009Y-79061904D01*
X129141009Y-79061904D02*
X129236247Y-79014285D01*
X129236247Y-79014285D02*
X129474342Y-79014285D01*
X129474342Y-79014285D02*
X129569580Y-79061904D01*
X129569580Y-79061904D02*
X129617200Y-79109523D01*
X129617200Y-79109523D02*
X129664819Y-79204761D01*
X129664819Y-79204761D02*
X129664819Y-79442856D01*
X129664819Y-79442856D02*
X129617200Y-79538094D01*
X129617200Y-79538094D02*
X129569580Y-79585713D01*
X125908095Y-53734819D02*
X125908095Y-54544342D01*
X125908095Y-54544342D02*
X125955714Y-54639580D01*
X125955714Y-54639580D02*
X126003333Y-54687200D01*
X126003333Y-54687200D02*
X126098571Y-54734819D01*
X126098571Y-54734819D02*
X126289047Y-54734819D01*
X126289047Y-54734819D02*
X126384285Y-54687200D01*
X126384285Y-54687200D02*
X126431904Y-54639580D01*
X126431904Y-54639580D02*
X126479523Y-54544342D01*
X126479523Y-54544342D02*
X126479523Y-53734819D01*
X127479523Y-54734819D02*
X126908095Y-54734819D01*
X127193809Y-54734819D02*
X127193809Y-53734819D01*
X127193809Y-53734819D02*
X127098571Y-53877676D01*
X127098571Y-53877676D02*
X127003333Y-53972914D01*
X127003333Y-53972914D02*
X126908095Y-54020533D01*
X128789523Y-74844819D02*
X128313333Y-74844819D01*
X128313333Y-74844819D02*
X128313333Y-73844819D01*
X129122857Y-74844819D02*
X129122857Y-73844819D01*
X129122857Y-73844819D02*
X129456190Y-74559104D01*
X129456190Y-74559104D02*
X129789523Y-73844819D01*
X129789523Y-73844819D02*
X129789523Y-74844819D01*
X130170476Y-73844819D02*
X130789523Y-73844819D01*
X130789523Y-73844819D02*
X130456190Y-74225771D01*
X130456190Y-74225771D02*
X130599047Y-74225771D01*
X130599047Y-74225771D02*
X130694285Y-74273390D01*
X130694285Y-74273390D02*
X130741904Y-74321009D01*
X130741904Y-74321009D02*
X130789523Y-74416247D01*
X130789523Y-74416247D02*
X130789523Y-74654342D01*
X130789523Y-74654342D02*
X130741904Y-74749580D01*
X130741904Y-74749580D02*
X130694285Y-74797200D01*
X130694285Y-74797200D02*
X130599047Y-74844819D01*
X130599047Y-74844819D02*
X130313333Y-74844819D01*
X130313333Y-74844819D02*
X130218095Y-74797200D01*
X130218095Y-74797200D02*
X130170476Y-74749580D01*
X131170476Y-73940057D02*
X131218095Y-73892438D01*
X131218095Y-73892438D02*
X131313333Y-73844819D01*
X131313333Y-73844819D02*
X131551428Y-73844819D01*
X131551428Y-73844819D02*
X131646666Y-73892438D01*
X131646666Y-73892438D02*
X131694285Y-73940057D01*
X131694285Y-73940057D02*
X131741904Y-74035295D01*
X131741904Y-74035295D02*
X131741904Y-74130533D01*
X131741904Y-74130533D02*
X131694285Y-74273390D01*
X131694285Y-74273390D02*
X131122857Y-74844819D01*
X131122857Y-74844819D02*
X131741904Y-74844819D01*
X132599047Y-74178152D02*
X132599047Y-74844819D01*
X132360952Y-73797200D02*
X132122857Y-74511485D01*
X132122857Y-74511485D02*
X132741904Y-74511485D01*
X144283333Y-78769580D02*
X144235714Y-78817200D01*
X144235714Y-78817200D02*
X144092857Y-78864819D01*
X144092857Y-78864819D02*
X143997619Y-78864819D01*
X143997619Y-78864819D02*
X143854762Y-78817200D01*
X143854762Y-78817200D02*
X143759524Y-78721961D01*
X143759524Y-78721961D02*
X143711905Y-78626723D01*
X143711905Y-78626723D02*
X143664286Y-78436247D01*
X143664286Y-78436247D02*
X143664286Y-78293390D01*
X143664286Y-78293390D02*
X143711905Y-78102914D01*
X143711905Y-78102914D02*
X143759524Y-78007676D01*
X143759524Y-78007676D02*
X143854762Y-77912438D01*
X143854762Y-77912438D02*
X143997619Y-77864819D01*
X143997619Y-77864819D02*
X144092857Y-77864819D01*
X144092857Y-77864819D02*
X144235714Y-77912438D01*
X144235714Y-77912438D02*
X144283333Y-77960057D01*
X145235714Y-78864819D02*
X144664286Y-78864819D01*
X144950000Y-78864819D02*
X144950000Y-77864819D01*
X144950000Y-77864819D02*
X144854762Y-78007676D01*
X144854762Y-78007676D02*
X144759524Y-78102914D01*
X144759524Y-78102914D02*
X144664286Y-78150533D01*
X123964819Y-59526666D02*
X123488628Y-59859999D01*
X123964819Y-60098094D02*
X122964819Y-60098094D01*
X122964819Y-60098094D02*
X122964819Y-59717142D01*
X122964819Y-59717142D02*
X123012438Y-59621904D01*
X123012438Y-59621904D02*
X123060057Y-59574285D01*
X123060057Y-59574285D02*
X123155295Y-59526666D01*
X123155295Y-59526666D02*
X123298152Y-59526666D01*
X123298152Y-59526666D02*
X123393390Y-59574285D01*
X123393390Y-59574285D02*
X123441009Y-59621904D01*
X123441009Y-59621904D02*
X123488628Y-59717142D01*
X123488628Y-59717142D02*
X123488628Y-60098094D01*
X123964819Y-59050475D02*
X123964819Y-58859999D01*
X123964819Y-58859999D02*
X123917200Y-58764761D01*
X123917200Y-58764761D02*
X123869580Y-58717142D01*
X123869580Y-58717142D02*
X123726723Y-58621904D01*
X123726723Y-58621904D02*
X123536247Y-58574285D01*
X123536247Y-58574285D02*
X123155295Y-58574285D01*
X123155295Y-58574285D02*
X123060057Y-58621904D01*
X123060057Y-58621904D02*
X123012438Y-58669523D01*
X123012438Y-58669523D02*
X122964819Y-58764761D01*
X122964819Y-58764761D02*
X122964819Y-58955237D01*
X122964819Y-58955237D02*
X123012438Y-59050475D01*
X123012438Y-59050475D02*
X123060057Y-59098094D01*
X123060057Y-59098094D02*
X123155295Y-59145713D01*
X123155295Y-59145713D02*
X123393390Y-59145713D01*
X123393390Y-59145713D02*
X123488628Y-59098094D01*
X123488628Y-59098094D02*
X123536247Y-59050475D01*
X123536247Y-59050475D02*
X123583866Y-58955237D01*
X123583866Y-58955237D02*
X123583866Y-58764761D01*
X123583866Y-58764761D02*
X123536247Y-58669523D01*
X123536247Y-58669523D02*
X123488628Y-58621904D01*
X123488628Y-58621904D02*
X123393390Y-58574285D01*
X113327142Y-62354819D02*
X112993809Y-61878628D01*
X112755714Y-62354819D02*
X112755714Y-61354819D01*
X112755714Y-61354819D02*
X113136666Y-61354819D01*
X113136666Y-61354819D02*
X113231904Y-61402438D01*
X113231904Y-61402438D02*
X113279523Y-61450057D01*
X113279523Y-61450057D02*
X113327142Y-61545295D01*
X113327142Y-61545295D02*
X113327142Y-61688152D01*
X113327142Y-61688152D02*
X113279523Y-61783390D01*
X113279523Y-61783390D02*
X113231904Y-61831009D01*
X113231904Y-61831009D02*
X113136666Y-61878628D01*
X113136666Y-61878628D02*
X112755714Y-61878628D01*
X114279523Y-62354819D02*
X113708095Y-62354819D01*
X113993809Y-62354819D02*
X113993809Y-61354819D01*
X113993809Y-61354819D02*
X113898571Y-61497676D01*
X113898571Y-61497676D02*
X113803333Y-61592914D01*
X113803333Y-61592914D02*
X113708095Y-61640533D01*
X114612857Y-61354819D02*
X115279523Y-61354819D01*
X115279523Y-61354819D02*
X114850952Y-62354819D01*
X166494819Y-54613333D02*
X167209104Y-54613333D01*
X167209104Y-54613333D02*
X167351961Y-54660952D01*
X167351961Y-54660952D02*
X167447200Y-54756190D01*
X167447200Y-54756190D02*
X167494819Y-54899047D01*
X167494819Y-54899047D02*
X167494819Y-54994285D01*
X166494819Y-53660952D02*
X166494819Y-54137142D01*
X166494819Y-54137142D02*
X166971009Y-54184761D01*
X166971009Y-54184761D02*
X166923390Y-54137142D01*
X166923390Y-54137142D02*
X166875771Y-54041904D01*
X166875771Y-54041904D02*
X166875771Y-53803809D01*
X166875771Y-53803809D02*
X166923390Y-53708571D01*
X166923390Y-53708571D02*
X166971009Y-53660952D01*
X166971009Y-53660952D02*
X167066247Y-53613333D01*
X167066247Y-53613333D02*
X167304342Y-53613333D01*
X167304342Y-53613333D02*
X167399580Y-53660952D01*
X167399580Y-53660952D02*
X167447200Y-53708571D01*
X167447200Y-53708571D02*
X167494819Y-53803809D01*
X167494819Y-53803809D02*
X167494819Y-54041904D01*
X167494819Y-54041904D02*
X167447200Y-54137142D01*
X167447200Y-54137142D02*
X167399580Y-54184761D01*
X119504819Y-79966666D02*
X119028628Y-80299999D01*
X119504819Y-80538094D02*
X118504819Y-80538094D01*
X118504819Y-80538094D02*
X118504819Y-80157142D01*
X118504819Y-80157142D02*
X118552438Y-80061904D01*
X118552438Y-80061904D02*
X118600057Y-80014285D01*
X118600057Y-80014285D02*
X118695295Y-79966666D01*
X118695295Y-79966666D02*
X118838152Y-79966666D01*
X118838152Y-79966666D02*
X118933390Y-80014285D01*
X118933390Y-80014285D02*
X118981009Y-80061904D01*
X118981009Y-80061904D02*
X119028628Y-80157142D01*
X119028628Y-80157142D02*
X119028628Y-80538094D01*
X118504819Y-79633332D02*
X118504819Y-79014285D01*
X118504819Y-79014285D02*
X118885771Y-79347618D01*
X118885771Y-79347618D02*
X118885771Y-79204761D01*
X118885771Y-79204761D02*
X118933390Y-79109523D01*
X118933390Y-79109523D02*
X118981009Y-79061904D01*
X118981009Y-79061904D02*
X119076247Y-79014285D01*
X119076247Y-79014285D02*
X119314342Y-79014285D01*
X119314342Y-79014285D02*
X119409580Y-79061904D01*
X119409580Y-79061904D02*
X119457200Y-79109523D01*
X119457200Y-79109523D02*
X119504819Y-79204761D01*
X119504819Y-79204761D02*
X119504819Y-79490475D01*
X119504819Y-79490475D02*
X119457200Y-79585713D01*
X119457200Y-79585713D02*
X119409580Y-79633332D01*
X137284819Y-79966666D02*
X136808628Y-80299999D01*
X137284819Y-80538094D02*
X136284819Y-80538094D01*
X136284819Y-80538094D02*
X136284819Y-80157142D01*
X136284819Y-80157142D02*
X136332438Y-80061904D01*
X136332438Y-80061904D02*
X136380057Y-80014285D01*
X136380057Y-80014285D02*
X136475295Y-79966666D01*
X136475295Y-79966666D02*
X136618152Y-79966666D01*
X136618152Y-79966666D02*
X136713390Y-80014285D01*
X136713390Y-80014285D02*
X136761009Y-80061904D01*
X136761009Y-80061904D02*
X136808628Y-80157142D01*
X136808628Y-80157142D02*
X136808628Y-80538094D01*
X136284819Y-79633332D02*
X136284819Y-78966666D01*
X136284819Y-78966666D02*
X137284819Y-79395237D01*
X145077142Y-68084819D02*
X144743809Y-67608628D01*
X144505714Y-68084819D02*
X144505714Y-67084819D01*
X144505714Y-67084819D02*
X144886666Y-67084819D01*
X144886666Y-67084819D02*
X144981904Y-67132438D01*
X144981904Y-67132438D02*
X145029523Y-67180057D01*
X145029523Y-67180057D02*
X145077142Y-67275295D01*
X145077142Y-67275295D02*
X145077142Y-67418152D01*
X145077142Y-67418152D02*
X145029523Y-67513390D01*
X145029523Y-67513390D02*
X144981904Y-67561009D01*
X144981904Y-67561009D02*
X144886666Y-67608628D01*
X144886666Y-67608628D02*
X144505714Y-67608628D01*
X145458095Y-67180057D02*
X145505714Y-67132438D01*
X145505714Y-67132438D02*
X145600952Y-67084819D01*
X145600952Y-67084819D02*
X145839047Y-67084819D01*
X145839047Y-67084819D02*
X145934285Y-67132438D01*
X145934285Y-67132438D02*
X145981904Y-67180057D01*
X145981904Y-67180057D02*
X146029523Y-67275295D01*
X146029523Y-67275295D02*
X146029523Y-67370533D01*
X146029523Y-67370533D02*
X145981904Y-67513390D01*
X145981904Y-67513390D02*
X145410476Y-68084819D01*
X145410476Y-68084819D02*
X146029523Y-68084819D01*
X146981904Y-68084819D02*
X146410476Y-68084819D01*
X146696190Y-68084819D02*
X146696190Y-67084819D01*
X146696190Y-67084819D02*
X146600952Y-67227676D01*
X146600952Y-67227676D02*
X146505714Y-67322914D01*
X146505714Y-67322914D02*
X146410476Y-67370533D01*
X108494819Y-96403333D02*
X109209104Y-96403333D01*
X109209104Y-96403333D02*
X109351961Y-96450952D01*
X109351961Y-96450952D02*
X109447200Y-96546190D01*
X109447200Y-96546190D02*
X109494819Y-96689047D01*
X109494819Y-96689047D02*
X109494819Y-96784285D01*
X109494819Y-95403333D02*
X109494819Y-95974761D01*
X109494819Y-95689047D02*
X108494819Y-95689047D01*
X108494819Y-95689047D02*
X108637676Y-95784285D01*
X108637676Y-95784285D02*
X108732914Y-95879523D01*
X108732914Y-95879523D02*
X108780533Y-95974761D01*
X113327142Y-75054819D02*
X112993809Y-74578628D01*
X112755714Y-75054819D02*
X112755714Y-74054819D01*
X112755714Y-74054819D02*
X113136666Y-74054819D01*
X113136666Y-74054819D02*
X113231904Y-74102438D01*
X113231904Y-74102438D02*
X113279523Y-74150057D01*
X113279523Y-74150057D02*
X113327142Y-74245295D01*
X113327142Y-74245295D02*
X113327142Y-74388152D01*
X113327142Y-74388152D02*
X113279523Y-74483390D01*
X113279523Y-74483390D02*
X113231904Y-74531009D01*
X113231904Y-74531009D02*
X113136666Y-74578628D01*
X113136666Y-74578628D02*
X112755714Y-74578628D01*
X114279523Y-75054819D02*
X113708095Y-75054819D01*
X113993809Y-75054819D02*
X113993809Y-74054819D01*
X113993809Y-74054819D02*
X113898571Y-74197676D01*
X113898571Y-74197676D02*
X113803333Y-74292914D01*
X113803333Y-74292914D02*
X113708095Y-74340533D01*
X114850952Y-74483390D02*
X114755714Y-74435771D01*
X114755714Y-74435771D02*
X114708095Y-74388152D01*
X114708095Y-74388152D02*
X114660476Y-74292914D01*
X114660476Y-74292914D02*
X114660476Y-74245295D01*
X114660476Y-74245295D02*
X114708095Y-74150057D01*
X114708095Y-74150057D02*
X114755714Y-74102438D01*
X114755714Y-74102438D02*
X114850952Y-74054819D01*
X114850952Y-74054819D02*
X115041428Y-74054819D01*
X115041428Y-74054819D02*
X115136666Y-74102438D01*
X115136666Y-74102438D02*
X115184285Y-74150057D01*
X115184285Y-74150057D02*
X115231904Y-74245295D01*
X115231904Y-74245295D02*
X115231904Y-74292914D01*
X115231904Y-74292914D02*
X115184285Y-74388152D01*
X115184285Y-74388152D02*
X115136666Y-74435771D01*
X115136666Y-74435771D02*
X115041428Y-74483390D01*
X115041428Y-74483390D02*
X114850952Y-74483390D01*
X114850952Y-74483390D02*
X114755714Y-74531009D01*
X114755714Y-74531009D02*
X114708095Y-74578628D01*
X114708095Y-74578628D02*
X114660476Y-74673866D01*
X114660476Y-74673866D02*
X114660476Y-74864342D01*
X114660476Y-74864342D02*
X114708095Y-74959580D01*
X114708095Y-74959580D02*
X114755714Y-75007200D01*
X114755714Y-75007200D02*
X114850952Y-75054819D01*
X114850952Y-75054819D02*
X115041428Y-75054819D01*
X115041428Y-75054819D02*
X115136666Y-75007200D01*
X115136666Y-75007200D02*
X115184285Y-74959580D01*
X115184285Y-74959580D02*
X115231904Y-74864342D01*
X115231904Y-74864342D02*
X115231904Y-74673866D01*
X115231904Y-74673866D02*
X115184285Y-74578628D01*
X115184285Y-74578628D02*
X115136666Y-74531009D01*
X115136666Y-74531009D02*
X115041428Y-74483390D01*
X165873333Y-78769580D02*
X165825714Y-78817200D01*
X165825714Y-78817200D02*
X165682857Y-78864819D01*
X165682857Y-78864819D02*
X165587619Y-78864819D01*
X165587619Y-78864819D02*
X165444762Y-78817200D01*
X165444762Y-78817200D02*
X165349524Y-78721961D01*
X165349524Y-78721961D02*
X165301905Y-78626723D01*
X165301905Y-78626723D02*
X165254286Y-78436247D01*
X165254286Y-78436247D02*
X165254286Y-78293390D01*
X165254286Y-78293390D02*
X165301905Y-78102914D01*
X165301905Y-78102914D02*
X165349524Y-78007676D01*
X165349524Y-78007676D02*
X165444762Y-77912438D01*
X165444762Y-77912438D02*
X165587619Y-77864819D01*
X165587619Y-77864819D02*
X165682857Y-77864819D01*
X165682857Y-77864819D02*
X165825714Y-77912438D01*
X165825714Y-77912438D02*
X165873333Y-77960057D01*
X166254286Y-77960057D02*
X166301905Y-77912438D01*
X166301905Y-77912438D02*
X166397143Y-77864819D01*
X166397143Y-77864819D02*
X166635238Y-77864819D01*
X166635238Y-77864819D02*
X166730476Y-77912438D01*
X166730476Y-77912438D02*
X166778095Y-77960057D01*
X166778095Y-77960057D02*
X166825714Y-78055295D01*
X166825714Y-78055295D02*
X166825714Y-78150533D01*
X166825714Y-78150533D02*
X166778095Y-78293390D01*
X166778095Y-78293390D02*
X166206667Y-78864819D01*
X166206667Y-78864819D02*
X166825714Y-78864819D01*
X114424819Y-80322857D02*
X113948628Y-80656190D01*
X114424819Y-80894285D02*
X113424819Y-80894285D01*
X113424819Y-80894285D02*
X113424819Y-80513333D01*
X113424819Y-80513333D02*
X113472438Y-80418095D01*
X113472438Y-80418095D02*
X113520057Y-80370476D01*
X113520057Y-80370476D02*
X113615295Y-80322857D01*
X113615295Y-80322857D02*
X113758152Y-80322857D01*
X113758152Y-80322857D02*
X113853390Y-80370476D01*
X113853390Y-80370476D02*
X113901009Y-80418095D01*
X113901009Y-80418095D02*
X113948628Y-80513333D01*
X113948628Y-80513333D02*
X113948628Y-80894285D01*
X114424819Y-79370476D02*
X114424819Y-79941904D01*
X114424819Y-79656190D02*
X113424819Y-79656190D01*
X113424819Y-79656190D02*
X113567676Y-79751428D01*
X113567676Y-79751428D02*
X113662914Y-79846666D01*
X113662914Y-79846666D02*
X113710533Y-79941904D01*
X113424819Y-79037142D02*
X113424819Y-78418095D01*
X113424819Y-78418095D02*
X113805771Y-78751428D01*
X113805771Y-78751428D02*
X113805771Y-78608571D01*
X113805771Y-78608571D02*
X113853390Y-78513333D01*
X113853390Y-78513333D02*
X113901009Y-78465714D01*
X113901009Y-78465714D02*
X113996247Y-78418095D01*
X113996247Y-78418095D02*
X114234342Y-78418095D01*
X114234342Y-78418095D02*
X114329580Y-78465714D01*
X114329580Y-78465714D02*
X114377200Y-78513333D01*
X114377200Y-78513333D02*
X114424819Y-78608571D01*
X114424819Y-78608571D02*
X114424819Y-78894285D01*
X114424819Y-78894285D02*
X114377200Y-78989523D01*
X114377200Y-78989523D02*
X114329580Y-79037142D01*
X132204819Y-80322857D02*
X131728628Y-80656190D01*
X132204819Y-80894285D02*
X131204819Y-80894285D01*
X131204819Y-80894285D02*
X131204819Y-80513333D01*
X131204819Y-80513333D02*
X131252438Y-80418095D01*
X131252438Y-80418095D02*
X131300057Y-80370476D01*
X131300057Y-80370476D02*
X131395295Y-80322857D01*
X131395295Y-80322857D02*
X131538152Y-80322857D01*
X131538152Y-80322857D02*
X131633390Y-80370476D01*
X131633390Y-80370476D02*
X131681009Y-80418095D01*
X131681009Y-80418095D02*
X131728628Y-80513333D01*
X131728628Y-80513333D02*
X131728628Y-80894285D01*
X132204819Y-79370476D02*
X132204819Y-79941904D01*
X132204819Y-79656190D02*
X131204819Y-79656190D01*
X131204819Y-79656190D02*
X131347676Y-79751428D01*
X131347676Y-79751428D02*
X131442914Y-79846666D01*
X131442914Y-79846666D02*
X131490533Y-79941904D01*
X131204819Y-78465714D02*
X131204819Y-78941904D01*
X131204819Y-78941904D02*
X131681009Y-78989523D01*
X131681009Y-78989523D02*
X131633390Y-78941904D01*
X131633390Y-78941904D02*
X131585771Y-78846666D01*
X131585771Y-78846666D02*
X131585771Y-78608571D01*
X131585771Y-78608571D02*
X131633390Y-78513333D01*
X131633390Y-78513333D02*
X131681009Y-78465714D01*
X131681009Y-78465714D02*
X131776247Y-78418095D01*
X131776247Y-78418095D02*
X132014342Y-78418095D01*
X132014342Y-78418095D02*
X132109580Y-78465714D01*
X132109580Y-78465714D02*
X132157200Y-78513333D01*
X132157200Y-78513333D02*
X132204819Y-78608571D01*
X132204819Y-78608571D02*
X132204819Y-78846666D01*
X132204819Y-78846666D02*
X132157200Y-78941904D01*
X132157200Y-78941904D02*
X132109580Y-78989523D01*
X124584819Y-67622857D02*
X124108628Y-67956190D01*
X124584819Y-68194285D02*
X123584819Y-68194285D01*
X123584819Y-68194285D02*
X123584819Y-67813333D01*
X123584819Y-67813333D02*
X123632438Y-67718095D01*
X123632438Y-67718095D02*
X123680057Y-67670476D01*
X123680057Y-67670476D02*
X123775295Y-67622857D01*
X123775295Y-67622857D02*
X123918152Y-67622857D01*
X123918152Y-67622857D02*
X124013390Y-67670476D01*
X124013390Y-67670476D02*
X124061009Y-67718095D01*
X124061009Y-67718095D02*
X124108628Y-67813333D01*
X124108628Y-67813333D02*
X124108628Y-68194285D01*
X124584819Y-66670476D02*
X124584819Y-67241904D01*
X124584819Y-66956190D02*
X123584819Y-66956190D01*
X123584819Y-66956190D02*
X123727676Y-67051428D01*
X123727676Y-67051428D02*
X123822914Y-67146666D01*
X123822914Y-67146666D02*
X123870533Y-67241904D01*
X123584819Y-66051428D02*
X123584819Y-65956190D01*
X123584819Y-65956190D02*
X123632438Y-65860952D01*
X123632438Y-65860952D02*
X123680057Y-65813333D01*
X123680057Y-65813333D02*
X123775295Y-65765714D01*
X123775295Y-65765714D02*
X123965771Y-65718095D01*
X123965771Y-65718095D02*
X124203866Y-65718095D01*
X124203866Y-65718095D02*
X124394342Y-65765714D01*
X124394342Y-65765714D02*
X124489580Y-65813333D01*
X124489580Y-65813333D02*
X124537200Y-65860952D01*
X124537200Y-65860952D02*
X124584819Y-65956190D01*
X124584819Y-65956190D02*
X124584819Y-66051428D01*
X124584819Y-66051428D02*
X124537200Y-66146666D01*
X124537200Y-66146666D02*
X124489580Y-66194285D01*
X124489580Y-66194285D02*
X124394342Y-66241904D01*
X124394342Y-66241904D02*
X124203866Y-66289523D01*
X124203866Y-66289523D02*
X123965771Y-66289523D01*
X123965771Y-66289523D02*
X123775295Y-66241904D01*
X123775295Y-66241904D02*
X123680057Y-66194285D01*
X123680057Y-66194285D02*
X123632438Y-66146666D01*
X123632438Y-66146666D02*
X123584819Y-66051428D01*
X136699819Y-76512857D02*
X136223628Y-76846190D01*
X136699819Y-77084285D02*
X135699819Y-77084285D01*
X135699819Y-77084285D02*
X135699819Y-76703333D01*
X135699819Y-76703333D02*
X135747438Y-76608095D01*
X135747438Y-76608095D02*
X135795057Y-76560476D01*
X135795057Y-76560476D02*
X135890295Y-76512857D01*
X135890295Y-76512857D02*
X136033152Y-76512857D01*
X136033152Y-76512857D02*
X136128390Y-76560476D01*
X136128390Y-76560476D02*
X136176009Y-76608095D01*
X136176009Y-76608095D02*
X136223628Y-76703333D01*
X136223628Y-76703333D02*
X136223628Y-77084285D01*
X136699819Y-75560476D02*
X136699819Y-76131904D01*
X136699819Y-75846190D02*
X135699819Y-75846190D01*
X135699819Y-75846190D02*
X135842676Y-75941428D01*
X135842676Y-75941428D02*
X135937914Y-76036666D01*
X135937914Y-76036666D02*
X135985533Y-76131904D01*
X136699819Y-74608095D02*
X136699819Y-75179523D01*
X136699819Y-74893809D02*
X135699819Y-74893809D01*
X135699819Y-74893809D02*
X135842676Y-74989047D01*
X135842676Y-74989047D02*
X135937914Y-75084285D01*
X135937914Y-75084285D02*
X135985533Y-75179523D01*
X134917142Y-51609819D02*
X134583809Y-51133628D01*
X134345714Y-51609819D02*
X134345714Y-50609819D01*
X134345714Y-50609819D02*
X134726666Y-50609819D01*
X134726666Y-50609819D02*
X134821904Y-50657438D01*
X134821904Y-50657438D02*
X134869523Y-50705057D01*
X134869523Y-50705057D02*
X134917142Y-50800295D01*
X134917142Y-50800295D02*
X134917142Y-50943152D01*
X134917142Y-50943152D02*
X134869523Y-51038390D01*
X134869523Y-51038390D02*
X134821904Y-51086009D01*
X134821904Y-51086009D02*
X134726666Y-51133628D01*
X134726666Y-51133628D02*
X134345714Y-51133628D01*
X135298095Y-50705057D02*
X135345714Y-50657438D01*
X135345714Y-50657438D02*
X135440952Y-50609819D01*
X135440952Y-50609819D02*
X135679047Y-50609819D01*
X135679047Y-50609819D02*
X135774285Y-50657438D01*
X135774285Y-50657438D02*
X135821904Y-50705057D01*
X135821904Y-50705057D02*
X135869523Y-50800295D01*
X135869523Y-50800295D02*
X135869523Y-50895533D01*
X135869523Y-50895533D02*
X135821904Y-51038390D01*
X135821904Y-51038390D02*
X135250476Y-51609819D01*
X135250476Y-51609819D02*
X135869523Y-51609819D01*
X136488571Y-50609819D02*
X136583809Y-50609819D01*
X136583809Y-50609819D02*
X136679047Y-50657438D01*
X136679047Y-50657438D02*
X136726666Y-50705057D01*
X136726666Y-50705057D02*
X136774285Y-50800295D01*
X136774285Y-50800295D02*
X136821904Y-50990771D01*
X136821904Y-50990771D02*
X136821904Y-51228866D01*
X136821904Y-51228866D02*
X136774285Y-51419342D01*
X136774285Y-51419342D02*
X136726666Y-51514580D01*
X136726666Y-51514580D02*
X136679047Y-51562200D01*
X136679047Y-51562200D02*
X136583809Y-51609819D01*
X136583809Y-51609819D02*
X136488571Y-51609819D01*
X136488571Y-51609819D02*
X136393333Y-51562200D01*
X136393333Y-51562200D02*
X136345714Y-51514580D01*
X136345714Y-51514580D02*
X136298095Y-51419342D01*
X136298095Y-51419342D02*
X136250476Y-51228866D01*
X136250476Y-51228866D02*
X136250476Y-50990771D01*
X136250476Y-50990771D02*
X136298095Y-50800295D01*
X136298095Y-50800295D02*
X136345714Y-50705057D01*
X136345714Y-50705057D02*
X136393333Y-50657438D01*
X136393333Y-50657438D02*
X136488571Y-50609819D01*
X114597142Y-57924819D02*
X114263809Y-57448628D01*
X114025714Y-57924819D02*
X114025714Y-56924819D01*
X114025714Y-56924819D02*
X114406666Y-56924819D01*
X114406666Y-56924819D02*
X114501904Y-56972438D01*
X114501904Y-56972438D02*
X114549523Y-57020057D01*
X114549523Y-57020057D02*
X114597142Y-57115295D01*
X114597142Y-57115295D02*
X114597142Y-57258152D01*
X114597142Y-57258152D02*
X114549523Y-57353390D01*
X114549523Y-57353390D02*
X114501904Y-57401009D01*
X114501904Y-57401009D02*
X114406666Y-57448628D01*
X114406666Y-57448628D02*
X114025714Y-57448628D01*
X114978095Y-57020057D02*
X115025714Y-56972438D01*
X115025714Y-56972438D02*
X115120952Y-56924819D01*
X115120952Y-56924819D02*
X115359047Y-56924819D01*
X115359047Y-56924819D02*
X115454285Y-56972438D01*
X115454285Y-56972438D02*
X115501904Y-57020057D01*
X115501904Y-57020057D02*
X115549523Y-57115295D01*
X115549523Y-57115295D02*
X115549523Y-57210533D01*
X115549523Y-57210533D02*
X115501904Y-57353390D01*
X115501904Y-57353390D02*
X114930476Y-57924819D01*
X114930476Y-57924819D02*
X115549523Y-57924819D01*
X116406666Y-56924819D02*
X116216190Y-56924819D01*
X116216190Y-56924819D02*
X116120952Y-56972438D01*
X116120952Y-56972438D02*
X116073333Y-57020057D01*
X116073333Y-57020057D02*
X115978095Y-57162914D01*
X115978095Y-57162914D02*
X115930476Y-57353390D01*
X115930476Y-57353390D02*
X115930476Y-57734342D01*
X115930476Y-57734342D02*
X115978095Y-57829580D01*
X115978095Y-57829580D02*
X116025714Y-57877200D01*
X116025714Y-57877200D02*
X116120952Y-57924819D01*
X116120952Y-57924819D02*
X116311428Y-57924819D01*
X116311428Y-57924819D02*
X116406666Y-57877200D01*
X116406666Y-57877200D02*
X116454285Y-57829580D01*
X116454285Y-57829580D02*
X116501904Y-57734342D01*
X116501904Y-57734342D02*
X116501904Y-57496247D01*
X116501904Y-57496247D02*
X116454285Y-57401009D01*
X116454285Y-57401009D02*
X116406666Y-57353390D01*
X116406666Y-57353390D02*
X116311428Y-57305771D01*
X116311428Y-57305771D02*
X116120952Y-57305771D01*
X116120952Y-57305771D02*
X116025714Y-57353390D01*
X116025714Y-57353390D02*
X115978095Y-57401009D01*
X115978095Y-57401009D02*
X115930476Y-57496247D01*
X126274819Y-96403333D02*
X126989104Y-96403333D01*
X126989104Y-96403333D02*
X127131961Y-96450952D01*
X127131961Y-96450952D02*
X127227200Y-96546190D01*
X127227200Y-96546190D02*
X127274819Y-96689047D01*
X127274819Y-96689047D02*
X127274819Y-96784285D01*
X126370057Y-95974761D02*
X126322438Y-95927142D01*
X126322438Y-95927142D02*
X126274819Y-95831904D01*
X126274819Y-95831904D02*
X126274819Y-95593809D01*
X126274819Y-95593809D02*
X126322438Y-95498571D01*
X126322438Y-95498571D02*
X126370057Y-95450952D01*
X126370057Y-95450952D02*
X126465295Y-95403333D01*
X126465295Y-95403333D02*
X126560533Y-95403333D01*
X126560533Y-95403333D02*
X126703390Y-95450952D01*
X126703390Y-95450952D02*
X127274819Y-96022380D01*
X127274819Y-96022380D02*
X127274819Y-95403333D01*
X124584819Y-79846666D02*
X124108628Y-80179999D01*
X124584819Y-80418094D02*
X123584819Y-80418094D01*
X123584819Y-80418094D02*
X123584819Y-80037142D01*
X123584819Y-80037142D02*
X123632438Y-79941904D01*
X123632438Y-79941904D02*
X123680057Y-79894285D01*
X123680057Y-79894285D02*
X123775295Y-79846666D01*
X123775295Y-79846666D02*
X123918152Y-79846666D01*
X123918152Y-79846666D02*
X124013390Y-79894285D01*
X124013390Y-79894285D02*
X124061009Y-79941904D01*
X124061009Y-79941904D02*
X124108628Y-80037142D01*
X124108628Y-80037142D02*
X124108628Y-80418094D01*
X123918152Y-78989523D02*
X124584819Y-78989523D01*
X123537200Y-79227618D02*
X124251485Y-79465713D01*
X124251485Y-79465713D02*
X124251485Y-78846666D01*
X122044819Y-80322857D02*
X121568628Y-80656190D01*
X122044819Y-80894285D02*
X121044819Y-80894285D01*
X121044819Y-80894285D02*
X121044819Y-80513333D01*
X121044819Y-80513333D02*
X121092438Y-80418095D01*
X121092438Y-80418095D02*
X121140057Y-80370476D01*
X121140057Y-80370476D02*
X121235295Y-80322857D01*
X121235295Y-80322857D02*
X121378152Y-80322857D01*
X121378152Y-80322857D02*
X121473390Y-80370476D01*
X121473390Y-80370476D02*
X121521009Y-80418095D01*
X121521009Y-80418095D02*
X121568628Y-80513333D01*
X121568628Y-80513333D02*
X121568628Y-80894285D01*
X122044819Y-79370476D02*
X122044819Y-79941904D01*
X122044819Y-79656190D02*
X121044819Y-79656190D01*
X121044819Y-79656190D02*
X121187676Y-79751428D01*
X121187676Y-79751428D02*
X121282914Y-79846666D01*
X121282914Y-79846666D02*
X121330533Y-79941904D01*
X121378152Y-78513333D02*
X122044819Y-78513333D01*
X120997200Y-78751428D02*
X121711485Y-78989523D01*
X121711485Y-78989523D02*
X121711485Y-78370476D01*
X146174819Y-52382857D02*
X145698628Y-52716190D01*
X146174819Y-52954285D02*
X145174819Y-52954285D01*
X145174819Y-52954285D02*
X145174819Y-52573333D01*
X145174819Y-52573333D02*
X145222438Y-52478095D01*
X145222438Y-52478095D02*
X145270057Y-52430476D01*
X145270057Y-52430476D02*
X145365295Y-52382857D01*
X145365295Y-52382857D02*
X145508152Y-52382857D01*
X145508152Y-52382857D02*
X145603390Y-52430476D01*
X145603390Y-52430476D02*
X145651009Y-52478095D01*
X145651009Y-52478095D02*
X145698628Y-52573333D01*
X145698628Y-52573333D02*
X145698628Y-52954285D01*
X145270057Y-52001904D02*
X145222438Y-51954285D01*
X145222438Y-51954285D02*
X145174819Y-51859047D01*
X145174819Y-51859047D02*
X145174819Y-51620952D01*
X145174819Y-51620952D02*
X145222438Y-51525714D01*
X145222438Y-51525714D02*
X145270057Y-51478095D01*
X145270057Y-51478095D02*
X145365295Y-51430476D01*
X145365295Y-51430476D02*
X145460533Y-51430476D01*
X145460533Y-51430476D02*
X145603390Y-51478095D01*
X145603390Y-51478095D02*
X146174819Y-52049523D01*
X146174819Y-52049523D02*
X146174819Y-51430476D01*
X145270057Y-51049523D02*
X145222438Y-51001904D01*
X145222438Y-51001904D02*
X145174819Y-50906666D01*
X145174819Y-50906666D02*
X145174819Y-50668571D01*
X145174819Y-50668571D02*
X145222438Y-50573333D01*
X145222438Y-50573333D02*
X145270057Y-50525714D01*
X145270057Y-50525714D02*
X145365295Y-50478095D01*
X145365295Y-50478095D02*
X145460533Y-50478095D01*
X145460533Y-50478095D02*
X145603390Y-50525714D01*
X145603390Y-50525714D02*
X146174819Y-51097142D01*
X146174819Y-51097142D02*
X146174819Y-50478095D01*
X166764819Y-74933333D02*
X167479104Y-74933333D01*
X167479104Y-74933333D02*
X167621961Y-74980952D01*
X167621961Y-74980952D02*
X167717200Y-75076190D01*
X167717200Y-75076190D02*
X167764819Y-75219047D01*
X167764819Y-75219047D02*
X167764819Y-75314285D01*
X167098152Y-74028571D02*
X167764819Y-74028571D01*
X166717200Y-74266666D02*
X167431485Y-74504761D01*
X167431485Y-74504761D02*
X167431485Y-73885714D01*
X115867142Y-52194819D02*
X115533809Y-51718628D01*
X115295714Y-52194819D02*
X115295714Y-51194819D01*
X115295714Y-51194819D02*
X115676666Y-51194819D01*
X115676666Y-51194819D02*
X115771904Y-51242438D01*
X115771904Y-51242438D02*
X115819523Y-51290057D01*
X115819523Y-51290057D02*
X115867142Y-51385295D01*
X115867142Y-51385295D02*
X115867142Y-51528152D01*
X115867142Y-51528152D02*
X115819523Y-51623390D01*
X115819523Y-51623390D02*
X115771904Y-51671009D01*
X115771904Y-51671009D02*
X115676666Y-51718628D01*
X115676666Y-51718628D02*
X115295714Y-51718628D01*
X116819523Y-52194819D02*
X116248095Y-52194819D01*
X116533809Y-52194819D02*
X116533809Y-51194819D01*
X116533809Y-51194819D02*
X116438571Y-51337676D01*
X116438571Y-51337676D02*
X116343333Y-51432914D01*
X116343333Y-51432914D02*
X116248095Y-51480533D01*
X117295714Y-52194819D02*
X117486190Y-52194819D01*
X117486190Y-52194819D02*
X117581428Y-52147200D01*
X117581428Y-52147200D02*
X117629047Y-52099580D01*
X117629047Y-52099580D02*
X117724285Y-51956723D01*
X117724285Y-51956723D02*
X117771904Y-51766247D01*
X117771904Y-51766247D02*
X117771904Y-51385295D01*
X117771904Y-51385295D02*
X117724285Y-51290057D01*
X117724285Y-51290057D02*
X117676666Y-51242438D01*
X117676666Y-51242438D02*
X117581428Y-51194819D01*
X117581428Y-51194819D02*
X117390952Y-51194819D01*
X117390952Y-51194819D02*
X117295714Y-51242438D01*
X117295714Y-51242438D02*
X117248095Y-51290057D01*
X117248095Y-51290057D02*
X117200476Y-51385295D01*
X117200476Y-51385295D02*
X117200476Y-51623390D01*
X117200476Y-51623390D02*
X117248095Y-51718628D01*
X117248095Y-51718628D02*
X117295714Y-51766247D01*
X117295714Y-51766247D02*
X117390952Y-51813866D01*
X117390952Y-51813866D02*
X117581428Y-51813866D01*
X117581428Y-51813866D02*
X117676666Y-51766247D01*
X117676666Y-51766247D02*
X117724285Y-51718628D01*
X117724285Y-51718628D02*
X117771904Y-51623390D01*
X139824819Y-80322857D02*
X139348628Y-80656190D01*
X139824819Y-80894285D02*
X138824819Y-80894285D01*
X138824819Y-80894285D02*
X138824819Y-80513333D01*
X138824819Y-80513333D02*
X138872438Y-80418095D01*
X138872438Y-80418095D02*
X138920057Y-80370476D01*
X138920057Y-80370476D02*
X139015295Y-80322857D01*
X139015295Y-80322857D02*
X139158152Y-80322857D01*
X139158152Y-80322857D02*
X139253390Y-80370476D01*
X139253390Y-80370476D02*
X139301009Y-80418095D01*
X139301009Y-80418095D02*
X139348628Y-80513333D01*
X139348628Y-80513333D02*
X139348628Y-80894285D01*
X139824819Y-79370476D02*
X139824819Y-79941904D01*
X139824819Y-79656190D02*
X138824819Y-79656190D01*
X138824819Y-79656190D02*
X138967676Y-79751428D01*
X138967676Y-79751428D02*
X139062914Y-79846666D01*
X139062914Y-79846666D02*
X139110533Y-79941904D01*
X138824819Y-78513333D02*
X138824819Y-78703809D01*
X138824819Y-78703809D02*
X138872438Y-78799047D01*
X138872438Y-78799047D02*
X138920057Y-78846666D01*
X138920057Y-78846666D02*
X139062914Y-78941904D01*
X139062914Y-78941904D02*
X139253390Y-78989523D01*
X139253390Y-78989523D02*
X139634342Y-78989523D01*
X139634342Y-78989523D02*
X139729580Y-78941904D01*
X139729580Y-78941904D02*
X139777200Y-78894285D01*
X139777200Y-78894285D02*
X139824819Y-78799047D01*
X139824819Y-78799047D02*
X139824819Y-78608571D01*
X139824819Y-78608571D02*
X139777200Y-78513333D01*
X139777200Y-78513333D02*
X139729580Y-78465714D01*
X139729580Y-78465714D02*
X139634342Y-78418095D01*
X139634342Y-78418095D02*
X139396247Y-78418095D01*
X139396247Y-78418095D02*
X139301009Y-78465714D01*
X139301009Y-78465714D02*
X139253390Y-78513333D01*
X139253390Y-78513333D02*
X139205771Y-78608571D01*
X139205771Y-78608571D02*
X139205771Y-78799047D01*
X139205771Y-78799047D02*
X139253390Y-78894285D01*
X139253390Y-78894285D02*
X139301009Y-78941904D01*
X139301009Y-78941904D02*
X139396247Y-78989523D01*
X146438095Y-89294819D02*
X146438095Y-90104342D01*
X146438095Y-90104342D02*
X146485714Y-90199580D01*
X146485714Y-90199580D02*
X146533333Y-90247200D01*
X146533333Y-90247200D02*
X146628571Y-90294819D01*
X146628571Y-90294819D02*
X146819047Y-90294819D01*
X146819047Y-90294819D02*
X146914285Y-90247200D01*
X146914285Y-90247200D02*
X146961904Y-90199580D01*
X146961904Y-90199580D02*
X147009523Y-90104342D01*
X147009523Y-90104342D02*
X147009523Y-89294819D01*
X147438095Y-89390057D02*
X147485714Y-89342438D01*
X147485714Y-89342438D02*
X147580952Y-89294819D01*
X147580952Y-89294819D02*
X147819047Y-89294819D01*
X147819047Y-89294819D02*
X147914285Y-89342438D01*
X147914285Y-89342438D02*
X147961904Y-89390057D01*
X147961904Y-89390057D02*
X148009523Y-89485295D01*
X148009523Y-89485295D02*
X148009523Y-89580533D01*
X148009523Y-89580533D02*
X147961904Y-89723390D01*
X147961904Y-89723390D02*
X147390476Y-90294819D01*
X147390476Y-90294819D02*
X148009523Y-90294819D01*
X152340476Y-91564819D02*
X152340476Y-90564819D01*
X152340476Y-90564819D02*
X152673809Y-91279104D01*
X152673809Y-91279104D02*
X153007142Y-90564819D01*
X153007142Y-90564819D02*
X153007142Y-91564819D01*
X154054761Y-91469580D02*
X154007142Y-91517200D01*
X154007142Y-91517200D02*
X153864285Y-91564819D01*
X153864285Y-91564819D02*
X153769047Y-91564819D01*
X153769047Y-91564819D02*
X153626190Y-91517200D01*
X153626190Y-91517200D02*
X153530952Y-91421961D01*
X153530952Y-91421961D02*
X153483333Y-91326723D01*
X153483333Y-91326723D02*
X153435714Y-91136247D01*
X153435714Y-91136247D02*
X153435714Y-90993390D01*
X153435714Y-90993390D02*
X153483333Y-90802914D01*
X153483333Y-90802914D02*
X153530952Y-90707676D01*
X153530952Y-90707676D02*
X153626190Y-90612438D01*
X153626190Y-90612438D02*
X153769047Y-90564819D01*
X153769047Y-90564819D02*
X153864285Y-90564819D01*
X153864285Y-90564819D02*
X154007142Y-90612438D01*
X154007142Y-90612438D02*
X154054761Y-90660057D01*
X154483333Y-91564819D02*
X154483333Y-90564819D01*
X154483333Y-90564819D02*
X154864285Y-90564819D01*
X154864285Y-90564819D02*
X154959523Y-90612438D01*
X154959523Y-90612438D02*
X155007142Y-90660057D01*
X155007142Y-90660057D02*
X155054761Y-90755295D01*
X155054761Y-90755295D02*
X155054761Y-90898152D01*
X155054761Y-90898152D02*
X155007142Y-90993390D01*
X155007142Y-90993390D02*
X154959523Y-91041009D01*
X154959523Y-91041009D02*
X154864285Y-91088628D01*
X154864285Y-91088628D02*
X154483333Y-91088628D01*
X155911904Y-90898152D02*
X155911904Y-91564819D01*
X155673809Y-90517200D02*
X155435714Y-91231485D01*
X155435714Y-91231485D02*
X156054761Y-91231485D01*
X156483333Y-91564819D02*
X156673809Y-91564819D01*
X156673809Y-91564819D02*
X156769047Y-91517200D01*
X156769047Y-91517200D02*
X156816666Y-91469580D01*
X156816666Y-91469580D02*
X156911904Y-91326723D01*
X156911904Y-91326723D02*
X156959523Y-91136247D01*
X156959523Y-91136247D02*
X156959523Y-90755295D01*
X156959523Y-90755295D02*
X156911904Y-90660057D01*
X156911904Y-90660057D02*
X156864285Y-90612438D01*
X156864285Y-90612438D02*
X156769047Y-90564819D01*
X156769047Y-90564819D02*
X156578571Y-90564819D01*
X156578571Y-90564819D02*
X156483333Y-90612438D01*
X156483333Y-90612438D02*
X156435714Y-90660057D01*
X156435714Y-90660057D02*
X156388095Y-90755295D01*
X156388095Y-90755295D02*
X156388095Y-90993390D01*
X156388095Y-90993390D02*
X156435714Y-91088628D01*
X156435714Y-91088628D02*
X156483333Y-91136247D01*
X156483333Y-91136247D02*
X156578571Y-91183866D01*
X156578571Y-91183866D02*
X156769047Y-91183866D01*
X156769047Y-91183866D02*
X156864285Y-91136247D01*
X156864285Y-91136247D02*
X156911904Y-91088628D01*
X156911904Y-91088628D02*
X156959523Y-90993390D01*
X157340476Y-90660057D02*
X157388095Y-90612438D01*
X157388095Y-90612438D02*
X157483333Y-90564819D01*
X157483333Y-90564819D02*
X157721428Y-90564819D01*
X157721428Y-90564819D02*
X157816666Y-90612438D01*
X157816666Y-90612438D02*
X157864285Y-90660057D01*
X157864285Y-90660057D02*
X157911904Y-90755295D01*
X157911904Y-90755295D02*
X157911904Y-90850533D01*
X157911904Y-90850533D02*
X157864285Y-90993390D01*
X157864285Y-90993390D02*
X157292857Y-91564819D01*
X157292857Y-91564819D02*
X157911904Y-91564819D01*
X158292857Y-90660057D02*
X158340476Y-90612438D01*
X158340476Y-90612438D02*
X158435714Y-90564819D01*
X158435714Y-90564819D02*
X158673809Y-90564819D01*
X158673809Y-90564819D02*
X158769047Y-90612438D01*
X158769047Y-90612438D02*
X158816666Y-90660057D01*
X158816666Y-90660057D02*
X158864285Y-90755295D01*
X158864285Y-90755295D02*
X158864285Y-90850533D01*
X158864285Y-90850533D02*
X158816666Y-90993390D01*
X158816666Y-90993390D02*
X158245238Y-91564819D01*
X158245238Y-91564819D02*
X158864285Y-91564819D01*
X159292857Y-91183866D02*
X160054762Y-91183866D01*
X160530952Y-91041009D02*
X160864285Y-91041009D01*
X161007142Y-91564819D02*
X160530952Y-91564819D01*
X160530952Y-91564819D02*
X160530952Y-90564819D01*
X160530952Y-90564819D02*
X161007142Y-90564819D01*
X161435714Y-91564819D02*
X161435714Y-90564819D01*
X161435714Y-90564819D02*
X161816666Y-90564819D01*
X161816666Y-90564819D02*
X161911904Y-90612438D01*
X161911904Y-90612438D02*
X161959523Y-90660057D01*
X161959523Y-90660057D02*
X162007142Y-90755295D01*
X162007142Y-90755295D02*
X162007142Y-90898152D01*
X162007142Y-90898152D02*
X161959523Y-90993390D01*
X161959523Y-90993390D02*
X161911904Y-91041009D01*
X161911904Y-91041009D02*
X161816666Y-91088628D01*
X161816666Y-91088628D02*
X161435714Y-91088628D01*
X142364819Y-79966666D02*
X141888628Y-80299999D01*
X142364819Y-80538094D02*
X141364819Y-80538094D01*
X141364819Y-80538094D02*
X141364819Y-80157142D01*
X141364819Y-80157142D02*
X141412438Y-80061904D01*
X141412438Y-80061904D02*
X141460057Y-80014285D01*
X141460057Y-80014285D02*
X141555295Y-79966666D01*
X141555295Y-79966666D02*
X141698152Y-79966666D01*
X141698152Y-79966666D02*
X141793390Y-80014285D01*
X141793390Y-80014285D02*
X141841009Y-80061904D01*
X141841009Y-80061904D02*
X141888628Y-80157142D01*
X141888628Y-80157142D02*
X141888628Y-80538094D01*
X141793390Y-79395237D02*
X141745771Y-79490475D01*
X141745771Y-79490475D02*
X141698152Y-79538094D01*
X141698152Y-79538094D02*
X141602914Y-79585713D01*
X141602914Y-79585713D02*
X141555295Y-79585713D01*
X141555295Y-79585713D02*
X141460057Y-79538094D01*
X141460057Y-79538094D02*
X141412438Y-79490475D01*
X141412438Y-79490475D02*
X141364819Y-79395237D01*
X141364819Y-79395237D02*
X141364819Y-79204761D01*
X141364819Y-79204761D02*
X141412438Y-79109523D01*
X141412438Y-79109523D02*
X141460057Y-79061904D01*
X141460057Y-79061904D02*
X141555295Y-79014285D01*
X141555295Y-79014285D02*
X141602914Y-79014285D01*
X141602914Y-79014285D02*
X141698152Y-79061904D01*
X141698152Y-79061904D02*
X141745771Y-79109523D01*
X141745771Y-79109523D02*
X141793390Y-79204761D01*
X141793390Y-79204761D02*
X141793390Y-79395237D01*
X141793390Y-79395237D02*
X141841009Y-79490475D01*
X141841009Y-79490475D02*
X141888628Y-79538094D01*
X141888628Y-79538094D02*
X141983866Y-79585713D01*
X141983866Y-79585713D02*
X142174342Y-79585713D01*
X142174342Y-79585713D02*
X142269580Y-79538094D01*
X142269580Y-79538094D02*
X142317200Y-79490475D01*
X142317200Y-79490475D02*
X142364819Y-79395237D01*
X142364819Y-79395237D02*
X142364819Y-79204761D01*
X142364819Y-79204761D02*
X142317200Y-79109523D01*
X142317200Y-79109523D02*
X142269580Y-79061904D01*
X142269580Y-79061904D02*
X142174342Y-79014285D01*
X142174342Y-79014285D02*
X141983866Y-79014285D01*
X141983866Y-79014285D02*
X141888628Y-79061904D01*
X141888628Y-79061904D02*
X141841009Y-79109523D01*
X141841009Y-79109523D02*
X141793390Y-79204761D01*
X143014819Y-70162857D02*
X142538628Y-70496190D01*
X143014819Y-70734285D02*
X142014819Y-70734285D01*
X142014819Y-70734285D02*
X142014819Y-70353333D01*
X142014819Y-70353333D02*
X142062438Y-70258095D01*
X142062438Y-70258095D02*
X142110057Y-70210476D01*
X142110057Y-70210476D02*
X142205295Y-70162857D01*
X142205295Y-70162857D02*
X142348152Y-70162857D01*
X142348152Y-70162857D02*
X142443390Y-70210476D01*
X142443390Y-70210476D02*
X142491009Y-70258095D01*
X142491009Y-70258095D02*
X142538628Y-70353333D01*
X142538628Y-70353333D02*
X142538628Y-70734285D01*
X142110057Y-69781904D02*
X142062438Y-69734285D01*
X142062438Y-69734285D02*
X142014819Y-69639047D01*
X142014819Y-69639047D02*
X142014819Y-69400952D01*
X142014819Y-69400952D02*
X142062438Y-69305714D01*
X142062438Y-69305714D02*
X142110057Y-69258095D01*
X142110057Y-69258095D02*
X142205295Y-69210476D01*
X142205295Y-69210476D02*
X142300533Y-69210476D01*
X142300533Y-69210476D02*
X142443390Y-69258095D01*
X142443390Y-69258095D02*
X143014819Y-69829523D01*
X143014819Y-69829523D02*
X143014819Y-69210476D01*
X142348152Y-68353333D02*
X143014819Y-68353333D01*
X141967200Y-68591428D02*
X142681485Y-68829523D01*
X142681485Y-68829523D02*
X142681485Y-68210476D01*
X134744819Y-79846666D02*
X134268628Y-80179999D01*
X134744819Y-80418094D02*
X133744819Y-80418094D01*
X133744819Y-80418094D02*
X133744819Y-80037142D01*
X133744819Y-80037142D02*
X133792438Y-79941904D01*
X133792438Y-79941904D02*
X133840057Y-79894285D01*
X133840057Y-79894285D02*
X133935295Y-79846666D01*
X133935295Y-79846666D02*
X134078152Y-79846666D01*
X134078152Y-79846666D02*
X134173390Y-79894285D01*
X134173390Y-79894285D02*
X134221009Y-79941904D01*
X134221009Y-79941904D02*
X134268628Y-80037142D01*
X134268628Y-80037142D02*
X134268628Y-80418094D01*
X133744819Y-78989523D02*
X133744819Y-79179999D01*
X133744819Y-79179999D02*
X133792438Y-79275237D01*
X133792438Y-79275237D02*
X133840057Y-79322856D01*
X133840057Y-79322856D02*
X133982914Y-79418094D01*
X133982914Y-79418094D02*
X134173390Y-79465713D01*
X134173390Y-79465713D02*
X134554342Y-79465713D01*
X134554342Y-79465713D02*
X134649580Y-79418094D01*
X134649580Y-79418094D02*
X134697200Y-79370475D01*
X134697200Y-79370475D02*
X134744819Y-79275237D01*
X134744819Y-79275237D02*
X134744819Y-79084761D01*
X134744819Y-79084761D02*
X134697200Y-78989523D01*
X134697200Y-78989523D02*
X134649580Y-78941904D01*
X134649580Y-78941904D02*
X134554342Y-78894285D01*
X134554342Y-78894285D02*
X134316247Y-78894285D01*
X134316247Y-78894285D02*
X134221009Y-78941904D01*
X134221009Y-78941904D02*
X134173390Y-78989523D01*
X134173390Y-78989523D02*
X134125771Y-79084761D01*
X134125771Y-79084761D02*
X134125771Y-79275237D01*
X134125771Y-79275237D02*
X134173390Y-79370475D01*
X134173390Y-79370475D02*
X134221009Y-79418094D01*
X134221009Y-79418094D02*
X134316247Y-79465713D01*
X111944819Y-79966666D02*
X111468628Y-80299999D01*
X111944819Y-80538094D02*
X110944819Y-80538094D01*
X110944819Y-80538094D02*
X110944819Y-80157142D01*
X110944819Y-80157142D02*
X110992438Y-80061904D01*
X110992438Y-80061904D02*
X111040057Y-80014285D01*
X111040057Y-80014285D02*
X111135295Y-79966666D01*
X111135295Y-79966666D02*
X111278152Y-79966666D01*
X111278152Y-79966666D02*
X111373390Y-80014285D01*
X111373390Y-80014285D02*
X111421009Y-80061904D01*
X111421009Y-80061904D02*
X111468628Y-80157142D01*
X111468628Y-80157142D02*
X111468628Y-80538094D01*
X111944819Y-79014285D02*
X111944819Y-79585713D01*
X111944819Y-79299999D02*
X110944819Y-79299999D01*
X110944819Y-79299999D02*
X111087676Y-79395237D01*
X111087676Y-79395237D02*
X111182914Y-79490475D01*
X111182914Y-79490475D02*
X111230533Y-79585713D01*
X139824819Y-52382857D02*
X139348628Y-52716190D01*
X139824819Y-52954285D02*
X138824819Y-52954285D01*
X138824819Y-52954285D02*
X138824819Y-52573333D01*
X138824819Y-52573333D02*
X138872438Y-52478095D01*
X138872438Y-52478095D02*
X138920057Y-52430476D01*
X138920057Y-52430476D02*
X139015295Y-52382857D01*
X139015295Y-52382857D02*
X139158152Y-52382857D01*
X139158152Y-52382857D02*
X139253390Y-52430476D01*
X139253390Y-52430476D02*
X139301009Y-52478095D01*
X139301009Y-52478095D02*
X139348628Y-52573333D01*
X139348628Y-52573333D02*
X139348628Y-52954285D01*
X139824819Y-51430476D02*
X139824819Y-52001904D01*
X139824819Y-51716190D02*
X138824819Y-51716190D01*
X138824819Y-51716190D02*
X138967676Y-51811428D01*
X138967676Y-51811428D02*
X139062914Y-51906666D01*
X139062914Y-51906666D02*
X139110533Y-52001904D01*
X138920057Y-51049523D02*
X138872438Y-51001904D01*
X138872438Y-51001904D02*
X138824819Y-50906666D01*
X138824819Y-50906666D02*
X138824819Y-50668571D01*
X138824819Y-50668571D02*
X138872438Y-50573333D01*
X138872438Y-50573333D02*
X138920057Y-50525714D01*
X138920057Y-50525714D02*
X139015295Y-50478095D01*
X139015295Y-50478095D02*
X139110533Y-50478095D01*
X139110533Y-50478095D02*
X139253390Y-50525714D01*
X139253390Y-50525714D02*
X139824819Y-51097142D01*
X139824819Y-51097142D02*
X139824819Y-50478095D01*
X112104761Y-66164819D02*
X111771428Y-65688628D01*
X111533333Y-66164819D02*
X111533333Y-65164819D01*
X111533333Y-65164819D02*
X111914285Y-65164819D01*
X111914285Y-65164819D02*
X112009523Y-65212438D01*
X112009523Y-65212438D02*
X112057142Y-65260057D01*
X112057142Y-65260057D02*
X112104761Y-65355295D01*
X112104761Y-65355295D02*
X112104761Y-65498152D01*
X112104761Y-65498152D02*
X112057142Y-65593390D01*
X112057142Y-65593390D02*
X112009523Y-65641009D01*
X112009523Y-65641009D02*
X111914285Y-65688628D01*
X111914285Y-65688628D02*
X111533333Y-65688628D01*
X112390476Y-65164819D02*
X112723809Y-66164819D01*
X112723809Y-66164819D02*
X113057142Y-65164819D01*
X113914285Y-66164819D02*
X113342857Y-66164819D01*
X113628571Y-66164819D02*
X113628571Y-65164819D01*
X113628571Y-65164819D02*
X113533333Y-65307676D01*
X113533333Y-65307676D02*
X113438095Y-65402914D01*
X113438095Y-65402914D02*
X113342857Y-65450533D01*
X143634819Y-52382857D02*
X143158628Y-52716190D01*
X143634819Y-52954285D02*
X142634819Y-52954285D01*
X142634819Y-52954285D02*
X142634819Y-52573333D01*
X142634819Y-52573333D02*
X142682438Y-52478095D01*
X142682438Y-52478095D02*
X142730057Y-52430476D01*
X142730057Y-52430476D02*
X142825295Y-52382857D01*
X142825295Y-52382857D02*
X142968152Y-52382857D01*
X142968152Y-52382857D02*
X143063390Y-52430476D01*
X143063390Y-52430476D02*
X143111009Y-52478095D01*
X143111009Y-52478095D02*
X143158628Y-52573333D01*
X143158628Y-52573333D02*
X143158628Y-52954285D01*
X142730057Y-52001904D02*
X142682438Y-51954285D01*
X142682438Y-51954285D02*
X142634819Y-51859047D01*
X142634819Y-51859047D02*
X142634819Y-51620952D01*
X142634819Y-51620952D02*
X142682438Y-51525714D01*
X142682438Y-51525714D02*
X142730057Y-51478095D01*
X142730057Y-51478095D02*
X142825295Y-51430476D01*
X142825295Y-51430476D02*
X142920533Y-51430476D01*
X142920533Y-51430476D02*
X143063390Y-51478095D01*
X143063390Y-51478095D02*
X143634819Y-52049523D01*
X143634819Y-52049523D02*
X143634819Y-51430476D01*
X142634819Y-51097142D02*
X142634819Y-50478095D01*
X142634819Y-50478095D02*
X143015771Y-50811428D01*
X143015771Y-50811428D02*
X143015771Y-50668571D01*
X143015771Y-50668571D02*
X143063390Y-50573333D01*
X143063390Y-50573333D02*
X143111009Y-50525714D01*
X143111009Y-50525714D02*
X143206247Y-50478095D01*
X143206247Y-50478095D02*
X143444342Y-50478095D01*
X143444342Y-50478095D02*
X143539580Y-50525714D01*
X143539580Y-50525714D02*
X143587200Y-50573333D01*
X143587200Y-50573333D02*
X143634819Y-50668571D01*
X143634819Y-50668571D02*
X143634819Y-50954285D01*
X143634819Y-50954285D02*
X143587200Y-51049523D01*
X143587200Y-51049523D02*
X143539580Y-51097142D01*
X122044819Y-67622857D02*
X121568628Y-67956190D01*
X122044819Y-68194285D02*
X121044819Y-68194285D01*
X121044819Y-68194285D02*
X121044819Y-67813333D01*
X121044819Y-67813333D02*
X121092438Y-67718095D01*
X121092438Y-67718095D02*
X121140057Y-67670476D01*
X121140057Y-67670476D02*
X121235295Y-67622857D01*
X121235295Y-67622857D02*
X121378152Y-67622857D01*
X121378152Y-67622857D02*
X121473390Y-67670476D01*
X121473390Y-67670476D02*
X121521009Y-67718095D01*
X121521009Y-67718095D02*
X121568628Y-67813333D01*
X121568628Y-67813333D02*
X121568628Y-68194285D01*
X121140057Y-67241904D02*
X121092438Y-67194285D01*
X121092438Y-67194285D02*
X121044819Y-67099047D01*
X121044819Y-67099047D02*
X121044819Y-66860952D01*
X121044819Y-66860952D02*
X121092438Y-66765714D01*
X121092438Y-66765714D02*
X121140057Y-66718095D01*
X121140057Y-66718095D02*
X121235295Y-66670476D01*
X121235295Y-66670476D02*
X121330533Y-66670476D01*
X121330533Y-66670476D02*
X121473390Y-66718095D01*
X121473390Y-66718095D02*
X122044819Y-67289523D01*
X122044819Y-67289523D02*
X122044819Y-66670476D01*
X121044819Y-65765714D02*
X121044819Y-66241904D01*
X121044819Y-66241904D02*
X121521009Y-66289523D01*
X121521009Y-66289523D02*
X121473390Y-66241904D01*
X121473390Y-66241904D02*
X121425771Y-66146666D01*
X121425771Y-66146666D02*
X121425771Y-65908571D01*
X121425771Y-65908571D02*
X121473390Y-65813333D01*
X121473390Y-65813333D02*
X121521009Y-65765714D01*
X121521009Y-65765714D02*
X121616247Y-65718095D01*
X121616247Y-65718095D02*
X121854342Y-65718095D01*
X121854342Y-65718095D02*
X121949580Y-65765714D01*
X121949580Y-65765714D02*
X121997200Y-65813333D01*
X121997200Y-65813333D02*
X122044819Y-65908571D01*
X122044819Y-65908571D02*
X122044819Y-66146666D01*
X122044819Y-66146666D02*
X121997200Y-66241904D01*
X121997200Y-66241904D02*
X121949580Y-66289523D01*
D12*
%TO.C,R2*%
X116450000Y-83160000D02*
X116450000Y-84110000D01*
X117370000Y-84110000D02*
X115530000Y-84110000D01*
X115530000Y-84110000D02*
X115530000Y-87950000D01*
X117370000Y-87950000D02*
X117370000Y-84110000D01*
X115530000Y-87950000D02*
X117370000Y-87950000D01*
X116450000Y-88900000D02*
X116450000Y-87950000D01*
%TO.C,R28*%
X159070000Y-83140000D02*
X155230000Y-83140000D01*
X159070000Y-81300000D02*
X155230000Y-81300000D01*
%TO.C,R27*%
X151450000Y-83140000D02*
X147610000Y-83140000D01*
X151450000Y-81300000D02*
X147610000Y-81300000D01*
%TO.C,J6*%
X148200000Y-70850000D02*
X148200000Y-69520000D01*
X149530000Y-70850000D02*
X148200000Y-70850000D01*
X150800000Y-70850000D02*
X166100000Y-70850000D01*
X150800000Y-70850000D02*
X150800000Y-68190000D01*
X166100000Y-70850000D02*
X166100000Y-68190000D01*
X150800000Y-68190000D02*
X166100000Y-68190000D01*
%TO.C,R5*%
X129150000Y-83160000D02*
X129150000Y-84110000D01*
X130070000Y-84110000D02*
X128230000Y-84110000D01*
X128230000Y-84110000D02*
X128230000Y-87950000D01*
X130070000Y-87950000D02*
X130070000Y-84110000D01*
X128230000Y-87950000D02*
X130070000Y-87950000D01*
X129150000Y-88900000D02*
X129150000Y-87950000D01*
%TO.C,U1*%
X127830000Y-55490000D02*
X127830000Y-73390000D01*
X127830000Y-73390000D02*
X133130000Y-73390000D01*
X129480000Y-55490000D02*
X127830000Y-55490000D01*
X133130000Y-55490000D02*
X131480000Y-55490000D01*
X133130000Y-73390000D02*
X133130000Y-55490000D01*
X129480000Y-55490000D02*
G75*
G03*
X131480000Y-55490000I1000000J0D01*
G01*
%TO.C,C1*%
X153290000Y-79780000D02*
X153290000Y-77040000D01*
X153290000Y-79780000D02*
X145850000Y-79780000D01*
X153290000Y-77040000D02*
X145850000Y-77040000D01*
X145850000Y-79780000D02*
X145850000Y-77040000D01*
%TO.C,R9*%
X121590000Y-56490000D02*
X121590000Y-57440000D01*
X122510000Y-57440000D02*
X120670000Y-57440000D01*
X120670000Y-57440000D02*
X120670000Y-61280000D01*
X122510000Y-61280000D02*
X122510000Y-57440000D01*
X120670000Y-61280000D02*
X122510000Y-61280000D01*
X121590000Y-62230000D02*
X121590000Y-61280000D01*
%TO.C,R17*%
X110490000Y-61900000D02*
X109540000Y-61900000D01*
X109540000Y-62820000D02*
X109540000Y-60980000D01*
X109540000Y-60980000D02*
X105700000Y-60980000D01*
X105700000Y-62820000D02*
X109540000Y-62820000D01*
X105700000Y-60980000D02*
X105700000Y-62820000D01*
X104750000Y-61900000D02*
X105700000Y-61900000D01*
%TO.C,J5*%
X166040000Y-52950000D02*
X166040000Y-54280000D01*
X164710000Y-52950000D02*
X166040000Y-52950000D01*
X163440000Y-52950000D02*
X148140000Y-52950000D01*
X163440000Y-52950000D02*
X163440000Y-55610000D01*
X148140000Y-52950000D02*
X148140000Y-55610000D01*
X163440000Y-55610000D02*
X148140000Y-55610000D01*
%TO.C,R3*%
X118990000Y-83160000D02*
X118990000Y-84110000D01*
X119910000Y-84110000D02*
X118070000Y-84110000D01*
X118070000Y-84110000D02*
X118070000Y-87950000D01*
X119910000Y-87950000D02*
X119910000Y-84110000D01*
X118070000Y-87950000D02*
X119910000Y-87950000D01*
X118990000Y-88900000D02*
X118990000Y-87950000D01*
%TO.C,R7*%
X136770000Y-83160000D02*
X136770000Y-84110000D01*
X137690000Y-84110000D02*
X135850000Y-84110000D01*
X135850000Y-84110000D02*
X135850000Y-87950000D01*
X137690000Y-87950000D02*
X137690000Y-84110000D01*
X135850000Y-87950000D02*
X137690000Y-87950000D01*
X136770000Y-88900000D02*
X136770000Y-87950000D01*
%TO.C,R21*%
X144780000Y-65710000D02*
X143830000Y-65710000D01*
X143830000Y-66630000D02*
X143830000Y-64790000D01*
X143830000Y-64790000D02*
X139990000Y-64790000D01*
X139990000Y-66630000D02*
X143830000Y-66630000D01*
X139990000Y-64790000D02*
X139990000Y-66630000D01*
X139040000Y-65710000D02*
X139990000Y-65710000D01*
%TO.C,J1*%
X110040000Y-97400000D02*
X110040000Y-96070000D01*
X111370000Y-97400000D02*
X110040000Y-97400000D01*
X112640000Y-97400000D02*
X125400000Y-97400000D01*
X112640000Y-97400000D02*
X112640000Y-94740000D01*
X125400000Y-97400000D02*
X125400000Y-94740000D01*
X112640000Y-94740000D02*
X125400000Y-94740000D01*
%TO.C,R18*%
X104750000Y-74600000D02*
X105700000Y-74600000D01*
X105700000Y-73680000D02*
X105700000Y-75520000D01*
X105700000Y-75520000D02*
X109540000Y-75520000D01*
X109540000Y-73680000D02*
X105700000Y-73680000D01*
X109540000Y-75520000D02*
X109540000Y-73680000D01*
X110490000Y-74600000D02*
X109540000Y-74600000D01*
%TO.C,C2*%
X157280000Y-77040000D02*
X157280000Y-79780000D01*
X157280000Y-77040000D02*
X164720000Y-77040000D01*
X157280000Y-79780000D02*
X164720000Y-79780000D01*
X164720000Y-77040000D02*
X164720000Y-79780000D01*
%TO.C,R13*%
X113970000Y-88900000D02*
X113970000Y-87950000D01*
X113050000Y-87950000D02*
X114890000Y-87950000D01*
X114890000Y-87950000D02*
X114890000Y-84110000D01*
X113050000Y-84110000D02*
X113050000Y-87950000D01*
X114890000Y-84110000D02*
X113050000Y-84110000D01*
X113970000Y-83160000D02*
X113970000Y-84110000D01*
%TO.C,R15*%
X131690000Y-88900000D02*
X131690000Y-87950000D01*
X130770000Y-87950000D02*
X132610000Y-87950000D01*
X132610000Y-87950000D02*
X132610000Y-84110000D01*
X130770000Y-84110000D02*
X130770000Y-87950000D01*
X132610000Y-84110000D02*
X130770000Y-84110000D01*
X131690000Y-83160000D02*
X131690000Y-84110000D01*
%TO.C,R10*%
X124130000Y-76200000D02*
X124130000Y-75250000D01*
X123210000Y-75250000D02*
X125050000Y-75250000D01*
X125050000Y-75250000D02*
X125050000Y-71410000D01*
X123210000Y-71410000D02*
X123210000Y-75250000D01*
X125050000Y-71410000D02*
X123210000Y-71410000D01*
X124130000Y-70460000D02*
X124130000Y-71410000D01*
%TO.C,R11*%
X138100000Y-74930000D02*
X138100000Y-73980000D01*
X137180000Y-73980000D02*
X139020000Y-73980000D01*
X139020000Y-73980000D02*
X139020000Y-70140000D01*
X137180000Y-70140000D02*
X137180000Y-73980000D01*
X139020000Y-70140000D02*
X137180000Y-70140000D01*
X138100000Y-69190000D02*
X138100000Y-70140000D01*
%TO.C,R20*%
X135890000Y-53010000D02*
X134940000Y-53010000D01*
X134940000Y-53930000D02*
X134940000Y-52090000D01*
X134940000Y-52090000D02*
X131100000Y-52090000D01*
X131100000Y-53930000D02*
X134940000Y-53930000D01*
X131100000Y-52090000D02*
X131100000Y-53930000D01*
X130150000Y-53010000D02*
X131100000Y-53010000D01*
%TO.C,R26*%
X118110000Y-55550000D02*
X117160000Y-55550000D01*
X117160000Y-56470000D02*
X117160000Y-54630000D01*
X117160000Y-54630000D02*
X113320000Y-54630000D01*
X113320000Y-56470000D02*
X117160000Y-56470000D01*
X113320000Y-54630000D02*
X113320000Y-56470000D01*
X112370000Y-55550000D02*
X113320000Y-55550000D01*
%TO.C,J2*%
X127820000Y-97400000D02*
X127820000Y-96070000D01*
X129150000Y-97400000D02*
X127820000Y-97400000D01*
X130420000Y-97400000D02*
X143180000Y-97400000D01*
X130420000Y-97400000D02*
X130420000Y-94740000D01*
X143180000Y-97400000D02*
X143180000Y-94740000D01*
X130420000Y-94740000D02*
X143180000Y-94740000D01*
%TO.C,R4*%
X124130000Y-83160000D02*
X124130000Y-84110000D01*
X125050000Y-84110000D02*
X123210000Y-84110000D01*
X123210000Y-84110000D02*
X123210000Y-87950000D01*
X125050000Y-87950000D02*
X125050000Y-84110000D01*
X123210000Y-87950000D02*
X125050000Y-87950000D01*
X124130000Y-88900000D02*
X124130000Y-87950000D01*
%TO.C,R14*%
X121530000Y-88900000D02*
X121530000Y-87950000D01*
X120610000Y-87950000D02*
X122450000Y-87950000D01*
X122450000Y-87950000D02*
X122450000Y-84110000D01*
X120610000Y-84110000D02*
X120610000Y-87950000D01*
X122450000Y-84110000D02*
X120610000Y-84110000D01*
X121530000Y-83160000D02*
X121530000Y-84110000D01*
%TO.C,R22*%
X145720000Y-60960000D02*
X145720000Y-60010000D01*
X144800000Y-60010000D02*
X146640000Y-60010000D01*
X146640000Y-60010000D02*
X146640000Y-56170000D01*
X144800000Y-56170000D02*
X144800000Y-60010000D01*
X146640000Y-56170000D02*
X144800000Y-56170000D01*
X145720000Y-55220000D02*
X145720000Y-56170000D01*
%TO.C,J4*%
X166100000Y-73270000D02*
X166100000Y-74600000D01*
X164770000Y-73270000D02*
X166100000Y-73270000D01*
X163500000Y-73270000D02*
X148200000Y-73270000D01*
X163500000Y-73270000D02*
X163500000Y-75930000D01*
X148200000Y-73270000D02*
X148200000Y-75930000D01*
X163500000Y-75930000D02*
X148200000Y-75930000D01*
%TO.C,R19*%
X125730000Y-51740000D02*
X124780000Y-51740000D01*
X124780000Y-52660000D02*
X124780000Y-50820000D01*
X124780000Y-50820000D02*
X120940000Y-50820000D01*
X120940000Y-52660000D02*
X124780000Y-52660000D01*
X120940000Y-50820000D02*
X120940000Y-52660000D01*
X119990000Y-51740000D02*
X120940000Y-51740000D01*
%TO.C,R16*%
X139310000Y-88900000D02*
X139310000Y-87950000D01*
X138390000Y-87950000D02*
X140230000Y-87950000D01*
X140230000Y-87950000D02*
X140230000Y-84110000D01*
X138390000Y-84110000D02*
X138390000Y-87950000D01*
X140230000Y-84110000D02*
X138390000Y-84110000D01*
X139310000Y-83160000D02*
X139310000Y-84110000D01*
%TO.C,U2*%
X148200000Y-92490000D02*
X166100000Y-92490000D01*
X166100000Y-92490000D02*
X166100000Y-87190000D01*
X148200000Y-90840000D02*
X148200000Y-92490000D01*
X148200000Y-87190000D02*
X148200000Y-88840000D01*
X166100000Y-87190000D02*
X148200000Y-87190000D01*
X148200000Y-90840000D02*
G75*
G03*
X148200000Y-88840000I0J1000000D01*
G01*
%TO.C,R8*%
X141850000Y-83160000D02*
X141850000Y-84110000D01*
X142770000Y-84110000D02*
X140930000Y-84110000D01*
X140930000Y-84110000D02*
X140930000Y-87950000D01*
X142770000Y-87950000D02*
X142770000Y-84110000D01*
X140930000Y-87950000D02*
X142770000Y-87950000D01*
X141850000Y-88900000D02*
X141850000Y-87950000D01*
%TO.C,R24*%
X140640000Y-70460000D02*
X140640000Y-71410000D01*
X141560000Y-71410000D02*
X139720000Y-71410000D01*
X139720000Y-71410000D02*
X139720000Y-75250000D01*
X141560000Y-75250000D02*
X141560000Y-71410000D01*
X139720000Y-75250000D02*
X141560000Y-75250000D01*
X140640000Y-76200000D02*
X140640000Y-75250000D01*
%TO.C,R6*%
X134290000Y-83160000D02*
X134290000Y-84110000D01*
X135210000Y-84110000D02*
X133370000Y-84110000D01*
X133370000Y-84110000D02*
X133370000Y-87950000D01*
X135210000Y-87950000D02*
X135210000Y-84110000D01*
X133370000Y-87950000D02*
X135210000Y-87950000D01*
X134290000Y-88900000D02*
X134290000Y-87950000D01*
%TO.C,R1*%
X111430000Y-83160000D02*
X111430000Y-84110000D01*
X112350000Y-84110000D02*
X110510000Y-84110000D01*
X110510000Y-84110000D02*
X110510000Y-87950000D01*
X112350000Y-87950000D02*
X112350000Y-84110000D01*
X110510000Y-87950000D02*
X112350000Y-87950000D01*
X111430000Y-88900000D02*
X111430000Y-87950000D01*
%TO.C,R12*%
X139370000Y-55220000D02*
X139370000Y-56170000D01*
X140290000Y-56170000D02*
X138450000Y-56170000D01*
X138450000Y-56170000D02*
X138450000Y-60010000D01*
X140290000Y-60010000D02*
X140290000Y-56170000D01*
X138450000Y-60010000D02*
X140290000Y-60010000D01*
X139370000Y-60960000D02*
X139370000Y-60010000D01*
%TO.C,RV1*%
X111120000Y-73135000D02*
X111120000Y-63365000D01*
X111120000Y-73135000D02*
X101350000Y-73135000D01*
X111120000Y-63365000D02*
X101350000Y-63365000D01*
X101350000Y-73135000D02*
X101350000Y-63365000D01*
%TO.C,R23*%
X143180000Y-55220000D02*
X143180000Y-56170000D01*
X144100000Y-56170000D02*
X142260000Y-56170000D01*
X142260000Y-56170000D02*
X142260000Y-60010000D01*
X144100000Y-60010000D02*
X144100000Y-56170000D01*
X142260000Y-60010000D02*
X144100000Y-60010000D01*
X143180000Y-60960000D02*
X143180000Y-60010000D01*
%TO.C,R25*%
X121590000Y-76200000D02*
X121590000Y-75250000D01*
X120670000Y-75250000D02*
X122510000Y-75250000D01*
X122510000Y-75250000D02*
X122510000Y-71410000D01*
X120670000Y-71410000D02*
X120670000Y-75250000D01*
X122510000Y-71410000D02*
X120670000Y-71410000D01*
X121590000Y-70460000D02*
X121590000Y-71410000D01*
%TD*%
M02*
