%TF.GenerationSoftware,KiCad,Pcbnew,7.0.7*%
%TF.CreationDate,2024-04-26T13:10:04-04:00*%
%TF.ProjectId,xiao-rp2040-uno,7869616f-2d72-4703-9230-34302d756e6f,rev?*%
%TF.SameCoordinates,Original*%
%TF.FileFunction,Soldermask,Top*%
%TF.FilePolarity,Negative*%
%FSLAX46Y46*%
G04 Gerber Fmt 4.6, Leading zero omitted, Abs format (unit mm)*
G04 Created by KiCad (PCBNEW 7.0.7) date 2024-04-26 13:10:04*
%MOMM*%
%LPD*%
G01*
G04 APERTURE LIST*
%ADD10C,1.400000*%
%ADD11O,1.400000X1.400000*%
%ADD12R,1.700000X1.700000*%
%ADD13O,1.700000X1.700000*%
%ADD14R,1.600000X1.600000*%
%ADD15O,1.600000X1.600000*%
%ADD16C,1.600000*%
%ADD17C,3.200000*%
%ADD18C,1.440000*%
G04 APERTURE END LIST*
D10*
%TO.C,R2*%
X116450000Y-82220000D03*
D11*
X116450000Y-89840000D03*
%TD*%
D10*
%TO.C,R28*%
X159690000Y-82220000D03*
D11*
X154610000Y-82220000D03*
%TD*%
D10*
%TO.C,R27*%
X152070000Y-82220000D03*
D11*
X146990000Y-82220000D03*
%TD*%
D12*
%TO.C,J6*%
X149530000Y-69520000D03*
D13*
X152070000Y-69520000D03*
X154610000Y-69520000D03*
X157150000Y-69520000D03*
X159690000Y-69520000D03*
X162230000Y-69520000D03*
X164770000Y-69520000D03*
%TD*%
D10*
%TO.C,R5*%
X129150000Y-82220000D03*
D11*
X129150000Y-89840000D03*
%TD*%
D14*
%TO.C,U1*%
X126670000Y-56820000D03*
D15*
X126670000Y-59360000D03*
X126670000Y-61900000D03*
X126670000Y-64440000D03*
X126670000Y-66980000D03*
X126670000Y-69520000D03*
X126670000Y-72060000D03*
X134290000Y-72060000D03*
X134290000Y-69520000D03*
X134290000Y-66980000D03*
X134290000Y-64440000D03*
X134290000Y-61900000D03*
X134290000Y-59360000D03*
X134290000Y-56820000D03*
%TD*%
D16*
%TO.C,C1*%
X152070000Y-78410000D03*
X147070000Y-78410000D03*
%TD*%
D10*
%TO.C,R9*%
X121590000Y-55550000D03*
D11*
X121590000Y-63170000D03*
%TD*%
D17*
%TO.C,MH3*%
X106350000Y-84760000D03*
%TD*%
D10*
%TO.C,R17*%
X111430000Y-61900000D03*
D11*
X103810000Y-61900000D03*
%TD*%
D12*
%TO.C,J5*%
X164710000Y-54280000D03*
D13*
X162170000Y-54280000D03*
X159630000Y-54280000D03*
X157090000Y-54280000D03*
X154550000Y-54280000D03*
X152010000Y-54280000D03*
X149470000Y-54280000D03*
%TD*%
D10*
%TO.C,R3*%
X118990000Y-82220000D03*
D11*
X118990000Y-89840000D03*
%TD*%
D10*
%TO.C,R7*%
X136770000Y-82220000D03*
D11*
X136770000Y-89840000D03*
%TD*%
D10*
%TO.C,R21*%
X145720000Y-65710000D03*
D11*
X138100000Y-65710000D03*
%TD*%
D12*
%TO.C,J1*%
X111370000Y-96070000D03*
D13*
X113910000Y-96070000D03*
X116450000Y-96070000D03*
X118990000Y-96070000D03*
X121530000Y-96070000D03*
X124070000Y-96070000D03*
%TD*%
D10*
%TO.C,R18*%
X103810000Y-74600000D03*
D11*
X111430000Y-74600000D03*
%TD*%
D16*
%TO.C,C2*%
X158500000Y-78410000D03*
X163500000Y-78410000D03*
%TD*%
D10*
%TO.C,R13*%
X113970000Y-89840000D03*
D11*
X113970000Y-82220000D03*
%TD*%
D10*
%TO.C,R15*%
X131690000Y-89840000D03*
D11*
X131690000Y-82220000D03*
%TD*%
D10*
%TO.C,R10*%
X124130000Y-77140000D03*
D11*
X124130000Y-69520000D03*
%TD*%
D10*
%TO.C,R11*%
X138100000Y-75870000D03*
D11*
X138100000Y-68250000D03*
%TD*%
D10*
%TO.C,R20*%
X136830000Y-53010000D03*
D11*
X129210000Y-53010000D03*
%TD*%
D10*
%TO.C,R26*%
X119050000Y-55550000D03*
D11*
X111430000Y-55550000D03*
%TD*%
D12*
%TO.C,J2*%
X129150000Y-96070000D03*
D13*
X131690000Y-96070000D03*
X134230000Y-96070000D03*
X136770000Y-96070000D03*
X139310000Y-96070000D03*
X141850000Y-96070000D03*
%TD*%
D10*
%TO.C,R4*%
X124130000Y-82220000D03*
D11*
X124130000Y-89840000D03*
%TD*%
D10*
%TO.C,R14*%
X121530000Y-89840000D03*
D11*
X121530000Y-82220000D03*
%TD*%
D10*
%TO.C,R22*%
X145720000Y-61900000D03*
D11*
X145720000Y-54280000D03*
%TD*%
D12*
%TO.C,J4*%
X164770000Y-74600000D03*
D13*
X162230000Y-74600000D03*
X159690000Y-74600000D03*
X157150000Y-74600000D03*
X154610000Y-74600000D03*
X152070000Y-74600000D03*
X149530000Y-74600000D03*
%TD*%
D17*
%TO.C,MH2*%
X154610000Y-49200000D03*
%TD*%
D10*
%TO.C,R19*%
X126670000Y-51740000D03*
D11*
X119050000Y-51740000D03*
%TD*%
D10*
%TO.C,R16*%
X139310000Y-89840000D03*
D11*
X139310000Y-82220000D03*
%TD*%
D14*
%TO.C,U2*%
X149530000Y-93650000D03*
D15*
X152070000Y-93650000D03*
X154610000Y-93650000D03*
X157150000Y-93650000D03*
X159690000Y-93650000D03*
X162230000Y-93650000D03*
X164770000Y-93650000D03*
X164770000Y-86030000D03*
X162230000Y-86030000D03*
X159690000Y-86030000D03*
X157150000Y-86030000D03*
X154610000Y-86030000D03*
X152070000Y-86030000D03*
X149530000Y-86030000D03*
%TD*%
D10*
%TO.C,R8*%
X141850000Y-82220000D03*
D11*
X141850000Y-89840000D03*
%TD*%
D10*
%TO.C,R24*%
X140640000Y-69520000D03*
D11*
X140640000Y-77140000D03*
%TD*%
D10*
%TO.C,R6*%
X134290000Y-82220000D03*
D11*
X134290000Y-89840000D03*
%TD*%
D10*
%TO.C,R1*%
X111430000Y-82220000D03*
D11*
X111430000Y-89840000D03*
%TD*%
D17*
%TO.C,MH4*%
X106350000Y-56820000D03*
%TD*%
D10*
%TO.C,R12*%
X139370000Y-54280000D03*
D11*
X139370000Y-61900000D03*
%TD*%
D18*
%TO.C,RV1*%
X108890000Y-65710000D03*
X103810000Y-68250000D03*
X108890000Y-70790000D03*
%TD*%
D10*
%TO.C,R23*%
X143180000Y-54280000D03*
D11*
X143180000Y-61900000D03*
%TD*%
D17*
%TO.C,MH1*%
X153340000Y-97460000D03*
%TD*%
D10*
%TO.C,R25*%
X121590000Y-77140000D03*
D11*
X121590000Y-69520000D03*
%TD*%
M02*
