M48
; DRILL file {KiCad 7.0.7} date Fri Apr 26 13:10:12 2024
; FORMAT={-:-/ absolute / inch / decimal}
; #@! TF.CreationDate,2024-04-26T13:10:12-04:00
; #@! TF.GenerationSoftware,Kicad,Pcbnew,7.0.7
; #@! TF.FileFunction,Plated,1,2,PTH
FMAT,2
INCH
; #@! TA.AperFunction,Plated,PTH,ViaDrill
T1C0.0160
; #@! TA.AperFunction,Plated,PTH,ComponentDrill
T2C0.0276
; #@! TA.AperFunction,Plated,PTH,ComponentDrill
T3C0.0315
; #@! TA.AperFunction,Plated,PTH,ComponentDrill
T4C0.0394
%
G90
G05
T1
X4.587Y-2.587
X4.587Y-2.787
X5.737Y-2.837
X6.187Y-3.537
T2
X4.087Y-2.437
X4.087Y-2.937
X4.387Y-2.187
X4.387Y-2.437
X4.387Y-2.937
X4.387Y-3.237
X4.387Y-3.537
X4.487Y-3.237
X4.487Y-3.537
X4.5846Y-3.237
X4.5846Y-3.537
X4.6846Y-3.237
X4.6846Y-3.537
X4.687Y-2.037
X4.687Y-2.187
X4.7846Y-3.237
X4.7846Y-3.537
X4.787Y-2.187
X4.787Y-2.487
X4.787Y-2.737
X4.787Y-3.037
X4.887Y-2.737
X4.887Y-3.037
X4.887Y-3.237
X4.887Y-3.537
X4.987Y-2.037
X5.0846Y-3.237
X5.0846Y-3.537
X5.087Y-2.087
X5.1846Y-3.237
X5.1846Y-3.537
X5.287Y-3.237
X5.287Y-3.537
X5.3846Y-3.237
X5.3846Y-3.537
X5.387Y-2.087
X5.437Y-2.587
X5.437Y-2.687
X5.437Y-2.987
X5.4846Y-3.237
X5.4846Y-3.537
X5.487Y-2.137
X5.487Y-2.437
X5.537Y-2.737
X5.537Y-3.037
X5.5846Y-3.237
X5.5846Y-3.537
X5.637Y-2.137
X5.637Y-2.437
X5.737Y-2.137
X5.737Y-2.437
X5.737Y-2.587
X5.787Y-3.237
X5.987Y-3.237
X6.087Y-3.237
X6.287Y-3.237
T3
X4.087Y-2.687
X4.287Y-2.587
X4.287Y-2.787
X4.987Y-2.237
X4.987Y-2.337
X4.987Y-2.437
X4.987Y-2.537
X4.987Y-2.637
X4.987Y-2.737
X4.987Y-2.837
X5.287Y-2.237
X5.287Y-2.337
X5.287Y-2.437
X5.287Y-2.537
X5.287Y-2.637
X5.287Y-2.737
X5.287Y-2.837
X5.7902Y-3.087
X5.887Y-3.387
X5.887Y-3.687
X5.987Y-3.087
X5.987Y-3.387
X5.987Y-3.687
X6.087Y-3.387
X6.087Y-3.687
X6.187Y-3.387
X6.187Y-3.687
X6.2402Y-3.087
X6.287Y-3.387
X6.287Y-3.687
X6.387Y-3.387
X6.387Y-3.687
X6.437Y-3.087
X6.487Y-3.387
X6.487Y-3.687
T4
X4.3846Y-3.7823
X4.4846Y-3.7823
X4.5846Y-3.7823
X4.6846Y-3.7823
X4.7846Y-3.7823
X4.8846Y-3.7823
X5.0846Y-3.7823
X5.1846Y-3.7823
X5.2846Y-3.7823
X5.3846Y-3.7823
X5.4846Y-3.7823
X5.5846Y-3.7823
X5.8846Y-2.137
X5.887Y-2.737
X5.887Y-2.937
X5.9846Y-2.137
X5.987Y-2.737
X5.987Y-2.937
X6.0846Y-2.137
X6.087Y-2.737
X6.087Y-2.937
X6.1846Y-2.137
X6.187Y-2.737
X6.187Y-2.937
X6.2846Y-2.137
X6.287Y-2.737
X6.287Y-2.937
X6.3846Y-2.137
X6.387Y-2.737
X6.387Y-2.937
X6.4846Y-2.137
X6.487Y-2.737
X6.487Y-2.937
T0
M30
