%TF.GenerationSoftware,KiCad,Pcbnew,7.0.7*%
%TF.CreationDate,2024-05-13T13:27:10-04:00*%
%TF.ProjectId,diff-probe-x4-v2,64696666-2d70-4726-9f62-652d78342d76,rev?*%
%TF.SameCoordinates,Original*%
%TF.FileFunction,Legend,Top*%
%TF.FilePolarity,Positive*%
%FSLAX46Y46*%
G04 Gerber Fmt 4.6, Leading zero omitted, Abs format (unit mm)*
G04 Created by KiCad (PCBNEW 7.0.7) date 2024-05-13 13:27:10*
%MOMM*%
%LPD*%
G01*
G04 APERTURE LIST*
%ADD10C,0.152400*%
%ADD11C,0.150000*%
%ADD12C,0.110000*%
%ADD13C,0.120000*%
%ADD14C,0.127000*%
%ADD15C,0.066040*%
%ADD16C,0.254000*%
G04 APERTURE END LIST*
D10*
X137467106Y-93602570D02*
X135943106Y-93602570D01*
X135943106Y-93602570D02*
X135943106Y-93239713D01*
X135943106Y-93239713D02*
X136015677Y-93021999D01*
X136015677Y-93021999D02*
X136160820Y-92876856D01*
X136160820Y-92876856D02*
X136305963Y-92804285D01*
X136305963Y-92804285D02*
X136596249Y-92731713D01*
X136596249Y-92731713D02*
X136813963Y-92731713D01*
X136813963Y-92731713D02*
X137104249Y-92804285D01*
X137104249Y-92804285D02*
X137249392Y-92876856D01*
X137249392Y-92876856D02*
X137394535Y-93021999D01*
X137394535Y-93021999D02*
X137467106Y-93239713D01*
X137467106Y-93239713D02*
X137467106Y-93602570D01*
X136886535Y-92078570D02*
X136886535Y-90917428D01*
X137467106Y-91497999D02*
X136305963Y-91497999D01*
X112367381Y-67559601D02*
X112609286Y-67559601D01*
X112609286Y-67559601D02*
X112730238Y-67620077D01*
X112730238Y-67620077D02*
X112851191Y-67741029D01*
X112851191Y-67741029D02*
X112911667Y-67982934D01*
X112911667Y-67982934D02*
X112911667Y-68406267D01*
X112911667Y-68406267D02*
X112851191Y-68648172D01*
X112851191Y-68648172D02*
X112730238Y-68769125D01*
X112730238Y-68769125D02*
X112609286Y-68829601D01*
X112609286Y-68829601D02*
X112367381Y-68829601D01*
X112367381Y-68829601D02*
X112246429Y-68769125D01*
X112246429Y-68769125D02*
X112125476Y-68648172D01*
X112125476Y-68648172D02*
X112065000Y-68406267D01*
X112065000Y-68406267D02*
X112065000Y-67982934D01*
X112065000Y-67982934D02*
X112125476Y-67741029D01*
X112125476Y-67741029D02*
X112246429Y-67620077D01*
X112246429Y-67620077D02*
X112367381Y-67559601D01*
X113879286Y-68164363D02*
X113455952Y-68164363D01*
X113455952Y-68829601D02*
X113455952Y-67559601D01*
X113455952Y-67559601D02*
X114060714Y-67559601D01*
X114967857Y-68164363D02*
X114544523Y-68164363D01*
X114544523Y-68829601D02*
X114544523Y-67559601D01*
X114544523Y-67559601D02*
X115149285Y-67559601D01*
X115572618Y-68769125D02*
X115754047Y-68829601D01*
X115754047Y-68829601D02*
X116056428Y-68829601D01*
X116056428Y-68829601D02*
X116177380Y-68769125D01*
X116177380Y-68769125D02*
X116237856Y-68708648D01*
X116237856Y-68708648D02*
X116298333Y-68587696D01*
X116298333Y-68587696D02*
X116298333Y-68466744D01*
X116298333Y-68466744D02*
X116237856Y-68345791D01*
X116237856Y-68345791D02*
X116177380Y-68285315D01*
X116177380Y-68285315D02*
X116056428Y-68224839D01*
X116056428Y-68224839D02*
X115814523Y-68164363D01*
X115814523Y-68164363D02*
X115693571Y-68103886D01*
X115693571Y-68103886D02*
X115633094Y-68043410D01*
X115633094Y-68043410D02*
X115572618Y-67922458D01*
X115572618Y-67922458D02*
X115572618Y-67801505D01*
X115572618Y-67801505D02*
X115633094Y-67680553D01*
X115633094Y-67680553D02*
X115693571Y-67620077D01*
X115693571Y-67620077D02*
X115814523Y-67559601D01*
X115814523Y-67559601D02*
X116116904Y-67559601D01*
X116116904Y-67559601D02*
X116298333Y-67620077D01*
X116842618Y-68164363D02*
X117265952Y-68164363D01*
X117447380Y-68829601D02*
X116842618Y-68829601D01*
X116842618Y-68829601D02*
X116842618Y-67559601D01*
X116842618Y-67559601D02*
X117447380Y-67559601D01*
X117810238Y-67559601D02*
X118535952Y-67559601D01*
X118173095Y-68829601D02*
X118173095Y-67559601D01*
X164926744Y-62293095D02*
X164926744Y-61688333D01*
X165289601Y-62414047D02*
X164019601Y-61990714D01*
X164019601Y-61990714D02*
X165289601Y-61567380D01*
X164019601Y-61265000D02*
X165289601Y-60962619D01*
X165289601Y-60962619D02*
X164382458Y-60720714D01*
X164382458Y-60720714D02*
X165289601Y-60478809D01*
X165289601Y-60478809D02*
X164019601Y-60176429D01*
X164080077Y-59027380D02*
X164019601Y-59148333D01*
X164019601Y-59148333D02*
X164019601Y-59329761D01*
X164019601Y-59329761D02*
X164080077Y-59511190D01*
X164080077Y-59511190D02*
X164201029Y-59632142D01*
X164201029Y-59632142D02*
X164321982Y-59692619D01*
X164321982Y-59692619D02*
X164563886Y-59753095D01*
X164563886Y-59753095D02*
X164745315Y-59753095D01*
X164745315Y-59753095D02*
X164987220Y-59692619D01*
X164987220Y-59692619D02*
X165108172Y-59632142D01*
X165108172Y-59632142D02*
X165229125Y-59511190D01*
X165229125Y-59511190D02*
X165289601Y-59329761D01*
X165289601Y-59329761D02*
X165289601Y-59208809D01*
X165289601Y-59208809D02*
X165229125Y-59027380D01*
X165229125Y-59027380D02*
X165168648Y-58966904D01*
X165168648Y-58966904D02*
X164745315Y-58966904D01*
X164745315Y-58966904D02*
X164745315Y-59208809D01*
X104257524Y-50132116D02*
X104257524Y-48100116D01*
X104257524Y-48100116D02*
X104741334Y-48100116D01*
X104741334Y-48100116D02*
X105031619Y-48196878D01*
X105031619Y-48196878D02*
X105225143Y-48390402D01*
X105225143Y-48390402D02*
X105321905Y-48583926D01*
X105321905Y-48583926D02*
X105418667Y-48970974D01*
X105418667Y-48970974D02*
X105418667Y-49261259D01*
X105418667Y-49261259D02*
X105321905Y-49648307D01*
X105321905Y-49648307D02*
X105225143Y-49841831D01*
X105225143Y-49841831D02*
X105031619Y-50035355D01*
X105031619Y-50035355D02*
X104741334Y-50132116D01*
X104741334Y-50132116D02*
X104257524Y-50132116D01*
X106289524Y-50132116D02*
X106289524Y-48777450D01*
X106289524Y-48100116D02*
X106192762Y-48196878D01*
X106192762Y-48196878D02*
X106289524Y-48293640D01*
X106289524Y-48293640D02*
X106386286Y-48196878D01*
X106386286Y-48196878D02*
X106289524Y-48100116D01*
X106289524Y-48100116D02*
X106289524Y-48293640D01*
X106966857Y-48777450D02*
X107740953Y-48777450D01*
X107257143Y-50132116D02*
X107257143Y-48390402D01*
X107257143Y-48390402D02*
X107353905Y-48196878D01*
X107353905Y-48196878D02*
X107547429Y-48100116D01*
X107547429Y-48100116D02*
X107740953Y-48100116D01*
X108128000Y-48777450D02*
X108902096Y-48777450D01*
X108418286Y-50132116D02*
X108418286Y-48390402D01*
X108418286Y-48390402D02*
X108515048Y-48196878D01*
X108515048Y-48196878D02*
X108708572Y-48100116D01*
X108708572Y-48100116D02*
X108902096Y-48100116D01*
X112192000Y-50132116D02*
X111030857Y-50132116D01*
X111611429Y-50132116D02*
X111611429Y-48100116D01*
X111611429Y-48100116D02*
X111417905Y-48390402D01*
X111417905Y-48390402D02*
X111224381Y-48583926D01*
X111224381Y-48583926D02*
X111030857Y-48680688D01*
X113449905Y-48100116D02*
X113643428Y-48100116D01*
X113643428Y-48100116D02*
X113836952Y-48196878D01*
X113836952Y-48196878D02*
X113933714Y-48293640D01*
X113933714Y-48293640D02*
X114030476Y-48487164D01*
X114030476Y-48487164D02*
X114127238Y-48874212D01*
X114127238Y-48874212D02*
X114127238Y-49358021D01*
X114127238Y-49358021D02*
X114030476Y-49745069D01*
X114030476Y-49745069D02*
X113933714Y-49938593D01*
X113933714Y-49938593D02*
X113836952Y-50035355D01*
X113836952Y-50035355D02*
X113643428Y-50132116D01*
X113643428Y-50132116D02*
X113449905Y-50132116D01*
X113449905Y-50132116D02*
X113256381Y-50035355D01*
X113256381Y-50035355D02*
X113159619Y-49938593D01*
X113159619Y-49938593D02*
X113062857Y-49745069D01*
X113062857Y-49745069D02*
X112966095Y-49358021D01*
X112966095Y-49358021D02*
X112966095Y-48874212D01*
X112966095Y-48874212D02*
X113062857Y-48487164D01*
X113062857Y-48487164D02*
X113159619Y-48293640D01*
X113159619Y-48293640D02*
X113256381Y-48196878D01*
X113256381Y-48196878D02*
X113449905Y-48100116D01*
X114804571Y-48100116D02*
X116159238Y-50132116D01*
X116159238Y-48100116D02*
X114804571Y-50132116D01*
X118481523Y-50132116D02*
X118481523Y-48100116D01*
X118481523Y-48100116D02*
X119255618Y-48100116D01*
X119255618Y-48100116D02*
X119449142Y-48196878D01*
X119449142Y-48196878D02*
X119545904Y-48293640D01*
X119545904Y-48293640D02*
X119642666Y-48487164D01*
X119642666Y-48487164D02*
X119642666Y-48777450D01*
X119642666Y-48777450D02*
X119545904Y-48970974D01*
X119545904Y-48970974D02*
X119449142Y-49067735D01*
X119449142Y-49067735D02*
X119255618Y-49164497D01*
X119255618Y-49164497D02*
X118481523Y-49164497D01*
X120513523Y-50132116D02*
X120513523Y-48777450D01*
X120513523Y-49164497D02*
X120610285Y-48970974D01*
X120610285Y-48970974D02*
X120707047Y-48874212D01*
X120707047Y-48874212D02*
X120900571Y-48777450D01*
X120900571Y-48777450D02*
X121094094Y-48777450D01*
X122061714Y-50132116D02*
X121868190Y-50035355D01*
X121868190Y-50035355D02*
X121771428Y-49938593D01*
X121771428Y-49938593D02*
X121674666Y-49745069D01*
X121674666Y-49745069D02*
X121674666Y-49164497D01*
X121674666Y-49164497D02*
X121771428Y-48970974D01*
X121771428Y-48970974D02*
X121868190Y-48874212D01*
X121868190Y-48874212D02*
X122061714Y-48777450D01*
X122061714Y-48777450D02*
X122351999Y-48777450D01*
X122351999Y-48777450D02*
X122545523Y-48874212D01*
X122545523Y-48874212D02*
X122642285Y-48970974D01*
X122642285Y-48970974D02*
X122739047Y-49164497D01*
X122739047Y-49164497D02*
X122739047Y-49745069D01*
X122739047Y-49745069D02*
X122642285Y-49938593D01*
X122642285Y-49938593D02*
X122545523Y-50035355D01*
X122545523Y-50035355D02*
X122351999Y-50132116D01*
X122351999Y-50132116D02*
X122061714Y-50132116D01*
X123609904Y-50132116D02*
X123609904Y-48100116D01*
X123609904Y-48874212D02*
X123803428Y-48777450D01*
X123803428Y-48777450D02*
X124190475Y-48777450D01*
X124190475Y-48777450D02*
X124383999Y-48874212D01*
X124383999Y-48874212D02*
X124480761Y-48970974D01*
X124480761Y-48970974D02*
X124577523Y-49164497D01*
X124577523Y-49164497D02*
X124577523Y-49745069D01*
X124577523Y-49745069D02*
X124480761Y-49938593D01*
X124480761Y-49938593D02*
X124383999Y-50035355D01*
X124383999Y-50035355D02*
X124190475Y-50132116D01*
X124190475Y-50132116D02*
X123803428Y-50132116D01*
X123803428Y-50132116D02*
X123609904Y-50035355D01*
X126222475Y-50035355D02*
X126028951Y-50132116D01*
X126028951Y-50132116D02*
X125641904Y-50132116D01*
X125641904Y-50132116D02*
X125448380Y-50035355D01*
X125448380Y-50035355D02*
X125351618Y-49841831D01*
X125351618Y-49841831D02*
X125351618Y-49067735D01*
X125351618Y-49067735D02*
X125448380Y-48874212D01*
X125448380Y-48874212D02*
X125641904Y-48777450D01*
X125641904Y-48777450D02*
X126028951Y-48777450D01*
X126028951Y-48777450D02*
X126222475Y-48874212D01*
X126222475Y-48874212D02*
X126319237Y-49067735D01*
X126319237Y-49067735D02*
X126319237Y-49261259D01*
X126319237Y-49261259D02*
X125351618Y-49454783D01*
X116711677Y-93566285D02*
X116711677Y-92840571D01*
X117147106Y-93711428D02*
X115623106Y-93203428D01*
X115623106Y-93203428D02*
X117147106Y-92695428D01*
X116566535Y-92187427D02*
X116566535Y-91026285D01*
X156524548Y-98039601D02*
X156645501Y-98039601D01*
X156645501Y-98039601D02*
X156766453Y-98100077D01*
X156766453Y-98100077D02*
X156826929Y-98160553D01*
X156826929Y-98160553D02*
X156887405Y-98281505D01*
X156887405Y-98281505D02*
X156947882Y-98523410D01*
X156947882Y-98523410D02*
X156947882Y-98825791D01*
X156947882Y-98825791D02*
X156887405Y-99067696D01*
X156887405Y-99067696D02*
X156826929Y-99188648D01*
X156826929Y-99188648D02*
X156766453Y-99249125D01*
X156766453Y-99249125D02*
X156645501Y-99309601D01*
X156645501Y-99309601D02*
X156524548Y-99309601D01*
X156524548Y-99309601D02*
X156403596Y-99249125D01*
X156403596Y-99249125D02*
X156343120Y-99188648D01*
X156343120Y-99188648D02*
X156282643Y-99067696D01*
X156282643Y-99067696D02*
X156222167Y-98825791D01*
X156222167Y-98825791D02*
X156222167Y-98523410D01*
X156222167Y-98523410D02*
X156282643Y-98281505D01*
X156282643Y-98281505D02*
X156343120Y-98160553D01*
X156343120Y-98160553D02*
X156403596Y-98100077D01*
X156403596Y-98100077D02*
X156524548Y-98039601D01*
X158096929Y-98039601D02*
X157492167Y-98039601D01*
X157492167Y-98039601D02*
X157431691Y-98644363D01*
X157431691Y-98644363D02*
X157492167Y-98583886D01*
X157492167Y-98583886D02*
X157613120Y-98523410D01*
X157613120Y-98523410D02*
X157915501Y-98523410D01*
X157915501Y-98523410D02*
X158036453Y-98583886D01*
X158036453Y-98583886D02*
X158096929Y-98644363D01*
X158096929Y-98644363D02*
X158157406Y-98765315D01*
X158157406Y-98765315D02*
X158157406Y-99067696D01*
X158157406Y-99067696D02*
X158096929Y-99188648D01*
X158096929Y-99188648D02*
X158036453Y-99249125D01*
X158036453Y-99249125D02*
X157915501Y-99309601D01*
X157915501Y-99309601D02*
X157613120Y-99309601D01*
X157613120Y-99309601D02*
X157492167Y-99249125D01*
X157492167Y-99249125D02*
X157431691Y-99188648D01*
X159608834Y-97979125D02*
X158520263Y-99611982D01*
X160274072Y-98039601D02*
X160395025Y-98039601D01*
X160395025Y-98039601D02*
X160515977Y-98100077D01*
X160515977Y-98100077D02*
X160576453Y-98160553D01*
X160576453Y-98160553D02*
X160636929Y-98281505D01*
X160636929Y-98281505D02*
X160697406Y-98523410D01*
X160697406Y-98523410D02*
X160697406Y-98825791D01*
X160697406Y-98825791D02*
X160636929Y-99067696D01*
X160636929Y-99067696D02*
X160576453Y-99188648D01*
X160576453Y-99188648D02*
X160515977Y-99249125D01*
X160515977Y-99249125D02*
X160395025Y-99309601D01*
X160395025Y-99309601D02*
X160274072Y-99309601D01*
X160274072Y-99309601D02*
X160153120Y-99249125D01*
X160153120Y-99249125D02*
X160092644Y-99188648D01*
X160092644Y-99188648D02*
X160032167Y-99067696D01*
X160032167Y-99067696D02*
X159971691Y-98825791D01*
X159971691Y-98825791D02*
X159971691Y-98523410D01*
X159971691Y-98523410D02*
X160032167Y-98281505D01*
X160032167Y-98281505D02*
X160092644Y-98160553D01*
X160092644Y-98160553D02*
X160153120Y-98100077D01*
X160153120Y-98100077D02*
X160274072Y-98039601D01*
X161785977Y-98039601D02*
X161544072Y-98039601D01*
X161544072Y-98039601D02*
X161423120Y-98100077D01*
X161423120Y-98100077D02*
X161362644Y-98160553D01*
X161362644Y-98160553D02*
X161241691Y-98341982D01*
X161241691Y-98341982D02*
X161181215Y-98583886D01*
X161181215Y-98583886D02*
X161181215Y-99067696D01*
X161181215Y-99067696D02*
X161241691Y-99188648D01*
X161241691Y-99188648D02*
X161302168Y-99249125D01*
X161302168Y-99249125D02*
X161423120Y-99309601D01*
X161423120Y-99309601D02*
X161665025Y-99309601D01*
X161665025Y-99309601D02*
X161785977Y-99249125D01*
X161785977Y-99249125D02*
X161846453Y-99188648D01*
X161846453Y-99188648D02*
X161906930Y-99067696D01*
X161906930Y-99067696D02*
X161906930Y-98765315D01*
X161906930Y-98765315D02*
X161846453Y-98644363D01*
X161846453Y-98644363D02*
X161785977Y-98583886D01*
X161785977Y-98583886D02*
X161665025Y-98523410D01*
X161665025Y-98523410D02*
X161423120Y-98523410D01*
X161423120Y-98523410D02*
X161302168Y-98583886D01*
X161302168Y-98583886D02*
X161241691Y-98644363D01*
X161241691Y-98644363D02*
X161181215Y-98765315D01*
X163358358Y-97979125D02*
X162269787Y-99611982D01*
X163721215Y-98160553D02*
X163781691Y-98100077D01*
X163781691Y-98100077D02*
X163902644Y-98039601D01*
X163902644Y-98039601D02*
X164205025Y-98039601D01*
X164205025Y-98039601D02*
X164325977Y-98100077D01*
X164325977Y-98100077D02*
X164386453Y-98160553D01*
X164386453Y-98160553D02*
X164446930Y-98281505D01*
X164446930Y-98281505D02*
X164446930Y-98402458D01*
X164446930Y-98402458D02*
X164386453Y-98583886D01*
X164386453Y-98583886D02*
X163660739Y-99309601D01*
X163660739Y-99309601D02*
X164446930Y-99309601D01*
X165233120Y-98039601D02*
X165354073Y-98039601D01*
X165354073Y-98039601D02*
X165475025Y-98100077D01*
X165475025Y-98100077D02*
X165535501Y-98160553D01*
X165535501Y-98160553D02*
X165595977Y-98281505D01*
X165595977Y-98281505D02*
X165656454Y-98523410D01*
X165656454Y-98523410D02*
X165656454Y-98825791D01*
X165656454Y-98825791D02*
X165595977Y-99067696D01*
X165595977Y-99067696D02*
X165535501Y-99188648D01*
X165535501Y-99188648D02*
X165475025Y-99249125D01*
X165475025Y-99249125D02*
X165354073Y-99309601D01*
X165354073Y-99309601D02*
X165233120Y-99309601D01*
X165233120Y-99309601D02*
X165112168Y-99249125D01*
X165112168Y-99249125D02*
X165051692Y-99188648D01*
X165051692Y-99188648D02*
X164991215Y-99067696D01*
X164991215Y-99067696D02*
X164930739Y-98825791D01*
X164930739Y-98825791D02*
X164930739Y-98523410D01*
X164930739Y-98523410D02*
X164991215Y-98281505D01*
X164991215Y-98281505D02*
X165051692Y-98160553D01*
X165051692Y-98160553D02*
X165112168Y-98100077D01*
X165112168Y-98100077D02*
X165233120Y-98039601D01*
X166140263Y-98160553D02*
X166200739Y-98100077D01*
X166200739Y-98100077D02*
X166321692Y-98039601D01*
X166321692Y-98039601D02*
X166624073Y-98039601D01*
X166624073Y-98039601D02*
X166745025Y-98100077D01*
X166745025Y-98100077D02*
X166805501Y-98160553D01*
X166805501Y-98160553D02*
X166865978Y-98281505D01*
X166865978Y-98281505D02*
X166865978Y-98402458D01*
X166865978Y-98402458D02*
X166805501Y-98583886D01*
X166805501Y-98583886D02*
X166079787Y-99309601D01*
X166079787Y-99309601D02*
X166865978Y-99309601D01*
X167954549Y-98462934D02*
X167954549Y-99309601D01*
X167652168Y-97979125D02*
X167349787Y-98886267D01*
X167349787Y-98886267D02*
X168135978Y-98886267D01*
X113280077Y-93227618D02*
X113219601Y-93348571D01*
X113219601Y-93348571D02*
X113219601Y-93529999D01*
X113219601Y-93529999D02*
X113280077Y-93711428D01*
X113280077Y-93711428D02*
X113401029Y-93832380D01*
X113401029Y-93832380D02*
X113521982Y-93892857D01*
X113521982Y-93892857D02*
X113763886Y-93953333D01*
X113763886Y-93953333D02*
X113945315Y-93953333D01*
X113945315Y-93953333D02*
X114187220Y-93892857D01*
X114187220Y-93892857D02*
X114308172Y-93832380D01*
X114308172Y-93832380D02*
X114429125Y-93711428D01*
X114429125Y-93711428D02*
X114489601Y-93529999D01*
X114489601Y-93529999D02*
X114489601Y-93409047D01*
X114489601Y-93409047D02*
X114429125Y-93227618D01*
X114429125Y-93227618D02*
X114368648Y-93167142D01*
X114368648Y-93167142D02*
X113945315Y-93167142D01*
X113945315Y-93167142D02*
X113945315Y-93409047D01*
X114489601Y-92622857D02*
X113219601Y-92622857D01*
X113219601Y-92622857D02*
X114489601Y-91897142D01*
X114489601Y-91897142D02*
X113219601Y-91897142D01*
X114489601Y-91292381D02*
X113219601Y-91292381D01*
X113219601Y-91292381D02*
X113219601Y-90990000D01*
X113219601Y-90990000D02*
X113280077Y-90808571D01*
X113280077Y-90808571D02*
X113401029Y-90687619D01*
X113401029Y-90687619D02*
X113521982Y-90627142D01*
X113521982Y-90627142D02*
X113763886Y-90566666D01*
X113763886Y-90566666D02*
X113945315Y-90566666D01*
X113945315Y-90566666D02*
X114187220Y-90627142D01*
X114187220Y-90627142D02*
X114308172Y-90687619D01*
X114308172Y-90687619D02*
X114429125Y-90808571D01*
X114429125Y-90808571D02*
X114489601Y-90990000D01*
X114489601Y-90990000D02*
X114489601Y-91292381D01*
X159971691Y-47734901D02*
X160818358Y-49004901D01*
X160818358Y-47734901D02*
X159971691Y-49004901D01*
X161302167Y-49004901D02*
X161302167Y-47734901D01*
X161846453Y-48642044D02*
X162451215Y-48642044D01*
X161725501Y-49004901D02*
X162148834Y-47734901D01*
X162148834Y-47734901D02*
X162572168Y-49004901D01*
X163237405Y-47734901D02*
X163479310Y-47734901D01*
X163479310Y-47734901D02*
X163600262Y-47795377D01*
X163600262Y-47795377D02*
X163721215Y-47916329D01*
X163721215Y-47916329D02*
X163781691Y-48158234D01*
X163781691Y-48158234D02*
X163781691Y-48581567D01*
X163781691Y-48581567D02*
X163721215Y-48823472D01*
X163721215Y-48823472D02*
X163600262Y-48944425D01*
X163600262Y-48944425D02*
X163479310Y-49004901D01*
X163479310Y-49004901D02*
X163237405Y-49004901D01*
X163237405Y-49004901D02*
X163116453Y-48944425D01*
X163116453Y-48944425D02*
X162995500Y-48823472D01*
X162995500Y-48823472D02*
X162935024Y-48581567D01*
X162935024Y-48581567D02*
X162935024Y-48158234D01*
X162935024Y-48158234D02*
X162995500Y-47916329D01*
X162995500Y-47916329D02*
X163116453Y-47795377D01*
X163116453Y-47795377D02*
X163237405Y-47734901D01*
X160032167Y-50989125D02*
X160213596Y-51049601D01*
X160213596Y-51049601D02*
X160515977Y-51049601D01*
X160515977Y-51049601D02*
X160636929Y-50989125D01*
X160636929Y-50989125D02*
X160697405Y-50928648D01*
X160697405Y-50928648D02*
X160757882Y-50807696D01*
X160757882Y-50807696D02*
X160757882Y-50686744D01*
X160757882Y-50686744D02*
X160697405Y-50565791D01*
X160697405Y-50565791D02*
X160636929Y-50505315D01*
X160636929Y-50505315D02*
X160515977Y-50444839D01*
X160515977Y-50444839D02*
X160274072Y-50384363D01*
X160274072Y-50384363D02*
X160153120Y-50323886D01*
X160153120Y-50323886D02*
X160092643Y-50263410D01*
X160092643Y-50263410D02*
X160032167Y-50142458D01*
X160032167Y-50142458D02*
X160032167Y-50021505D01*
X160032167Y-50021505D02*
X160092643Y-49900553D01*
X160092643Y-49900553D02*
X160153120Y-49840077D01*
X160153120Y-49840077D02*
X160274072Y-49779601D01*
X160274072Y-49779601D02*
X160576453Y-49779601D01*
X160576453Y-49779601D02*
X160757882Y-49840077D01*
X161241691Y-50686744D02*
X161846453Y-50686744D01*
X161120739Y-51049601D02*
X161544072Y-49779601D01*
X161544072Y-49779601D02*
X161967406Y-51049601D01*
X162390738Y-51049601D02*
X162390738Y-49779601D01*
X162390738Y-49779601D02*
X162814072Y-50686744D01*
X162814072Y-50686744D02*
X163237405Y-49779601D01*
X163237405Y-49779601D02*
X163237405Y-51049601D01*
X163842167Y-51049601D02*
X163842167Y-49779601D01*
X163842167Y-49779601D02*
X164144548Y-49779601D01*
X164144548Y-49779601D02*
X164325977Y-49840077D01*
X164325977Y-49840077D02*
X164446929Y-49961029D01*
X164446929Y-49961029D02*
X164507406Y-50081982D01*
X164507406Y-50081982D02*
X164567882Y-50323886D01*
X164567882Y-50323886D02*
X164567882Y-50505315D01*
X164567882Y-50505315D02*
X164507406Y-50747220D01*
X164507406Y-50747220D02*
X164446929Y-50868172D01*
X164446929Y-50868172D02*
X164325977Y-50989125D01*
X164325977Y-50989125D02*
X164144548Y-51049601D01*
X164144548Y-51049601D02*
X163842167Y-51049601D01*
X165051691Y-49900553D02*
X165112167Y-49840077D01*
X165112167Y-49840077D02*
X165233120Y-49779601D01*
X165233120Y-49779601D02*
X165535501Y-49779601D01*
X165535501Y-49779601D02*
X165656453Y-49840077D01*
X165656453Y-49840077D02*
X165716929Y-49900553D01*
X165716929Y-49900553D02*
X165777406Y-50021505D01*
X165777406Y-50021505D02*
X165777406Y-50142458D01*
X165777406Y-50142458D02*
X165716929Y-50323886D01*
X165716929Y-50323886D02*
X164991215Y-51049601D01*
X164991215Y-51049601D02*
X165777406Y-51049601D01*
X166986930Y-51049601D02*
X166261215Y-51049601D01*
X166624072Y-51049601D02*
X166624072Y-49779601D01*
X166624072Y-49779601D02*
X166503120Y-49961029D01*
X166503120Y-49961029D02*
X166382168Y-50081982D01*
X166382168Y-50081982D02*
X166261215Y-50142458D01*
X159911215Y-51824301D02*
X160334548Y-53094301D01*
X160334548Y-53094301D02*
X160757882Y-51824301D01*
X161120738Y-51945253D02*
X161181214Y-51884777D01*
X161181214Y-51884777D02*
X161302167Y-51824301D01*
X161302167Y-51824301D02*
X161604548Y-51824301D01*
X161604548Y-51824301D02*
X161725500Y-51884777D01*
X161725500Y-51884777D02*
X161785976Y-51945253D01*
X161785976Y-51945253D02*
X161846453Y-52066205D01*
X161846453Y-52066205D02*
X161846453Y-52187158D01*
X161846453Y-52187158D02*
X161785976Y-52368586D01*
X161785976Y-52368586D02*
X161060262Y-53094301D01*
X161060262Y-53094301D02*
X161846453Y-53094301D01*
X129701963Y-92731713D02*
X129774535Y-92804285D01*
X129774535Y-92804285D02*
X129847106Y-93021999D01*
X129847106Y-93021999D02*
X129847106Y-93167142D01*
X129847106Y-93167142D02*
X129774535Y-93384856D01*
X129774535Y-93384856D02*
X129629392Y-93529999D01*
X129629392Y-93529999D02*
X129484249Y-93602570D01*
X129484249Y-93602570D02*
X129193963Y-93675142D01*
X129193963Y-93675142D02*
X128976249Y-93675142D01*
X128976249Y-93675142D02*
X128685963Y-93602570D01*
X128685963Y-93602570D02*
X128540820Y-93529999D01*
X128540820Y-93529999D02*
X128395677Y-93384856D01*
X128395677Y-93384856D02*
X128323106Y-93167142D01*
X128323106Y-93167142D02*
X128323106Y-93021999D01*
X128323106Y-93021999D02*
X128395677Y-92804285D01*
X128395677Y-92804285D02*
X128468249Y-92731713D01*
X129266535Y-92078570D02*
X129266535Y-90917428D01*
X129847106Y-91497999D02*
X128685963Y-91497999D01*
X134781963Y-92731713D02*
X134854535Y-92804285D01*
X134854535Y-92804285D02*
X134927106Y-93021999D01*
X134927106Y-93021999D02*
X134927106Y-93167142D01*
X134927106Y-93167142D02*
X134854535Y-93384856D01*
X134854535Y-93384856D02*
X134709392Y-93529999D01*
X134709392Y-93529999D02*
X134564249Y-93602570D01*
X134564249Y-93602570D02*
X134273963Y-93675142D01*
X134273963Y-93675142D02*
X134056249Y-93675142D01*
X134056249Y-93675142D02*
X133765963Y-93602570D01*
X133765963Y-93602570D02*
X133620820Y-93529999D01*
X133620820Y-93529999D02*
X133475677Y-93384856D01*
X133475677Y-93384856D02*
X133403106Y-93167142D01*
X133403106Y-93167142D02*
X133403106Y-93021999D01*
X133403106Y-93021999D02*
X133475677Y-92804285D01*
X133475677Y-92804285D02*
X133548249Y-92731713D01*
X134346535Y-92078570D02*
X134346535Y-90917428D01*
X118888820Y-93094570D02*
X118961392Y-92876856D01*
X118961392Y-92876856D02*
X119033963Y-92804285D01*
X119033963Y-92804285D02*
X119179106Y-92731713D01*
X119179106Y-92731713D02*
X119396820Y-92731713D01*
X119396820Y-92731713D02*
X119541963Y-92804285D01*
X119541963Y-92804285D02*
X119614535Y-92876856D01*
X119614535Y-92876856D02*
X119687106Y-93021999D01*
X119687106Y-93021999D02*
X119687106Y-93602570D01*
X119687106Y-93602570D02*
X118163106Y-93602570D01*
X118163106Y-93602570D02*
X118163106Y-93094570D01*
X118163106Y-93094570D02*
X118235677Y-92949428D01*
X118235677Y-92949428D02*
X118308249Y-92876856D01*
X118308249Y-92876856D02*
X118453392Y-92804285D01*
X118453392Y-92804285D02*
X118598535Y-92804285D01*
X118598535Y-92804285D02*
X118743677Y-92876856D01*
X118743677Y-92876856D02*
X118816249Y-92949428D01*
X118816249Y-92949428D02*
X118888820Y-93094570D01*
X118888820Y-93094570D02*
X118888820Y-93602570D01*
X119106535Y-92078570D02*
X119106535Y-90917428D01*
X119687106Y-91497999D02*
X118525963Y-91497999D01*
X142547106Y-93602570D02*
X141023106Y-93602570D01*
X141023106Y-93602570D02*
X141023106Y-93239713D01*
X141023106Y-93239713D02*
X141095677Y-93021999D01*
X141095677Y-93021999D02*
X141240820Y-92876856D01*
X141240820Y-92876856D02*
X141385963Y-92804285D01*
X141385963Y-92804285D02*
X141676249Y-92731713D01*
X141676249Y-92731713D02*
X141893963Y-92731713D01*
X141893963Y-92731713D02*
X142184249Y-92804285D01*
X142184249Y-92804285D02*
X142329392Y-92876856D01*
X142329392Y-92876856D02*
X142474535Y-93021999D01*
X142474535Y-93021999D02*
X142547106Y-93239713D01*
X142547106Y-93239713D02*
X142547106Y-93602570D01*
X141966535Y-92078570D02*
X141966535Y-90917428D01*
X111631677Y-93566285D02*
X111631677Y-92840571D01*
X112067106Y-93711428D02*
X110543106Y-93203428D01*
X110543106Y-93203428D02*
X112067106Y-92695428D01*
X111486535Y-92187427D02*
X111486535Y-91026285D01*
X112067106Y-91606856D02*
X110905963Y-91606856D01*
X157729601Y-95434048D02*
X156459601Y-95434048D01*
X156459601Y-95434048D02*
X156459601Y-94950238D01*
X156459601Y-94950238D02*
X156520077Y-94829286D01*
X156520077Y-94829286D02*
X156580553Y-94768809D01*
X156580553Y-94768809D02*
X156701505Y-94708333D01*
X156701505Y-94708333D02*
X156882934Y-94708333D01*
X156882934Y-94708333D02*
X157003886Y-94768809D01*
X157003886Y-94768809D02*
X157064363Y-94829286D01*
X157064363Y-94829286D02*
X157124839Y-94950238D01*
X157124839Y-94950238D02*
X157124839Y-95434048D01*
X156459601Y-94285000D02*
X157729601Y-93982619D01*
X157729601Y-93982619D02*
X156822458Y-93740714D01*
X156822458Y-93740714D02*
X157729601Y-93498809D01*
X157729601Y-93498809D02*
X156459601Y-93196429D01*
X157729601Y-92712619D02*
X156459601Y-92712619D01*
X156459601Y-92712619D02*
X157366744Y-92289285D01*
X157366744Y-92289285D02*
X156459601Y-91865952D01*
X156459601Y-91865952D02*
X157729601Y-91865952D01*
X120900077Y-93227618D02*
X120839601Y-93348571D01*
X120839601Y-93348571D02*
X120839601Y-93529999D01*
X120839601Y-93529999D02*
X120900077Y-93711428D01*
X120900077Y-93711428D02*
X121021029Y-93832380D01*
X121021029Y-93832380D02*
X121141982Y-93892857D01*
X121141982Y-93892857D02*
X121383886Y-93953333D01*
X121383886Y-93953333D02*
X121565315Y-93953333D01*
X121565315Y-93953333D02*
X121807220Y-93892857D01*
X121807220Y-93892857D02*
X121928172Y-93832380D01*
X121928172Y-93832380D02*
X122049125Y-93711428D01*
X122049125Y-93711428D02*
X122109601Y-93529999D01*
X122109601Y-93529999D02*
X122109601Y-93409047D01*
X122109601Y-93409047D02*
X122049125Y-93227618D01*
X122049125Y-93227618D02*
X121988648Y-93167142D01*
X121988648Y-93167142D02*
X121565315Y-93167142D01*
X121565315Y-93167142D02*
X121565315Y-93409047D01*
X122109601Y-92622857D02*
X120839601Y-92622857D01*
X120839601Y-92622857D02*
X122109601Y-91897142D01*
X122109601Y-91897142D02*
X120839601Y-91897142D01*
X122109601Y-91292381D02*
X120839601Y-91292381D01*
X120839601Y-91292381D02*
X120839601Y-90990000D01*
X120839601Y-90990000D02*
X120900077Y-90808571D01*
X120900077Y-90808571D02*
X121021029Y-90687619D01*
X121021029Y-90687619D02*
X121141982Y-90627142D01*
X121141982Y-90627142D02*
X121383886Y-90566666D01*
X121383886Y-90566666D02*
X121565315Y-90566666D01*
X121565315Y-90566666D02*
X121807220Y-90627142D01*
X121807220Y-90627142D02*
X121928172Y-90687619D01*
X121928172Y-90687619D02*
X122049125Y-90808571D01*
X122049125Y-90808571D02*
X122109601Y-90990000D01*
X122109601Y-90990000D02*
X122109601Y-91292381D01*
X159785791Y-95645714D02*
X159785791Y-94678095D01*
X160269601Y-95161904D02*
X159301982Y-95161904D01*
X158999601Y-94194285D02*
X158999601Y-93408094D01*
X158999601Y-93408094D02*
X159483410Y-93831428D01*
X159483410Y-93831428D02*
X159483410Y-93649999D01*
X159483410Y-93649999D02*
X159543886Y-93529047D01*
X159543886Y-93529047D02*
X159604363Y-93468571D01*
X159604363Y-93468571D02*
X159725315Y-93408094D01*
X159725315Y-93408094D02*
X160027696Y-93408094D01*
X160027696Y-93408094D02*
X160148648Y-93468571D01*
X160148648Y-93468571D02*
X160209125Y-93529047D01*
X160209125Y-93529047D02*
X160269601Y-93649999D01*
X160269601Y-93649999D02*
X160269601Y-94012856D01*
X160269601Y-94012856D02*
X160209125Y-94133809D01*
X160209125Y-94133809D02*
X160148648Y-94194285D01*
X160148648Y-92863809D02*
X160209125Y-92803332D01*
X160209125Y-92803332D02*
X160269601Y-92863809D01*
X160269601Y-92863809D02*
X160209125Y-92924285D01*
X160209125Y-92924285D02*
X160148648Y-92863809D01*
X160148648Y-92863809D02*
X160269601Y-92863809D01*
X158999601Y-92379999D02*
X158999601Y-91593808D01*
X158999601Y-91593808D02*
X159483410Y-92017142D01*
X159483410Y-92017142D02*
X159483410Y-91835713D01*
X159483410Y-91835713D02*
X159543886Y-91714761D01*
X159543886Y-91714761D02*
X159604363Y-91654285D01*
X159604363Y-91654285D02*
X159725315Y-91593808D01*
X159725315Y-91593808D02*
X160027696Y-91593808D01*
X160027696Y-91593808D02*
X160148648Y-91654285D01*
X160148648Y-91654285D02*
X160209125Y-91714761D01*
X160209125Y-91714761D02*
X160269601Y-91835713D01*
X160269601Y-91835713D02*
X160269601Y-92198570D01*
X160269601Y-92198570D02*
X160209125Y-92319523D01*
X160209125Y-92319523D02*
X160148648Y-92379999D01*
X123968820Y-93094570D02*
X124041392Y-92876856D01*
X124041392Y-92876856D02*
X124113963Y-92804285D01*
X124113963Y-92804285D02*
X124259106Y-92731713D01*
X124259106Y-92731713D02*
X124476820Y-92731713D01*
X124476820Y-92731713D02*
X124621963Y-92804285D01*
X124621963Y-92804285D02*
X124694535Y-92876856D01*
X124694535Y-92876856D02*
X124767106Y-93021999D01*
X124767106Y-93021999D02*
X124767106Y-93602570D01*
X124767106Y-93602570D02*
X123243106Y-93602570D01*
X123243106Y-93602570D02*
X123243106Y-93094570D01*
X123243106Y-93094570D02*
X123315677Y-92949428D01*
X123315677Y-92949428D02*
X123388249Y-92876856D01*
X123388249Y-92876856D02*
X123533392Y-92804285D01*
X123533392Y-92804285D02*
X123678535Y-92804285D01*
X123678535Y-92804285D02*
X123823677Y-92876856D01*
X123823677Y-92876856D02*
X123896249Y-92949428D01*
X123896249Y-92949428D02*
X123968820Y-93094570D01*
X123968820Y-93094570D02*
X123968820Y-93602570D01*
X124186535Y-92078570D02*
X124186535Y-90917428D01*
X138680077Y-93227618D02*
X138619601Y-93348571D01*
X138619601Y-93348571D02*
X138619601Y-93529999D01*
X138619601Y-93529999D02*
X138680077Y-93711428D01*
X138680077Y-93711428D02*
X138801029Y-93832380D01*
X138801029Y-93832380D02*
X138921982Y-93892857D01*
X138921982Y-93892857D02*
X139163886Y-93953333D01*
X139163886Y-93953333D02*
X139345315Y-93953333D01*
X139345315Y-93953333D02*
X139587220Y-93892857D01*
X139587220Y-93892857D02*
X139708172Y-93832380D01*
X139708172Y-93832380D02*
X139829125Y-93711428D01*
X139829125Y-93711428D02*
X139889601Y-93529999D01*
X139889601Y-93529999D02*
X139889601Y-93409047D01*
X139889601Y-93409047D02*
X139829125Y-93227618D01*
X139829125Y-93227618D02*
X139768648Y-93167142D01*
X139768648Y-93167142D02*
X139345315Y-93167142D01*
X139345315Y-93167142D02*
X139345315Y-93409047D01*
X139889601Y-92622857D02*
X138619601Y-92622857D01*
X138619601Y-92622857D02*
X139889601Y-91897142D01*
X139889601Y-91897142D02*
X138619601Y-91897142D01*
X139889601Y-91292381D02*
X138619601Y-91292381D01*
X138619601Y-91292381D02*
X138619601Y-90990000D01*
X138619601Y-90990000D02*
X138680077Y-90808571D01*
X138680077Y-90808571D02*
X138801029Y-90687619D01*
X138801029Y-90687619D02*
X138921982Y-90627142D01*
X138921982Y-90627142D02*
X139163886Y-90566666D01*
X139163886Y-90566666D02*
X139345315Y-90566666D01*
X139345315Y-90566666D02*
X139587220Y-90627142D01*
X139587220Y-90627142D02*
X139708172Y-90687619D01*
X139708172Y-90687619D02*
X139829125Y-90808571D01*
X139829125Y-90808571D02*
X139889601Y-90990000D01*
X139889601Y-90990000D02*
X139889601Y-91292381D01*
X161600077Y-94617618D02*
X161539601Y-94738571D01*
X161539601Y-94738571D02*
X161539601Y-94919999D01*
X161539601Y-94919999D02*
X161600077Y-95101428D01*
X161600077Y-95101428D02*
X161721029Y-95222380D01*
X161721029Y-95222380D02*
X161841982Y-95282857D01*
X161841982Y-95282857D02*
X162083886Y-95343333D01*
X162083886Y-95343333D02*
X162265315Y-95343333D01*
X162265315Y-95343333D02*
X162507220Y-95282857D01*
X162507220Y-95282857D02*
X162628172Y-95222380D01*
X162628172Y-95222380D02*
X162749125Y-95101428D01*
X162749125Y-95101428D02*
X162809601Y-94919999D01*
X162809601Y-94919999D02*
X162809601Y-94799047D01*
X162809601Y-94799047D02*
X162749125Y-94617618D01*
X162749125Y-94617618D02*
X162688648Y-94557142D01*
X162688648Y-94557142D02*
X162265315Y-94557142D01*
X162265315Y-94557142D02*
X162265315Y-94799047D01*
X162809601Y-94012857D02*
X161539601Y-94012857D01*
X161539601Y-94012857D02*
X162809601Y-93287142D01*
X162809601Y-93287142D02*
X161539601Y-93287142D01*
X162809601Y-92682381D02*
X161539601Y-92682381D01*
X161539601Y-92682381D02*
X161539601Y-92380000D01*
X161539601Y-92380000D02*
X161600077Y-92198571D01*
X161600077Y-92198571D02*
X161721029Y-92077619D01*
X161721029Y-92077619D02*
X161841982Y-92017142D01*
X161841982Y-92017142D02*
X162083886Y-91956666D01*
X162083886Y-91956666D02*
X162265315Y-91956666D01*
X162265315Y-91956666D02*
X162507220Y-92017142D01*
X162507220Y-92017142D02*
X162628172Y-92077619D01*
X162628172Y-92077619D02*
X162749125Y-92198571D01*
X162749125Y-92198571D02*
X162809601Y-92380000D01*
X162809601Y-92380000D02*
X162809601Y-92682381D01*
X164865791Y-95645714D02*
X164865791Y-94678095D01*
X165349601Y-95161904D02*
X164381982Y-95161904D01*
X164502934Y-93529047D02*
X165349601Y-93529047D01*
X164019125Y-93831428D02*
X164926267Y-94133809D01*
X164926267Y-94133809D02*
X164926267Y-93347618D01*
X165228648Y-92863809D02*
X165289125Y-92803332D01*
X165289125Y-92803332D02*
X165349601Y-92863809D01*
X165349601Y-92863809D02*
X165289125Y-92924285D01*
X165289125Y-92924285D02*
X165228648Y-92863809D01*
X165228648Y-92863809D02*
X165349601Y-92863809D01*
X164079601Y-92379999D02*
X164079601Y-91533332D01*
X164079601Y-91533332D02*
X165349601Y-92077618D01*
X131060077Y-93227618D02*
X130999601Y-93348571D01*
X130999601Y-93348571D02*
X130999601Y-93529999D01*
X130999601Y-93529999D02*
X131060077Y-93711428D01*
X131060077Y-93711428D02*
X131181029Y-93832380D01*
X131181029Y-93832380D02*
X131301982Y-93892857D01*
X131301982Y-93892857D02*
X131543886Y-93953333D01*
X131543886Y-93953333D02*
X131725315Y-93953333D01*
X131725315Y-93953333D02*
X131967220Y-93892857D01*
X131967220Y-93892857D02*
X132088172Y-93832380D01*
X132088172Y-93832380D02*
X132209125Y-93711428D01*
X132209125Y-93711428D02*
X132269601Y-93529999D01*
X132269601Y-93529999D02*
X132269601Y-93409047D01*
X132269601Y-93409047D02*
X132209125Y-93227618D01*
X132209125Y-93227618D02*
X132148648Y-93167142D01*
X132148648Y-93167142D02*
X131725315Y-93167142D01*
X131725315Y-93167142D02*
X131725315Y-93409047D01*
X132269601Y-92622857D02*
X130999601Y-92622857D01*
X130999601Y-92622857D02*
X132269601Y-91897142D01*
X132269601Y-91897142D02*
X130999601Y-91897142D01*
X132269601Y-91292381D02*
X130999601Y-91292381D01*
X130999601Y-91292381D02*
X130999601Y-90990000D01*
X130999601Y-90990000D02*
X131060077Y-90808571D01*
X131060077Y-90808571D02*
X131181029Y-90687619D01*
X131181029Y-90687619D02*
X131301982Y-90627142D01*
X131301982Y-90627142D02*
X131543886Y-90566666D01*
X131543886Y-90566666D02*
X131725315Y-90566666D01*
X131725315Y-90566666D02*
X131967220Y-90627142D01*
X131967220Y-90627142D02*
X132088172Y-90687619D01*
X132088172Y-90687619D02*
X132209125Y-90808571D01*
X132209125Y-90808571D02*
X132269601Y-90990000D01*
X132269601Y-90990000D02*
X132269601Y-91292381D01*
D11*
X139824819Y-79172857D02*
X139348628Y-79506190D01*
X139824819Y-79744285D02*
X138824819Y-79744285D01*
X138824819Y-79744285D02*
X138824819Y-79363333D01*
X138824819Y-79363333D02*
X138872438Y-79268095D01*
X138872438Y-79268095D02*
X138920057Y-79220476D01*
X138920057Y-79220476D02*
X139015295Y-79172857D01*
X139015295Y-79172857D02*
X139158152Y-79172857D01*
X139158152Y-79172857D02*
X139253390Y-79220476D01*
X139253390Y-79220476D02*
X139301009Y-79268095D01*
X139301009Y-79268095D02*
X139348628Y-79363333D01*
X139348628Y-79363333D02*
X139348628Y-79744285D01*
X139824819Y-78220476D02*
X139824819Y-78791904D01*
X139824819Y-78506190D02*
X138824819Y-78506190D01*
X138824819Y-78506190D02*
X138967676Y-78601428D01*
X138967676Y-78601428D02*
X139062914Y-78696666D01*
X139062914Y-78696666D02*
X139110533Y-78791904D01*
X138824819Y-77363333D02*
X138824819Y-77553809D01*
X138824819Y-77553809D02*
X138872438Y-77649047D01*
X138872438Y-77649047D02*
X138920057Y-77696666D01*
X138920057Y-77696666D02*
X139062914Y-77791904D01*
X139062914Y-77791904D02*
X139253390Y-77839523D01*
X139253390Y-77839523D02*
X139634342Y-77839523D01*
X139634342Y-77839523D02*
X139729580Y-77791904D01*
X139729580Y-77791904D02*
X139777200Y-77744285D01*
X139777200Y-77744285D02*
X139824819Y-77649047D01*
X139824819Y-77649047D02*
X139824819Y-77458571D01*
X139824819Y-77458571D02*
X139777200Y-77363333D01*
X139777200Y-77363333D02*
X139729580Y-77315714D01*
X139729580Y-77315714D02*
X139634342Y-77268095D01*
X139634342Y-77268095D02*
X139396247Y-77268095D01*
X139396247Y-77268095D02*
X139301009Y-77315714D01*
X139301009Y-77315714D02*
X139253390Y-77363333D01*
X139253390Y-77363333D02*
X139205771Y-77458571D01*
X139205771Y-77458571D02*
X139205771Y-77649047D01*
X139205771Y-77649047D02*
X139253390Y-77744285D01*
X139253390Y-77744285D02*
X139301009Y-77791904D01*
X139301009Y-77791904D02*
X139396247Y-77839523D01*
X122044819Y-79172857D02*
X121568628Y-79506190D01*
X122044819Y-79744285D02*
X121044819Y-79744285D01*
X121044819Y-79744285D02*
X121044819Y-79363333D01*
X121044819Y-79363333D02*
X121092438Y-79268095D01*
X121092438Y-79268095D02*
X121140057Y-79220476D01*
X121140057Y-79220476D02*
X121235295Y-79172857D01*
X121235295Y-79172857D02*
X121378152Y-79172857D01*
X121378152Y-79172857D02*
X121473390Y-79220476D01*
X121473390Y-79220476D02*
X121521009Y-79268095D01*
X121521009Y-79268095D02*
X121568628Y-79363333D01*
X121568628Y-79363333D02*
X121568628Y-79744285D01*
X122044819Y-78220476D02*
X122044819Y-78791904D01*
X122044819Y-78506190D02*
X121044819Y-78506190D01*
X121044819Y-78506190D02*
X121187676Y-78601428D01*
X121187676Y-78601428D02*
X121282914Y-78696666D01*
X121282914Y-78696666D02*
X121330533Y-78791904D01*
X121378152Y-77363333D02*
X122044819Y-77363333D01*
X120997200Y-77601428D02*
X121711485Y-77839523D01*
X121711485Y-77839523D02*
X121711485Y-77220476D01*
X118407142Y-76324819D02*
X118073809Y-75848628D01*
X117835714Y-76324819D02*
X117835714Y-75324819D01*
X117835714Y-75324819D02*
X118216666Y-75324819D01*
X118216666Y-75324819D02*
X118311904Y-75372438D01*
X118311904Y-75372438D02*
X118359523Y-75420057D01*
X118359523Y-75420057D02*
X118407142Y-75515295D01*
X118407142Y-75515295D02*
X118407142Y-75658152D01*
X118407142Y-75658152D02*
X118359523Y-75753390D01*
X118359523Y-75753390D02*
X118311904Y-75801009D01*
X118311904Y-75801009D02*
X118216666Y-75848628D01*
X118216666Y-75848628D02*
X117835714Y-75848628D01*
X118788095Y-75420057D02*
X118835714Y-75372438D01*
X118835714Y-75372438D02*
X118930952Y-75324819D01*
X118930952Y-75324819D02*
X119169047Y-75324819D01*
X119169047Y-75324819D02*
X119264285Y-75372438D01*
X119264285Y-75372438D02*
X119311904Y-75420057D01*
X119311904Y-75420057D02*
X119359523Y-75515295D01*
X119359523Y-75515295D02*
X119359523Y-75610533D01*
X119359523Y-75610533D02*
X119311904Y-75753390D01*
X119311904Y-75753390D02*
X118740476Y-76324819D01*
X118740476Y-76324819D02*
X119359523Y-76324819D01*
X120264285Y-75324819D02*
X119788095Y-75324819D01*
X119788095Y-75324819D02*
X119740476Y-75801009D01*
X119740476Y-75801009D02*
X119788095Y-75753390D01*
X119788095Y-75753390D02*
X119883333Y-75705771D01*
X119883333Y-75705771D02*
X120121428Y-75705771D01*
X120121428Y-75705771D02*
X120216666Y-75753390D01*
X120216666Y-75753390D02*
X120264285Y-75801009D01*
X120264285Y-75801009D02*
X120311904Y-75896247D01*
X120311904Y-75896247D02*
X120311904Y-76134342D01*
X120311904Y-76134342D02*
X120264285Y-76229580D01*
X120264285Y-76229580D02*
X120216666Y-76277200D01*
X120216666Y-76277200D02*
X120121428Y-76324819D01*
X120121428Y-76324819D02*
X119883333Y-76324819D01*
X119883333Y-76324819D02*
X119788095Y-76277200D01*
X119788095Y-76277200D02*
X119740476Y-76229580D01*
X134744819Y-78576666D02*
X134268628Y-78909999D01*
X134744819Y-79148094D02*
X133744819Y-79148094D01*
X133744819Y-79148094D02*
X133744819Y-78767142D01*
X133744819Y-78767142D02*
X133792438Y-78671904D01*
X133792438Y-78671904D02*
X133840057Y-78624285D01*
X133840057Y-78624285D02*
X133935295Y-78576666D01*
X133935295Y-78576666D02*
X134078152Y-78576666D01*
X134078152Y-78576666D02*
X134173390Y-78624285D01*
X134173390Y-78624285D02*
X134221009Y-78671904D01*
X134221009Y-78671904D02*
X134268628Y-78767142D01*
X134268628Y-78767142D02*
X134268628Y-79148094D01*
X133744819Y-77719523D02*
X133744819Y-77909999D01*
X133744819Y-77909999D02*
X133792438Y-78005237D01*
X133792438Y-78005237D02*
X133840057Y-78052856D01*
X133840057Y-78052856D02*
X133982914Y-78148094D01*
X133982914Y-78148094D02*
X134173390Y-78195713D01*
X134173390Y-78195713D02*
X134554342Y-78195713D01*
X134554342Y-78195713D02*
X134649580Y-78148094D01*
X134649580Y-78148094D02*
X134697200Y-78100475D01*
X134697200Y-78100475D02*
X134744819Y-78005237D01*
X134744819Y-78005237D02*
X134744819Y-77814761D01*
X134744819Y-77814761D02*
X134697200Y-77719523D01*
X134697200Y-77719523D02*
X134649580Y-77671904D01*
X134649580Y-77671904D02*
X134554342Y-77624285D01*
X134554342Y-77624285D02*
X134316247Y-77624285D01*
X134316247Y-77624285D02*
X134221009Y-77671904D01*
X134221009Y-77671904D02*
X134173390Y-77719523D01*
X134173390Y-77719523D02*
X134125771Y-77814761D01*
X134125771Y-77814761D02*
X134125771Y-78005237D01*
X134125771Y-78005237D02*
X134173390Y-78100475D01*
X134173390Y-78100475D02*
X134221009Y-78148094D01*
X134221009Y-78148094D02*
X134316247Y-78195713D01*
X133647142Y-76324819D02*
X133313809Y-75848628D01*
X133075714Y-76324819D02*
X133075714Y-75324819D01*
X133075714Y-75324819D02*
X133456666Y-75324819D01*
X133456666Y-75324819D02*
X133551904Y-75372438D01*
X133551904Y-75372438D02*
X133599523Y-75420057D01*
X133599523Y-75420057D02*
X133647142Y-75515295D01*
X133647142Y-75515295D02*
X133647142Y-75658152D01*
X133647142Y-75658152D02*
X133599523Y-75753390D01*
X133599523Y-75753390D02*
X133551904Y-75801009D01*
X133551904Y-75801009D02*
X133456666Y-75848628D01*
X133456666Y-75848628D02*
X133075714Y-75848628D01*
X134028095Y-75420057D02*
X134075714Y-75372438D01*
X134075714Y-75372438D02*
X134170952Y-75324819D01*
X134170952Y-75324819D02*
X134409047Y-75324819D01*
X134409047Y-75324819D02*
X134504285Y-75372438D01*
X134504285Y-75372438D02*
X134551904Y-75420057D01*
X134551904Y-75420057D02*
X134599523Y-75515295D01*
X134599523Y-75515295D02*
X134599523Y-75610533D01*
X134599523Y-75610533D02*
X134551904Y-75753390D01*
X134551904Y-75753390D02*
X133980476Y-76324819D01*
X133980476Y-76324819D02*
X134599523Y-76324819D01*
X135551904Y-76324819D02*
X134980476Y-76324819D01*
X135266190Y-76324819D02*
X135266190Y-75324819D01*
X135266190Y-75324819D02*
X135170952Y-75467676D01*
X135170952Y-75467676D02*
X135075714Y-75562914D01*
X135075714Y-75562914D02*
X134980476Y-75610533D01*
X108494819Y-96403333D02*
X109209104Y-96403333D01*
X109209104Y-96403333D02*
X109351961Y-96450952D01*
X109351961Y-96450952D02*
X109447200Y-96546190D01*
X109447200Y-96546190D02*
X109494819Y-96689047D01*
X109494819Y-96689047D02*
X109494819Y-96784285D01*
X109494819Y-95403333D02*
X109494819Y-95974761D01*
X109494819Y-95689047D02*
X108494819Y-95689047D01*
X108494819Y-95689047D02*
X108637676Y-95784285D01*
X108637676Y-95784285D02*
X108732914Y-95879523D01*
X108732914Y-95879523D02*
X108780533Y-95974761D01*
X143634819Y-52382857D02*
X143158628Y-52716190D01*
X143634819Y-52954285D02*
X142634819Y-52954285D01*
X142634819Y-52954285D02*
X142634819Y-52573333D01*
X142634819Y-52573333D02*
X142682438Y-52478095D01*
X142682438Y-52478095D02*
X142730057Y-52430476D01*
X142730057Y-52430476D02*
X142825295Y-52382857D01*
X142825295Y-52382857D02*
X142968152Y-52382857D01*
X142968152Y-52382857D02*
X143063390Y-52430476D01*
X143063390Y-52430476D02*
X143111009Y-52478095D01*
X143111009Y-52478095D02*
X143158628Y-52573333D01*
X143158628Y-52573333D02*
X143158628Y-52954285D01*
X142730057Y-52001904D02*
X142682438Y-51954285D01*
X142682438Y-51954285D02*
X142634819Y-51859047D01*
X142634819Y-51859047D02*
X142634819Y-51620952D01*
X142634819Y-51620952D02*
X142682438Y-51525714D01*
X142682438Y-51525714D02*
X142730057Y-51478095D01*
X142730057Y-51478095D02*
X142825295Y-51430476D01*
X142825295Y-51430476D02*
X142920533Y-51430476D01*
X142920533Y-51430476D02*
X143063390Y-51478095D01*
X143063390Y-51478095D02*
X143634819Y-52049523D01*
X143634819Y-52049523D02*
X143634819Y-51430476D01*
X142634819Y-51097142D02*
X142634819Y-50478095D01*
X142634819Y-50478095D02*
X143015771Y-50811428D01*
X143015771Y-50811428D02*
X143015771Y-50668571D01*
X143015771Y-50668571D02*
X143063390Y-50573333D01*
X143063390Y-50573333D02*
X143111009Y-50525714D01*
X143111009Y-50525714D02*
X143206247Y-50478095D01*
X143206247Y-50478095D02*
X143444342Y-50478095D01*
X143444342Y-50478095D02*
X143539580Y-50525714D01*
X143539580Y-50525714D02*
X143587200Y-50573333D01*
X143587200Y-50573333D02*
X143634819Y-50668571D01*
X143634819Y-50668571D02*
X143634819Y-50954285D01*
X143634819Y-50954285D02*
X143587200Y-51049523D01*
X143587200Y-51049523D02*
X143539580Y-51097142D01*
X112057142Y-75054819D02*
X111723809Y-74578628D01*
X111485714Y-75054819D02*
X111485714Y-74054819D01*
X111485714Y-74054819D02*
X111866666Y-74054819D01*
X111866666Y-74054819D02*
X111961904Y-74102438D01*
X111961904Y-74102438D02*
X112009523Y-74150057D01*
X112009523Y-74150057D02*
X112057142Y-74245295D01*
X112057142Y-74245295D02*
X112057142Y-74388152D01*
X112057142Y-74388152D02*
X112009523Y-74483390D01*
X112009523Y-74483390D02*
X111961904Y-74531009D01*
X111961904Y-74531009D02*
X111866666Y-74578628D01*
X111866666Y-74578628D02*
X111485714Y-74578628D01*
X113009523Y-75054819D02*
X112438095Y-75054819D01*
X112723809Y-75054819D02*
X112723809Y-74054819D01*
X112723809Y-74054819D02*
X112628571Y-74197676D01*
X112628571Y-74197676D02*
X112533333Y-74292914D01*
X112533333Y-74292914D02*
X112438095Y-74340533D01*
X113580952Y-74483390D02*
X113485714Y-74435771D01*
X113485714Y-74435771D02*
X113438095Y-74388152D01*
X113438095Y-74388152D02*
X113390476Y-74292914D01*
X113390476Y-74292914D02*
X113390476Y-74245295D01*
X113390476Y-74245295D02*
X113438095Y-74150057D01*
X113438095Y-74150057D02*
X113485714Y-74102438D01*
X113485714Y-74102438D02*
X113580952Y-74054819D01*
X113580952Y-74054819D02*
X113771428Y-74054819D01*
X113771428Y-74054819D02*
X113866666Y-74102438D01*
X113866666Y-74102438D02*
X113914285Y-74150057D01*
X113914285Y-74150057D02*
X113961904Y-74245295D01*
X113961904Y-74245295D02*
X113961904Y-74292914D01*
X113961904Y-74292914D02*
X113914285Y-74388152D01*
X113914285Y-74388152D02*
X113866666Y-74435771D01*
X113866666Y-74435771D02*
X113771428Y-74483390D01*
X113771428Y-74483390D02*
X113580952Y-74483390D01*
X113580952Y-74483390D02*
X113485714Y-74531009D01*
X113485714Y-74531009D02*
X113438095Y-74578628D01*
X113438095Y-74578628D02*
X113390476Y-74673866D01*
X113390476Y-74673866D02*
X113390476Y-74864342D01*
X113390476Y-74864342D02*
X113438095Y-74959580D01*
X113438095Y-74959580D02*
X113485714Y-75007200D01*
X113485714Y-75007200D02*
X113580952Y-75054819D01*
X113580952Y-75054819D02*
X113771428Y-75054819D01*
X113771428Y-75054819D02*
X113866666Y-75007200D01*
X113866666Y-75007200D02*
X113914285Y-74959580D01*
X113914285Y-74959580D02*
X113961904Y-74864342D01*
X113961904Y-74864342D02*
X113961904Y-74673866D01*
X113961904Y-74673866D02*
X113914285Y-74578628D01*
X113914285Y-74578628D02*
X113866666Y-74531009D01*
X113866666Y-74531009D02*
X113771428Y-74483390D01*
X137284819Y-78576666D02*
X136808628Y-78909999D01*
X137284819Y-79148094D02*
X136284819Y-79148094D01*
X136284819Y-79148094D02*
X136284819Y-78767142D01*
X136284819Y-78767142D02*
X136332438Y-78671904D01*
X136332438Y-78671904D02*
X136380057Y-78624285D01*
X136380057Y-78624285D02*
X136475295Y-78576666D01*
X136475295Y-78576666D02*
X136618152Y-78576666D01*
X136618152Y-78576666D02*
X136713390Y-78624285D01*
X136713390Y-78624285D02*
X136761009Y-78671904D01*
X136761009Y-78671904D02*
X136808628Y-78767142D01*
X136808628Y-78767142D02*
X136808628Y-79148094D01*
X136284819Y-78243332D02*
X136284819Y-77576666D01*
X136284819Y-77576666D02*
X137284819Y-78005237D01*
X142364819Y-78576666D02*
X141888628Y-78909999D01*
X142364819Y-79148094D02*
X141364819Y-79148094D01*
X141364819Y-79148094D02*
X141364819Y-78767142D01*
X141364819Y-78767142D02*
X141412438Y-78671904D01*
X141412438Y-78671904D02*
X141460057Y-78624285D01*
X141460057Y-78624285D02*
X141555295Y-78576666D01*
X141555295Y-78576666D02*
X141698152Y-78576666D01*
X141698152Y-78576666D02*
X141793390Y-78624285D01*
X141793390Y-78624285D02*
X141841009Y-78671904D01*
X141841009Y-78671904D02*
X141888628Y-78767142D01*
X141888628Y-78767142D02*
X141888628Y-79148094D01*
X141793390Y-78005237D02*
X141745771Y-78100475D01*
X141745771Y-78100475D02*
X141698152Y-78148094D01*
X141698152Y-78148094D02*
X141602914Y-78195713D01*
X141602914Y-78195713D02*
X141555295Y-78195713D01*
X141555295Y-78195713D02*
X141460057Y-78148094D01*
X141460057Y-78148094D02*
X141412438Y-78100475D01*
X141412438Y-78100475D02*
X141364819Y-78005237D01*
X141364819Y-78005237D02*
X141364819Y-77814761D01*
X141364819Y-77814761D02*
X141412438Y-77719523D01*
X141412438Y-77719523D02*
X141460057Y-77671904D01*
X141460057Y-77671904D02*
X141555295Y-77624285D01*
X141555295Y-77624285D02*
X141602914Y-77624285D01*
X141602914Y-77624285D02*
X141698152Y-77671904D01*
X141698152Y-77671904D02*
X141745771Y-77719523D01*
X141745771Y-77719523D02*
X141793390Y-77814761D01*
X141793390Y-77814761D02*
X141793390Y-78005237D01*
X141793390Y-78005237D02*
X141841009Y-78100475D01*
X141841009Y-78100475D02*
X141888628Y-78148094D01*
X141888628Y-78148094D02*
X141983866Y-78195713D01*
X141983866Y-78195713D02*
X142174342Y-78195713D01*
X142174342Y-78195713D02*
X142269580Y-78148094D01*
X142269580Y-78148094D02*
X142317200Y-78100475D01*
X142317200Y-78100475D02*
X142364819Y-78005237D01*
X142364819Y-78005237D02*
X142364819Y-77814761D01*
X142364819Y-77814761D02*
X142317200Y-77719523D01*
X142317200Y-77719523D02*
X142269580Y-77671904D01*
X142269580Y-77671904D02*
X142174342Y-77624285D01*
X142174342Y-77624285D02*
X141983866Y-77624285D01*
X141983866Y-77624285D02*
X141888628Y-77671904D01*
X141888628Y-77671904D02*
X141841009Y-77719523D01*
X141841009Y-77719523D02*
X141793390Y-77814761D01*
X129664819Y-78576666D02*
X129188628Y-78909999D01*
X129664819Y-79148094D02*
X128664819Y-79148094D01*
X128664819Y-79148094D02*
X128664819Y-78767142D01*
X128664819Y-78767142D02*
X128712438Y-78671904D01*
X128712438Y-78671904D02*
X128760057Y-78624285D01*
X128760057Y-78624285D02*
X128855295Y-78576666D01*
X128855295Y-78576666D02*
X128998152Y-78576666D01*
X128998152Y-78576666D02*
X129093390Y-78624285D01*
X129093390Y-78624285D02*
X129141009Y-78671904D01*
X129141009Y-78671904D02*
X129188628Y-78767142D01*
X129188628Y-78767142D02*
X129188628Y-79148094D01*
X128664819Y-77671904D02*
X128664819Y-78148094D01*
X128664819Y-78148094D02*
X129141009Y-78195713D01*
X129141009Y-78195713D02*
X129093390Y-78148094D01*
X129093390Y-78148094D02*
X129045771Y-78052856D01*
X129045771Y-78052856D02*
X129045771Y-77814761D01*
X129045771Y-77814761D02*
X129093390Y-77719523D01*
X129093390Y-77719523D02*
X129141009Y-77671904D01*
X129141009Y-77671904D02*
X129236247Y-77624285D01*
X129236247Y-77624285D02*
X129474342Y-77624285D01*
X129474342Y-77624285D02*
X129569580Y-77671904D01*
X129569580Y-77671904D02*
X129617200Y-77719523D01*
X129617200Y-77719523D02*
X129664819Y-77814761D01*
X129664819Y-77814761D02*
X129664819Y-78052856D01*
X129664819Y-78052856D02*
X129617200Y-78148094D01*
X129617200Y-78148094D02*
X129569580Y-78195713D01*
X109517142Y-53464819D02*
X109183809Y-52988628D01*
X108945714Y-53464819D02*
X108945714Y-52464819D01*
X108945714Y-52464819D02*
X109326666Y-52464819D01*
X109326666Y-52464819D02*
X109421904Y-52512438D01*
X109421904Y-52512438D02*
X109469523Y-52560057D01*
X109469523Y-52560057D02*
X109517142Y-52655295D01*
X109517142Y-52655295D02*
X109517142Y-52798152D01*
X109517142Y-52798152D02*
X109469523Y-52893390D01*
X109469523Y-52893390D02*
X109421904Y-52941009D01*
X109421904Y-52941009D02*
X109326666Y-52988628D01*
X109326666Y-52988628D02*
X108945714Y-52988628D01*
X109898095Y-52560057D02*
X109945714Y-52512438D01*
X109945714Y-52512438D02*
X110040952Y-52464819D01*
X110040952Y-52464819D02*
X110279047Y-52464819D01*
X110279047Y-52464819D02*
X110374285Y-52512438D01*
X110374285Y-52512438D02*
X110421904Y-52560057D01*
X110421904Y-52560057D02*
X110469523Y-52655295D01*
X110469523Y-52655295D02*
X110469523Y-52750533D01*
X110469523Y-52750533D02*
X110421904Y-52893390D01*
X110421904Y-52893390D02*
X109850476Y-53464819D01*
X109850476Y-53464819D02*
X110469523Y-53464819D01*
X111326666Y-52464819D02*
X111136190Y-52464819D01*
X111136190Y-52464819D02*
X111040952Y-52512438D01*
X111040952Y-52512438D02*
X110993333Y-52560057D01*
X110993333Y-52560057D02*
X110898095Y-52702914D01*
X110898095Y-52702914D02*
X110850476Y-52893390D01*
X110850476Y-52893390D02*
X110850476Y-53274342D01*
X110850476Y-53274342D02*
X110898095Y-53369580D01*
X110898095Y-53369580D02*
X110945714Y-53417200D01*
X110945714Y-53417200D02*
X111040952Y-53464819D01*
X111040952Y-53464819D02*
X111231428Y-53464819D01*
X111231428Y-53464819D02*
X111326666Y-53417200D01*
X111326666Y-53417200D02*
X111374285Y-53369580D01*
X111374285Y-53369580D02*
X111421904Y-53274342D01*
X111421904Y-53274342D02*
X111421904Y-53036247D01*
X111421904Y-53036247D02*
X111374285Y-52941009D01*
X111374285Y-52941009D02*
X111326666Y-52893390D01*
X111326666Y-52893390D02*
X111231428Y-52845771D01*
X111231428Y-52845771D02*
X111040952Y-52845771D01*
X111040952Y-52845771D02*
X110945714Y-52893390D01*
X110945714Y-52893390D02*
X110898095Y-52941009D01*
X110898095Y-52941009D02*
X110850476Y-53036247D01*
X137457142Y-64309819D02*
X137123809Y-63833628D01*
X136885714Y-64309819D02*
X136885714Y-63309819D01*
X136885714Y-63309819D02*
X137266666Y-63309819D01*
X137266666Y-63309819D02*
X137361904Y-63357438D01*
X137361904Y-63357438D02*
X137409523Y-63405057D01*
X137409523Y-63405057D02*
X137457142Y-63500295D01*
X137457142Y-63500295D02*
X137457142Y-63643152D01*
X137457142Y-63643152D02*
X137409523Y-63738390D01*
X137409523Y-63738390D02*
X137361904Y-63786009D01*
X137361904Y-63786009D02*
X137266666Y-63833628D01*
X137266666Y-63833628D02*
X136885714Y-63833628D01*
X138409523Y-64309819D02*
X137838095Y-64309819D01*
X138123809Y-64309819D02*
X138123809Y-63309819D01*
X138123809Y-63309819D02*
X138028571Y-63452676D01*
X138028571Y-63452676D02*
X137933333Y-63547914D01*
X137933333Y-63547914D02*
X137838095Y-63595533D01*
X139361904Y-64309819D02*
X138790476Y-64309819D01*
X139076190Y-64309819D02*
X139076190Y-63309819D01*
X139076190Y-63309819D02*
X138980952Y-63452676D01*
X138980952Y-63452676D02*
X138885714Y-63547914D01*
X138885714Y-63547914D02*
X138790476Y-63595533D01*
X124584819Y-78576666D02*
X124108628Y-78909999D01*
X124584819Y-79148094D02*
X123584819Y-79148094D01*
X123584819Y-79148094D02*
X123584819Y-78767142D01*
X123584819Y-78767142D02*
X123632438Y-78671904D01*
X123632438Y-78671904D02*
X123680057Y-78624285D01*
X123680057Y-78624285D02*
X123775295Y-78576666D01*
X123775295Y-78576666D02*
X123918152Y-78576666D01*
X123918152Y-78576666D02*
X124013390Y-78624285D01*
X124013390Y-78624285D02*
X124061009Y-78671904D01*
X124061009Y-78671904D02*
X124108628Y-78767142D01*
X124108628Y-78767142D02*
X124108628Y-79148094D01*
X123918152Y-77719523D02*
X124584819Y-77719523D01*
X123537200Y-77957618D02*
X124251485Y-78195713D01*
X124251485Y-78195713D02*
X124251485Y-77576666D01*
X116964819Y-78576666D02*
X116488628Y-78909999D01*
X116964819Y-79148094D02*
X115964819Y-79148094D01*
X115964819Y-79148094D02*
X115964819Y-78767142D01*
X115964819Y-78767142D02*
X116012438Y-78671904D01*
X116012438Y-78671904D02*
X116060057Y-78624285D01*
X116060057Y-78624285D02*
X116155295Y-78576666D01*
X116155295Y-78576666D02*
X116298152Y-78576666D01*
X116298152Y-78576666D02*
X116393390Y-78624285D01*
X116393390Y-78624285D02*
X116441009Y-78671904D01*
X116441009Y-78671904D02*
X116488628Y-78767142D01*
X116488628Y-78767142D02*
X116488628Y-79148094D01*
X116060057Y-78195713D02*
X116012438Y-78148094D01*
X116012438Y-78148094D02*
X115964819Y-78052856D01*
X115964819Y-78052856D02*
X115964819Y-77814761D01*
X115964819Y-77814761D02*
X116012438Y-77719523D01*
X116012438Y-77719523D02*
X116060057Y-77671904D01*
X116060057Y-77671904D02*
X116155295Y-77624285D01*
X116155295Y-77624285D02*
X116250533Y-77624285D01*
X116250533Y-77624285D02*
X116393390Y-77671904D01*
X116393390Y-77671904D02*
X116964819Y-78243332D01*
X116964819Y-78243332D02*
X116964819Y-77624285D01*
X111884819Y-78576666D02*
X111408628Y-78909999D01*
X111884819Y-79148094D02*
X110884819Y-79148094D01*
X110884819Y-79148094D02*
X110884819Y-78767142D01*
X110884819Y-78767142D02*
X110932438Y-78671904D01*
X110932438Y-78671904D02*
X110980057Y-78624285D01*
X110980057Y-78624285D02*
X111075295Y-78576666D01*
X111075295Y-78576666D02*
X111218152Y-78576666D01*
X111218152Y-78576666D02*
X111313390Y-78624285D01*
X111313390Y-78624285D02*
X111361009Y-78671904D01*
X111361009Y-78671904D02*
X111408628Y-78767142D01*
X111408628Y-78767142D02*
X111408628Y-79148094D01*
X111884819Y-77624285D02*
X111884819Y-78195713D01*
X111884819Y-77909999D02*
X110884819Y-77909999D01*
X110884819Y-77909999D02*
X111027676Y-78005237D01*
X111027676Y-78005237D02*
X111122914Y-78100475D01*
X111122914Y-78100475D02*
X111170533Y-78195713D01*
X126274819Y-96403333D02*
X126989104Y-96403333D01*
X126989104Y-96403333D02*
X127131961Y-96450952D01*
X127131961Y-96450952D02*
X127227200Y-96546190D01*
X127227200Y-96546190D02*
X127274819Y-96689047D01*
X127274819Y-96689047D02*
X127274819Y-96784285D01*
X126370057Y-95974761D02*
X126322438Y-95927142D01*
X126322438Y-95927142D02*
X126274819Y-95831904D01*
X126274819Y-95831904D02*
X126274819Y-95593809D01*
X126274819Y-95593809D02*
X126322438Y-95498571D01*
X126322438Y-95498571D02*
X126370057Y-95450952D01*
X126370057Y-95450952D02*
X126465295Y-95403333D01*
X126465295Y-95403333D02*
X126560533Y-95403333D01*
X126560533Y-95403333D02*
X126703390Y-95450952D01*
X126703390Y-95450952D02*
X127274819Y-96022380D01*
X127274819Y-96022380D02*
X127274819Y-95403333D01*
X166554819Y-64773333D02*
X167269104Y-64773333D01*
X167269104Y-64773333D02*
X167411961Y-64820952D01*
X167411961Y-64820952D02*
X167507200Y-64916190D01*
X167507200Y-64916190D02*
X167554819Y-65059047D01*
X167554819Y-65059047D02*
X167554819Y-65154285D01*
X166554819Y-63820952D02*
X166554819Y-64297142D01*
X166554819Y-64297142D02*
X167031009Y-64344761D01*
X167031009Y-64344761D02*
X166983390Y-64297142D01*
X166983390Y-64297142D02*
X166935771Y-64201904D01*
X166935771Y-64201904D02*
X166935771Y-63963809D01*
X166935771Y-63963809D02*
X166983390Y-63868571D01*
X166983390Y-63868571D02*
X167031009Y-63820952D01*
X167031009Y-63820952D02*
X167126247Y-63773333D01*
X167126247Y-63773333D02*
X167364342Y-63773333D01*
X167364342Y-63773333D02*
X167459580Y-63820952D01*
X167459580Y-63820952D02*
X167507200Y-63868571D01*
X167507200Y-63868571D02*
X167554819Y-63963809D01*
X167554819Y-63963809D02*
X167554819Y-64201904D01*
X167554819Y-64201904D02*
X167507200Y-64297142D01*
X167507200Y-64297142D02*
X167459580Y-64344761D01*
X160317142Y-57274819D02*
X159983809Y-56798628D01*
X159745714Y-57274819D02*
X159745714Y-56274819D01*
X159745714Y-56274819D02*
X160126666Y-56274819D01*
X160126666Y-56274819D02*
X160221904Y-56322438D01*
X160221904Y-56322438D02*
X160269523Y-56370057D01*
X160269523Y-56370057D02*
X160317142Y-56465295D01*
X160317142Y-56465295D02*
X160317142Y-56608152D01*
X160317142Y-56608152D02*
X160269523Y-56703390D01*
X160269523Y-56703390D02*
X160221904Y-56751009D01*
X160221904Y-56751009D02*
X160126666Y-56798628D01*
X160126666Y-56798628D02*
X159745714Y-56798628D01*
X161269523Y-57274819D02*
X160698095Y-57274819D01*
X160983809Y-57274819D02*
X160983809Y-56274819D01*
X160983809Y-56274819D02*
X160888571Y-56417676D01*
X160888571Y-56417676D02*
X160793333Y-56512914D01*
X160793333Y-56512914D02*
X160698095Y-56560533D01*
X161745714Y-57274819D02*
X161936190Y-57274819D01*
X161936190Y-57274819D02*
X162031428Y-57227200D01*
X162031428Y-57227200D02*
X162079047Y-57179580D01*
X162079047Y-57179580D02*
X162174285Y-57036723D01*
X162174285Y-57036723D02*
X162221904Y-56846247D01*
X162221904Y-56846247D02*
X162221904Y-56465295D01*
X162221904Y-56465295D02*
X162174285Y-56370057D01*
X162174285Y-56370057D02*
X162126666Y-56322438D01*
X162126666Y-56322438D02*
X162031428Y-56274819D01*
X162031428Y-56274819D02*
X161840952Y-56274819D01*
X161840952Y-56274819D02*
X161745714Y-56322438D01*
X161745714Y-56322438D02*
X161698095Y-56370057D01*
X161698095Y-56370057D02*
X161650476Y-56465295D01*
X161650476Y-56465295D02*
X161650476Y-56703390D01*
X161650476Y-56703390D02*
X161698095Y-56798628D01*
X161698095Y-56798628D02*
X161745714Y-56846247D01*
X161745714Y-56846247D02*
X161840952Y-56893866D01*
X161840952Y-56893866D02*
X162031428Y-56893866D01*
X162031428Y-56893866D02*
X162126666Y-56846247D01*
X162126666Y-56846247D02*
X162174285Y-56798628D01*
X162174285Y-56798628D02*
X162221904Y-56703390D01*
X159047142Y-61084819D02*
X158713809Y-60608628D01*
X158475714Y-61084819D02*
X158475714Y-60084819D01*
X158475714Y-60084819D02*
X158856666Y-60084819D01*
X158856666Y-60084819D02*
X158951904Y-60132438D01*
X158951904Y-60132438D02*
X158999523Y-60180057D01*
X158999523Y-60180057D02*
X159047142Y-60275295D01*
X159047142Y-60275295D02*
X159047142Y-60418152D01*
X159047142Y-60418152D02*
X158999523Y-60513390D01*
X158999523Y-60513390D02*
X158951904Y-60561009D01*
X158951904Y-60561009D02*
X158856666Y-60608628D01*
X158856666Y-60608628D02*
X158475714Y-60608628D01*
X159428095Y-60180057D02*
X159475714Y-60132438D01*
X159475714Y-60132438D02*
X159570952Y-60084819D01*
X159570952Y-60084819D02*
X159809047Y-60084819D01*
X159809047Y-60084819D02*
X159904285Y-60132438D01*
X159904285Y-60132438D02*
X159951904Y-60180057D01*
X159951904Y-60180057D02*
X159999523Y-60275295D01*
X159999523Y-60275295D02*
X159999523Y-60370533D01*
X159999523Y-60370533D02*
X159951904Y-60513390D01*
X159951904Y-60513390D02*
X159380476Y-61084819D01*
X159380476Y-61084819D02*
X159999523Y-61084819D01*
X160618571Y-60084819D02*
X160713809Y-60084819D01*
X160713809Y-60084819D02*
X160809047Y-60132438D01*
X160809047Y-60132438D02*
X160856666Y-60180057D01*
X160856666Y-60180057D02*
X160904285Y-60275295D01*
X160904285Y-60275295D02*
X160951904Y-60465771D01*
X160951904Y-60465771D02*
X160951904Y-60703866D01*
X160951904Y-60703866D02*
X160904285Y-60894342D01*
X160904285Y-60894342D02*
X160856666Y-60989580D01*
X160856666Y-60989580D02*
X160809047Y-61037200D01*
X160809047Y-61037200D02*
X160713809Y-61084819D01*
X160713809Y-61084819D02*
X160618571Y-61084819D01*
X160618571Y-61084819D02*
X160523333Y-61037200D01*
X160523333Y-61037200D02*
X160475714Y-60989580D01*
X160475714Y-60989580D02*
X160428095Y-60894342D01*
X160428095Y-60894342D02*
X160380476Y-60703866D01*
X160380476Y-60703866D02*
X160380476Y-60465771D01*
X160380476Y-60465771D02*
X160428095Y-60275295D01*
X160428095Y-60275295D02*
X160475714Y-60180057D01*
X160475714Y-60180057D02*
X160523333Y-60132438D01*
X160523333Y-60132438D02*
X160618571Y-60084819D01*
X139824819Y-52382857D02*
X139348628Y-52716190D01*
X139824819Y-52954285D02*
X138824819Y-52954285D01*
X138824819Y-52954285D02*
X138824819Y-52573333D01*
X138824819Y-52573333D02*
X138872438Y-52478095D01*
X138872438Y-52478095D02*
X138920057Y-52430476D01*
X138920057Y-52430476D02*
X139015295Y-52382857D01*
X139015295Y-52382857D02*
X139158152Y-52382857D01*
X139158152Y-52382857D02*
X139253390Y-52430476D01*
X139253390Y-52430476D02*
X139301009Y-52478095D01*
X139301009Y-52478095D02*
X139348628Y-52573333D01*
X139348628Y-52573333D02*
X139348628Y-52954285D01*
X139824819Y-51430476D02*
X139824819Y-52001904D01*
X139824819Y-51716190D02*
X138824819Y-51716190D01*
X138824819Y-51716190D02*
X138967676Y-51811428D01*
X138967676Y-51811428D02*
X139062914Y-51906666D01*
X139062914Y-51906666D02*
X139110533Y-52001904D01*
X138920057Y-51049523D02*
X138872438Y-51001904D01*
X138872438Y-51001904D02*
X138824819Y-50906666D01*
X138824819Y-50906666D02*
X138824819Y-50668571D01*
X138824819Y-50668571D02*
X138872438Y-50573333D01*
X138872438Y-50573333D02*
X138920057Y-50525714D01*
X138920057Y-50525714D02*
X139015295Y-50478095D01*
X139015295Y-50478095D02*
X139110533Y-50478095D01*
X139110533Y-50478095D02*
X139253390Y-50525714D01*
X139253390Y-50525714D02*
X139824819Y-51097142D01*
X139824819Y-51097142D02*
X139824819Y-50478095D01*
X132204819Y-79172857D02*
X131728628Y-79506190D01*
X132204819Y-79744285D02*
X131204819Y-79744285D01*
X131204819Y-79744285D02*
X131204819Y-79363333D01*
X131204819Y-79363333D02*
X131252438Y-79268095D01*
X131252438Y-79268095D02*
X131300057Y-79220476D01*
X131300057Y-79220476D02*
X131395295Y-79172857D01*
X131395295Y-79172857D02*
X131538152Y-79172857D01*
X131538152Y-79172857D02*
X131633390Y-79220476D01*
X131633390Y-79220476D02*
X131681009Y-79268095D01*
X131681009Y-79268095D02*
X131728628Y-79363333D01*
X131728628Y-79363333D02*
X131728628Y-79744285D01*
X132204819Y-78220476D02*
X132204819Y-78791904D01*
X132204819Y-78506190D02*
X131204819Y-78506190D01*
X131204819Y-78506190D02*
X131347676Y-78601428D01*
X131347676Y-78601428D02*
X131442914Y-78696666D01*
X131442914Y-78696666D02*
X131490533Y-78791904D01*
X131204819Y-77315714D02*
X131204819Y-77791904D01*
X131204819Y-77791904D02*
X131681009Y-77839523D01*
X131681009Y-77839523D02*
X131633390Y-77791904D01*
X131633390Y-77791904D02*
X131585771Y-77696666D01*
X131585771Y-77696666D02*
X131585771Y-77458571D01*
X131585771Y-77458571D02*
X131633390Y-77363333D01*
X131633390Y-77363333D02*
X131681009Y-77315714D01*
X131681009Y-77315714D02*
X131776247Y-77268095D01*
X131776247Y-77268095D02*
X132014342Y-77268095D01*
X132014342Y-77268095D02*
X132109580Y-77315714D01*
X132109580Y-77315714D02*
X132157200Y-77363333D01*
X132157200Y-77363333D02*
X132204819Y-77458571D01*
X132204819Y-77458571D02*
X132204819Y-77696666D01*
X132204819Y-77696666D02*
X132157200Y-77791904D01*
X132157200Y-77791904D02*
X132109580Y-77839523D01*
X112057142Y-62354819D02*
X111723809Y-61878628D01*
X111485714Y-62354819D02*
X111485714Y-61354819D01*
X111485714Y-61354819D02*
X111866666Y-61354819D01*
X111866666Y-61354819D02*
X111961904Y-61402438D01*
X111961904Y-61402438D02*
X112009523Y-61450057D01*
X112009523Y-61450057D02*
X112057142Y-61545295D01*
X112057142Y-61545295D02*
X112057142Y-61688152D01*
X112057142Y-61688152D02*
X112009523Y-61783390D01*
X112009523Y-61783390D02*
X111961904Y-61831009D01*
X111961904Y-61831009D02*
X111866666Y-61878628D01*
X111866666Y-61878628D02*
X111485714Y-61878628D01*
X113009523Y-62354819D02*
X112438095Y-62354819D01*
X112723809Y-62354819D02*
X112723809Y-61354819D01*
X112723809Y-61354819D02*
X112628571Y-61497676D01*
X112628571Y-61497676D02*
X112533333Y-61592914D01*
X112533333Y-61592914D02*
X112438095Y-61640533D01*
X113342857Y-61354819D02*
X114009523Y-61354819D01*
X114009523Y-61354819D02*
X113580952Y-62354819D01*
X119504819Y-78576666D02*
X119028628Y-78909999D01*
X119504819Y-79148094D02*
X118504819Y-79148094D01*
X118504819Y-79148094D02*
X118504819Y-78767142D01*
X118504819Y-78767142D02*
X118552438Y-78671904D01*
X118552438Y-78671904D02*
X118600057Y-78624285D01*
X118600057Y-78624285D02*
X118695295Y-78576666D01*
X118695295Y-78576666D02*
X118838152Y-78576666D01*
X118838152Y-78576666D02*
X118933390Y-78624285D01*
X118933390Y-78624285D02*
X118981009Y-78671904D01*
X118981009Y-78671904D02*
X119028628Y-78767142D01*
X119028628Y-78767142D02*
X119028628Y-79148094D01*
X118504819Y-78243332D02*
X118504819Y-77624285D01*
X118504819Y-77624285D02*
X118885771Y-77957618D01*
X118885771Y-77957618D02*
X118885771Y-77814761D01*
X118885771Y-77814761D02*
X118933390Y-77719523D01*
X118933390Y-77719523D02*
X118981009Y-77671904D01*
X118981009Y-77671904D02*
X119076247Y-77624285D01*
X119076247Y-77624285D02*
X119314342Y-77624285D01*
X119314342Y-77624285D02*
X119409580Y-77671904D01*
X119409580Y-77671904D02*
X119457200Y-77719523D01*
X119457200Y-77719523D02*
X119504819Y-77814761D01*
X119504819Y-77814761D02*
X119504819Y-78100475D01*
X119504819Y-78100475D02*
X119457200Y-78195713D01*
X119457200Y-78195713D02*
X119409580Y-78243332D01*
X120947142Y-64309819D02*
X120613809Y-63833628D01*
X120375714Y-64309819D02*
X120375714Y-63309819D01*
X120375714Y-63309819D02*
X120756666Y-63309819D01*
X120756666Y-63309819D02*
X120851904Y-63357438D01*
X120851904Y-63357438D02*
X120899523Y-63405057D01*
X120899523Y-63405057D02*
X120947142Y-63500295D01*
X120947142Y-63500295D02*
X120947142Y-63643152D01*
X120947142Y-63643152D02*
X120899523Y-63738390D01*
X120899523Y-63738390D02*
X120851904Y-63786009D01*
X120851904Y-63786009D02*
X120756666Y-63833628D01*
X120756666Y-63833628D02*
X120375714Y-63833628D01*
X121899523Y-64309819D02*
X121328095Y-64309819D01*
X121613809Y-64309819D02*
X121613809Y-63309819D01*
X121613809Y-63309819D02*
X121518571Y-63452676D01*
X121518571Y-63452676D02*
X121423333Y-63547914D01*
X121423333Y-63547914D02*
X121328095Y-63595533D01*
X122518571Y-63309819D02*
X122613809Y-63309819D01*
X122613809Y-63309819D02*
X122709047Y-63357438D01*
X122709047Y-63357438D02*
X122756666Y-63405057D01*
X122756666Y-63405057D02*
X122804285Y-63500295D01*
X122804285Y-63500295D02*
X122851904Y-63690771D01*
X122851904Y-63690771D02*
X122851904Y-63928866D01*
X122851904Y-63928866D02*
X122804285Y-64119342D01*
X122804285Y-64119342D02*
X122756666Y-64214580D01*
X122756666Y-64214580D02*
X122709047Y-64262200D01*
X122709047Y-64262200D02*
X122613809Y-64309819D01*
X122613809Y-64309819D02*
X122518571Y-64309819D01*
X122518571Y-64309819D02*
X122423333Y-64262200D01*
X122423333Y-64262200D02*
X122375714Y-64214580D01*
X122375714Y-64214580D02*
X122328095Y-64119342D01*
X122328095Y-64119342D02*
X122280476Y-63928866D01*
X122280476Y-63928866D02*
X122280476Y-63690771D01*
X122280476Y-63690771D02*
X122328095Y-63500295D01*
X122328095Y-63500295D02*
X122375714Y-63405057D01*
X122375714Y-63405057D02*
X122423333Y-63357438D01*
X122423333Y-63357438D02*
X122518571Y-63309819D01*
X125233333Y-53464819D02*
X124900000Y-52988628D01*
X124661905Y-53464819D02*
X124661905Y-52464819D01*
X124661905Y-52464819D02*
X125042857Y-52464819D01*
X125042857Y-52464819D02*
X125138095Y-52512438D01*
X125138095Y-52512438D02*
X125185714Y-52560057D01*
X125185714Y-52560057D02*
X125233333Y-52655295D01*
X125233333Y-52655295D02*
X125233333Y-52798152D01*
X125233333Y-52798152D02*
X125185714Y-52893390D01*
X125185714Y-52893390D02*
X125138095Y-52941009D01*
X125138095Y-52941009D02*
X125042857Y-52988628D01*
X125042857Y-52988628D02*
X124661905Y-52988628D01*
X125709524Y-53464819D02*
X125900000Y-53464819D01*
X125900000Y-53464819D02*
X125995238Y-53417200D01*
X125995238Y-53417200D02*
X126042857Y-53369580D01*
X126042857Y-53369580D02*
X126138095Y-53226723D01*
X126138095Y-53226723D02*
X126185714Y-53036247D01*
X126185714Y-53036247D02*
X126185714Y-52655295D01*
X126185714Y-52655295D02*
X126138095Y-52560057D01*
X126138095Y-52560057D02*
X126090476Y-52512438D01*
X126090476Y-52512438D02*
X125995238Y-52464819D01*
X125995238Y-52464819D02*
X125804762Y-52464819D01*
X125804762Y-52464819D02*
X125709524Y-52512438D01*
X125709524Y-52512438D02*
X125661905Y-52560057D01*
X125661905Y-52560057D02*
X125614286Y-52655295D01*
X125614286Y-52655295D02*
X125614286Y-52893390D01*
X125614286Y-52893390D02*
X125661905Y-52988628D01*
X125661905Y-52988628D02*
X125709524Y-53036247D01*
X125709524Y-53036247D02*
X125804762Y-53083866D01*
X125804762Y-53083866D02*
X125995238Y-53083866D01*
X125995238Y-53083866D02*
X126090476Y-53036247D01*
X126090476Y-53036247D02*
X126138095Y-52988628D01*
X126138095Y-52988628D02*
X126185714Y-52893390D01*
X128448095Y-53734819D02*
X128448095Y-54544342D01*
X128448095Y-54544342D02*
X128495714Y-54639580D01*
X128495714Y-54639580D02*
X128543333Y-54687200D01*
X128543333Y-54687200D02*
X128638571Y-54734819D01*
X128638571Y-54734819D02*
X128829047Y-54734819D01*
X128829047Y-54734819D02*
X128924285Y-54687200D01*
X128924285Y-54687200D02*
X128971904Y-54639580D01*
X128971904Y-54639580D02*
X129019523Y-54544342D01*
X129019523Y-54544342D02*
X129019523Y-53734819D01*
X130019523Y-54734819D02*
X129448095Y-54734819D01*
X129733809Y-54734819D02*
X129733809Y-53734819D01*
X129733809Y-53734819D02*
X129638571Y-53877676D01*
X129638571Y-53877676D02*
X129543333Y-53972914D01*
X129543333Y-53972914D02*
X129448095Y-54020533D01*
X132599523Y-54734819D02*
X132123333Y-54734819D01*
X132123333Y-54734819D02*
X132123333Y-53734819D01*
X132932857Y-54734819D02*
X132932857Y-53734819D01*
X132932857Y-53734819D02*
X133266190Y-54449104D01*
X133266190Y-54449104D02*
X133599523Y-53734819D01*
X133599523Y-53734819D02*
X133599523Y-54734819D01*
X133980476Y-53734819D02*
X134599523Y-53734819D01*
X134599523Y-53734819D02*
X134266190Y-54115771D01*
X134266190Y-54115771D02*
X134409047Y-54115771D01*
X134409047Y-54115771D02*
X134504285Y-54163390D01*
X134504285Y-54163390D02*
X134551904Y-54211009D01*
X134551904Y-54211009D02*
X134599523Y-54306247D01*
X134599523Y-54306247D02*
X134599523Y-54544342D01*
X134599523Y-54544342D02*
X134551904Y-54639580D01*
X134551904Y-54639580D02*
X134504285Y-54687200D01*
X134504285Y-54687200D02*
X134409047Y-54734819D01*
X134409047Y-54734819D02*
X134123333Y-54734819D01*
X134123333Y-54734819D02*
X134028095Y-54687200D01*
X134028095Y-54687200D02*
X133980476Y-54639580D01*
X134980476Y-53830057D02*
X135028095Y-53782438D01*
X135028095Y-53782438D02*
X135123333Y-53734819D01*
X135123333Y-53734819D02*
X135361428Y-53734819D01*
X135361428Y-53734819D02*
X135456666Y-53782438D01*
X135456666Y-53782438D02*
X135504285Y-53830057D01*
X135504285Y-53830057D02*
X135551904Y-53925295D01*
X135551904Y-53925295D02*
X135551904Y-54020533D01*
X135551904Y-54020533D02*
X135504285Y-54163390D01*
X135504285Y-54163390D02*
X134932857Y-54734819D01*
X134932857Y-54734819D02*
X135551904Y-54734819D01*
X136409047Y-54068152D02*
X136409047Y-54734819D01*
X136170952Y-53687200D02*
X135932857Y-54401485D01*
X135932857Y-54401485D02*
X136551904Y-54401485D01*
X141267142Y-64309819D02*
X140933809Y-63833628D01*
X140695714Y-64309819D02*
X140695714Y-63309819D01*
X140695714Y-63309819D02*
X141076666Y-63309819D01*
X141076666Y-63309819D02*
X141171904Y-63357438D01*
X141171904Y-63357438D02*
X141219523Y-63405057D01*
X141219523Y-63405057D02*
X141267142Y-63500295D01*
X141267142Y-63500295D02*
X141267142Y-63643152D01*
X141267142Y-63643152D02*
X141219523Y-63738390D01*
X141219523Y-63738390D02*
X141171904Y-63786009D01*
X141171904Y-63786009D02*
X141076666Y-63833628D01*
X141076666Y-63833628D02*
X140695714Y-63833628D01*
X141648095Y-63405057D02*
X141695714Y-63357438D01*
X141695714Y-63357438D02*
X141790952Y-63309819D01*
X141790952Y-63309819D02*
X142029047Y-63309819D01*
X142029047Y-63309819D02*
X142124285Y-63357438D01*
X142124285Y-63357438D02*
X142171904Y-63405057D01*
X142171904Y-63405057D02*
X142219523Y-63500295D01*
X142219523Y-63500295D02*
X142219523Y-63595533D01*
X142219523Y-63595533D02*
X142171904Y-63738390D01*
X142171904Y-63738390D02*
X141600476Y-64309819D01*
X141600476Y-64309819D02*
X142219523Y-64309819D01*
X143076666Y-63643152D02*
X143076666Y-64309819D01*
X142838571Y-63262200D02*
X142600476Y-63976485D01*
X142600476Y-63976485D02*
X143219523Y-63976485D01*
X145077142Y-64309819D02*
X144743809Y-63833628D01*
X144505714Y-64309819D02*
X144505714Y-63309819D01*
X144505714Y-63309819D02*
X144886666Y-63309819D01*
X144886666Y-63309819D02*
X144981904Y-63357438D01*
X144981904Y-63357438D02*
X145029523Y-63405057D01*
X145029523Y-63405057D02*
X145077142Y-63500295D01*
X145077142Y-63500295D02*
X145077142Y-63643152D01*
X145077142Y-63643152D02*
X145029523Y-63738390D01*
X145029523Y-63738390D02*
X144981904Y-63786009D01*
X144981904Y-63786009D02*
X144886666Y-63833628D01*
X144886666Y-63833628D02*
X144505714Y-63833628D01*
X145458095Y-63405057D02*
X145505714Y-63357438D01*
X145505714Y-63357438D02*
X145600952Y-63309819D01*
X145600952Y-63309819D02*
X145839047Y-63309819D01*
X145839047Y-63309819D02*
X145934285Y-63357438D01*
X145934285Y-63357438D02*
X145981904Y-63405057D01*
X145981904Y-63405057D02*
X146029523Y-63500295D01*
X146029523Y-63500295D02*
X146029523Y-63595533D01*
X146029523Y-63595533D02*
X145981904Y-63738390D01*
X145981904Y-63738390D02*
X145410476Y-64309819D01*
X145410476Y-64309819D02*
X146029523Y-64309819D01*
X146410476Y-63405057D02*
X146458095Y-63357438D01*
X146458095Y-63357438D02*
X146553333Y-63309819D01*
X146553333Y-63309819D02*
X146791428Y-63309819D01*
X146791428Y-63309819D02*
X146886666Y-63357438D01*
X146886666Y-63357438D02*
X146934285Y-63405057D01*
X146934285Y-63405057D02*
X146981904Y-63500295D01*
X146981904Y-63500295D02*
X146981904Y-63595533D01*
X146981904Y-63595533D02*
X146934285Y-63738390D01*
X146934285Y-63738390D02*
X146362857Y-64309819D01*
X146362857Y-64309819D02*
X146981904Y-64309819D01*
X114424819Y-79172857D02*
X113948628Y-79506190D01*
X114424819Y-79744285D02*
X113424819Y-79744285D01*
X113424819Y-79744285D02*
X113424819Y-79363333D01*
X113424819Y-79363333D02*
X113472438Y-79268095D01*
X113472438Y-79268095D02*
X113520057Y-79220476D01*
X113520057Y-79220476D02*
X113615295Y-79172857D01*
X113615295Y-79172857D02*
X113758152Y-79172857D01*
X113758152Y-79172857D02*
X113853390Y-79220476D01*
X113853390Y-79220476D02*
X113901009Y-79268095D01*
X113901009Y-79268095D02*
X113948628Y-79363333D01*
X113948628Y-79363333D02*
X113948628Y-79744285D01*
X114424819Y-78220476D02*
X114424819Y-78791904D01*
X114424819Y-78506190D02*
X113424819Y-78506190D01*
X113424819Y-78506190D02*
X113567676Y-78601428D01*
X113567676Y-78601428D02*
X113662914Y-78696666D01*
X113662914Y-78696666D02*
X113710533Y-78791904D01*
X113424819Y-77887142D02*
X113424819Y-77268095D01*
X113424819Y-77268095D02*
X113805771Y-77601428D01*
X113805771Y-77601428D02*
X113805771Y-77458571D01*
X113805771Y-77458571D02*
X113853390Y-77363333D01*
X113853390Y-77363333D02*
X113901009Y-77315714D01*
X113901009Y-77315714D02*
X113996247Y-77268095D01*
X113996247Y-77268095D02*
X114234342Y-77268095D01*
X114234342Y-77268095D02*
X114329580Y-77315714D01*
X114329580Y-77315714D02*
X114377200Y-77363333D01*
X114377200Y-77363333D02*
X114424819Y-77458571D01*
X114424819Y-77458571D02*
X114424819Y-77744285D01*
X114424819Y-77744285D02*
X114377200Y-77839523D01*
X114377200Y-77839523D02*
X114329580Y-77887142D01*
X166764819Y-90173333D02*
X167479104Y-90173333D01*
X167479104Y-90173333D02*
X167621961Y-90220952D01*
X167621961Y-90220952D02*
X167717200Y-90316190D01*
X167717200Y-90316190D02*
X167764819Y-90459047D01*
X167764819Y-90459047D02*
X167764819Y-90554285D01*
X166764819Y-89268571D02*
X166764819Y-89459047D01*
X166764819Y-89459047D02*
X166812438Y-89554285D01*
X166812438Y-89554285D02*
X166860057Y-89601904D01*
X166860057Y-89601904D02*
X167002914Y-89697142D01*
X167002914Y-89697142D02*
X167193390Y-89744761D01*
X167193390Y-89744761D02*
X167574342Y-89744761D01*
X167574342Y-89744761D02*
X167669580Y-89697142D01*
X167669580Y-89697142D02*
X167717200Y-89649523D01*
X167717200Y-89649523D02*
X167764819Y-89554285D01*
X167764819Y-89554285D02*
X167764819Y-89363809D01*
X167764819Y-89363809D02*
X167717200Y-89268571D01*
X167717200Y-89268571D02*
X167669580Y-89220952D01*
X167669580Y-89220952D02*
X167574342Y-89173333D01*
X167574342Y-89173333D02*
X167336247Y-89173333D01*
X167336247Y-89173333D02*
X167241009Y-89220952D01*
X167241009Y-89220952D02*
X167193390Y-89268571D01*
X167193390Y-89268571D02*
X167145771Y-89363809D01*
X167145771Y-89363809D02*
X167145771Y-89554285D01*
X167145771Y-89554285D02*
X167193390Y-89649523D01*
X167193390Y-89649523D02*
X167241009Y-89697142D01*
X167241009Y-89697142D02*
X167336247Y-89744761D01*
X112104761Y-66164819D02*
X111771428Y-65688628D01*
X111533333Y-66164819D02*
X111533333Y-65164819D01*
X111533333Y-65164819D02*
X111914285Y-65164819D01*
X111914285Y-65164819D02*
X112009523Y-65212438D01*
X112009523Y-65212438D02*
X112057142Y-65260057D01*
X112057142Y-65260057D02*
X112104761Y-65355295D01*
X112104761Y-65355295D02*
X112104761Y-65498152D01*
X112104761Y-65498152D02*
X112057142Y-65593390D01*
X112057142Y-65593390D02*
X112009523Y-65641009D01*
X112009523Y-65641009D02*
X111914285Y-65688628D01*
X111914285Y-65688628D02*
X111533333Y-65688628D01*
X112390476Y-65164819D02*
X112723809Y-66164819D01*
X112723809Y-66164819D02*
X113057142Y-65164819D01*
X113914285Y-66164819D02*
X113342857Y-66164819D01*
X113628571Y-66164819D02*
X113628571Y-65164819D01*
X113628571Y-65164819D02*
X113533333Y-65307676D01*
X113533333Y-65307676D02*
X113438095Y-65402914D01*
X113438095Y-65402914D02*
X113342857Y-65450533D01*
D12*
X158862817Y-78270214D02*
X159591388Y-78270214D01*
X159591388Y-78270214D02*
X159677102Y-78227357D01*
X159677102Y-78227357D02*
X159719960Y-78184500D01*
X159719960Y-78184500D02*
X159762817Y-78098785D01*
X159762817Y-78098785D02*
X159762817Y-77927357D01*
X159762817Y-77927357D02*
X159719960Y-77841642D01*
X159719960Y-77841642D02*
X159677102Y-77798785D01*
X159677102Y-77798785D02*
X159591388Y-77755928D01*
X159591388Y-77755928D02*
X158862817Y-77755928D01*
X158948531Y-77370214D02*
X158905674Y-77327357D01*
X158905674Y-77327357D02*
X158862817Y-77241643D01*
X158862817Y-77241643D02*
X158862817Y-77027357D01*
X158862817Y-77027357D02*
X158905674Y-76941643D01*
X158905674Y-76941643D02*
X158948531Y-76898785D01*
X158948531Y-76898785D02*
X159034245Y-76855928D01*
X159034245Y-76855928D02*
X159119960Y-76855928D01*
X159119960Y-76855928D02*
X159248531Y-76898785D01*
X159248531Y-76898785D02*
X159762817Y-77413071D01*
X159762817Y-77413071D02*
X159762817Y-76855928D01*
X156957817Y-81489999D02*
X157857817Y-80889999D01*
X156957817Y-80889999D02*
X157857817Y-81489999D01*
X157857817Y-80547142D02*
X156957817Y-80547142D01*
X157600674Y-80161428D02*
X157600674Y-79732857D01*
X157857817Y-80247142D02*
X156957817Y-79947142D01*
X156957817Y-79947142D02*
X157857817Y-79647142D01*
X156957817Y-79175713D02*
X156957817Y-79004285D01*
X156957817Y-79004285D02*
X157000674Y-78918570D01*
X157000674Y-78918570D02*
X157086388Y-78832856D01*
X157086388Y-78832856D02*
X157257817Y-78789999D01*
X157257817Y-78789999D02*
X157557817Y-78789999D01*
X157557817Y-78789999D02*
X157729245Y-78832856D01*
X157729245Y-78832856D02*
X157814960Y-78918570D01*
X157814960Y-78918570D02*
X157857817Y-79004285D01*
X157857817Y-79004285D02*
X157857817Y-79175713D01*
X157857817Y-79175713D02*
X157814960Y-79261428D01*
X157814960Y-79261428D02*
X157729245Y-79347142D01*
X157729245Y-79347142D02*
X157557817Y-79389999D01*
X157557817Y-79389999D02*
X157257817Y-79389999D01*
X157257817Y-79389999D02*
X157086388Y-79347142D01*
X157086388Y-79347142D02*
X157000674Y-79261428D01*
X157000674Y-79261428D02*
X156957817Y-79175713D01*
X157814960Y-77761428D02*
X157857817Y-77632857D01*
X157857817Y-77632857D02*
X157857817Y-77418571D01*
X157857817Y-77418571D02*
X157814960Y-77332857D01*
X157814960Y-77332857D02*
X157772102Y-77289999D01*
X157772102Y-77289999D02*
X157686388Y-77247142D01*
X157686388Y-77247142D02*
X157600674Y-77247142D01*
X157600674Y-77247142D02*
X157514960Y-77289999D01*
X157514960Y-77289999D02*
X157472102Y-77332857D01*
X157472102Y-77332857D02*
X157429245Y-77418571D01*
X157429245Y-77418571D02*
X157386388Y-77589999D01*
X157386388Y-77589999D02*
X157343531Y-77675714D01*
X157343531Y-77675714D02*
X157300674Y-77718571D01*
X157300674Y-77718571D02*
X157214960Y-77761428D01*
X157214960Y-77761428D02*
X157129245Y-77761428D01*
X157129245Y-77761428D02*
X157043531Y-77718571D01*
X157043531Y-77718571D02*
X157000674Y-77675714D01*
X157000674Y-77675714D02*
X156957817Y-77589999D01*
X156957817Y-77589999D02*
X156957817Y-77375714D01*
X156957817Y-77375714D02*
X157000674Y-77247142D01*
X157600674Y-76904285D02*
X157600674Y-76475714D01*
X157857817Y-76989999D02*
X156957817Y-76689999D01*
X156957817Y-76689999D02*
X157857817Y-76389999D01*
X157857817Y-76089999D02*
X156957817Y-76089999D01*
X156957817Y-76089999D02*
X157600674Y-75789999D01*
X157600674Y-75789999D02*
X156957817Y-75489999D01*
X156957817Y-75489999D02*
X157857817Y-75489999D01*
X157857817Y-75061428D02*
X156957817Y-75061428D01*
X156957817Y-75061428D02*
X156957817Y-74847142D01*
X156957817Y-74847142D02*
X157000674Y-74718571D01*
X157000674Y-74718571D02*
X157086388Y-74632856D01*
X157086388Y-74632856D02*
X157172102Y-74589999D01*
X157172102Y-74589999D02*
X157343531Y-74547142D01*
X157343531Y-74547142D02*
X157472102Y-74547142D01*
X157472102Y-74547142D02*
X157643531Y-74589999D01*
X157643531Y-74589999D02*
X157729245Y-74632856D01*
X157729245Y-74632856D02*
X157814960Y-74718571D01*
X157814960Y-74718571D02*
X157857817Y-74847142D01*
X157857817Y-74847142D02*
X157857817Y-75061428D01*
X157043531Y-74204285D02*
X157000674Y-74161428D01*
X157000674Y-74161428D02*
X156957817Y-74075714D01*
X156957817Y-74075714D02*
X156957817Y-73861428D01*
X156957817Y-73861428D02*
X157000674Y-73775714D01*
X157000674Y-73775714D02*
X157043531Y-73732856D01*
X157043531Y-73732856D02*
X157129245Y-73689999D01*
X157129245Y-73689999D02*
X157214960Y-73689999D01*
X157214960Y-73689999D02*
X157343531Y-73732856D01*
X157343531Y-73732856D02*
X157857817Y-74247142D01*
X157857817Y-74247142D02*
X157857817Y-73689999D01*
X157857817Y-72832856D02*
X157857817Y-73347142D01*
X157857817Y-73089999D02*
X156957817Y-73089999D01*
X156957817Y-73089999D02*
X157086388Y-73175713D01*
X157086388Y-73175713D02*
X157172102Y-73261428D01*
X157172102Y-73261428D02*
X157214960Y-73347142D01*
D13*
%TO.C,R16*%
X139310000Y-87630000D02*
X139310000Y-86680000D01*
X138390000Y-86680000D02*
X140230000Y-86680000D01*
X140230000Y-86680000D02*
X140230000Y-82840000D01*
X138390000Y-82840000D02*
X138390000Y-86680000D01*
X140230000Y-82840000D02*
X138390000Y-82840000D01*
X139310000Y-81890000D02*
X139310000Y-82840000D01*
%TO.C,R14*%
X121530000Y-87630000D02*
X121530000Y-86680000D01*
X120610000Y-86680000D02*
X122450000Y-86680000D01*
X122450000Y-86680000D02*
X122450000Y-82840000D01*
X120610000Y-82840000D02*
X120610000Y-86680000D01*
X122450000Y-82840000D02*
X120610000Y-82840000D01*
X121530000Y-81890000D02*
X121530000Y-82840000D01*
%TO.C,R25*%
X122530000Y-75870000D02*
X123480000Y-75870000D01*
X123480000Y-74950000D02*
X123480000Y-76790000D01*
X123480000Y-76790000D02*
X127320000Y-76790000D01*
X127320000Y-74950000D02*
X123480000Y-74950000D01*
X127320000Y-76790000D02*
X127320000Y-74950000D01*
X128270000Y-75870000D02*
X127320000Y-75870000D01*
%TO.C,R6*%
X134290000Y-81890000D02*
X134290000Y-82840000D01*
X135210000Y-82840000D02*
X133370000Y-82840000D01*
X133370000Y-82840000D02*
X133370000Y-86680000D01*
X135210000Y-86680000D02*
X135210000Y-82840000D01*
X133370000Y-86680000D02*
X135210000Y-86680000D01*
X134290000Y-87630000D02*
X134290000Y-86680000D01*
%TO.C,R21*%
X143510000Y-75870000D02*
X142560000Y-75870000D01*
X142560000Y-76790000D02*
X142560000Y-74950000D01*
X142560000Y-74950000D02*
X138720000Y-74950000D01*
X138720000Y-76790000D02*
X142560000Y-76790000D01*
X138720000Y-74950000D02*
X138720000Y-76790000D01*
X137770000Y-75870000D02*
X138720000Y-75870000D01*
%TO.C,J1*%
X110040000Y-97400000D02*
X110040000Y-96070000D01*
X111370000Y-97400000D02*
X110040000Y-97400000D01*
X112640000Y-97400000D02*
X125400000Y-97400000D01*
X112640000Y-97400000D02*
X112640000Y-94740000D01*
X125400000Y-97400000D02*
X125400000Y-94740000D01*
X112640000Y-94740000D02*
X125400000Y-94740000D01*
%TO.C,R23*%
X143180000Y-55220000D02*
X143180000Y-56170000D01*
X144100000Y-56170000D02*
X142260000Y-56170000D01*
X142260000Y-56170000D02*
X142260000Y-60010000D01*
X144100000Y-60010000D02*
X144100000Y-56170000D01*
X142260000Y-60010000D02*
X144100000Y-60010000D01*
X143180000Y-60960000D02*
X143180000Y-60010000D01*
%TO.C,R18*%
X103480000Y-74600000D02*
X104430000Y-74600000D01*
X104430000Y-73680000D02*
X104430000Y-75520000D01*
X104430000Y-75520000D02*
X108270000Y-75520000D01*
X108270000Y-73680000D02*
X104430000Y-73680000D01*
X108270000Y-75520000D02*
X108270000Y-73680000D01*
X109220000Y-74600000D02*
X108270000Y-74600000D01*
%TO.C,R7*%
X136770000Y-81890000D02*
X136770000Y-82840000D01*
X137690000Y-82840000D02*
X135850000Y-82840000D01*
X135850000Y-82840000D02*
X135850000Y-86680000D01*
X137690000Y-86680000D02*
X137690000Y-82840000D01*
X135850000Y-86680000D02*
X137690000Y-86680000D01*
X136770000Y-87630000D02*
X136770000Y-86680000D01*
%TO.C,R8*%
X141850000Y-81890000D02*
X141850000Y-82840000D01*
X142770000Y-82840000D02*
X140930000Y-82840000D01*
X140930000Y-82840000D02*
X140930000Y-86680000D01*
X142770000Y-86680000D02*
X142770000Y-82840000D01*
X140930000Y-86680000D02*
X142770000Y-86680000D01*
X141850000Y-87630000D02*
X141850000Y-86680000D01*
%TO.C,R5*%
X129150000Y-81890000D02*
X129150000Y-82840000D01*
X130070000Y-82840000D02*
X128230000Y-82840000D01*
X128230000Y-82840000D02*
X128230000Y-86680000D01*
X130070000Y-86680000D02*
X130070000Y-82840000D01*
X128230000Y-86680000D02*
X130070000Y-86680000D01*
X129150000Y-87630000D02*
X129150000Y-86680000D01*
%TO.C,R26*%
X119380000Y-53010000D02*
X118430000Y-53010000D01*
X118430000Y-53930000D02*
X118430000Y-52090000D01*
X118430000Y-52090000D02*
X114590000Y-52090000D01*
X114590000Y-53930000D02*
X118430000Y-53930000D01*
X114590000Y-52090000D02*
X114590000Y-53930000D01*
X113640000Y-53010000D02*
X114590000Y-53010000D01*
%TO.C,R11*%
X138100000Y-72390000D02*
X138100000Y-71440000D01*
X137180000Y-71440000D02*
X139020000Y-71440000D01*
X139020000Y-71440000D02*
X139020000Y-67600000D01*
X137180000Y-67600000D02*
X137180000Y-71440000D01*
X139020000Y-67600000D02*
X137180000Y-67600000D01*
X138100000Y-66650000D02*
X138100000Y-67600000D01*
%TO.C,R4*%
X124070000Y-81890000D02*
X124070000Y-82840000D01*
X124990000Y-82840000D02*
X123150000Y-82840000D01*
X123150000Y-82840000D02*
X123150000Y-86680000D01*
X124990000Y-86680000D02*
X124990000Y-82840000D01*
X123150000Y-86680000D02*
X124990000Y-86680000D01*
X124070000Y-87630000D02*
X124070000Y-86680000D01*
%TO.C,R2*%
X116450000Y-81890000D02*
X116450000Y-82840000D01*
X117370000Y-82840000D02*
X115530000Y-82840000D01*
X115530000Y-82840000D02*
X115530000Y-86680000D01*
X117370000Y-86680000D02*
X117370000Y-82840000D01*
X115530000Y-86680000D02*
X117370000Y-86680000D01*
X116450000Y-87630000D02*
X116450000Y-86680000D01*
%TO.C,R1*%
X111430000Y-81890000D02*
X111430000Y-82840000D01*
X112350000Y-82840000D02*
X110510000Y-82840000D01*
X110510000Y-82840000D02*
X110510000Y-86680000D01*
X112350000Y-86680000D02*
X112350000Y-82840000D01*
X110510000Y-86680000D02*
X112350000Y-86680000D01*
X111430000Y-87630000D02*
X111430000Y-86680000D01*
%TO.C,J2*%
X127820000Y-97400000D02*
X127820000Y-96070000D01*
X129150000Y-97400000D02*
X127820000Y-97400000D01*
X130420000Y-97400000D02*
X143180000Y-97400000D01*
X130420000Y-97400000D02*
X130420000Y-94740000D01*
X143180000Y-97400000D02*
X143180000Y-94740000D01*
X130420000Y-94740000D02*
X143180000Y-94740000D01*
%TO.C,J5*%
X166100000Y-63110000D02*
X166100000Y-64440000D01*
X164770000Y-63110000D02*
X166100000Y-63110000D01*
X163500000Y-63110000D02*
X148200000Y-63110000D01*
X163500000Y-63110000D02*
X163500000Y-65770000D01*
X148200000Y-63110000D02*
X148200000Y-65770000D01*
X163500000Y-65770000D02*
X148200000Y-65770000D01*
%TO.C,R19*%
X157480000Y-56820000D02*
X156530000Y-56820000D01*
X156530000Y-57740000D02*
X156530000Y-55900000D01*
X156530000Y-55900000D02*
X152690000Y-55900000D01*
X152690000Y-57740000D02*
X156530000Y-57740000D01*
X152690000Y-55900000D02*
X152690000Y-57740000D01*
X151740000Y-56820000D02*
X152690000Y-56820000D01*
%TO.C,R20*%
X156210000Y-60630000D02*
X155260000Y-60630000D01*
X155260000Y-61550000D02*
X155260000Y-59710000D01*
X155260000Y-59710000D02*
X151420000Y-59710000D01*
X151420000Y-61550000D02*
X155260000Y-61550000D01*
X151420000Y-59710000D02*
X151420000Y-61550000D01*
X150470000Y-60630000D02*
X151420000Y-60630000D01*
%TO.C,R12*%
X139370000Y-55220000D02*
X139370000Y-56170000D01*
X140290000Y-56170000D02*
X138450000Y-56170000D01*
X138450000Y-56170000D02*
X138450000Y-60010000D01*
X140290000Y-60010000D02*
X140290000Y-56170000D01*
X138450000Y-60010000D02*
X140290000Y-60010000D01*
X139370000Y-60960000D02*
X139370000Y-60010000D01*
%TO.C,R15*%
X131690000Y-87630000D02*
X131690000Y-86680000D01*
X130770000Y-86680000D02*
X132610000Y-86680000D01*
X132610000Y-86680000D02*
X132610000Y-82840000D01*
X130770000Y-82840000D02*
X130770000Y-86680000D01*
X132610000Y-82840000D02*
X130770000Y-82840000D01*
X131690000Y-81890000D02*
X131690000Y-82840000D01*
%TO.C,R17*%
X109220000Y-61900000D02*
X108270000Y-61900000D01*
X108270000Y-62820000D02*
X108270000Y-60980000D01*
X108270000Y-60980000D02*
X104430000Y-60980000D01*
X104430000Y-62820000D02*
X108270000Y-62820000D01*
X104430000Y-60980000D02*
X104430000Y-62820000D01*
X103480000Y-61900000D02*
X104430000Y-61900000D01*
%TO.C,R3*%
X118990000Y-81890000D02*
X118990000Y-82840000D01*
X119910000Y-82840000D02*
X118070000Y-82840000D01*
X118070000Y-82840000D02*
X118070000Y-86680000D01*
X119910000Y-86680000D02*
X119910000Y-82840000D01*
X118070000Y-86680000D02*
X119910000Y-86680000D01*
X118990000Y-87630000D02*
X118990000Y-86680000D01*
%TO.C,R10*%
X121590000Y-72390000D02*
X121590000Y-71440000D01*
X120670000Y-71440000D02*
X122510000Y-71440000D01*
X122510000Y-71440000D02*
X122510000Y-67600000D01*
X120670000Y-67600000D02*
X120670000Y-71440000D01*
X122510000Y-67600000D02*
X120670000Y-67600000D01*
X121590000Y-66650000D02*
X121590000Y-67600000D01*
%TO.C,R9*%
X122860000Y-53950000D02*
X122860000Y-54900000D01*
X123780000Y-54900000D02*
X121940000Y-54900000D01*
X121940000Y-54900000D02*
X121940000Y-58740000D01*
X123780000Y-58740000D02*
X123780000Y-54900000D01*
X121940000Y-58740000D02*
X123780000Y-58740000D01*
X122860000Y-59690000D02*
X122860000Y-58740000D01*
%TO.C,U1*%
X127830000Y-55490000D02*
X127830000Y-73390000D01*
X127830000Y-73390000D02*
X133130000Y-73390000D01*
X129480000Y-55490000D02*
X127830000Y-55490000D01*
X133130000Y-55490000D02*
X131480000Y-55490000D01*
X133130000Y-73390000D02*
X133130000Y-55490000D01*
X129480000Y-55490000D02*
G75*
G03*
X131480000Y-55490000I1000000J0D01*
G01*
%TO.C,R24*%
X140640000Y-72390000D02*
X140640000Y-71440000D01*
X139720000Y-71440000D02*
X141560000Y-71440000D01*
X141560000Y-71440000D02*
X141560000Y-67600000D01*
X139720000Y-67600000D02*
X139720000Y-71440000D01*
X141560000Y-67600000D02*
X139720000Y-67600000D01*
X140640000Y-66650000D02*
X140640000Y-67600000D01*
%TO.C,R22*%
X144450000Y-72390000D02*
X144450000Y-71440000D01*
X143530000Y-71440000D02*
X145370000Y-71440000D01*
X145370000Y-71440000D02*
X145370000Y-67600000D01*
X143530000Y-67600000D02*
X143530000Y-71440000D01*
X145370000Y-67600000D02*
X143530000Y-67600000D01*
X144450000Y-66650000D02*
X144450000Y-67600000D01*
%TO.C,R13*%
X113910000Y-87630000D02*
X113910000Y-86680000D01*
X112990000Y-86680000D02*
X114830000Y-86680000D01*
X114830000Y-86680000D02*
X114830000Y-82840000D01*
X112990000Y-82840000D02*
X112990000Y-86680000D01*
X114830000Y-82840000D02*
X112990000Y-82840000D01*
X113910000Y-81890000D02*
X113910000Y-82840000D01*
%TO.C,J6*%
X148200000Y-91170000D02*
X148200000Y-89840000D01*
X149530000Y-91170000D02*
X148200000Y-91170000D01*
X150800000Y-91170000D02*
X166100000Y-91170000D01*
X150800000Y-91170000D02*
X150800000Y-88510000D01*
X166100000Y-91170000D02*
X166100000Y-88510000D01*
X150800000Y-88510000D02*
X166100000Y-88510000D01*
%TO.C,RV1*%
X111120000Y-73135000D02*
X111120000Y-63365000D01*
X111120000Y-73135000D02*
X101350000Y-73135000D01*
X111120000Y-63365000D02*
X101350000Y-63365000D01*
X101350000Y-73135000D02*
X101350000Y-63365000D01*
D14*
%TO.C,U2*%
X166979800Y-68250000D02*
X146652180Y-68250000D01*
X146652180Y-68250000D02*
X146652180Y-86047780D01*
X167650360Y-68920560D02*
X166979800Y-68250000D01*
D15*
X167734180Y-71933000D02*
X167734180Y-73711000D01*
X165067180Y-71933000D02*
X167734180Y-71933000D01*
X165067180Y-71933000D02*
X165067180Y-73711000D01*
X163670180Y-71933000D02*
X163670180Y-73711000D01*
X161000640Y-71933000D02*
X163670180Y-71933000D01*
X161000640Y-71933000D02*
X161000640Y-73711000D01*
D14*
X161722000Y-72644200D02*
X168252180Y-72644200D01*
X168252180Y-72649280D02*
X168252180Y-81643420D01*
D15*
X165067180Y-73711000D02*
X167734180Y-73711000D01*
X161000640Y-73711000D02*
X163670180Y-73711000D01*
X166972180Y-74600000D02*
X166972180Y-79680000D01*
X164432180Y-74600000D02*
X166972180Y-74600000D01*
X164432180Y-74600000D02*
X164432180Y-79680000D01*
X149827180Y-74600000D02*
X149827180Y-80315000D01*
X147287180Y-74600000D02*
X149827180Y-74600000D01*
X147287180Y-74600000D02*
X147287180Y-80315000D01*
X164432180Y-79680000D02*
X166972180Y-79680000D01*
X147287180Y-80315000D02*
X149827180Y-80315000D01*
X167734180Y-80569000D02*
X167734180Y-82347000D01*
X165067180Y-80569000D02*
X167734180Y-80569000D01*
X165067180Y-80569000D02*
X165067180Y-82347000D01*
X163670180Y-80569000D02*
X163670180Y-82347000D01*
X161000640Y-80569000D02*
X163670180Y-80569000D01*
X161000640Y-80569000D02*
X161000640Y-82347000D01*
D14*
X168252180Y-81643420D02*
X161722000Y-81643420D01*
X161722000Y-81643420D02*
X161722000Y-72644200D01*
D15*
X165067180Y-82347000D02*
X167734180Y-82347000D01*
X161000640Y-82347000D02*
X163670180Y-82347000D01*
D14*
X167650360Y-86047780D02*
X167650360Y-68920560D01*
X146652180Y-86047780D02*
X167650360Y-86047780D01*
D16*
X167099180Y-67361000D02*
G75*
G03*
X167099180Y-67361000I-127000J0D01*
G01*
%TD*%
M02*
