%TF.GenerationSoftware,KiCad,Pcbnew,7.0.7*%
%TF.CreationDate,2024-05-13T13:27:10-04:00*%
%TF.ProjectId,diff-probe-x4-v2,64696666-2d70-4726-9f62-652d78342d76,rev?*%
%TF.SameCoordinates,Original*%
%TF.FileFunction,Soldermask,Bot*%
%TF.FilePolarity,Negative*%
%FSLAX46Y46*%
G04 Gerber Fmt 4.6, Leading zero omitted, Abs format (unit mm)*
G04 Created by KiCad (PCBNEW 7.0.7) date 2024-05-13 13:27:10*
%MOMM*%
%LPD*%
G01*
G04 APERTURE LIST*
G04 Aperture macros list*
%AMRoundRect*
0 Rectangle with rounded corners*
0 $1 Rounding radius*
0 $2 $3 $4 $5 $6 $7 $8 $9 X,Y pos of 4 corners*
0 Add a 4 corners polygon primitive as box body*
4,1,4,$2,$3,$4,$5,$6,$7,$8,$9,$2,$3,0*
0 Add four circle primitives for the rounded corners*
1,1,$1+$1,$2,$3*
1,1,$1+$1,$4,$5*
1,1,$1+$1,$6,$7*
1,1,$1+$1,$8,$9*
0 Add four rect primitives between the rounded corners*
20,1,$1+$1,$2,$3,$4,$5,0*
20,1,$1+$1,$4,$5,$6,$7,0*
20,1,$1+$1,$6,$7,$8,$9,0*
20,1,$1+$1,$8,$9,$2,$3,0*%
G04 Aperture macros list end*
%ADD10C,1.400000*%
%ADD11O,1.400000X1.400000*%
%ADD12R,1.700000X1.700000*%
%ADD13O,1.700000X1.700000*%
%ADD14C,3.200000*%
%ADD15R,1.600000X1.600000*%
%ADD16O,1.600000X1.600000*%
%ADD17C,1.440000*%
%ADD18RoundRect,0.425000X-0.425000X0.925000X-0.425000X-0.925000X0.425000X-0.925000X0.425000X0.925000X0*%
%ADD19RoundRect,0.400000X-0.400000X0.950000X-0.400000X-0.950000X0.400000X-0.950000X0.400000X0.950000X0*%
G04 APERTURE END LIST*
D10*
%TO.C,R16*%
X139310000Y-88570000D03*
D11*
X139310000Y-80950000D03*
%TD*%
D10*
%TO.C,R14*%
X121530000Y-88570000D03*
D11*
X121530000Y-80950000D03*
%TD*%
D10*
%TO.C,R25*%
X121590000Y-75870000D03*
D11*
X129210000Y-75870000D03*
%TD*%
D10*
%TO.C,R6*%
X134290000Y-80950000D03*
D11*
X134290000Y-88570000D03*
%TD*%
D10*
%TO.C,R21*%
X144450000Y-75870000D03*
D11*
X136830000Y-75870000D03*
%TD*%
D12*
%TO.C,J1*%
X111370000Y-96070000D03*
D13*
X113910000Y-96070000D03*
X116450000Y-96070000D03*
X118990000Y-96070000D03*
X121530000Y-96070000D03*
X124070000Y-96070000D03*
%TD*%
D10*
%TO.C,R23*%
X143180000Y-54280000D03*
D11*
X143180000Y-61900000D03*
%TD*%
D10*
%TO.C,R18*%
X102540000Y-74600000D03*
D11*
X110160000Y-74600000D03*
%TD*%
D14*
%TO.C,MH1*%
X153340000Y-97460000D03*
%TD*%
D10*
%TO.C,R7*%
X136770000Y-80950000D03*
D11*
X136770000Y-88570000D03*
%TD*%
D10*
%TO.C,R8*%
X141850000Y-80950000D03*
D11*
X141850000Y-88570000D03*
%TD*%
D10*
%TO.C,R5*%
X129150000Y-80950000D03*
D11*
X129150000Y-88570000D03*
%TD*%
D10*
%TO.C,R26*%
X120320000Y-53010000D03*
D11*
X112700000Y-53010000D03*
%TD*%
D10*
%TO.C,R11*%
X138100000Y-73330000D03*
D11*
X138100000Y-65710000D03*
%TD*%
D10*
%TO.C,R4*%
X124070000Y-80950000D03*
D11*
X124070000Y-88570000D03*
%TD*%
D10*
%TO.C,R2*%
X116450000Y-80950000D03*
D11*
X116450000Y-88570000D03*
%TD*%
D10*
%TO.C,R1*%
X111430000Y-80950000D03*
D11*
X111430000Y-88570000D03*
%TD*%
D12*
%TO.C,J2*%
X129150000Y-96070000D03*
D13*
X131690000Y-96070000D03*
X134230000Y-96070000D03*
X136770000Y-96070000D03*
X139310000Y-96070000D03*
X141850000Y-96070000D03*
%TD*%
D12*
%TO.C,J5*%
X164770000Y-64440000D03*
D13*
X162230000Y-64440000D03*
X159690000Y-64440000D03*
X157150000Y-64440000D03*
X154610000Y-64440000D03*
X152070000Y-64440000D03*
X149530000Y-64440000D03*
%TD*%
D10*
%TO.C,R19*%
X158420000Y-56820000D03*
D11*
X150800000Y-56820000D03*
%TD*%
D10*
%TO.C,R20*%
X157150000Y-60630000D03*
D11*
X149530000Y-60630000D03*
%TD*%
D10*
%TO.C,R12*%
X139370000Y-54280000D03*
D11*
X139370000Y-61900000D03*
%TD*%
D14*
%TO.C,MH2*%
X154610000Y-49200000D03*
%TD*%
D10*
%TO.C,R15*%
X131690000Y-88570000D03*
D11*
X131690000Y-80950000D03*
%TD*%
D14*
%TO.C,MH3*%
X102540000Y-82220000D03*
%TD*%
D10*
%TO.C,R17*%
X110160000Y-61900000D03*
D11*
X102540000Y-61900000D03*
%TD*%
D10*
%TO.C,R3*%
X118990000Y-80950000D03*
D11*
X118990000Y-88570000D03*
%TD*%
D10*
%TO.C,R10*%
X121590000Y-73330000D03*
D11*
X121590000Y-65710000D03*
%TD*%
D10*
%TO.C,R9*%
X122860000Y-53010000D03*
D11*
X122860000Y-60630000D03*
%TD*%
D15*
%TO.C,U1*%
X126670000Y-56820000D03*
D16*
X126670000Y-59360000D03*
X126670000Y-61900000D03*
X126670000Y-64440000D03*
X126670000Y-66980000D03*
X126670000Y-69520000D03*
X126670000Y-72060000D03*
X134290000Y-72060000D03*
X134290000Y-69520000D03*
X134290000Y-66980000D03*
X134290000Y-64440000D03*
X134290000Y-61900000D03*
X134290000Y-59360000D03*
X134290000Y-56820000D03*
%TD*%
D14*
%TO.C,MH4*%
X102540000Y-54280000D03*
%TD*%
D10*
%TO.C,R24*%
X140640000Y-73330000D03*
D11*
X140640000Y-65710000D03*
%TD*%
D10*
%TO.C,R22*%
X144450000Y-73330000D03*
D11*
X144450000Y-65710000D03*
%TD*%
D10*
%TO.C,R13*%
X113910000Y-88570000D03*
D11*
X113910000Y-80950000D03*
%TD*%
D12*
%TO.C,J6*%
X149530000Y-89840000D03*
D13*
X152070000Y-89840000D03*
X154610000Y-89840000D03*
X157150000Y-89840000D03*
X159690000Y-89840000D03*
X162230000Y-89840000D03*
X164770000Y-89840000D03*
%TD*%
D17*
%TO.C,RV1*%
X108890000Y-65710000D03*
X103810000Y-68250000D03*
X108890000Y-70790000D03*
%TD*%
D18*
%TO.C,U2*%
X164770000Y-69020000D03*
X162230000Y-69020000D03*
X159690000Y-69020000D03*
X157150000Y-69020000D03*
X154610000Y-69020000D03*
X152070000Y-69020000D03*
D19*
X149530000Y-69020000D03*
D18*
X149530000Y-85260000D03*
X152070000Y-85260000D03*
X154610000Y-85260000D03*
X157150000Y-85260000D03*
X159690000Y-85260000D03*
X162230000Y-85260000D03*
X164770000Y-85260000D03*
%TD*%
M02*
